%TF.GenerationSoftware,KiCad,Pcbnew,10.0.3*%
%TF.CreationDate,2026-10-03T20:18:42+05:30*%
%TF.ProjectId,BreadboardPowerSupply,42726561-6462-46f6-9172-64506f776572,rev?*%
%TF.SameCoordinates,Original*%
%TF.FileFunction,Soldermask,Top*%
%TF.FilePolarity,Negative*%
%FSLAX46Y46*%
G04 Gerber Fmt 4.6, Leading zero omitted, Abs format (unit mm)*
G04 Created by KiCad (PCBNEW 10.0.3) date 2026-10-03 20:18:42*
%MOMM*%
%LPD*%
G01*
G04 APERTURE LIST*
G04 Aperture macros list*
%AMRoundRect*
0 Rectangle with rounded corners*
0 $1 Rounding radius*
0 $2 $3 $4 $5 $6 $7 $8 $9 X,Y pos of 4 corners*
0 Add a 4 corners polygon primitive as box body*
4,1,4,$2,$3,$4,$5,$6,$7,$8,$9,$2,$3,0*
0 Add four circle primitives for the rounded corners*
1,1,$1+$1,$2,$3*
1,1,$1+$1,$4,$5*
1,1,$1+$1,$6,$7*
1,1,$1+$1,$8,$9*
0 Add four rect primitives between the rounded corners*
20,1,$1+$1,$2,$3,$4,$5,0*
20,1,$1+$1,$4,$5,$6,$7,0*
20,1,$1+$1,$6,$7,$8,$9,0*
20,1,$1+$1,$8,$9,$2,$3,0*%
G04 Aperture macros list end*
%ADD10RoundRect,0.250001X-0.949999X-0.949999X0.949999X-0.949999X0.949999X0.949999X-0.949999X0.949999X0*%
%ADD11C,2.400000*%
%ADD12R,1.800000X1.800000*%
%ADD13C,1.800000*%
%ADD14C,1.400000*%
%ADD15R,1.700000X1.700000*%
%ADD16C,1.700000*%
%ADD17R,1.900000X1.900000*%
%ADD18C,1.900000*%
%ADD19R,3.500000X3.500000*%
%ADD20RoundRect,0.750000X-0.750000X-1.000000X0.750000X-1.000000X0.750000X1.000000X-0.750000X1.000000X0*%
%ADD21RoundRect,0.875000X-0.875000X-0.875000X0.875000X-0.875000X0.875000X0.875000X-0.875000X0.875000X0*%
%ADD22R,1.905000X2.000000*%
%ADD23O,1.905000X2.000000*%
%ADD24C,1.600000*%
G04 APERTURE END LIST*
D10*
%TO.C,J7*%
X137660000Y-110981000D03*
D11*
X142740000Y-110981000D03*
%TD*%
D12*
%TO.C,D1*%
X143170000Y-93500000D03*
D13*
X143170000Y-90960000D03*
%TD*%
D14*
%TO.C,R1*%
X137810000Y-85000000D03*
X145430000Y-85000000D03*
%TD*%
%TO.C,R3*%
X137810000Y-98500000D03*
X145430000Y-98500000D03*
%TD*%
%TO.C,R2*%
X145430000Y-102000000D03*
X137810000Y-102000000D03*
%TD*%
D15*
%TO.C,J2*%
X150000000Y-112776000D03*
D16*
X150000000Y-115316000D03*
%TD*%
D17*
%TO.C,S1*%
X142710000Y-81000000D03*
D18*
X140210000Y-81000000D03*
X137710000Y-81000000D03*
%TD*%
D15*
%TO.C,J3*%
X126460000Y-67000000D03*
D16*
X129000000Y-67000000D03*
X131540000Y-67000000D03*
%TD*%
D19*
%TO.C,J6*%
X137500000Y-91042500D03*
D20*
X131500000Y-91042500D03*
D21*
X134500000Y-95742500D03*
%TD*%
D15*
%TO.C,J4*%
X126960000Y-115000000D03*
D16*
X129500000Y-115000000D03*
X132040000Y-115000000D03*
%TD*%
D22*
%TO.C,U1*%
X126460000Y-81950000D03*
D23*
X129000000Y-81950000D03*
X131540000Y-81950000D03*
%TD*%
D24*
%TO.C,C3*%
X127500000Y-107000000D03*
X125000000Y-107000000D03*
%TD*%
D15*
%TO.C,J1*%
X150000000Y-67000000D03*
D16*
X150000000Y-69540000D03*
%TD*%
D22*
%TO.C,U2*%
X126500000Y-101500000D03*
D23*
X129040000Y-101500000D03*
X131580000Y-101500000D03*
%TD*%
D10*
%TO.C,J5*%
X137660000Y-70630000D03*
D11*
X142740000Y-70630000D03*
%TD*%
D24*
%TO.C,C2*%
X124750000Y-77000000D03*
X127250000Y-77000000D03*
%TD*%
%TO.C,C1*%
X130250000Y-77000000D03*
X132750000Y-77000000D03*
%TD*%
M02*
