M48
; DRILL file KiCad 10.0.3 date 2026-10-03T20:18:47
; FORMAT={-:-/ absolute / metric / decimal}
; #@! TF.CreationDate,2026-10-03T20:18:47+05:30
; #@! TF.GenerationSoftware,Kicad,Pcbnew,10.0.3
; #@! TF.FileFunction,Plated,1,2,PTH
FMAT,2
METRIC
; #@! TA.AperFunction,Plated,PTH,ComponentDrill
T1C0.700
; #@! TA.AperFunction,Plated,PTH,ComponentDrill
T2C0.800
; #@! TA.AperFunction,Plated,PTH,ComponentDrill
T3C0.900
; #@! TA.AperFunction,Plated,PTH,ComponentDrill
T4C1.000
; #@! TA.AperFunction,Plated,PTH,ComponentDrill
T5C1.100
; #@! TA.AperFunction,Plated,PTH,ComponentDrill
T6C1.600
%
G90
G05
T1
X137.81Y-85.0
X137.81Y-98.5
X137.81Y-102.0
X145.43Y-85.0
X145.43Y-98.5
X145.43Y-102.0
T2
X124.75Y-77.0
X125.0Y-107.0
X127.25Y-77.0
X127.5Y-107.0
X130.25Y-77.0
X132.75Y-77.0
T3
X137.71Y-81.0
X140.21Y-81.0
X142.71Y-81.0
X143.17Y-90.96
X143.17Y-93.5
T4
X126.46Y-67.0
X126.96Y-115.0
X129.0Y-67.0
X129.5Y-115.0
X131.54Y-67.0
X132.04Y-115.0
X150.0Y-67.0
X150.0Y-69.54
X150.0Y-112.776
X150.0Y-115.316
T5
X126.46Y-81.95
X126.5Y-101.5
X129.0Y-81.95
X129.04Y-101.5
X131.54Y-81.95
X131.58Y-101.5
T6
X137.66Y-70.63
X137.66Y-110.981
X142.74Y-70.63
X142.74Y-110.981
T4
G00X131.5Y-90.042
M15
G01X131.5Y-92.042
M16
G05
G00X133.5Y-95.742
M15
G01X135.5Y-95.742
M16
G05
G00X137.5Y-90.042
M15
G01X137.5Y-92.042
M16
G05
M30
