%TF.GenerationSoftware,KiCad,Pcbnew,10.0.3*%
%TF.CreationDate,2026-10-03T20:18:42+05:30*%
%TF.ProjectId,BreadboardPowerSupply,42726561-6462-46f6-9172-64506f776572,rev?*%
%TF.SameCoordinates,Original*%
%TF.FileFunction,Copper,L1,Top*%
%TF.FilePolarity,Positive*%
%FSLAX46Y46*%
G04 Gerber Fmt 4.6, Leading zero omitted, Abs format (unit mm)*
G04 Created by KiCad (PCBNEW 10.0.3) date 2026-10-03 20:18:42*
%MOMM*%
%LPD*%
G01*
G04 APERTURE LIST*
G04 Aperture macros list*
%AMRoundRect*
0 Rectangle with rounded corners*
0 $1 Rounding radius*
0 $2 $3 $4 $5 $6 $7 $8 $9 X,Y pos of 4 corners*
0 Add a 4 corners polygon primitive as box body*
4,1,4,$2,$3,$4,$5,$6,$7,$8,$9,$2,$3,0*
0 Add four circle primitives for the rounded corners*
1,1,$1+$1,$2,$3*
1,1,$1+$1,$4,$5*
1,1,$1+$1,$6,$7*
1,1,$1+$1,$8,$9*
0 Add four rect primitives between the rounded corners*
20,1,$1+$1,$2,$3,$4,$5,0*
20,1,$1+$1,$4,$5,$6,$7,0*
20,1,$1+$1,$6,$7,$8,$9,0*
20,1,$1+$1,$8,$9,$2,$3,0*%
G04 Aperture macros list end*
%TA.AperFunction,ComponentPad*%
%ADD10RoundRect,0.250001X-0.949999X-0.949999X0.949999X-0.949999X0.949999X0.949999X-0.949999X0.949999X0*%
%TD*%
%TA.AperFunction,ComponentPad*%
%ADD11C,2.400000*%
%TD*%
%TA.AperFunction,ComponentPad*%
%ADD12R,1.800000X1.800000*%
%TD*%
%TA.AperFunction,ComponentPad*%
%ADD13C,1.800000*%
%TD*%
%TA.AperFunction,ComponentPad*%
%ADD14C,1.400000*%
%TD*%
%TA.AperFunction,ComponentPad*%
%ADD15R,1.700000X1.700000*%
%TD*%
%TA.AperFunction,ComponentPad*%
%ADD16C,1.700000*%
%TD*%
%TA.AperFunction,ComponentPad*%
%ADD17R,1.900000X1.900000*%
%TD*%
%TA.AperFunction,ComponentPad*%
%ADD18C,1.900000*%
%TD*%
%TA.AperFunction,ComponentPad*%
%ADD19R,3.500000X3.500000*%
%TD*%
%TA.AperFunction,ComponentPad*%
%ADD20RoundRect,0.750000X-0.750000X-1.000000X0.750000X-1.000000X0.750000X1.000000X-0.750000X1.000000X0*%
%TD*%
%TA.AperFunction,ComponentPad*%
%ADD21RoundRect,0.875000X-0.875000X-0.875000X0.875000X-0.875000X0.875000X0.875000X-0.875000X0.875000X0*%
%TD*%
%TA.AperFunction,ComponentPad*%
%ADD22R,1.905000X2.000000*%
%TD*%
%TA.AperFunction,ComponentPad*%
%ADD23O,1.905000X2.000000*%
%TD*%
%TA.AperFunction,ComponentPad*%
%ADD24C,1.600000*%
%TD*%
%TA.AperFunction,Conductor*%
%ADD25C,0.200000*%
%TD*%
G04 APERTURE END LIST*
D10*
%TO.P,J7,1,Pin_1_1*%
%TO.N,/PWR_out_bottom*%
X137660000Y-110981000D03*
D11*
%TO.P,J7,2,Pin_2_2*%
%TO.N,GND*%
X142740000Y-110981000D03*
%TD*%
D12*
%TO.P,D1,1,K_1*%
%TO.N,GND*%
X143170000Y-93500000D03*
D13*
%TO.P,D1,2,A_2*%
%TO.N,Net-(D1-A)*%
X143170000Y-90960000D03*
%TD*%
D14*
%TO.P,R1,1*%
%TO.N,Net-(U2-ADJ)*%
X137810000Y-85000000D03*
%TO.P,R1,2*%
%TO.N,/3.3V*%
X145430000Y-85000000D03*
%TD*%
%TO.P,R3,1*%
%TO.N,GND*%
X137810000Y-98500000D03*
%TO.P,R3,2*%
%TO.N,Net-(U2-ADJ)*%
X145430000Y-98500000D03*
%TD*%
%TO.P,R2,1*%
%TO.N,Net-(D1-A)*%
X145430000Y-102000000D03*
%TO.P,R2,2*%
%TO.N,/12V*%
X137810000Y-102000000D03*
%TD*%
D15*
%TO.P,J2,1,Pin_1_1*%
%TO.N,GND*%
X150000000Y-112776000D03*
D16*
%TO.P,J2,2,Pin_2_2*%
%TO.N,/PWR_out_bottom*%
X150000000Y-115316000D03*
%TD*%
D17*
%TO.P,S1,1,~_1*%
%TO.N,/12V*%
X142710000Y-81000000D03*
D18*
%TO.P,S1,2,~_2*%
%TO.N,/PWR_input*%
X140210000Y-81000000D03*
%TO.P,S1,3,~_3*%
%TO.N,unconnected-(S1-~-Pad3)*%
X137710000Y-81000000D03*
%TD*%
D15*
%TO.P,J3,1,Pin_1_1*%
%TO.N,/3.3V*%
X126460000Y-67000000D03*
D16*
%TO.P,J3,2,Pin_2_2*%
%TO.N,/PWR_out_top*%
X129000000Y-67000000D03*
%TO.P,J3,3,Pin_3_3*%
%TO.N,/5V*%
X131540000Y-67000000D03*
%TD*%
D19*
%TO.P,J6,1*%
%TO.N,/PWR_input*%
X137500000Y-91042500D03*
D20*
%TO.P,J6,2*%
%TO.N,GND*%
X131500000Y-91042500D03*
D21*
%TO.P,J6,3*%
X134500000Y-95742500D03*
%TD*%
D15*
%TO.P,J4,1,Pin_1_1*%
%TO.N,/3.3V*%
X126960000Y-115000000D03*
D16*
%TO.P,J4,2,Pin_2_2*%
%TO.N,/PWR_out_bottom*%
X129500000Y-115000000D03*
%TO.P,J4,3,Pin_3_3*%
%TO.N,/5V*%
X132040000Y-115000000D03*
%TD*%
D22*
%TO.P,U1,1,VI_1*%
%TO.N,/12V*%
X126460000Y-81950000D03*
D23*
%TO.P,U1,2,GND_2*%
%TO.N,GND*%
X129000000Y-81950000D03*
%TO.P,U1,3,VO_3*%
%TO.N,/5V*%
X131540000Y-81950000D03*
%TD*%
D24*
%TO.P,C3,1*%
%TO.N,/3.3V*%
X127500000Y-107000000D03*
%TO.P,C3,2*%
%TO.N,GND*%
X125000000Y-107000000D03*
%TD*%
D15*
%TO.P,J1,1,Pin_1_1*%
%TO.N,GND*%
X150000000Y-67000000D03*
D16*
%TO.P,J1,2,Pin_2_2*%
%TO.N,/PWR_out_top*%
X150000000Y-69540000D03*
%TD*%
D22*
%TO.P,U2,1,ADJ_1*%
%TO.N,Net-(U2-ADJ)*%
X126500000Y-101500000D03*
D23*
%TO.P,U2,2,VO_2*%
%TO.N,/3.3V*%
X129040000Y-101500000D03*
%TO.P,U2,3,VI_3*%
%TO.N,/12V*%
X131580000Y-101500000D03*
%TD*%
D10*
%TO.P,J5,1,Pin_1_1*%
%TO.N,/PWR_out_top*%
X137660000Y-70630000D03*
D11*
%TO.P,J5,2,Pin_2_2*%
%TO.N,GND*%
X142740000Y-70630000D03*
%TD*%
D24*
%TO.P,C2,1*%
%TO.N,/5V*%
X124750000Y-77000000D03*
%TO.P,C2,2*%
%TO.N,GND*%
X127250000Y-77000000D03*
%TD*%
%TO.P,C1,1*%
%TO.N,/12V*%
X130250000Y-77000000D03*
%TO.P,C1,2*%
%TO.N,GND*%
X132750000Y-77000000D03*
%TD*%
%TO.N,Net-(D1-A)*%
D25*
X144970000Y-90960000D02*
X147736000Y-93726000D01*
X147736000Y-93726000D02*
X147736000Y-99694000D01*
X147736000Y-99694000D02*
X145430000Y-102000000D01*
X143170000Y-90960000D02*
X144970000Y-90960000D01*
%TO.N,Net-(U2-ADJ)*%
X135128000Y-99002314D02*
X135128000Y-101346000D01*
X136906000Y-97224314D02*
X135128000Y-99002314D01*
X140298000Y-103632000D02*
X145430000Y-98500000D01*
X137810000Y-85000000D02*
X135450000Y-87360000D01*
X126500000Y-100772315D02*
X128358315Y-98914000D01*
X135450000Y-87360000D02*
X135450000Y-93051686D01*
X135450000Y-93051686D02*
X136906000Y-94507686D01*
X132696000Y-98914000D02*
X135128000Y-101346000D01*
X137414000Y-103632000D02*
X140298000Y-103632000D01*
X126500000Y-101500000D02*
X126500000Y-100772315D01*
X128358315Y-98914000D02*
X132696000Y-98914000D01*
X135128000Y-101346000D02*
X137414000Y-103632000D01*
X136906000Y-94507686D02*
X136906000Y-97224314D01*
%TO.N,/3.3V*%
X145430000Y-81220000D02*
X132690000Y-68480000D01*
X126746000Y-103886000D02*
X127500000Y-104640000D01*
X126960000Y-111974000D02*
X126960000Y-115000000D01*
X125730000Y-108770000D02*
X125730000Y-110744000D01*
X129032000Y-105468000D02*
X129032000Y-103886000D01*
X130390000Y-67730000D02*
X129032000Y-69088000D01*
X127500000Y-107000000D02*
X129032000Y-105468000D01*
X126746000Y-103886000D02*
X125222000Y-103886000D01*
X127500000Y-107000000D02*
X125730000Y-108770000D01*
X129032000Y-103886000D02*
X129040000Y-103878000D01*
X123536000Y-69924000D02*
X126460000Y-67000000D01*
X145430000Y-85000000D02*
X145430000Y-81220000D01*
X130556000Y-65786000D02*
X130390000Y-65952000D01*
X132080000Y-65786000D02*
X130556000Y-65786000D01*
X126460000Y-68294000D02*
X126460000Y-67000000D01*
X125730000Y-110744000D02*
X126960000Y-111974000D01*
X132690000Y-68480000D02*
X132690000Y-66396000D01*
X123536000Y-102200000D02*
X123536000Y-69924000D01*
X130390000Y-65952000D02*
X130390000Y-67730000D01*
X127500000Y-104640000D02*
X127500000Y-107000000D01*
X132690000Y-66396000D02*
X132080000Y-65786000D01*
X125222000Y-103886000D02*
X123536000Y-102200000D01*
X129040000Y-103878000D02*
X129040000Y-101500000D01*
X129032000Y-69088000D02*
X127254000Y-69088000D01*
X127254000Y-69088000D02*
X126460000Y-68294000D01*
%TO.N,/12V*%
X140886050Y-104564050D02*
X146558000Y-98892101D01*
X130250000Y-78160000D02*
X126460000Y-81950000D01*
X137160000Y-104648000D02*
X140802100Y-104648000D01*
X139446000Y-96266000D02*
X138430000Y-96266000D01*
X146558000Y-98892101D02*
X146558000Y-97536000D01*
X143036000Y-96774000D02*
X137810000Y-102000000D01*
X130250000Y-77000000D02*
X131350000Y-75900000D01*
X136798000Y-102000000D02*
X137810000Y-102000000D01*
X131580000Y-101500000D02*
X134012000Y-101500000D01*
X142710000Y-82004000D02*
X144370000Y-83664000D01*
X135890000Y-101092000D02*
X136798000Y-102000000D01*
X139550000Y-96162000D02*
X139446000Y-96266000D01*
X140802100Y-104648000D02*
X140886050Y-104564050D01*
X137610000Y-75900000D02*
X142710000Y-81000000D01*
X138430000Y-96266000D02*
X135890000Y-98806000D01*
X130250000Y-77000000D02*
X130250000Y-78160000D01*
X131350000Y-75900000D02*
X137610000Y-75900000D01*
X142710000Y-81000000D02*
X142710000Y-82004000D01*
X144370000Y-86516000D02*
X139550000Y-91336000D01*
X134012000Y-101500000D02*
X137160000Y-104648000D01*
X144370000Y-83664000D02*
X144370000Y-86516000D01*
X145796000Y-96774000D02*
X143036000Y-96774000D01*
X139550000Y-91336000D02*
X139550000Y-96162000D01*
X135890000Y-98806000D02*
X135890000Y-101092000D01*
X146558000Y-97536000D02*
X145796000Y-96774000D01*
%TO.N,/PWR_input*%
X140210000Y-88332500D02*
X137500000Y-91042500D01*
X140210000Y-81000000D02*
X140210000Y-88332500D01*
%TO.N,/5V*%
X124750000Y-75148000D02*
X124750000Y-77000000D01*
X124206000Y-92710000D02*
X124206000Y-102108000D01*
X131540000Y-85376000D02*
X124206000Y-92710000D01*
X131540000Y-68358000D02*
X124750000Y-75148000D01*
X128524000Y-99314000D02*
X129286000Y-99314000D01*
X124750000Y-82792500D02*
X125207500Y-83250000D01*
X130302000Y-113262000D02*
X132040000Y-115000000D01*
X124750000Y-77000000D02*
X124750000Y-82792500D01*
X125207500Y-83250000D02*
X130240000Y-83250000D01*
X127762000Y-102616000D02*
X127762000Y-100076000D01*
X125476000Y-103378000D02*
X127000000Y-103378000D01*
X130240000Y-83250000D02*
X131540000Y-81950000D01*
X131540000Y-67000000D02*
X131540000Y-68358000D01*
X124206000Y-102108000D02*
X125476000Y-103378000D01*
X127762000Y-100076000D02*
X128524000Y-99314000D01*
X129286000Y-99314000D02*
X130302000Y-100330000D01*
X131540000Y-81950000D02*
X131540000Y-85376000D01*
X130302000Y-100330000D02*
X130302000Y-113262000D01*
X127000000Y-103378000D02*
X127762000Y-102616000D01*
%TO.N,/PWR_out_top*%
X148270000Y-67810000D02*
X137660000Y-67810000D01*
X129773919Y-65024000D02*
X134874000Y-65024000D01*
X129000000Y-66776314D02*
X129000000Y-67000000D01*
X150000000Y-69540000D02*
X148270000Y-67810000D01*
X129000000Y-67000000D02*
X129000000Y-65797919D01*
X134874000Y-65024000D02*
X137660000Y-67810000D01*
X137660000Y-67810000D02*
X137660000Y-70064314D01*
X137660000Y-70064314D02*
X137377157Y-70347157D01*
X129000000Y-65797919D02*
X129773919Y-65024000D01*
%TO.N,/PWR_out_bottom*%
X129500000Y-115000000D02*
X131248000Y-116748000D01*
X131248000Y-116748000D02*
X134366000Y-116748000D01*
X135242500Y-113398500D02*
X137377158Y-111263842D01*
X136906000Y-115316000D02*
X135242500Y-113652500D01*
X150000000Y-115316000D02*
X136906000Y-115316000D01*
X135242500Y-113652500D02*
X135242500Y-113398500D01*
X134366000Y-114275000D02*
X135242500Y-113398500D01*
X134366000Y-116748000D02*
X134366000Y-114275000D01*
X138060000Y-111390000D02*
X138060000Y-110981000D01*
%TD*%
M02*
