%TF.GenerationSoftware,KiCad,Pcbnew,10.0.3*%
%TF.CreationDate,2026-10-03T20:16:30+05:30*%
%TF.ProjectId,Project-02-Solar-Power-Supply,50726f6a-6563-4742-9d30-322d536f6c61,rev?*%
%TF.SameCoordinates,Original*%
%TF.FileFunction,Copper,L1,Top*%
%TF.FilePolarity,Positive*%
%FSLAX46Y46*%
G04 Gerber Fmt 4.6, Leading zero omitted, Abs format (unit mm)*
G04 Created by KiCad (PCBNEW 10.0.3) date 2026-10-03 20:16:30*
%MOMM*%
%LPD*%
G01*
G04 APERTURE LIST*
G04 Aperture macros list*
%AMRoundRect*
0 Rectangle with rounded corners*
0 $1 Rounding radius*
0 $2 $3 $4 $5 $6 $7 $8 $9 X,Y pos of 4 corners*
0 Add a 4 corners polygon primitive as box body*
4,1,4,$2,$3,$4,$5,$6,$7,$8,$9,$2,$3,0*
0 Add four circle primitives for the rounded corners*
1,1,$1+$1,$2,$3*
1,1,$1+$1,$4,$5*
1,1,$1+$1,$6,$7*
1,1,$1+$1,$8,$9*
0 Add four rect primitives between the rounded corners*
20,1,$1+$1,$2,$3,$4,$5,0*
20,1,$1+$1,$4,$5,$6,$7,0*
20,1,$1+$1,$6,$7,$8,$9,0*
20,1,$1+$1,$8,$9,$2,$3,0*%
G04 Aperture macros list end*
%TA.AperFunction,SMDPad,CuDef*%
%ADD10R,1.181100X0.558800*%
%TD*%
%TA.AperFunction,SMDPad,CuDef*%
%ADD11RoundRect,0.150000X-0.587500X-0.150000X0.587500X-0.150000X0.587500X0.150000X-0.587500X0.150000X0*%
%TD*%
%TA.AperFunction,SMDPad,CuDef*%
%ADD12RoundRect,0.250000X0.325000X0.650000X-0.325000X0.650000X-0.325000X-0.650000X0.325000X-0.650000X0*%
%TD*%
%TA.AperFunction,ComponentPad*%
%ADD13RoundRect,0.250000X0.550000X0.550000X-0.550000X0.550000X-0.550000X-0.550000X0.550000X-0.550000X0*%
%TD*%
%TA.AperFunction,ComponentPad*%
%ADD14C,1.600000*%
%TD*%
%TA.AperFunction,ComponentPad*%
%ADD15R,1.700000X1.700000*%
%TD*%
%TA.AperFunction,ComponentPad*%
%ADD16C,1.700000*%
%TD*%
%TA.AperFunction,SMDPad,CuDef*%
%ADD17RoundRect,0.250000X-0.250000X-0.475000X0.250000X-0.475000X0.250000X0.475000X-0.250000X0.475000X0*%
%TD*%
%TA.AperFunction,SMDPad,CuDef*%
%ADD18RoundRect,0.250000X0.262500X0.450000X-0.262500X0.450000X-0.262500X-0.450000X0.262500X-0.450000X0*%
%TD*%
%TA.AperFunction,SMDPad,CuDef*%
%ADD19RoundRect,0.250000X1.000000X0.650000X-1.000000X0.650000X-1.000000X-0.650000X1.000000X-0.650000X0*%
%TD*%
%TA.AperFunction,SMDPad,CuDef*%
%ADD20R,3.302000X2.667000*%
%TD*%
%TA.AperFunction,SMDPad,CuDef*%
%ADD21RoundRect,0.250000X-0.262500X-0.450000X0.262500X-0.450000X0.262500X0.450000X-0.262500X0.450000X0*%
%TD*%
%TA.AperFunction,ViaPad*%
%ADD22C,0.600000*%
%TD*%
%TA.AperFunction,Conductor*%
%ADD23C,0.200000*%
%TD*%
%TA.AperFunction,Conductor*%
%ADD24C,0.350000*%
%TD*%
G04 APERTURE END LIST*
D10*
%TO.P,U1,1,SW_1*%
%TO.N,Net-(D1-A)*%
X81070450Y-65358930D03*
%TO.P,U1,2,GND_2*%
%TO.N,GNDD*%
X81070450Y-64408929D03*
%TO.P,U1,3,FB_3*%
%TO.N,Net-(U1-FB)*%
X81070450Y-63458928D03*
%TO.P,U1,4,SHDN_4*%
%TO.N,Net-(Q1-D)*%
X78339950Y-63458928D03*
%TO.P,U1,5,VIN_5*%
%TO.N,Net-(J3-Pin_1)*%
X78339950Y-65358930D03*
%TD*%
D11*
%TO.P,Q1,1,G_1*%
%TO.N,/SOLAR_P*%
X68099700Y-71332929D03*
%TO.P,Q1,2,S_2*%
%TO.N,GNDD*%
X68099700Y-73232929D03*
%TO.P,Q1,3,D_3*%
%TO.N,Net-(Q1-D)*%
X69974700Y-72282929D03*
%TD*%
D12*
%TO.P,C2,1*%
%TO.N,/OUT_P*%
X82196200Y-73806929D03*
%TO.P,C2,2*%
%TO.N,GNDD*%
X79246200Y-73806929D03*
%TD*%
D13*
%TO.P,J3,1,Pin_1_1*%
%TO.N,Net-(J3-Pin_1)*%
X75344700Y-64904429D03*
D14*
%TO.P,J3,2,Pin_2_2*%
%TO.N,/BAT_P*%
X67724700Y-64904429D03*
%TD*%
D15*
%TO.P,J1,1,Pin_1_1*%
%TO.N,GNDD*%
X93421200Y-63926329D03*
D16*
%TO.P,J1,2,Pin_2_2*%
%TO.N,/OUT_P*%
X93421200Y-66466329D03*
%TD*%
D17*
%TO.P,C3,1*%
%TO.N,/OUT_P*%
X86629200Y-73806929D03*
%TO.P,C3,2*%
%TO.N,Net-(U1-FB)*%
X88529200Y-73806929D03*
%TD*%
D18*
%TO.P,R3,1*%
%TO.N,Net-(J3-Pin_1)*%
X76807700Y-69488929D03*
%TO.P,R3,2*%
%TO.N,Net-(Q1-D)*%
X74982700Y-69488929D03*
%TD*%
D15*
%TO.P,J4,1,Pin_1_1*%
%TO.N,/SOLAR_P*%
X64024200Y-63900929D03*
D16*
%TO.P,J4,2,Pin_2_2*%
%TO.N,GNDD*%
X64024200Y-61360929D03*
%TD*%
D19*
%TO.P,D2,1,K_1*%
%TO.N,/BAT_P*%
X72307200Y-58820929D03*
%TO.P,D2,2,A_2*%
%TO.N,/SOLAR_P*%
X68307200Y-58820929D03*
%TD*%
%TO.P,D1,1,K_1*%
%TO.N,/OUT_P*%
X80435200Y-59074929D03*
%TO.P,D1,2,A_2*%
%TO.N,Net-(D1-A)*%
X76435200Y-59074929D03*
%TD*%
D17*
%TO.P,C1,1*%
%TO.N,Net-(J3-Pin_1)*%
X87645200Y-69488929D03*
%TO.P,C1,2*%
%TO.N,GNDD*%
X89545200Y-69488929D03*
%TD*%
D20*
%TO.P,L1,1,1_1*%
%TO.N,Net-(D1-A)*%
X86817200Y-59049529D03*
%TO.P,L1,2,2_2*%
%TO.N,Net-(J3-Pin_1)*%
X86817200Y-64180329D03*
%TD*%
D15*
%TO.P,J2,1,Pin_1_1*%
%TO.N,/BAT_P*%
X64024200Y-70535329D03*
D16*
%TO.P,J2,2,Pin_2_2*%
%TO.N,GNDD*%
X64024200Y-67995329D03*
%TD*%
D21*
%TO.P,R4,1*%
%TO.N,/SOLAR_P*%
X74220700Y-73806929D03*
%TO.P,R4,2*%
%TO.N,GNDD*%
X76045700Y-73806929D03*
%TD*%
D18*
%TO.P,R1,1*%
%TO.N,/OUT_P*%
X85189700Y-69488929D03*
%TO.P,R1,2*%
%TO.N,Net-(U1-FB)*%
X83364700Y-69488929D03*
%TD*%
%TO.P,R2,1*%
%TO.N,Net-(U1-FB)*%
X81125700Y-69488929D03*
%TO.P,R2,2*%
%TO.N,GNDD*%
X79300700Y-69488929D03*
%TD*%
D22*
%TO.N,Net-(J3-Pin_1)*%
X83515200Y-66694929D03*
X78943200Y-66694929D03*
%TO.N,GNDD*%
X74117200Y-72282929D03*
X77673200Y-73806929D03*
X90373200Y-66948929D03*
X81483200Y-62376929D03*
X79300700Y-71520929D03*
%TD*%
%TO.N,Net-(J3-Pin_1)*%
D23*
X78339950Y-65358930D02*
X75799201Y-65358930D01*
X78435200Y-66694929D02*
X78339950Y-66599679D01*
X84302600Y-66694929D02*
X83515200Y-66694929D01*
X78943200Y-66694929D02*
X78435200Y-66694929D01*
X87645200Y-65008329D02*
X86817200Y-64180329D01*
X86817200Y-64180329D02*
X84302600Y-66694929D01*
X76807700Y-69488929D02*
X76807700Y-66367429D01*
X78339950Y-66599679D02*
X78339950Y-65358930D01*
X76807700Y-66367429D02*
X75344700Y-64904429D01*
X87645200Y-69488929D02*
X87645200Y-65008329D01*
X75799201Y-65358930D02*
X75344700Y-64904429D01*
%TO.N,GNDD*%
X79300700Y-71520929D02*
X79300700Y-73752429D01*
X79300700Y-69488929D02*
X79300700Y-71520929D01*
X71389200Y-73232929D02*
X72339200Y-72282929D01*
X68099700Y-73232929D02*
X71389200Y-73232929D01*
X76045700Y-72941429D02*
X76045700Y-73806929D01*
X89545200Y-69488929D02*
X89545200Y-67776929D01*
X72339200Y-72282929D02*
X74117200Y-72282929D01*
X81961000Y-64308929D02*
X81961000Y-62854729D01*
X89545200Y-67776929D02*
X90373200Y-66948929D01*
X77673200Y-73806929D02*
X79246200Y-73806929D01*
X81961000Y-62854729D02*
X81483200Y-62376929D01*
X81070450Y-64408929D02*
X81861000Y-64408929D01*
X81861000Y-64408929D02*
X81961000Y-64308929D01*
X74117200Y-72282929D02*
X75387200Y-72282929D01*
X76045700Y-73806929D02*
X77673200Y-73806929D01*
X75387200Y-72282929D02*
X76045700Y-72941429D01*
X79300700Y-73752429D02*
X79246200Y-73806929D01*
%TO.N,/OUT_P*%
D24*
X93421200Y-68218929D02*
X89357200Y-72282929D01*
X93421200Y-66466329D02*
X93421200Y-68218929D01*
X88087200Y-72348929D02*
X86629200Y-73806929D01*
X88087200Y-72282929D02*
X88087200Y-72348929D01*
X82196200Y-73806929D02*
X82196200Y-72482429D01*
X82836390Y-61476119D02*
X82836390Y-67135619D01*
X80435200Y-59074929D02*
X82836390Y-61476119D01*
X82196200Y-73806929D02*
X86629200Y-73806929D01*
X82836390Y-67135619D02*
X85189700Y-69488929D01*
X82196200Y-72482429D02*
X85189700Y-69488929D01*
X89357200Y-72282929D02*
X88087200Y-72282929D01*
%TO.N,Net-(U1-FB)*%
D23*
X81483200Y-67964929D02*
X82753200Y-67964929D01*
X80467200Y-72386429D02*
X83364700Y-69488929D01*
X80467200Y-74822929D02*
X80467200Y-72386429D01*
X88529200Y-73806929D02*
X87005200Y-75330929D01*
X80975200Y-75330929D02*
X80467200Y-74822929D01*
X79451200Y-67197458D02*
X79705200Y-66943458D01*
X79705200Y-66943458D02*
X79705200Y-66446400D01*
X81125700Y-69488929D02*
X81125700Y-68322429D01*
X79451200Y-66192400D02*
X79451200Y-64408929D01*
X82753200Y-67964929D02*
X83364700Y-68576429D01*
X80401201Y-63458928D02*
X81070450Y-63458928D01*
X87005200Y-75330929D02*
X80975200Y-75330929D01*
X79451200Y-67814429D02*
X79451200Y-67197458D01*
X83364700Y-68576429D02*
X83364700Y-69488929D01*
X81125700Y-69488929D02*
X79451200Y-67814429D01*
X79705200Y-66446400D02*
X79451200Y-66192400D01*
X79451200Y-64408929D02*
X80401201Y-63458928D01*
X81125700Y-68322429D02*
X81483200Y-67964929D01*
%TO.N,Net-(D1-A)*%
X78689200Y-56788929D02*
X78689200Y-56820929D01*
X78689200Y-56820929D02*
X76435200Y-59074929D01*
X82057199Y-65358930D02*
X82361390Y-65054739D01*
X81991200Y-61614929D02*
X78975200Y-61614929D01*
X86817200Y-59049529D02*
X84556600Y-56788929D01*
X84556600Y-56788929D02*
X78689200Y-56788929D01*
X78975200Y-61614929D02*
X76435200Y-59074929D01*
X82361390Y-65054739D02*
X82361390Y-61985119D01*
X82361390Y-61985119D02*
X81991200Y-61614929D01*
X81070450Y-65358930D02*
X82057199Y-65358930D01*
%TO.N,/SOLAR_P*%
D24*
X62941200Y-72282929D02*
X61925200Y-71266929D01*
X61925200Y-71266929D02*
X61925200Y-65424929D01*
X64024200Y-63103929D02*
X68307200Y-58820929D01*
X72847200Y-75330929D02*
X68021200Y-75330929D01*
X61925200Y-65424929D02*
X63449200Y-63900929D01*
X64024200Y-63900929D02*
X64024200Y-63103929D01*
X74220700Y-73957429D02*
X72847200Y-75330929D01*
X68099700Y-71332929D02*
X66177200Y-71332929D01*
X74220700Y-73806929D02*
X74220700Y-73957429D01*
X65227200Y-72282929D02*
X64973200Y-72282929D01*
X64973200Y-72282929D02*
X62941200Y-72282929D01*
X68021200Y-75330929D02*
X64973200Y-72282929D01*
X66177200Y-71332929D02*
X65227200Y-72282929D01*
X63449200Y-63900929D02*
X64024200Y-63900929D01*
%TO.N,/BAT_P*%
X67724700Y-64904429D02*
X67724700Y-63403429D01*
X64024200Y-70535329D02*
X67724700Y-66834829D01*
X67724700Y-63403429D02*
X72307200Y-58820929D01*
X67724700Y-66834829D02*
X67724700Y-64904429D01*
%TO.N,Net-(Q1-D)*%
D23*
X74982700Y-69488929D02*
X74982700Y-67814429D01*
X74879200Y-62630929D02*
X77511951Y-62630929D01*
X70815200Y-72282929D02*
X73609200Y-69488929D01*
X73355200Y-66186929D02*
X73355200Y-64154929D01*
X74982700Y-67814429D02*
X73355200Y-66186929D01*
X73609200Y-69488929D02*
X74982700Y-69488929D01*
X73355200Y-64154929D02*
X74879200Y-62630929D01*
X69974700Y-72282929D02*
X70815200Y-72282929D01*
X77511951Y-62630929D02*
X78339950Y-63458928D01*
%TD*%
M02*
