%TF.GenerationSoftware,KiCad,Pcbnew,10.0.3*%
%TF.CreationDate,2026-10-03T20:16:30+05:30*%
%TF.ProjectId,Project-02-Solar-Power-Supply,50726f6a-6563-4742-9d30-322d536f6c61,rev?*%
%TF.SameCoordinates,Original*%
%TF.FileFunction,Copper,L2,Bot*%
%TF.FilePolarity,Positive*%
%FSLAX46Y46*%
G04 Gerber Fmt 4.6, Leading zero omitted, Abs format (unit mm)*
G04 Created by KiCad (PCBNEW 10.0.3) date 2026-10-03 20:16:30*
%MOMM*%
%LPD*%
G01*
G04 APERTURE LIST*
G04 Aperture macros list*
%AMRoundRect*
0 Rectangle with rounded corners*
0 $1 Rounding radius*
0 $2 $3 $4 $5 $6 $7 $8 $9 X,Y pos of 4 corners*
0 Add a 4 corners polygon primitive as box body*
4,1,4,$2,$3,$4,$5,$6,$7,$8,$9,$2,$3,0*
0 Add four circle primitives for the rounded corners*
1,1,$1+$1,$2,$3*
1,1,$1+$1,$4,$5*
1,1,$1+$1,$6,$7*
1,1,$1+$1,$8,$9*
0 Add four rect primitives between the rounded corners*
20,1,$1+$1,$2,$3,$4,$5,0*
20,1,$1+$1,$4,$5,$6,$7,0*
20,1,$1+$1,$6,$7,$8,$9,0*
20,1,$1+$1,$8,$9,$2,$3,0*%
G04 Aperture macros list end*
%TA.AperFunction,ComponentPad*%
%ADD10RoundRect,0.250000X0.550000X0.550000X-0.550000X0.550000X-0.550000X-0.550000X0.550000X-0.550000X0*%
%TD*%
%TA.AperFunction,ComponentPad*%
%ADD11C,1.600000*%
%TD*%
%TA.AperFunction,ComponentPad*%
%ADD12R,1.700000X1.700000*%
%TD*%
%TA.AperFunction,ComponentPad*%
%ADD13C,1.700000*%
%TD*%
%TA.AperFunction,ViaPad*%
%ADD14C,0.600000*%
%TD*%
%TA.AperFunction,Conductor*%
%ADD15C,0.200000*%
%TD*%
G04 APERTURE END LIST*
D10*
%TO.P,J3,1,Pin_1_1*%
%TO.N,Net-(J3-Pin_1)*%
X75344700Y-64904429D03*
D11*
%TO.P,J3,2,Pin_2_2*%
%TO.N,/BAT_P*%
X67724700Y-64904429D03*
%TD*%
D12*
%TO.P,J1,1,Pin_1_1*%
%TO.N,GNDD*%
X93421200Y-63926329D03*
D13*
%TO.P,J1,2,Pin_2_2*%
%TO.N,/OUT_P*%
X93421200Y-66466329D03*
%TD*%
D12*
%TO.P,J4,1,Pin_1_1*%
%TO.N,/SOLAR_P*%
X64024200Y-63900929D03*
D13*
%TO.P,J4,2,Pin_2_2*%
%TO.N,GNDD*%
X64024200Y-61360929D03*
%TD*%
D12*
%TO.P,J2,1,Pin_1_1*%
%TO.N,/BAT_P*%
X64024200Y-70535329D03*
D13*
%TO.P,J2,2,Pin_2_2*%
%TO.N,GNDD*%
X64024200Y-67995329D03*
%TD*%
D14*
%TO.N,Net-(J3-Pin_1)*%
X83515200Y-66694929D03*
X78943200Y-66694929D03*
%TO.N,GNDD*%
X74117200Y-72282929D03*
X77673200Y-73806929D03*
X90373200Y-66948929D03*
X81483200Y-62376929D03*
X79300700Y-71520929D03*
%TD*%
%TO.N,Net-(J3-Pin_1)*%
D15*
X83515200Y-66694929D02*
X78943200Y-66694929D01*
%TD*%
%TA.AperFunction,Conductor*%
%TO.N,GNDD*%
G36*
X94888239Y-56547114D02*
G01*
X94933994Y-56599918D01*
X94945200Y-56651429D01*
X94945200Y-62770810D01*
X94925515Y-62837849D01*
X94872711Y-62883604D01*
X94803553Y-62893548D01*
X94739997Y-62864523D01*
X94720770Y-62840665D01*
X94719869Y-62841340D01*
X94628390Y-62719141D01*
X94628387Y-62719138D01*
X94513293Y-62632978D01*
X94513286Y-62632974D01*
X94378579Y-62582732D01*
X94378572Y-62582730D01*
X94319044Y-62576329D01*
X93671200Y-62576329D01*
X93671200Y-63493317D01*
X93614193Y-63460404D01*
X93487026Y-63426329D01*
X93355374Y-63426329D01*
X93228207Y-63460404D01*
X93171200Y-63493317D01*
X93171200Y-62576329D01*
X92523355Y-62576329D01*
X92463827Y-62582730D01*
X92463820Y-62582732D01*
X92329113Y-62632974D01*
X92329106Y-62632978D01*
X92214012Y-62719138D01*
X92214009Y-62719141D01*
X92127849Y-62834235D01*
X92127845Y-62834242D01*
X92077603Y-62968949D01*
X92077601Y-62968956D01*
X92071200Y-63028484D01*
X92071200Y-63676329D01*
X92988188Y-63676329D01*
X92955275Y-63733336D01*
X92921200Y-63860503D01*
X92921200Y-63992155D01*
X92955275Y-64119322D01*
X92988188Y-64176329D01*
X92071200Y-64176329D01*
X92071200Y-64824173D01*
X92077601Y-64883701D01*
X92077603Y-64883708D01*
X92127845Y-65018415D01*
X92127849Y-65018422D01*
X92214009Y-65133516D01*
X92214012Y-65133519D01*
X92329106Y-65219679D01*
X92329113Y-65219683D01*
X92460670Y-65268751D01*
X92516604Y-65310622D01*
X92541021Y-65376087D01*
X92526169Y-65444360D01*
X92505019Y-65472614D01*
X92391089Y-65586544D01*
X92266151Y-65758508D01*
X92169644Y-65947914D01*
X92103953Y-66150089D01*
X92070700Y-66360042D01*
X92070700Y-66572615D01*
X92102560Y-66773775D01*
X92103954Y-66782572D01*
X92151346Y-66928430D01*
X92169644Y-66984743D01*
X92266151Y-67174149D01*
X92391090Y-67346115D01*
X92541413Y-67496438D01*
X92713379Y-67621377D01*
X92713381Y-67621378D01*
X92713384Y-67621380D01*
X92902788Y-67717886D01*
X93104957Y-67783575D01*
X93314913Y-67816829D01*
X93314914Y-67816829D01*
X93527486Y-67816829D01*
X93527487Y-67816829D01*
X93737443Y-67783575D01*
X93939612Y-67717886D01*
X94129016Y-67621380D01*
X94165009Y-67595230D01*
X94300986Y-67496438D01*
X94300988Y-67496435D01*
X94300992Y-67496433D01*
X94451304Y-67346121D01*
X94451306Y-67346117D01*
X94451309Y-67346115D01*
X94576248Y-67174149D01*
X94576247Y-67174149D01*
X94576251Y-67174145D01*
X94672757Y-66984741D01*
X94703269Y-66890832D01*
X94742707Y-66833158D01*
X94807065Y-66805960D01*
X94875912Y-66817875D01*
X94927387Y-66865119D01*
X94945200Y-66929152D01*
X94945200Y-75722429D01*
X94925515Y-75789468D01*
X94872711Y-75835223D01*
X94821200Y-75846429D01*
X63065200Y-75846429D01*
X62998161Y-75826744D01*
X62952406Y-75773940D01*
X62941200Y-75722429D01*
X62941200Y-74704637D01*
X62960885Y-74637598D01*
X62964886Y-74631746D01*
X62968227Y-74627148D01*
X63076595Y-74414463D01*
X63150358Y-74187444D01*
X63187700Y-73951680D01*
X63187700Y-73712978D01*
X63150358Y-73477214D01*
X63076595Y-73250195D01*
X62968227Y-73037510D01*
X62964878Y-73032900D01*
X62941402Y-72967092D01*
X62941200Y-72960020D01*
X62941200Y-72003971D01*
X62960885Y-71936932D01*
X63013689Y-71891177D01*
X63078455Y-71880682D01*
X63126327Y-71885829D01*
X64922072Y-71885828D01*
X64981683Y-71879420D01*
X65116531Y-71829125D01*
X65231746Y-71742875D01*
X65317996Y-71627660D01*
X65368291Y-71492812D01*
X65374700Y-71433202D01*
X65374699Y-69637457D01*
X65368291Y-69577846D01*
X65317996Y-69442998D01*
X65317995Y-69442997D01*
X65317993Y-69442993D01*
X65231747Y-69327784D01*
X65231744Y-69327781D01*
X65116535Y-69241535D01*
X65116528Y-69241531D01*
X64981682Y-69191237D01*
X64981683Y-69191237D01*
X64922083Y-69184830D01*
X64922081Y-69184829D01*
X64922073Y-69184829D01*
X64922065Y-69184829D01*
X64911509Y-69184829D01*
X64844470Y-69165144D01*
X64823828Y-69148510D01*
X64153608Y-68478291D01*
X64217193Y-68461254D01*
X64331207Y-68395428D01*
X64424299Y-68302336D01*
X64490125Y-68188322D01*
X64507162Y-68124738D01*
X65139470Y-68757046D01*
X65139470Y-68757045D01*
X65178822Y-68702883D01*
X65275295Y-68513546D01*
X65340957Y-68311459D01*
X65340957Y-68311456D01*
X65374200Y-68101575D01*
X65374200Y-67889082D01*
X65340957Y-67679201D01*
X65340957Y-67679198D01*
X65275295Y-67477111D01*
X65178824Y-67287778D01*
X65139470Y-67233611D01*
X65139469Y-67233611D01*
X64507162Y-67865919D01*
X64490125Y-67802336D01*
X64424299Y-67688322D01*
X64331207Y-67595230D01*
X64217193Y-67529404D01*
X64153609Y-67512366D01*
X64785916Y-66880057D01*
X64731750Y-66840704D01*
X64542417Y-66744233D01*
X64492228Y-66727926D01*
X64340329Y-66678571D01*
X64130446Y-66645329D01*
X63917954Y-66645329D01*
X63708072Y-66678571D01*
X63708069Y-66678571D01*
X63505982Y-66744233D01*
X63316639Y-66840709D01*
X63262482Y-66880056D01*
X63262482Y-66880057D01*
X63894791Y-67512366D01*
X63831207Y-67529404D01*
X63717193Y-67595230D01*
X63624101Y-67688322D01*
X63558275Y-67802336D01*
X63541237Y-67865920D01*
X62941200Y-67265883D01*
X62941200Y-66616082D01*
X78142700Y-66616082D01*
X78142700Y-66773775D01*
X78173461Y-66928418D01*
X78173464Y-66928430D01*
X78233802Y-67074101D01*
X78233809Y-67074114D01*
X78321410Y-67205217D01*
X78321413Y-67205221D01*
X78432907Y-67316715D01*
X78432911Y-67316718D01*
X78564014Y-67404319D01*
X78564027Y-67404326D01*
X78709698Y-67464664D01*
X78709703Y-67464666D01*
X78863855Y-67495329D01*
X78864353Y-67495428D01*
X78864356Y-67495429D01*
X78864358Y-67495429D01*
X79022044Y-67495429D01*
X79022045Y-67495428D01*
X79176697Y-67464666D01*
X79322379Y-67404323D01*
X79322385Y-67404319D01*
X79454075Y-67316327D01*
X79520753Y-67295449D01*
X79522966Y-67295429D01*
X82935434Y-67295429D01*
X83002473Y-67315114D01*
X83004325Y-67316327D01*
X83136014Y-67404319D01*
X83136027Y-67404326D01*
X83281698Y-67464664D01*
X83281703Y-67464666D01*
X83435855Y-67495329D01*
X83436353Y-67495428D01*
X83436356Y-67495429D01*
X83436358Y-67495429D01*
X83594044Y-67495429D01*
X83594045Y-67495428D01*
X83748697Y-67464666D01*
X83894379Y-67404323D01*
X84025489Y-67316718D01*
X84136989Y-67205218D01*
X84224594Y-67074108D01*
X84284937Y-66928426D01*
X84315700Y-66773771D01*
X84315700Y-66616087D01*
X84315700Y-66616084D01*
X84315699Y-66616082D01*
X84284938Y-66461439D01*
X84284937Y-66461432D01*
X84284935Y-66461427D01*
X84224597Y-66315756D01*
X84224590Y-66315743D01*
X84136989Y-66184640D01*
X84136986Y-66184636D01*
X84025492Y-66073142D01*
X84025488Y-66073139D01*
X83894385Y-65985538D01*
X83894372Y-65985531D01*
X83748701Y-65925193D01*
X83748689Y-65925190D01*
X83594045Y-65894429D01*
X83594042Y-65894429D01*
X83436358Y-65894429D01*
X83436355Y-65894429D01*
X83281710Y-65925190D01*
X83281698Y-65925193D01*
X83136027Y-65985531D01*
X83136014Y-65985538D01*
X83004325Y-66073531D01*
X82937647Y-66094409D01*
X82935434Y-66094429D01*
X79522966Y-66094429D01*
X79455927Y-66074744D01*
X79454075Y-66073531D01*
X79322385Y-65985538D01*
X79322372Y-65985531D01*
X79176701Y-65925193D01*
X79176689Y-65925190D01*
X79022045Y-65894429D01*
X79022042Y-65894429D01*
X78864358Y-65894429D01*
X78864355Y-65894429D01*
X78709710Y-65925190D01*
X78709698Y-65925193D01*
X78564027Y-65985531D01*
X78564014Y-65985538D01*
X78432911Y-66073139D01*
X78432907Y-66073142D01*
X78321413Y-66184636D01*
X78321410Y-66184640D01*
X78233809Y-66315743D01*
X78233802Y-66315756D01*
X78173464Y-66461427D01*
X78173461Y-66461439D01*
X78142700Y-66616082D01*
X62941200Y-66616082D01*
X62941200Y-65369571D01*
X62960885Y-65302532D01*
X63013689Y-65256777D01*
X63078455Y-65246282D01*
X63126327Y-65251429D01*
X64922072Y-65251428D01*
X64981683Y-65245020D01*
X65116531Y-65194725D01*
X65231746Y-65108475D01*
X65317996Y-64993260D01*
X65368291Y-64858412D01*
X65374348Y-64802077D01*
X66424200Y-64802077D01*
X66424200Y-65006780D01*
X66456222Y-65208963D01*
X66519481Y-65403652D01*
X66612415Y-65586042D01*
X66732728Y-65751642D01*
X66877486Y-65896400D01*
X67024906Y-66003505D01*
X67043090Y-66016716D01*
X67148733Y-66070544D01*
X67225476Y-66109647D01*
X67225478Y-66109647D01*
X67225481Y-66109649D01*
X67316556Y-66139241D01*
X67420165Y-66172906D01*
X67494225Y-66184636D01*
X67622348Y-66204929D01*
X67622349Y-66204929D01*
X67827051Y-66204929D01*
X67827052Y-66204929D01*
X68029234Y-66172906D01*
X68223919Y-66109649D01*
X68406310Y-66016716D01*
X68535182Y-65923086D01*
X68571913Y-65896400D01*
X68571915Y-65896397D01*
X68571919Y-65896395D01*
X68716666Y-65751648D01*
X68716668Y-65751644D01*
X68716671Y-65751642D01*
X68821592Y-65607228D01*
X68836987Y-65586039D01*
X68929920Y-65403648D01*
X68993177Y-65208963D01*
X69025200Y-65006781D01*
X69025200Y-64802077D01*
X68993177Y-64599895D01*
X68929920Y-64405210D01*
X68929918Y-64405207D01*
X68929918Y-64405205D01*
X68905640Y-64357558D01*
X68878561Y-64304412D01*
X74044200Y-64304412D01*
X74044200Y-65504430D01*
X74044201Y-65504447D01*
X74054700Y-65607225D01*
X74054701Y-65607228D01*
X74102556Y-65751642D01*
X74109886Y-65773763D01*
X74201988Y-65923085D01*
X74326044Y-66047141D01*
X74475366Y-66139243D01*
X74641903Y-66194428D01*
X74744691Y-66204929D01*
X75944708Y-66204928D01*
X76047497Y-66194428D01*
X76214034Y-66139243D01*
X76363356Y-66047141D01*
X76487412Y-65923085D01*
X76579514Y-65773763D01*
X76634699Y-65607226D01*
X76645200Y-65504438D01*
X76645199Y-64304421D01*
X76634699Y-64201632D01*
X76579514Y-64035095D01*
X76487412Y-63885773D01*
X76363356Y-63761717D01*
X76214034Y-63669615D01*
X76047497Y-63614430D01*
X76047495Y-63614429D01*
X75944710Y-63603929D01*
X74744698Y-63603929D01*
X74744681Y-63603930D01*
X74641903Y-63614429D01*
X74641900Y-63614430D01*
X74475368Y-63669614D01*
X74475363Y-63669616D01*
X74326042Y-63761718D01*
X74201989Y-63885771D01*
X74109887Y-64035092D01*
X74109886Y-64035095D01*
X74054701Y-64201632D01*
X74054701Y-64201633D01*
X74054700Y-64201633D01*
X74044200Y-64304412D01*
X68878561Y-64304412D01*
X68836987Y-64222819D01*
X68836985Y-64222816D01*
X68836984Y-64222814D01*
X68716671Y-64057215D01*
X68571913Y-63912457D01*
X68406313Y-63792144D01*
X68406312Y-63792143D01*
X68406310Y-63792142D01*
X68346598Y-63761717D01*
X68223923Y-63699210D01*
X68029234Y-63635951D01*
X67854695Y-63608307D01*
X67827052Y-63603929D01*
X67622348Y-63603929D01*
X67598029Y-63607780D01*
X67420165Y-63635951D01*
X67225476Y-63699210D01*
X67043086Y-63792144D01*
X66877486Y-63912457D01*
X66732728Y-64057215D01*
X66612415Y-64222815D01*
X66519481Y-64405205D01*
X66456222Y-64599894D01*
X66424200Y-64802077D01*
X65374348Y-64802077D01*
X65374700Y-64798802D01*
X65374699Y-63003057D01*
X65368291Y-62943446D01*
X65349680Y-62893548D01*
X65317997Y-62808600D01*
X65317993Y-62808593D01*
X65231747Y-62693384D01*
X65231744Y-62693381D01*
X65116535Y-62607135D01*
X65116528Y-62607131D01*
X64981682Y-62556837D01*
X64981683Y-62556837D01*
X64922083Y-62550430D01*
X64922081Y-62550429D01*
X64922073Y-62550429D01*
X64922065Y-62550429D01*
X64911509Y-62550429D01*
X64844470Y-62530744D01*
X64823828Y-62514110D01*
X64153608Y-61843891D01*
X64217193Y-61826854D01*
X64331207Y-61761028D01*
X64424299Y-61667936D01*
X64490125Y-61553922D01*
X64507162Y-61490338D01*
X65139470Y-62122646D01*
X65139470Y-62122645D01*
X65178822Y-62068483D01*
X65275295Y-61879146D01*
X65340957Y-61677059D01*
X65340957Y-61677056D01*
X65374200Y-61467175D01*
X65374200Y-61254682D01*
X65340957Y-61044801D01*
X65340957Y-61044798D01*
X65275295Y-60842711D01*
X65178824Y-60653378D01*
X65139470Y-60599211D01*
X65139469Y-60599211D01*
X64507162Y-61231519D01*
X64490125Y-61167936D01*
X64424299Y-61053922D01*
X64331207Y-60960830D01*
X64217193Y-60895004D01*
X64153609Y-60877966D01*
X64785916Y-60245657D01*
X64731750Y-60206304D01*
X64542417Y-60109833D01*
X64340329Y-60044171D01*
X64130446Y-60010929D01*
X63917954Y-60010929D01*
X63708072Y-60044171D01*
X63708069Y-60044171D01*
X63505982Y-60109833D01*
X63316639Y-60206309D01*
X63262482Y-60245656D01*
X63262482Y-60245657D01*
X63894791Y-60877966D01*
X63831207Y-60895004D01*
X63717193Y-60960830D01*
X63624101Y-61053922D01*
X63558275Y-61167936D01*
X63541237Y-61231520D01*
X62941200Y-60631483D01*
X62941200Y-58931237D01*
X62960885Y-58864198D01*
X62964886Y-58858346D01*
X62968227Y-58853748D01*
X63076595Y-58641063D01*
X63150358Y-58414044D01*
X63187700Y-58178280D01*
X63187700Y-57939578D01*
X63150358Y-57703814D01*
X63076595Y-57476795D01*
X62968227Y-57264110D01*
X62964878Y-57259500D01*
X62941402Y-57193692D01*
X62941200Y-57186620D01*
X62941200Y-56651429D01*
X62960885Y-56584390D01*
X63013689Y-56538635D01*
X63065200Y-56527429D01*
X94821200Y-56527429D01*
X94888239Y-56547114D01*
G37*
%TD.AperFunction*%
%TD*%
M02*
