%TF.GenerationSoftware,KiCad,Pcbnew,10.0.3*%
%TF.CreationDate,2026-10-03T20:12:49+05:30*%
%TF.ProjectId,MCU-Datalogger-with build-in 512K EEPROM and Clock,4d43552d-4461-4746-916c-6f676765722d,rev?*%
%TF.SameCoordinates,Original*%
%TF.FileFunction,Soldermask,Top*%
%TF.FilePolarity,Negative*%
%FSLAX46Y46*%
G04 Gerber Fmt 4.6, Leading zero omitted, Abs format (unit mm)*
G04 Created by KiCad (PCBNEW 10.0.3) date 2026-10-03 20:12:49*
%MOMM*%
%LPD*%
G01*
G04 APERTURE LIST*
G04 Aperture macros list*
%AMRoundRect*
0 Rectangle with rounded corners*
0 $1 Rounding radius*
0 $2 $3 $4 $5 $6 $7 $8 $9 X,Y pos of 4 corners*
0 Add a 4 corners polygon primitive as box body*
4,1,4,$2,$3,$4,$5,$6,$7,$8,$9,$2,$3,0*
0 Add four circle primitives for the rounded corners*
1,1,$1+$1,$2,$3*
1,1,$1+$1,$4,$5*
1,1,$1+$1,$6,$7*
1,1,$1+$1,$8,$9*
0 Add four rect primitives between the rounded corners*
20,1,$1+$1,$2,$3,$4,$5,0*
20,1,$1+$1,$4,$5,$6,$7,0*
20,1,$1+$1,$6,$7,$8,$9,0*
20,1,$1+$1,$8,$9,$2,$3,0*%
G04 Aperture macros list end*
%ADD10C,2.100000*%
%ADD11R,1.700000X1.700000*%
%ADD12C,1.700000*%
%ADD13RoundRect,0.243750X-0.243750X-0.456250X0.243750X-0.456250X0.243750X0.456250X-0.243750X0.456250X0*%
%ADD14RoundRect,0.250001X1.499999X0.949999X-1.499999X0.949999X-1.499999X-0.949999X1.499999X-0.949999X0*%
%ADD15RoundRect,0.250001X0.949999X-1.499999X0.949999X1.499999X-0.949999X1.499999X-0.949999X-1.499999X0*%
%ADD16RoundRect,0.250000X-0.250000X-0.475000X0.250000X-0.475000X0.250000X0.475000X-0.250000X0.475000X0*%
%ADD17RoundRect,0.250000X-0.262500X-0.450000X0.262500X-0.450000X0.262500X0.450000X-0.262500X0.450000X0*%
%ADD18RoundRect,0.250000X0.262500X0.450000X-0.262500X0.450000X-0.262500X-0.450000X0.262500X-0.450000X0*%
%ADD19RoundRect,0.094250X-0.742750X-0.282750X0.742750X-0.282750X0.742750X0.282750X-0.742750X0.282750X0*%
%ADD20RoundRect,0.094250X-0.282750X-0.742750X0.282750X-0.742750X0.282750X0.742750X-0.282750X0.742750X0*%
%ADD21RoundRect,0.162500X-0.650000X-0.162500X0.650000X-0.162500X0.650000X0.162500X-0.650000X0.162500X0*%
%ADD22RoundRect,0.099250X-0.987750X-0.297750X0.987750X-0.297750X0.987750X0.297750X-0.987750X0.297750X0*%
%ADD23RoundRect,0.250000X0.250000X0.475000X-0.250000X0.475000X-0.250000X-0.475000X0.250000X-0.475000X0*%
G04 APERTURE END LIST*
D10*
%TO.C,H1*%
X55266000Y-56864000D03*
%TD*%
D11*
%TO.C,J2*%
X96668000Y-70326000D03*
D12*
X96668000Y-72866000D03*
X96668000Y-75406000D03*
X96668000Y-77946000D03*
%TD*%
D13*
%TO.C,D1*%
X89380500Y-56356000D03*
X91255500Y-56356000D03*
%TD*%
D11*
%TO.C,J4*%
X94123000Y-61436000D03*
D12*
X96663000Y-61436000D03*
X94123000Y-63976000D03*
X96663000Y-63976000D03*
X94123000Y-66516000D03*
X96663000Y-66516000D03*
%TD*%
D14*
%TO.C,Y2*%
X78186000Y-77692000D03*
X72986000Y-77692000D03*
%TD*%
D15*
%TO.C,Y1*%
X56282000Y-76228000D03*
X56282000Y-71028000D03*
%TD*%
D16*
%TO.C,C3*%
X75652000Y-56356000D03*
X77552000Y-56356000D03*
%TD*%
D17*
%TO.C,R7*%
X84325500Y-59912000D03*
X86150500Y-59912000D03*
%TD*%
D18*
%TO.C,R3*%
X86150500Y-67024000D03*
X84325500Y-67024000D03*
%TD*%
D10*
%TO.C,H4*%
X96922000Y-82772000D03*
%TD*%
D11*
%TO.C,J1*%
X60092000Y-82645000D03*
D12*
X62632000Y-82645000D03*
X65172000Y-82645000D03*
X67712000Y-82645000D03*
X70252000Y-82645000D03*
X72792000Y-82645000D03*
X75332000Y-82645000D03*
X77872000Y-82645000D03*
X80412000Y-82645000D03*
%TD*%
D16*
%TO.C,C5*%
X80224000Y-56356000D03*
X82124000Y-56356000D03*
%TD*%
%TO.C,C1*%
X71080000Y-56356000D03*
X72980000Y-56356000D03*
%TD*%
D19*
%TO.C,U4*%
X71924000Y-65240000D03*
X71924000Y-66040000D03*
X71924000Y-66840000D03*
X71924000Y-67640000D03*
X71924000Y-68440000D03*
X71924000Y-69240000D03*
X71924000Y-70040000D03*
X71924000Y-70840000D03*
D20*
X73294000Y-72210000D03*
X74094000Y-72210000D03*
X74894000Y-72210000D03*
X75694000Y-72210000D03*
X76494000Y-72210000D03*
X77294000Y-72210000D03*
X78094000Y-72210000D03*
X78894000Y-72210000D03*
D19*
X80264000Y-70840000D03*
X80264000Y-70040000D03*
X80264000Y-69240000D03*
X80264000Y-68440000D03*
X80264000Y-67640000D03*
X80264000Y-66840000D03*
X80264000Y-66040000D03*
X80264000Y-65240000D03*
D20*
X78894000Y-63870000D03*
X78094000Y-63870000D03*
X77294000Y-63870000D03*
X76494000Y-63870000D03*
X75694000Y-63870000D03*
X74894000Y-63870000D03*
X74094000Y-63870000D03*
X73294000Y-63870000D03*
%TD*%
D21*
%TO.C,U2*%
X60314500Y-63595000D03*
X60314500Y-64865000D03*
X60314500Y-66135000D03*
X60314500Y-67405000D03*
X67489500Y-67405000D03*
X67489500Y-66135000D03*
X67489500Y-64865000D03*
X67489500Y-63595000D03*
%TD*%
%TO.C,U3*%
X60314500Y-56483000D03*
X60314500Y-57753000D03*
X60314500Y-59023000D03*
X60314500Y-60293000D03*
X67489500Y-60293000D03*
X67489500Y-59023000D03*
X67489500Y-57753000D03*
X67489500Y-56483000D03*
%TD*%
D11*
%TO.C,J3*%
X84476000Y-82772000D03*
D12*
X87016000Y-82772000D03*
X89556000Y-82772000D03*
X92096000Y-82772000D03*
%TD*%
D13*
%TO.C,D2*%
X84300500Y-56356000D03*
X86175500Y-56356000D03*
%TD*%
D18*
%TO.C,R5*%
X91230500Y-59912000D03*
X89405500Y-59912000D03*
%TD*%
D17*
%TO.C,R6*%
X89405500Y-63468000D03*
X91230500Y-63468000D03*
%TD*%
D10*
%TO.C,H3*%
X96922000Y-56864000D03*
%TD*%
D17*
%TO.C,R1*%
X60449500Y-77184000D03*
X62274500Y-77184000D03*
%TD*%
D18*
%TO.C,R2*%
X66338500Y-77184000D03*
X64513500Y-77184000D03*
%TD*%
D22*
%TO.C,U1*%
X60919000Y-70707000D03*
X60919000Y-71977000D03*
X60919000Y-73247000D03*
X60919000Y-74517000D03*
X65869000Y-74517000D03*
X65869000Y-73247000D03*
X65869000Y-71977000D03*
X65869000Y-70707000D03*
%TD*%
D23*
%TO.C,C2*%
X86188000Y-70580000D03*
X84288000Y-70580000D03*
%TD*%
D18*
%TO.C,R4*%
X86150500Y-63468000D03*
X84325500Y-63468000D03*
%TD*%
D11*
%TO.C,BT1*%
X56282000Y-63209000D03*
D12*
X56282000Y-65749000D03*
%TD*%
D10*
%TO.C,H2*%
X55266000Y-82772000D03*
%TD*%
D23*
%TO.C,C4*%
X86188000Y-74136000D03*
X84288000Y-74136000D03*
%TD*%
M02*
