%TF.GenerationSoftware,KiCad,Pcbnew,10.0.3*%
%TF.CreationDate,2026-10-03T20:12:48+05:30*%
%TF.ProjectId,MCU-Datalogger-with build-in 512K EEPROM and Clock,4d43552d-4461-4746-916c-6f676765722d,rev?*%
%TF.SameCoordinates,Original*%
%TF.FileFunction,Legend,Top*%
%TF.FilePolarity,Positive*%
%FSLAX46Y46*%
G04 Gerber Fmt 4.6, Leading zero omitted, Abs format (unit mm)*
G04 Created by KiCad (PCBNEW 10.0.3) date 2026-10-03 20:12:48*
%MOMM*%
%LPD*%
G01*
G04 APERTURE LIST*
%ADD10C,0.125000*%
%ADD11C,0.100000*%
%ADD12C,0.120000*%
%ADD13C,0.127000*%
%ADD14C,0.200000*%
G04 APERTURE END LIST*
D10*
X60301188Y-81180309D02*
X60015474Y-81180309D01*
X60158331Y-81180309D02*
X60158331Y-80680309D01*
X60158331Y-80680309D02*
X60110712Y-80751738D01*
X60110712Y-80751738D02*
X60063093Y-80799357D01*
X60063093Y-80799357D02*
X60015474Y-80823166D01*
X62625349Y-80653822D02*
X62649158Y-80630013D01*
X62649158Y-80630013D02*
X62696777Y-80606203D01*
X62696777Y-80606203D02*
X62815825Y-80606203D01*
X62815825Y-80606203D02*
X62863444Y-80630013D01*
X62863444Y-80630013D02*
X62887253Y-80653822D01*
X62887253Y-80653822D02*
X62911063Y-80701441D01*
X62911063Y-80701441D02*
X62911063Y-80749060D01*
X62911063Y-80749060D02*
X62887253Y-80820489D01*
X62887253Y-80820489D02*
X62601539Y-81106203D01*
X62601539Y-81106203D02*
X62911063Y-81106203D01*
X65006515Y-80561250D02*
X65316039Y-80561250D01*
X65316039Y-80561250D02*
X65149372Y-80751726D01*
X65149372Y-80751726D02*
X65220801Y-80751726D01*
X65220801Y-80751726D02*
X65268420Y-80775536D01*
X65268420Y-80775536D02*
X65292229Y-80799345D01*
X65292229Y-80799345D02*
X65316039Y-80846964D01*
X65316039Y-80846964D02*
X65316039Y-80966012D01*
X65316039Y-80966012D02*
X65292229Y-81013631D01*
X65292229Y-81013631D02*
X65268420Y-81037441D01*
X65268420Y-81037441D02*
X65220801Y-81061250D01*
X65220801Y-81061250D02*
X65077944Y-81061250D01*
X65077944Y-81061250D02*
X65030325Y-81037441D01*
X65030325Y-81037441D02*
X65006515Y-81013631D01*
X67988066Y-80727917D02*
X67988066Y-81061250D01*
X67869018Y-80537441D02*
X67749971Y-80894583D01*
X67749971Y-80894583D02*
X68059494Y-80894583D01*
X70338183Y-80493821D02*
X70100088Y-80493821D01*
X70100088Y-80493821D02*
X70076279Y-80731916D01*
X70076279Y-80731916D02*
X70100088Y-80708107D01*
X70100088Y-80708107D02*
X70147707Y-80684297D01*
X70147707Y-80684297D02*
X70266755Y-80684297D01*
X70266755Y-80684297D02*
X70314374Y-80708107D01*
X70314374Y-80708107D02*
X70338183Y-80731916D01*
X70338183Y-80731916D02*
X70361993Y-80779535D01*
X70361993Y-80779535D02*
X70361993Y-80898583D01*
X70361993Y-80898583D02*
X70338183Y-80946202D01*
X70338183Y-80946202D02*
X70314374Y-80970012D01*
X70314374Y-80970012D02*
X70266755Y-80993821D01*
X70266755Y-80993821D02*
X70147707Y-80993821D01*
X70147707Y-80993821D02*
X70100088Y-80970012D01*
X70100088Y-80970012D02*
X70076279Y-80946202D01*
X72786779Y-80493821D02*
X72691541Y-80493821D01*
X72691541Y-80493821D02*
X72643922Y-80517631D01*
X72643922Y-80517631D02*
X72620112Y-80541440D01*
X72620112Y-80541440D02*
X72572493Y-80612869D01*
X72572493Y-80612869D02*
X72548684Y-80708107D01*
X72548684Y-80708107D02*
X72548684Y-80898583D01*
X72548684Y-80898583D02*
X72572493Y-80946202D01*
X72572493Y-80946202D02*
X72596303Y-80970012D01*
X72596303Y-80970012D02*
X72643922Y-80993821D01*
X72643922Y-80993821D02*
X72739160Y-80993821D01*
X72739160Y-80993821D02*
X72786779Y-80970012D01*
X72786779Y-80970012D02*
X72810588Y-80946202D01*
X72810588Y-80946202D02*
X72834398Y-80898583D01*
X72834398Y-80898583D02*
X72834398Y-80779535D01*
X72834398Y-80779535D02*
X72810588Y-80731916D01*
X72810588Y-80731916D02*
X72786779Y-80708107D01*
X72786779Y-80708107D02*
X72739160Y-80684297D01*
X72739160Y-80684297D02*
X72643922Y-80684297D01*
X72643922Y-80684297D02*
X72596303Y-80708107D01*
X72596303Y-80708107D02*
X72572493Y-80731916D01*
X72572493Y-80731916D02*
X72548684Y-80779535D01*
X75249914Y-80493821D02*
X75583247Y-80493821D01*
X75583247Y-80493821D02*
X75368962Y-80993821D01*
X77964414Y-80540107D02*
X77916795Y-80516297D01*
X77916795Y-80516297D02*
X77845366Y-80516297D01*
X77845366Y-80516297D02*
X77773938Y-80540107D01*
X77773938Y-80540107D02*
X77726319Y-80587726D01*
X77726319Y-80587726D02*
X77702509Y-80635345D01*
X77702509Y-80635345D02*
X77678700Y-80730583D01*
X77678700Y-80730583D02*
X77678700Y-80802011D01*
X77678700Y-80802011D02*
X77702509Y-80897249D01*
X77702509Y-80897249D02*
X77726319Y-80944868D01*
X77726319Y-80944868D02*
X77773938Y-80992488D01*
X77773938Y-80992488D02*
X77845366Y-81016297D01*
X77845366Y-81016297D02*
X77892985Y-81016297D01*
X77892985Y-81016297D02*
X77964414Y-80992488D01*
X77964414Y-80992488D02*
X77988223Y-80968678D01*
X77988223Y-80968678D02*
X77988223Y-80802011D01*
X77988223Y-80802011D02*
X77892985Y-80802011D01*
X78202509Y-81016297D02*
X78202509Y-80516297D01*
X78202509Y-80516297D02*
X78488223Y-81016297D01*
X78488223Y-81016297D02*
X78488223Y-80516297D01*
X78726319Y-81016297D02*
X78726319Y-80516297D01*
X78726319Y-80516297D02*
X78845367Y-80516297D01*
X78845367Y-80516297D02*
X78916795Y-80540107D01*
X78916795Y-80540107D02*
X78964414Y-80587726D01*
X78964414Y-80587726D02*
X78988224Y-80635345D01*
X78988224Y-80635345D02*
X79012033Y-80730583D01*
X79012033Y-80730583D02*
X79012033Y-80802011D01*
X79012033Y-80802011D02*
X78988224Y-80897249D01*
X78988224Y-80897249D02*
X78964414Y-80944868D01*
X78964414Y-80944868D02*
X78916795Y-80992488D01*
X78916795Y-80992488D02*
X78845367Y-81016297D01*
X78845367Y-81016297D02*
X78726319Y-81016297D01*
X80789016Y-80561250D02*
X80955682Y-81061250D01*
X80955682Y-81061250D02*
X81122349Y-80561250D01*
X81503301Y-81037441D02*
X81455682Y-81061250D01*
X81455682Y-81061250D02*
X81360444Y-81061250D01*
X81360444Y-81061250D02*
X81312825Y-81037441D01*
X81312825Y-81037441D02*
X81289015Y-81013631D01*
X81289015Y-81013631D02*
X81265206Y-80966012D01*
X81265206Y-80966012D02*
X81265206Y-80823155D01*
X81265206Y-80823155D02*
X81289015Y-80775536D01*
X81289015Y-80775536D02*
X81312825Y-80751726D01*
X81312825Y-80751726D02*
X81360444Y-80727917D01*
X81360444Y-80727917D02*
X81455682Y-80727917D01*
X81455682Y-80727917D02*
X81503301Y-80751726D01*
X81931872Y-81037441D02*
X81884253Y-81061250D01*
X81884253Y-81061250D02*
X81789015Y-81061250D01*
X81789015Y-81061250D02*
X81741396Y-81037441D01*
X81741396Y-81037441D02*
X81717586Y-81013631D01*
X81717586Y-81013631D02*
X81693777Y-80966012D01*
X81693777Y-80966012D02*
X81693777Y-80823155D01*
X81693777Y-80823155D02*
X81717586Y-80775536D01*
X81717586Y-80775536D02*
X81741396Y-80751726D01*
X81741396Y-80751726D02*
X81789015Y-80727917D01*
X81789015Y-80727917D02*
X81884253Y-80727917D01*
X81884253Y-80727917D02*
X81931872Y-80751726D01*
X84177188Y-80540107D02*
X84129569Y-80516297D01*
X84129569Y-80516297D02*
X84058140Y-80516297D01*
X84058140Y-80516297D02*
X83986712Y-80540107D01*
X83986712Y-80540107D02*
X83939093Y-80587726D01*
X83939093Y-80587726D02*
X83915283Y-80635345D01*
X83915283Y-80635345D02*
X83891474Y-80730583D01*
X83891474Y-80730583D02*
X83891474Y-80802011D01*
X83891474Y-80802011D02*
X83915283Y-80897249D01*
X83915283Y-80897249D02*
X83939093Y-80944868D01*
X83939093Y-80944868D02*
X83986712Y-80992488D01*
X83986712Y-80992488D02*
X84058140Y-81016297D01*
X84058140Y-81016297D02*
X84105759Y-81016297D01*
X84105759Y-81016297D02*
X84177188Y-80992488D01*
X84177188Y-80992488D02*
X84200997Y-80968678D01*
X84200997Y-80968678D02*
X84200997Y-80802011D01*
X84200997Y-80802011D02*
X84105759Y-80802011D01*
X84415283Y-81016297D02*
X84415283Y-80516297D01*
X84415283Y-80516297D02*
X84700997Y-81016297D01*
X84700997Y-81016297D02*
X84700997Y-80516297D01*
X84939093Y-81016297D02*
X84939093Y-80516297D01*
X84939093Y-80516297D02*
X85058141Y-80516297D01*
X85058141Y-80516297D02*
X85129569Y-80540107D01*
X85129569Y-80540107D02*
X85177188Y-80587726D01*
X85177188Y-80587726D02*
X85200998Y-80635345D01*
X85200998Y-80635345D02*
X85224807Y-80730583D01*
X85224807Y-80730583D02*
X85224807Y-80802011D01*
X85224807Y-80802011D02*
X85200998Y-80897249D01*
X85200998Y-80897249D02*
X85177188Y-80944868D01*
X85177188Y-80944868D02*
X85129569Y-80992488D01*
X85129569Y-80992488D02*
X85058141Y-81016297D01*
X85058141Y-81016297D02*
X84939093Y-81016297D01*
X86383855Y-80561250D02*
X86550521Y-81061250D01*
X86550521Y-81061250D02*
X86717188Y-80561250D01*
X87098140Y-81037441D02*
X87050521Y-81061250D01*
X87050521Y-81061250D02*
X86955283Y-81061250D01*
X86955283Y-81061250D02*
X86907664Y-81037441D01*
X86907664Y-81037441D02*
X86883854Y-81013631D01*
X86883854Y-81013631D02*
X86860045Y-80966012D01*
X86860045Y-80966012D02*
X86860045Y-80823155D01*
X86860045Y-80823155D02*
X86883854Y-80775536D01*
X86883854Y-80775536D02*
X86907664Y-80751726D01*
X86907664Y-80751726D02*
X86955283Y-80727917D01*
X86955283Y-80727917D02*
X87050521Y-80727917D01*
X87050521Y-80727917D02*
X87098140Y-80751726D01*
X87526711Y-81037441D02*
X87479092Y-81061250D01*
X87479092Y-81061250D02*
X87383854Y-81061250D01*
X87383854Y-81061250D02*
X87336235Y-81037441D01*
X87336235Y-81037441D02*
X87312425Y-81013631D01*
X87312425Y-81013631D02*
X87288616Y-80966012D01*
X87288616Y-80966012D02*
X87288616Y-80823155D01*
X87288616Y-80823155D02*
X87312425Y-80775536D01*
X87312425Y-80775536D02*
X87336235Y-80751726D01*
X87336235Y-80751726D02*
X87383854Y-80727917D01*
X87383854Y-80727917D02*
X87479092Y-80727917D01*
X87479092Y-80727917D02*
X87526711Y-80751726D01*
X89280997Y-81061250D02*
X89114331Y-80823155D01*
X88995283Y-81061250D02*
X88995283Y-80561250D01*
X88995283Y-80561250D02*
X89185759Y-80561250D01*
X89185759Y-80561250D02*
X89233378Y-80585060D01*
X89233378Y-80585060D02*
X89257188Y-80608869D01*
X89257188Y-80608869D02*
X89280997Y-80656488D01*
X89280997Y-80656488D02*
X89280997Y-80727917D01*
X89280997Y-80727917D02*
X89257188Y-80775536D01*
X89257188Y-80775536D02*
X89233378Y-80799345D01*
X89233378Y-80799345D02*
X89185759Y-80823155D01*
X89185759Y-80823155D02*
X88995283Y-80823155D01*
X89447664Y-80561250D02*
X89780997Y-81061250D01*
X89780997Y-80561250D02*
X89447664Y-81061250D01*
X91463855Y-80561250D02*
X91749569Y-80561250D01*
X91606712Y-81061250D02*
X91606712Y-80561250D01*
X91868616Y-80561250D02*
X92201949Y-81061250D01*
X92201949Y-80561250D02*
X91868616Y-81061250D01*
X93344997Y-68988309D02*
X93178331Y-68750214D01*
X93059283Y-68988309D02*
X93059283Y-68488309D01*
X93059283Y-68488309D02*
X93249759Y-68488309D01*
X93249759Y-68488309D02*
X93297378Y-68512119D01*
X93297378Y-68512119D02*
X93321188Y-68535928D01*
X93321188Y-68535928D02*
X93344997Y-68583547D01*
X93344997Y-68583547D02*
X93344997Y-68654976D01*
X93344997Y-68654976D02*
X93321188Y-68702595D01*
X93321188Y-68702595D02*
X93297378Y-68726404D01*
X93297378Y-68726404D02*
X93249759Y-68750214D01*
X93249759Y-68750214D02*
X93059283Y-68750214D01*
X93559283Y-68726404D02*
X93725950Y-68726404D01*
X93797378Y-68988309D02*
X93559283Y-68988309D01*
X93559283Y-68988309D02*
X93559283Y-68488309D01*
X93559283Y-68488309D02*
X93797378Y-68488309D01*
X93987855Y-68964500D02*
X94059283Y-68988309D01*
X94059283Y-68988309D02*
X94178331Y-68988309D01*
X94178331Y-68988309D02*
X94225950Y-68964500D01*
X94225950Y-68964500D02*
X94249759Y-68940690D01*
X94249759Y-68940690D02*
X94273569Y-68893071D01*
X94273569Y-68893071D02*
X94273569Y-68845452D01*
X94273569Y-68845452D02*
X94249759Y-68797833D01*
X94249759Y-68797833D02*
X94225950Y-68774023D01*
X94225950Y-68774023D02*
X94178331Y-68750214D01*
X94178331Y-68750214D02*
X94083093Y-68726404D01*
X94083093Y-68726404D02*
X94035474Y-68702595D01*
X94035474Y-68702595D02*
X94011664Y-68678785D01*
X94011664Y-68678785D02*
X93987855Y-68631166D01*
X93987855Y-68631166D02*
X93987855Y-68583547D01*
X93987855Y-68583547D02*
X94011664Y-68535928D01*
X94011664Y-68535928D02*
X94035474Y-68512119D01*
X94035474Y-68512119D02*
X94083093Y-68488309D01*
X94083093Y-68488309D02*
X94202140Y-68488309D01*
X94202140Y-68488309D02*
X94273569Y-68512119D01*
X94487854Y-68726404D02*
X94654521Y-68726404D01*
X94725949Y-68988309D02*
X94487854Y-68988309D01*
X94487854Y-68988309D02*
X94487854Y-68488309D01*
X94487854Y-68488309D02*
X94725949Y-68488309D01*
X94868807Y-68488309D02*
X95154521Y-68488309D01*
X95011664Y-68988309D02*
X95011664Y-68488309D01*
X93567283Y-59844309D02*
X93567283Y-59344309D01*
X93567283Y-59344309D02*
X93733950Y-59701452D01*
X93733950Y-59701452D02*
X93900616Y-59344309D01*
X93900616Y-59344309D02*
X93900616Y-59844309D01*
X94138712Y-59844309D02*
X94138712Y-59344309D01*
X94352998Y-59820500D02*
X94424426Y-59844309D01*
X94424426Y-59844309D02*
X94543474Y-59844309D01*
X94543474Y-59844309D02*
X94591093Y-59820500D01*
X94591093Y-59820500D02*
X94614902Y-59796690D01*
X94614902Y-59796690D02*
X94638712Y-59749071D01*
X94638712Y-59749071D02*
X94638712Y-59701452D01*
X94638712Y-59701452D02*
X94614902Y-59653833D01*
X94614902Y-59653833D02*
X94591093Y-59630023D01*
X94591093Y-59630023D02*
X94543474Y-59606214D01*
X94543474Y-59606214D02*
X94448236Y-59582404D01*
X94448236Y-59582404D02*
X94400617Y-59558595D01*
X94400617Y-59558595D02*
X94376807Y-59534785D01*
X94376807Y-59534785D02*
X94352998Y-59487166D01*
X94352998Y-59487166D02*
X94352998Y-59439547D01*
X94352998Y-59439547D02*
X94376807Y-59391928D01*
X94376807Y-59391928D02*
X94400617Y-59368119D01*
X94400617Y-59368119D02*
X94448236Y-59344309D01*
X94448236Y-59344309D02*
X94567283Y-59344309D01*
X94567283Y-59344309D02*
X94638712Y-59368119D01*
X94948235Y-59344309D02*
X95043473Y-59344309D01*
X95043473Y-59344309D02*
X95091092Y-59368119D01*
X95091092Y-59368119D02*
X95138711Y-59415738D01*
X95138711Y-59415738D02*
X95162521Y-59510976D01*
X95162521Y-59510976D02*
X95162521Y-59677642D01*
X95162521Y-59677642D02*
X95138711Y-59772880D01*
X95138711Y-59772880D02*
X95091092Y-59820500D01*
X95091092Y-59820500D02*
X95043473Y-59844309D01*
X95043473Y-59844309D02*
X94948235Y-59844309D01*
X94948235Y-59844309D02*
X94900616Y-59820500D01*
X94900616Y-59820500D02*
X94852997Y-59772880D01*
X94852997Y-59772880D02*
X94829188Y-59677642D01*
X94829188Y-59677642D02*
X94829188Y-59510976D01*
X94829188Y-59510976D02*
X94852997Y-59415738D01*
X94852997Y-59415738D02*
X94900616Y-59368119D01*
X94900616Y-59368119D02*
X94948235Y-59344309D01*
X93829188Y-70036119D02*
X93781569Y-70012309D01*
X93781569Y-70012309D02*
X93710140Y-70012309D01*
X93710140Y-70012309D02*
X93638712Y-70036119D01*
X93638712Y-70036119D02*
X93591093Y-70083738D01*
X93591093Y-70083738D02*
X93567283Y-70131357D01*
X93567283Y-70131357D02*
X93543474Y-70226595D01*
X93543474Y-70226595D02*
X93543474Y-70298023D01*
X93543474Y-70298023D02*
X93567283Y-70393261D01*
X93567283Y-70393261D02*
X93591093Y-70440880D01*
X93591093Y-70440880D02*
X93638712Y-70488500D01*
X93638712Y-70488500D02*
X93710140Y-70512309D01*
X93710140Y-70512309D02*
X93757759Y-70512309D01*
X93757759Y-70512309D02*
X93829188Y-70488500D01*
X93829188Y-70488500D02*
X93852997Y-70464690D01*
X93852997Y-70464690D02*
X93852997Y-70298023D01*
X93852997Y-70298023D02*
X93757759Y-70298023D01*
X94067283Y-70512309D02*
X94067283Y-70012309D01*
X94067283Y-70012309D02*
X94352997Y-70512309D01*
X94352997Y-70512309D02*
X94352997Y-70012309D01*
X94591093Y-70512309D02*
X94591093Y-70012309D01*
X94591093Y-70012309D02*
X94710141Y-70012309D01*
X94710141Y-70012309D02*
X94781569Y-70036119D01*
X94781569Y-70036119D02*
X94829188Y-70083738D01*
X94829188Y-70083738D02*
X94852998Y-70131357D01*
X94852998Y-70131357D02*
X94876807Y-70226595D01*
X94876807Y-70226595D02*
X94876807Y-70298023D01*
X94876807Y-70298023D02*
X94852998Y-70393261D01*
X94852998Y-70393261D02*
X94829188Y-70440880D01*
X94829188Y-70440880D02*
X94781569Y-70488500D01*
X94781569Y-70488500D02*
X94710141Y-70512309D01*
X94710141Y-70512309D02*
X94591093Y-70512309D01*
X93495855Y-72552309D02*
X93662521Y-73052309D01*
X93662521Y-73052309D02*
X93829188Y-72552309D01*
X94210140Y-73028500D02*
X94162521Y-73052309D01*
X94162521Y-73052309D02*
X94067283Y-73052309D01*
X94067283Y-73052309D02*
X94019664Y-73028500D01*
X94019664Y-73028500D02*
X93995854Y-73004690D01*
X93995854Y-73004690D02*
X93972045Y-72957071D01*
X93972045Y-72957071D02*
X93972045Y-72814214D01*
X93972045Y-72814214D02*
X93995854Y-72766595D01*
X93995854Y-72766595D02*
X94019664Y-72742785D01*
X94019664Y-72742785D02*
X94067283Y-72718976D01*
X94067283Y-72718976D02*
X94162521Y-72718976D01*
X94162521Y-72718976D02*
X94210140Y-72742785D01*
X94638711Y-73028500D02*
X94591092Y-73052309D01*
X94591092Y-73052309D02*
X94495854Y-73052309D01*
X94495854Y-73052309D02*
X94448235Y-73028500D01*
X94448235Y-73028500D02*
X94424425Y-73004690D01*
X94424425Y-73004690D02*
X94400616Y-72957071D01*
X94400616Y-72957071D02*
X94400616Y-72814214D01*
X94400616Y-72814214D02*
X94424425Y-72766595D01*
X94424425Y-72766595D02*
X94448235Y-72742785D01*
X94448235Y-72742785D02*
X94495854Y-72718976D01*
X94495854Y-72718976D02*
X94591092Y-72718976D01*
X94591092Y-72718976D02*
X94638711Y-72742785D01*
X93543474Y-75568500D02*
X93614902Y-75592309D01*
X93614902Y-75592309D02*
X93733950Y-75592309D01*
X93733950Y-75592309D02*
X93781569Y-75568500D01*
X93781569Y-75568500D02*
X93805378Y-75544690D01*
X93805378Y-75544690D02*
X93829188Y-75497071D01*
X93829188Y-75497071D02*
X93829188Y-75449452D01*
X93829188Y-75449452D02*
X93805378Y-75401833D01*
X93805378Y-75401833D02*
X93781569Y-75378023D01*
X93781569Y-75378023D02*
X93733950Y-75354214D01*
X93733950Y-75354214D02*
X93638712Y-75330404D01*
X93638712Y-75330404D02*
X93591093Y-75306595D01*
X93591093Y-75306595D02*
X93567283Y-75282785D01*
X93567283Y-75282785D02*
X93543474Y-75235166D01*
X93543474Y-75235166D02*
X93543474Y-75187547D01*
X93543474Y-75187547D02*
X93567283Y-75139928D01*
X93567283Y-75139928D02*
X93591093Y-75116119D01*
X93591093Y-75116119D02*
X93638712Y-75092309D01*
X93638712Y-75092309D02*
X93757759Y-75092309D01*
X93757759Y-75092309D02*
X93829188Y-75116119D01*
X94043473Y-75592309D02*
X94043473Y-75092309D01*
X94043473Y-75092309D02*
X94162521Y-75092309D01*
X94162521Y-75092309D02*
X94233949Y-75116119D01*
X94233949Y-75116119D02*
X94281568Y-75163738D01*
X94281568Y-75163738D02*
X94305378Y-75211357D01*
X94305378Y-75211357D02*
X94329187Y-75306595D01*
X94329187Y-75306595D02*
X94329187Y-75378023D01*
X94329187Y-75378023D02*
X94305378Y-75473261D01*
X94305378Y-75473261D02*
X94281568Y-75520880D01*
X94281568Y-75520880D02*
X94233949Y-75568500D01*
X94233949Y-75568500D02*
X94162521Y-75592309D01*
X94162521Y-75592309D02*
X94043473Y-75592309D01*
X94519664Y-75449452D02*
X94757759Y-75449452D01*
X94472045Y-75592309D02*
X94638711Y-75092309D01*
X94638711Y-75092309D02*
X94805378Y-75592309D01*
X93543474Y-78108500D02*
X93614902Y-78132309D01*
X93614902Y-78132309D02*
X93733950Y-78132309D01*
X93733950Y-78132309D02*
X93781569Y-78108500D01*
X93781569Y-78108500D02*
X93805378Y-78084690D01*
X93805378Y-78084690D02*
X93829188Y-78037071D01*
X93829188Y-78037071D02*
X93829188Y-77989452D01*
X93829188Y-77989452D02*
X93805378Y-77941833D01*
X93805378Y-77941833D02*
X93781569Y-77918023D01*
X93781569Y-77918023D02*
X93733950Y-77894214D01*
X93733950Y-77894214D02*
X93638712Y-77870404D01*
X93638712Y-77870404D02*
X93591093Y-77846595D01*
X93591093Y-77846595D02*
X93567283Y-77822785D01*
X93567283Y-77822785D02*
X93543474Y-77775166D01*
X93543474Y-77775166D02*
X93543474Y-77727547D01*
X93543474Y-77727547D02*
X93567283Y-77679928D01*
X93567283Y-77679928D02*
X93591093Y-77656119D01*
X93591093Y-77656119D02*
X93638712Y-77632309D01*
X93638712Y-77632309D02*
X93757759Y-77632309D01*
X93757759Y-77632309D02*
X93829188Y-77656119D01*
X94329187Y-78084690D02*
X94305378Y-78108500D01*
X94305378Y-78108500D02*
X94233949Y-78132309D01*
X94233949Y-78132309D02*
X94186330Y-78132309D01*
X94186330Y-78132309D02*
X94114902Y-78108500D01*
X94114902Y-78108500D02*
X94067283Y-78060880D01*
X94067283Y-78060880D02*
X94043473Y-78013261D01*
X94043473Y-78013261D02*
X94019664Y-77918023D01*
X94019664Y-77918023D02*
X94019664Y-77846595D01*
X94019664Y-77846595D02*
X94043473Y-77751357D01*
X94043473Y-77751357D02*
X94067283Y-77703738D01*
X94067283Y-77703738D02*
X94114902Y-77656119D01*
X94114902Y-77656119D02*
X94186330Y-77632309D01*
X94186330Y-77632309D02*
X94233949Y-77632309D01*
X94233949Y-77632309D02*
X94305378Y-77656119D01*
X94305378Y-77656119D02*
X94329187Y-77679928D01*
X94543473Y-78132309D02*
X94543473Y-77632309D01*
X94829187Y-78132309D02*
X94614902Y-77846595D01*
X94829187Y-77632309D02*
X94543473Y-77918023D01*
X92766500Y-64306525D02*
X92790309Y-64235097D01*
X92790309Y-64235097D02*
X92790309Y-64116049D01*
X92790309Y-64116049D02*
X92766500Y-64068430D01*
X92766500Y-64068430D02*
X92742690Y-64044621D01*
X92742690Y-64044621D02*
X92695071Y-64020811D01*
X92695071Y-64020811D02*
X92647452Y-64020811D01*
X92647452Y-64020811D02*
X92599833Y-64044621D01*
X92599833Y-64044621D02*
X92576023Y-64068430D01*
X92576023Y-64068430D02*
X92552214Y-64116049D01*
X92552214Y-64116049D02*
X92528404Y-64211287D01*
X92528404Y-64211287D02*
X92504595Y-64258906D01*
X92504595Y-64258906D02*
X92480785Y-64282716D01*
X92480785Y-64282716D02*
X92433166Y-64306525D01*
X92433166Y-64306525D02*
X92385547Y-64306525D01*
X92385547Y-64306525D02*
X92337928Y-64282716D01*
X92337928Y-64282716D02*
X92314119Y-64258906D01*
X92314119Y-64258906D02*
X92290309Y-64211287D01*
X92290309Y-64211287D02*
X92290309Y-64092240D01*
X92290309Y-64092240D02*
X92314119Y-64020811D01*
X92742690Y-63520812D02*
X92766500Y-63544621D01*
X92766500Y-63544621D02*
X92790309Y-63616050D01*
X92790309Y-63616050D02*
X92790309Y-63663669D01*
X92790309Y-63663669D02*
X92766500Y-63735097D01*
X92766500Y-63735097D02*
X92718880Y-63782716D01*
X92718880Y-63782716D02*
X92671261Y-63806526D01*
X92671261Y-63806526D02*
X92576023Y-63830335D01*
X92576023Y-63830335D02*
X92504595Y-63830335D01*
X92504595Y-63830335D02*
X92409357Y-63806526D01*
X92409357Y-63806526D02*
X92361738Y-63782716D01*
X92361738Y-63782716D02*
X92314119Y-63735097D01*
X92314119Y-63735097D02*
X92290309Y-63663669D01*
X92290309Y-63663669D02*
X92290309Y-63616050D01*
X92290309Y-63616050D02*
X92314119Y-63544621D01*
X92314119Y-63544621D02*
X92337928Y-63520812D01*
X92790309Y-63306526D02*
X92290309Y-63306526D01*
X92790309Y-63020812D02*
X92504595Y-63235097D01*
X92290309Y-63020812D02*
X92576023Y-63306526D01*
X99013690Y-61057855D02*
X98513690Y-61224521D01*
X98513690Y-61224521D02*
X99013690Y-61391188D01*
X98537500Y-61772140D02*
X98513690Y-61724521D01*
X98513690Y-61724521D02*
X98513690Y-61629283D01*
X98513690Y-61629283D02*
X98537500Y-61581664D01*
X98537500Y-61581664D02*
X98561309Y-61557854D01*
X98561309Y-61557854D02*
X98608928Y-61534045D01*
X98608928Y-61534045D02*
X98751785Y-61534045D01*
X98751785Y-61534045D02*
X98799404Y-61557854D01*
X98799404Y-61557854D02*
X98823214Y-61581664D01*
X98823214Y-61581664D02*
X98847023Y-61629283D01*
X98847023Y-61629283D02*
X98847023Y-61724521D01*
X98847023Y-61724521D02*
X98823214Y-61772140D01*
X98537500Y-62200711D02*
X98513690Y-62153092D01*
X98513690Y-62153092D02*
X98513690Y-62057854D01*
X98513690Y-62057854D02*
X98537500Y-62010235D01*
X98537500Y-62010235D02*
X98561309Y-61986425D01*
X98561309Y-61986425D02*
X98608928Y-61962616D01*
X98608928Y-61962616D02*
X98751785Y-61962616D01*
X98751785Y-61962616D02*
X98799404Y-61986425D01*
X98799404Y-61986425D02*
X98823214Y-62010235D01*
X98823214Y-62010235D02*
X98847023Y-62057854D01*
X98847023Y-62057854D02*
X98847023Y-62153092D01*
X98847023Y-62153092D02*
X98823214Y-62200711D01*
X98513690Y-63669283D02*
X99013690Y-63669283D01*
X99013690Y-63669283D02*
X98656547Y-63835950D01*
X98656547Y-63835950D02*
X99013690Y-64002616D01*
X99013690Y-64002616D02*
X98513690Y-64002616D01*
X99013690Y-64335950D02*
X99013690Y-64431188D01*
X99013690Y-64431188D02*
X98989880Y-64478807D01*
X98989880Y-64478807D02*
X98942261Y-64526426D01*
X98942261Y-64526426D02*
X98847023Y-64550236D01*
X98847023Y-64550236D02*
X98680357Y-64550236D01*
X98680357Y-64550236D02*
X98585119Y-64526426D01*
X98585119Y-64526426D02*
X98537500Y-64478807D01*
X98537500Y-64478807D02*
X98513690Y-64431188D01*
X98513690Y-64431188D02*
X98513690Y-64335950D01*
X98513690Y-64335950D02*
X98537500Y-64288331D01*
X98537500Y-64288331D02*
X98585119Y-64240712D01*
X98585119Y-64240712D02*
X98680357Y-64216903D01*
X98680357Y-64216903D02*
X98847023Y-64216903D01*
X98847023Y-64216903D02*
X98942261Y-64240712D01*
X98942261Y-64240712D02*
X98989880Y-64288331D01*
X98989880Y-64288331D02*
X99013690Y-64335950D01*
X98537500Y-64740713D02*
X98513690Y-64812141D01*
X98513690Y-64812141D02*
X98513690Y-64931189D01*
X98513690Y-64931189D02*
X98537500Y-64978808D01*
X98537500Y-64978808D02*
X98561309Y-65002617D01*
X98561309Y-65002617D02*
X98608928Y-65026427D01*
X98608928Y-65026427D02*
X98656547Y-65026427D01*
X98656547Y-65026427D02*
X98704166Y-65002617D01*
X98704166Y-65002617D02*
X98727976Y-64978808D01*
X98727976Y-64978808D02*
X98751785Y-64931189D01*
X98751785Y-64931189D02*
X98775595Y-64835951D01*
X98775595Y-64835951D02*
X98799404Y-64788332D01*
X98799404Y-64788332D02*
X98823214Y-64764522D01*
X98823214Y-64764522D02*
X98870833Y-64740713D01*
X98870833Y-64740713D02*
X98918452Y-64740713D01*
X98918452Y-64740713D02*
X98966071Y-64764522D01*
X98966071Y-64764522D02*
X98989880Y-64788332D01*
X98989880Y-64788332D02*
X99013690Y-64835951D01*
X99013690Y-64835951D02*
X99013690Y-64954998D01*
X99013690Y-64954998D02*
X98989880Y-65026427D01*
X98513690Y-65240712D02*
X99013690Y-65240712D01*
X98989880Y-66471188D02*
X99013690Y-66423569D01*
X99013690Y-66423569D02*
X99013690Y-66352140D01*
X99013690Y-66352140D02*
X98989880Y-66280712D01*
X98989880Y-66280712D02*
X98942261Y-66233093D01*
X98942261Y-66233093D02*
X98894642Y-66209283D01*
X98894642Y-66209283D02*
X98799404Y-66185474D01*
X98799404Y-66185474D02*
X98727976Y-66185474D01*
X98727976Y-66185474D02*
X98632738Y-66209283D01*
X98632738Y-66209283D02*
X98585119Y-66233093D01*
X98585119Y-66233093D02*
X98537500Y-66280712D01*
X98537500Y-66280712D02*
X98513690Y-66352140D01*
X98513690Y-66352140D02*
X98513690Y-66399759D01*
X98513690Y-66399759D02*
X98537500Y-66471188D01*
X98537500Y-66471188D02*
X98561309Y-66494997D01*
X98561309Y-66494997D02*
X98727976Y-66494997D01*
X98727976Y-66494997D02*
X98727976Y-66399759D01*
X98513690Y-66709283D02*
X99013690Y-66709283D01*
X99013690Y-66709283D02*
X98513690Y-66994997D01*
X98513690Y-66994997D02*
X99013690Y-66994997D01*
X98513690Y-67233093D02*
X99013690Y-67233093D01*
X99013690Y-67233093D02*
X99013690Y-67352141D01*
X99013690Y-67352141D02*
X98989880Y-67423569D01*
X98989880Y-67423569D02*
X98942261Y-67471188D01*
X98942261Y-67471188D02*
X98894642Y-67494998D01*
X98894642Y-67494998D02*
X98799404Y-67518807D01*
X98799404Y-67518807D02*
X98727976Y-67518807D01*
X98727976Y-67518807D02*
X98632738Y-67494998D01*
X98632738Y-67494998D02*
X98585119Y-67471188D01*
X98585119Y-67471188D02*
X98537500Y-67423569D01*
X98537500Y-67423569D02*
X98513690Y-67352141D01*
X98513690Y-67352141D02*
X98513690Y-67233093D01*
D11*
X92488952Y-56582109D02*
X92488952Y-56082109D01*
X92488952Y-56082109D02*
X92608000Y-56082109D01*
X92608000Y-56082109D02*
X92679428Y-56105919D01*
X92679428Y-56105919D02*
X92727047Y-56153538D01*
X92727047Y-56153538D02*
X92750857Y-56201157D01*
X92750857Y-56201157D02*
X92774666Y-56296395D01*
X92774666Y-56296395D02*
X92774666Y-56367823D01*
X92774666Y-56367823D02*
X92750857Y-56463061D01*
X92750857Y-56463061D02*
X92727047Y-56510680D01*
X92727047Y-56510680D02*
X92679428Y-56558300D01*
X92679428Y-56558300D02*
X92608000Y-56582109D01*
X92608000Y-56582109D02*
X92488952Y-56582109D01*
X93250857Y-56582109D02*
X92965143Y-56582109D01*
X93108000Y-56582109D02*
X93108000Y-56082109D01*
X93108000Y-56082109D02*
X93060381Y-56153538D01*
X93060381Y-56153538D02*
X93012762Y-56201157D01*
X93012762Y-56201157D02*
X92965143Y-56224966D01*
X89996571Y-55058109D02*
X89758476Y-55058109D01*
X89758476Y-55058109D02*
X89758476Y-54558109D01*
X90163238Y-54796204D02*
X90329905Y-54796204D01*
X90401333Y-55058109D02*
X90163238Y-55058109D01*
X90163238Y-55058109D02*
X90163238Y-54558109D01*
X90163238Y-54558109D02*
X90401333Y-54558109D01*
X90615619Y-55058109D02*
X90615619Y-54558109D01*
X90615619Y-54558109D02*
X90734667Y-54558109D01*
X90734667Y-54558109D02*
X90806095Y-54581919D01*
X90806095Y-54581919D02*
X90853714Y-54629538D01*
X90853714Y-54629538D02*
X90877524Y-54677157D01*
X90877524Y-54677157D02*
X90901333Y-54772395D01*
X90901333Y-54772395D02*
X90901333Y-54843823D01*
X90901333Y-54843823D02*
X90877524Y-54939061D01*
X90877524Y-54939061D02*
X90853714Y-54986680D01*
X90853714Y-54986680D02*
X90806095Y-55034300D01*
X90806095Y-55034300D02*
X90734667Y-55058109D01*
X90734667Y-55058109D02*
X90615619Y-55058109D01*
X74331905Y-75140014D02*
X74331905Y-75378109D01*
X74165239Y-74878109D02*
X74331905Y-75140014D01*
X74331905Y-75140014D02*
X74498572Y-74878109D01*
X74641429Y-74925728D02*
X74665238Y-74901919D01*
X74665238Y-74901919D02*
X74712857Y-74878109D01*
X74712857Y-74878109D02*
X74831905Y-74878109D01*
X74831905Y-74878109D02*
X74879524Y-74901919D01*
X74879524Y-74901919D02*
X74903333Y-74925728D01*
X74903333Y-74925728D02*
X74927143Y-74973347D01*
X74927143Y-74973347D02*
X74927143Y-75020966D01*
X74927143Y-75020966D02*
X74903333Y-75092395D01*
X74903333Y-75092395D02*
X74617619Y-75378109D01*
X74617619Y-75378109D02*
X74927143Y-75378109D01*
X76110000Y-75378109D02*
X75824286Y-75378109D01*
X75967143Y-75378109D02*
X75967143Y-74878109D01*
X75967143Y-74878109D02*
X75919524Y-74949538D01*
X75919524Y-74949538D02*
X75871905Y-74997157D01*
X75871905Y-74997157D02*
X75824286Y-75020966D01*
X76538571Y-74878109D02*
X76443333Y-74878109D01*
X76443333Y-74878109D02*
X76395714Y-74901919D01*
X76395714Y-74901919D02*
X76371904Y-74925728D01*
X76371904Y-74925728D02*
X76324285Y-74997157D01*
X76324285Y-74997157D02*
X76300476Y-75092395D01*
X76300476Y-75092395D02*
X76300476Y-75282871D01*
X76300476Y-75282871D02*
X76324285Y-75330490D01*
X76324285Y-75330490D02*
X76348095Y-75354300D01*
X76348095Y-75354300D02*
X76395714Y-75378109D01*
X76395714Y-75378109D02*
X76490952Y-75378109D01*
X76490952Y-75378109D02*
X76538571Y-75354300D01*
X76538571Y-75354300D02*
X76562380Y-75330490D01*
X76562380Y-75330490D02*
X76586190Y-75282871D01*
X76586190Y-75282871D02*
X76586190Y-75163823D01*
X76586190Y-75163823D02*
X76562380Y-75116204D01*
X76562380Y-75116204D02*
X76538571Y-75092395D01*
X76538571Y-75092395D02*
X76490952Y-75068585D01*
X76490952Y-75068585D02*
X76395714Y-75068585D01*
X76395714Y-75068585D02*
X76348095Y-75092395D01*
X76348095Y-75092395D02*
X76324285Y-75116204D01*
X76324285Y-75116204D02*
X76300476Y-75163823D01*
X77181427Y-75378109D02*
X77181427Y-74878109D01*
X77181427Y-74878109D02*
X77348094Y-75235252D01*
X77348094Y-75235252D02*
X77514760Y-74878109D01*
X77514760Y-74878109D02*
X77514760Y-75378109D01*
X77752856Y-75378109D02*
X77752856Y-74878109D01*
X77967142Y-75378109D02*
X77967142Y-75116204D01*
X77967142Y-75116204D02*
X77943332Y-75068585D01*
X77943332Y-75068585D02*
X77895713Y-75044776D01*
X77895713Y-75044776D02*
X77824285Y-75044776D01*
X77824285Y-75044776D02*
X77776666Y-75068585D01*
X77776666Y-75068585D02*
X77752856Y-75092395D01*
X78157618Y-75044776D02*
X78419523Y-75044776D01*
X78419523Y-75044776D02*
X78157618Y-75378109D01*
X78157618Y-75378109D02*
X78419523Y-75378109D01*
X58810014Y-73866094D02*
X59048109Y-73866094D01*
X58548109Y-74032760D02*
X58810014Y-73866094D01*
X58810014Y-73866094D02*
X58548109Y-73699427D01*
X59048109Y-73270856D02*
X59048109Y-73556570D01*
X59048109Y-73413713D02*
X58548109Y-73413713D01*
X58548109Y-73413713D02*
X58619538Y-73461332D01*
X58619538Y-73461332D02*
X58667157Y-73508951D01*
X58667157Y-73508951D02*
X58690966Y-73556570D01*
X53468109Y-75687522D02*
X53468109Y-75377998D01*
X53468109Y-75377998D02*
X53658585Y-75544665D01*
X53658585Y-75544665D02*
X53658585Y-75473236D01*
X53658585Y-75473236D02*
X53682395Y-75425617D01*
X53682395Y-75425617D02*
X53706204Y-75401808D01*
X53706204Y-75401808D02*
X53753823Y-75377998D01*
X53753823Y-75377998D02*
X53872871Y-75377998D01*
X53872871Y-75377998D02*
X53920490Y-75401808D01*
X53920490Y-75401808D02*
X53944300Y-75425617D01*
X53944300Y-75425617D02*
X53968109Y-75473236D01*
X53968109Y-75473236D02*
X53968109Y-75616093D01*
X53968109Y-75616093D02*
X53944300Y-75663712D01*
X53944300Y-75663712D02*
X53920490Y-75687522D01*
X53515728Y-75187522D02*
X53491919Y-75163713D01*
X53491919Y-75163713D02*
X53468109Y-75116094D01*
X53468109Y-75116094D02*
X53468109Y-74997046D01*
X53468109Y-74997046D02*
X53491919Y-74949427D01*
X53491919Y-74949427D02*
X53515728Y-74925618D01*
X53515728Y-74925618D02*
X53563347Y-74901808D01*
X53563347Y-74901808D02*
X53610966Y-74901808D01*
X53610966Y-74901808D02*
X53682395Y-74925618D01*
X53682395Y-74925618D02*
X53968109Y-75211332D01*
X53968109Y-75211332D02*
X53968109Y-74901808D01*
X53920490Y-74687523D02*
X53944300Y-74663713D01*
X53944300Y-74663713D02*
X53968109Y-74687523D01*
X53968109Y-74687523D02*
X53944300Y-74711332D01*
X53944300Y-74711332D02*
X53920490Y-74687523D01*
X53920490Y-74687523D02*
X53968109Y-74687523D01*
X53468109Y-74497047D02*
X53468109Y-74163714D01*
X53468109Y-74163714D02*
X53968109Y-74377999D01*
X53468109Y-73758952D02*
X53468109Y-73854190D01*
X53468109Y-73854190D02*
X53491919Y-73901809D01*
X53491919Y-73901809D02*
X53515728Y-73925619D01*
X53515728Y-73925619D02*
X53587157Y-73973238D01*
X53587157Y-73973238D02*
X53682395Y-73997047D01*
X53682395Y-73997047D02*
X53872871Y-73997047D01*
X53872871Y-73997047D02*
X53920490Y-73973238D01*
X53920490Y-73973238D02*
X53944300Y-73949428D01*
X53944300Y-73949428D02*
X53968109Y-73901809D01*
X53968109Y-73901809D02*
X53968109Y-73806571D01*
X53968109Y-73806571D02*
X53944300Y-73758952D01*
X53944300Y-73758952D02*
X53920490Y-73735143D01*
X53920490Y-73735143D02*
X53872871Y-73711333D01*
X53872871Y-73711333D02*
X53753823Y-73711333D01*
X53753823Y-73711333D02*
X53706204Y-73735143D01*
X53706204Y-73735143D02*
X53682395Y-73758952D01*
X53682395Y-73758952D02*
X53658585Y-73806571D01*
X53658585Y-73806571D02*
X53658585Y-73901809D01*
X53658585Y-73901809D02*
X53682395Y-73949428D01*
X53682395Y-73949428D02*
X53706204Y-73973238D01*
X53706204Y-73973238D02*
X53753823Y-73997047D01*
X53682395Y-73425619D02*
X53658585Y-73473238D01*
X53658585Y-73473238D02*
X53634776Y-73497048D01*
X53634776Y-73497048D02*
X53587157Y-73520857D01*
X53587157Y-73520857D02*
X53563347Y-73520857D01*
X53563347Y-73520857D02*
X53515728Y-73497048D01*
X53515728Y-73497048D02*
X53491919Y-73473238D01*
X53491919Y-73473238D02*
X53468109Y-73425619D01*
X53468109Y-73425619D02*
X53468109Y-73330381D01*
X53468109Y-73330381D02*
X53491919Y-73282762D01*
X53491919Y-73282762D02*
X53515728Y-73258953D01*
X53515728Y-73258953D02*
X53563347Y-73235143D01*
X53563347Y-73235143D02*
X53587157Y-73235143D01*
X53587157Y-73235143D02*
X53634776Y-73258953D01*
X53634776Y-73258953D02*
X53658585Y-73282762D01*
X53658585Y-73282762D02*
X53682395Y-73330381D01*
X53682395Y-73330381D02*
X53682395Y-73425619D01*
X53682395Y-73425619D02*
X53706204Y-73473238D01*
X53706204Y-73473238D02*
X53730014Y-73497048D01*
X53730014Y-73497048D02*
X53777633Y-73520857D01*
X53777633Y-73520857D02*
X53872871Y-73520857D01*
X53872871Y-73520857D02*
X53920490Y-73497048D01*
X53920490Y-73497048D02*
X53944300Y-73473238D01*
X53944300Y-73473238D02*
X53968109Y-73425619D01*
X53968109Y-73425619D02*
X53968109Y-73330381D01*
X53968109Y-73330381D02*
X53944300Y-73282762D01*
X53944300Y-73282762D02*
X53920490Y-73258953D01*
X53920490Y-73258953D02*
X53872871Y-73235143D01*
X53872871Y-73235143D02*
X53777633Y-73235143D01*
X53777633Y-73235143D02*
X53730014Y-73258953D01*
X53730014Y-73258953D02*
X53706204Y-73282762D01*
X53706204Y-73282762D02*
X53682395Y-73330381D01*
X53968109Y-72639906D02*
X53468109Y-72639906D01*
X53777633Y-72592287D02*
X53968109Y-72449430D01*
X53634776Y-72449430D02*
X53825252Y-72639906D01*
X53968109Y-72235144D02*
X53468109Y-72235144D01*
X53968109Y-72020858D02*
X53706204Y-72020858D01*
X53706204Y-72020858D02*
X53658585Y-72044668D01*
X53658585Y-72044668D02*
X53634776Y-72092287D01*
X53634776Y-72092287D02*
X53634776Y-72163715D01*
X53634776Y-72163715D02*
X53658585Y-72211334D01*
X53658585Y-72211334D02*
X53682395Y-72235144D01*
X53634776Y-71830382D02*
X53634776Y-71568477D01*
X53634776Y-71568477D02*
X53968109Y-71830382D01*
X53968109Y-71830382D02*
X53968109Y-71568477D01*
X76518666Y-59582490D02*
X76494857Y-59606300D01*
X76494857Y-59606300D02*
X76423428Y-59630109D01*
X76423428Y-59630109D02*
X76375809Y-59630109D01*
X76375809Y-59630109D02*
X76304381Y-59606300D01*
X76304381Y-59606300D02*
X76256762Y-59558680D01*
X76256762Y-59558680D02*
X76232952Y-59511061D01*
X76232952Y-59511061D02*
X76209143Y-59415823D01*
X76209143Y-59415823D02*
X76209143Y-59344395D01*
X76209143Y-59344395D02*
X76232952Y-59249157D01*
X76232952Y-59249157D02*
X76256762Y-59201538D01*
X76256762Y-59201538D02*
X76304381Y-59153919D01*
X76304381Y-59153919D02*
X76375809Y-59130109D01*
X76375809Y-59130109D02*
X76423428Y-59130109D01*
X76423428Y-59130109D02*
X76494857Y-59153919D01*
X76494857Y-59153919D02*
X76518666Y-59177728D01*
X76685333Y-59130109D02*
X76994857Y-59130109D01*
X76994857Y-59130109D02*
X76828190Y-59320585D01*
X76828190Y-59320585D02*
X76899619Y-59320585D01*
X76899619Y-59320585D02*
X76947238Y-59344395D01*
X76947238Y-59344395D02*
X76971047Y-59368204D01*
X76971047Y-59368204D02*
X76994857Y-59415823D01*
X76994857Y-59415823D02*
X76994857Y-59534871D01*
X76994857Y-59534871D02*
X76971047Y-59582490D01*
X76971047Y-59582490D02*
X76947238Y-59606300D01*
X76947238Y-59606300D02*
X76899619Y-59630109D01*
X76899619Y-59630109D02*
X76756762Y-59630109D01*
X76756762Y-59630109D02*
X76709143Y-59606300D01*
X76709143Y-59606300D02*
X76685333Y-59582490D01*
X75661525Y-57653728D02*
X75685334Y-57629919D01*
X75685334Y-57629919D02*
X75732953Y-57606109D01*
X75732953Y-57606109D02*
X75852001Y-57606109D01*
X75852001Y-57606109D02*
X75899620Y-57629919D01*
X75899620Y-57629919D02*
X75923429Y-57653728D01*
X75923429Y-57653728D02*
X75947239Y-57701347D01*
X75947239Y-57701347D02*
X75947239Y-57748966D01*
X75947239Y-57748966D02*
X75923429Y-57820395D01*
X75923429Y-57820395D02*
X75637715Y-58106109D01*
X75637715Y-58106109D02*
X75947239Y-58106109D01*
X76137715Y-57653728D02*
X76161524Y-57629919D01*
X76161524Y-57629919D02*
X76209143Y-57606109D01*
X76209143Y-57606109D02*
X76328191Y-57606109D01*
X76328191Y-57606109D02*
X76375810Y-57629919D01*
X76375810Y-57629919D02*
X76399619Y-57653728D01*
X76399619Y-57653728D02*
X76423429Y-57701347D01*
X76423429Y-57701347D02*
X76423429Y-57748966D01*
X76423429Y-57748966D02*
X76399619Y-57820395D01*
X76399619Y-57820395D02*
X76113905Y-58106109D01*
X76113905Y-58106109D02*
X76423429Y-58106109D01*
X77018666Y-57772776D02*
X77018666Y-58272776D01*
X77018666Y-57796585D02*
X77066285Y-57772776D01*
X77066285Y-57772776D02*
X77161523Y-57772776D01*
X77161523Y-57772776D02*
X77209142Y-57796585D01*
X77209142Y-57796585D02*
X77232952Y-57820395D01*
X77232952Y-57820395D02*
X77256761Y-57868014D01*
X77256761Y-57868014D02*
X77256761Y-58010871D01*
X77256761Y-58010871D02*
X77232952Y-58058490D01*
X77232952Y-58058490D02*
X77209142Y-58082300D01*
X77209142Y-58082300D02*
X77161523Y-58106109D01*
X77161523Y-58106109D02*
X77066285Y-58106109D01*
X77066285Y-58106109D02*
X77018666Y-58082300D01*
X77399619Y-57772776D02*
X77590095Y-57772776D01*
X77471047Y-58106109D02*
X77471047Y-57677538D01*
X77471047Y-57677538D02*
X77494857Y-57629919D01*
X77494857Y-57629919D02*
X77542476Y-57606109D01*
X77542476Y-57606109D02*
X77590095Y-57606109D01*
X85154666Y-58488109D02*
X84988000Y-58250014D01*
X84868952Y-58488109D02*
X84868952Y-57988109D01*
X84868952Y-57988109D02*
X85059428Y-57988109D01*
X85059428Y-57988109D02*
X85107047Y-58011919D01*
X85107047Y-58011919D02*
X85130857Y-58035728D01*
X85130857Y-58035728D02*
X85154666Y-58083347D01*
X85154666Y-58083347D02*
X85154666Y-58154776D01*
X85154666Y-58154776D02*
X85130857Y-58202395D01*
X85130857Y-58202395D02*
X85107047Y-58226204D01*
X85107047Y-58226204D02*
X85059428Y-58250014D01*
X85059428Y-58250014D02*
X84868952Y-58250014D01*
X85321333Y-57988109D02*
X85654666Y-57988109D01*
X85654666Y-57988109D02*
X85440381Y-58488109D01*
X83643636Y-61162109D02*
X83953160Y-61162109D01*
X83953160Y-61162109D02*
X83786493Y-61352585D01*
X83786493Y-61352585D02*
X83857922Y-61352585D01*
X83857922Y-61352585D02*
X83905541Y-61376395D01*
X83905541Y-61376395D02*
X83929350Y-61400204D01*
X83929350Y-61400204D02*
X83953160Y-61447823D01*
X83953160Y-61447823D02*
X83953160Y-61566871D01*
X83953160Y-61566871D02*
X83929350Y-61614490D01*
X83929350Y-61614490D02*
X83905541Y-61638300D01*
X83905541Y-61638300D02*
X83857922Y-61662109D01*
X83857922Y-61662109D02*
X83715065Y-61662109D01*
X83715065Y-61662109D02*
X83667446Y-61638300D01*
X83667446Y-61638300D02*
X83643636Y-61614490D01*
X84119826Y-61162109D02*
X84429350Y-61162109D01*
X84429350Y-61162109D02*
X84262683Y-61352585D01*
X84262683Y-61352585D02*
X84334112Y-61352585D01*
X84334112Y-61352585D02*
X84381731Y-61376395D01*
X84381731Y-61376395D02*
X84405540Y-61400204D01*
X84405540Y-61400204D02*
X84429350Y-61447823D01*
X84429350Y-61447823D02*
X84429350Y-61566871D01*
X84429350Y-61566871D02*
X84405540Y-61614490D01*
X84405540Y-61614490D02*
X84381731Y-61638300D01*
X84381731Y-61638300D02*
X84334112Y-61662109D01*
X84334112Y-61662109D02*
X84191255Y-61662109D01*
X84191255Y-61662109D02*
X84143636Y-61638300D01*
X84143636Y-61638300D02*
X84119826Y-61614490D01*
X84738873Y-61162109D02*
X84786492Y-61162109D01*
X84786492Y-61162109D02*
X84834111Y-61185919D01*
X84834111Y-61185919D02*
X84857921Y-61209728D01*
X84857921Y-61209728D02*
X84881730Y-61257347D01*
X84881730Y-61257347D02*
X84905540Y-61352585D01*
X84905540Y-61352585D02*
X84905540Y-61471633D01*
X84905540Y-61471633D02*
X84881730Y-61566871D01*
X84881730Y-61566871D02*
X84857921Y-61614490D01*
X84857921Y-61614490D02*
X84834111Y-61638300D01*
X84834111Y-61638300D02*
X84786492Y-61662109D01*
X84786492Y-61662109D02*
X84738873Y-61662109D01*
X84738873Y-61662109D02*
X84691254Y-61638300D01*
X84691254Y-61638300D02*
X84667445Y-61614490D01*
X84667445Y-61614490D02*
X84643635Y-61566871D01*
X84643635Y-61566871D02*
X84619826Y-61471633D01*
X84619826Y-61471633D02*
X84619826Y-61352585D01*
X84619826Y-61352585D02*
X84643635Y-61257347D01*
X84643635Y-61257347D02*
X84667445Y-61209728D01*
X84667445Y-61209728D02*
X84691254Y-61185919D01*
X84691254Y-61185919D02*
X84738873Y-61162109D01*
X85572206Y-61662109D02*
X85524587Y-61638300D01*
X85524587Y-61638300D02*
X85500777Y-61614490D01*
X85500777Y-61614490D02*
X85476968Y-61566871D01*
X85476968Y-61566871D02*
X85476968Y-61424014D01*
X85476968Y-61424014D02*
X85500777Y-61376395D01*
X85500777Y-61376395D02*
X85524587Y-61352585D01*
X85524587Y-61352585D02*
X85572206Y-61328776D01*
X85572206Y-61328776D02*
X85643634Y-61328776D01*
X85643634Y-61328776D02*
X85691253Y-61352585D01*
X85691253Y-61352585D02*
X85715063Y-61376395D01*
X85715063Y-61376395D02*
X85738872Y-61424014D01*
X85738872Y-61424014D02*
X85738872Y-61566871D01*
X85738872Y-61566871D02*
X85715063Y-61614490D01*
X85715063Y-61614490D02*
X85691253Y-61638300D01*
X85691253Y-61638300D02*
X85643634Y-61662109D01*
X85643634Y-61662109D02*
X85572206Y-61662109D01*
X85953158Y-61662109D02*
X85953158Y-61162109D01*
X86167444Y-61662109D02*
X86167444Y-61400204D01*
X86167444Y-61400204D02*
X86143634Y-61352585D01*
X86143634Y-61352585D02*
X86096015Y-61328776D01*
X86096015Y-61328776D02*
X86024587Y-61328776D01*
X86024587Y-61328776D02*
X85976968Y-61352585D01*
X85976968Y-61352585D02*
X85953158Y-61376395D01*
X86405539Y-61662109D02*
X86405539Y-61328776D01*
X86405539Y-61376395D02*
X86429349Y-61352585D01*
X86429349Y-61352585D02*
X86476968Y-61328776D01*
X86476968Y-61328776D02*
X86548396Y-61328776D01*
X86548396Y-61328776D02*
X86596015Y-61352585D01*
X86596015Y-61352585D02*
X86619825Y-61400204D01*
X86619825Y-61400204D02*
X86619825Y-61662109D01*
X86619825Y-61400204D02*
X86643634Y-61352585D01*
X86643634Y-61352585D02*
X86691253Y-61328776D01*
X86691253Y-61328776D02*
X86762682Y-61328776D01*
X86762682Y-61328776D02*
X86810301Y-61352585D01*
X86810301Y-61352585D02*
X86834111Y-61400204D01*
X86834111Y-61400204D02*
X86834111Y-61662109D01*
X87048397Y-61638300D02*
X87096016Y-61662109D01*
X87096016Y-61662109D02*
X87191254Y-61662109D01*
X87191254Y-61662109D02*
X87238873Y-61638300D01*
X87238873Y-61638300D02*
X87262682Y-61590680D01*
X87262682Y-61590680D02*
X87262682Y-61566871D01*
X87262682Y-61566871D02*
X87238873Y-61519252D01*
X87238873Y-61519252D02*
X87191254Y-61495442D01*
X87191254Y-61495442D02*
X87119825Y-61495442D01*
X87119825Y-61495442D02*
X87072206Y-61471633D01*
X87072206Y-61471633D02*
X87048397Y-61424014D01*
X87048397Y-61424014D02*
X87048397Y-61400204D01*
X87048397Y-61400204D02*
X87072206Y-61352585D01*
X87072206Y-61352585D02*
X87119825Y-61328776D01*
X87119825Y-61328776D02*
X87191254Y-61328776D01*
X87191254Y-61328776D02*
X87238873Y-61352585D01*
X88202666Y-67250109D02*
X88036000Y-67012014D01*
X87916952Y-67250109D02*
X87916952Y-66750109D01*
X87916952Y-66750109D02*
X88107428Y-66750109D01*
X88107428Y-66750109D02*
X88155047Y-66773919D01*
X88155047Y-66773919D02*
X88178857Y-66797728D01*
X88178857Y-66797728D02*
X88202666Y-66845347D01*
X88202666Y-66845347D02*
X88202666Y-66916776D01*
X88202666Y-66916776D02*
X88178857Y-66964395D01*
X88178857Y-66964395D02*
X88155047Y-66988204D01*
X88155047Y-66988204D02*
X88107428Y-67012014D01*
X88107428Y-67012014D02*
X87916952Y-67012014D01*
X88369333Y-66750109D02*
X88678857Y-66750109D01*
X88678857Y-66750109D02*
X88512190Y-66940585D01*
X88512190Y-66940585D02*
X88583619Y-66940585D01*
X88583619Y-66940585D02*
X88631238Y-66964395D01*
X88631238Y-66964395D02*
X88655047Y-66988204D01*
X88655047Y-66988204D02*
X88678857Y-67035823D01*
X88678857Y-67035823D02*
X88678857Y-67154871D01*
X88678857Y-67154871D02*
X88655047Y-67202490D01*
X88655047Y-67202490D02*
X88631238Y-67226300D01*
X88631238Y-67226300D02*
X88583619Y-67250109D01*
X88583619Y-67250109D02*
X88440762Y-67250109D01*
X88440762Y-67250109D02*
X88393143Y-67226300D01*
X88393143Y-67226300D02*
X88369333Y-67202490D01*
X84103143Y-68948776D02*
X84103143Y-69282109D01*
X83984095Y-68758300D02*
X83865048Y-69115442D01*
X83865048Y-69115442D02*
X84174571Y-69115442D01*
X84365047Y-69234490D02*
X84388857Y-69258300D01*
X84388857Y-69258300D02*
X84365047Y-69282109D01*
X84365047Y-69282109D02*
X84341238Y-69258300D01*
X84341238Y-69258300D02*
X84365047Y-69234490D01*
X84365047Y-69234490D02*
X84365047Y-69282109D01*
X84555523Y-68782109D02*
X84888856Y-68782109D01*
X84888856Y-68782109D02*
X84674571Y-69282109D01*
X85460284Y-69282109D02*
X85460284Y-68782109D01*
X85507903Y-69091633D02*
X85650760Y-69282109D01*
X85650760Y-68948776D02*
X85460284Y-69139252D01*
X85936475Y-69282109D02*
X85888856Y-69258300D01*
X85888856Y-69258300D02*
X85865046Y-69234490D01*
X85865046Y-69234490D02*
X85841237Y-69186871D01*
X85841237Y-69186871D02*
X85841237Y-69044014D01*
X85841237Y-69044014D02*
X85865046Y-68996395D01*
X85865046Y-68996395D02*
X85888856Y-68972585D01*
X85888856Y-68972585D02*
X85936475Y-68948776D01*
X85936475Y-68948776D02*
X86007903Y-68948776D01*
X86007903Y-68948776D02*
X86055522Y-68972585D01*
X86055522Y-68972585D02*
X86079332Y-68996395D01*
X86079332Y-68996395D02*
X86103141Y-69044014D01*
X86103141Y-69044014D02*
X86103141Y-69186871D01*
X86103141Y-69186871D02*
X86079332Y-69234490D01*
X86079332Y-69234490D02*
X86055522Y-69258300D01*
X86055522Y-69258300D02*
X86007903Y-69282109D01*
X86007903Y-69282109D02*
X85936475Y-69282109D01*
X86317427Y-69282109D02*
X86317427Y-68782109D01*
X86531713Y-69282109D02*
X86531713Y-69020204D01*
X86531713Y-69020204D02*
X86507903Y-68972585D01*
X86507903Y-68972585D02*
X86460284Y-68948776D01*
X86460284Y-68948776D02*
X86388856Y-68948776D01*
X86388856Y-68948776D02*
X86341237Y-68972585D01*
X86341237Y-68972585D02*
X86317427Y-68996395D01*
X86769808Y-69282109D02*
X86769808Y-68948776D01*
X86769808Y-68996395D02*
X86793618Y-68972585D01*
X86793618Y-68972585D02*
X86841237Y-68948776D01*
X86841237Y-68948776D02*
X86912665Y-68948776D01*
X86912665Y-68948776D02*
X86960284Y-68972585D01*
X86960284Y-68972585D02*
X86984094Y-69020204D01*
X86984094Y-69020204D02*
X86984094Y-69282109D01*
X86984094Y-69020204D02*
X87007903Y-68972585D01*
X87007903Y-68972585D02*
X87055522Y-68948776D01*
X87055522Y-68948776D02*
X87126951Y-68948776D01*
X87126951Y-68948776D02*
X87174570Y-68972585D01*
X87174570Y-68972585D02*
X87198380Y-69020204D01*
X87198380Y-69020204D02*
X87198380Y-69282109D01*
X87412666Y-69258300D02*
X87460285Y-69282109D01*
X87460285Y-69282109D02*
X87555523Y-69282109D01*
X87555523Y-69282109D02*
X87603142Y-69258300D01*
X87603142Y-69258300D02*
X87626951Y-69210680D01*
X87626951Y-69210680D02*
X87626951Y-69186871D01*
X87626951Y-69186871D02*
X87603142Y-69139252D01*
X87603142Y-69139252D02*
X87555523Y-69115442D01*
X87555523Y-69115442D02*
X87484094Y-69115442D01*
X87484094Y-69115442D02*
X87436475Y-69091633D01*
X87436475Y-69091633D02*
X87412666Y-69044014D01*
X87412666Y-69044014D02*
X87412666Y-69020204D01*
X87412666Y-69020204D02*
X87436475Y-68972585D01*
X87436475Y-68972585D02*
X87484094Y-68948776D01*
X87484094Y-68948776D02*
X87555523Y-68948776D01*
X87555523Y-68948776D02*
X87603142Y-68972585D01*
X81090666Y-59074490D02*
X81066857Y-59098300D01*
X81066857Y-59098300D02*
X80995428Y-59122109D01*
X80995428Y-59122109D02*
X80947809Y-59122109D01*
X80947809Y-59122109D02*
X80876381Y-59098300D01*
X80876381Y-59098300D02*
X80828762Y-59050680D01*
X80828762Y-59050680D02*
X80804952Y-59003061D01*
X80804952Y-59003061D02*
X80781143Y-58907823D01*
X80781143Y-58907823D02*
X80781143Y-58836395D01*
X80781143Y-58836395D02*
X80804952Y-58741157D01*
X80804952Y-58741157D02*
X80828762Y-58693538D01*
X80828762Y-58693538D02*
X80876381Y-58645919D01*
X80876381Y-58645919D02*
X80947809Y-58622109D01*
X80947809Y-58622109D02*
X80995428Y-58622109D01*
X80995428Y-58622109D02*
X81066857Y-58645919D01*
X81066857Y-58645919D02*
X81090666Y-58669728D01*
X81543047Y-58622109D02*
X81304952Y-58622109D01*
X81304952Y-58622109D02*
X81281143Y-58860204D01*
X81281143Y-58860204D02*
X81304952Y-58836395D01*
X81304952Y-58836395D02*
X81352571Y-58812585D01*
X81352571Y-58812585D02*
X81471619Y-58812585D01*
X81471619Y-58812585D02*
X81519238Y-58836395D01*
X81519238Y-58836395D02*
X81543047Y-58860204D01*
X81543047Y-58860204D02*
X81566857Y-58907823D01*
X81566857Y-58907823D02*
X81566857Y-59026871D01*
X81566857Y-59026871D02*
X81543047Y-59074490D01*
X81543047Y-59074490D02*
X81519238Y-59098300D01*
X81519238Y-59098300D02*
X81471619Y-59122109D01*
X81471619Y-59122109D02*
X81352571Y-59122109D01*
X81352571Y-59122109D02*
X81304952Y-59098300D01*
X81304952Y-59098300D02*
X81281143Y-59074490D01*
X80281144Y-55058109D02*
X79995430Y-55058109D01*
X80138287Y-55058109D02*
X80138287Y-54558109D01*
X80138287Y-54558109D02*
X80090668Y-54629538D01*
X80090668Y-54629538D02*
X80043049Y-54677157D01*
X80043049Y-54677157D02*
X79995430Y-54700966D01*
X80757334Y-55058109D02*
X80471620Y-55058109D01*
X80614477Y-55058109D02*
X80614477Y-54558109D01*
X80614477Y-54558109D02*
X80566858Y-54629538D01*
X80566858Y-54629538D02*
X80519239Y-54677157D01*
X80519239Y-54677157D02*
X80471620Y-54700966D01*
X81066857Y-54558109D02*
X81114476Y-54558109D01*
X81114476Y-54558109D02*
X81162095Y-54581919D01*
X81162095Y-54581919D02*
X81185905Y-54605728D01*
X81185905Y-54605728D02*
X81209714Y-54653347D01*
X81209714Y-54653347D02*
X81233524Y-54748585D01*
X81233524Y-54748585D02*
X81233524Y-54867633D01*
X81233524Y-54867633D02*
X81209714Y-54962871D01*
X81209714Y-54962871D02*
X81185905Y-55010490D01*
X81185905Y-55010490D02*
X81162095Y-55034300D01*
X81162095Y-55034300D02*
X81114476Y-55058109D01*
X81114476Y-55058109D02*
X81066857Y-55058109D01*
X81066857Y-55058109D02*
X81019238Y-55034300D01*
X81019238Y-55034300D02*
X80995429Y-55010490D01*
X80995429Y-55010490D02*
X80971619Y-54962871D01*
X80971619Y-54962871D02*
X80947810Y-54867633D01*
X80947810Y-54867633D02*
X80947810Y-54748585D01*
X80947810Y-54748585D02*
X80971619Y-54653347D01*
X80971619Y-54653347D02*
X80995429Y-54605728D01*
X80995429Y-54605728D02*
X81019238Y-54581919D01*
X81019238Y-54581919D02*
X81066857Y-54558109D01*
X81828761Y-54724776D02*
X81828761Y-55058109D01*
X81828761Y-54772395D02*
X81852571Y-54748585D01*
X81852571Y-54748585D02*
X81900190Y-54724776D01*
X81900190Y-54724776D02*
X81971618Y-54724776D01*
X81971618Y-54724776D02*
X82019237Y-54748585D01*
X82019237Y-54748585D02*
X82043047Y-54796204D01*
X82043047Y-54796204D02*
X82043047Y-55058109D01*
X82209714Y-54724776D02*
X82400190Y-54724776D01*
X82281142Y-55058109D02*
X82281142Y-54629538D01*
X82281142Y-54629538D02*
X82304952Y-54581919D01*
X82304952Y-54581919D02*
X82352571Y-54558109D01*
X82352571Y-54558109D02*
X82400190Y-54558109D01*
X72454666Y-55010490D02*
X72430857Y-55034300D01*
X72430857Y-55034300D02*
X72359428Y-55058109D01*
X72359428Y-55058109D02*
X72311809Y-55058109D01*
X72311809Y-55058109D02*
X72240381Y-55034300D01*
X72240381Y-55034300D02*
X72192762Y-54986680D01*
X72192762Y-54986680D02*
X72168952Y-54939061D01*
X72168952Y-54939061D02*
X72145143Y-54843823D01*
X72145143Y-54843823D02*
X72145143Y-54772395D01*
X72145143Y-54772395D02*
X72168952Y-54677157D01*
X72168952Y-54677157D02*
X72192762Y-54629538D01*
X72192762Y-54629538D02*
X72240381Y-54581919D01*
X72240381Y-54581919D02*
X72311809Y-54558109D01*
X72311809Y-54558109D02*
X72359428Y-54558109D01*
X72359428Y-54558109D02*
X72430857Y-54581919D01*
X72430857Y-54581919D02*
X72454666Y-54605728D01*
X72930857Y-55058109D02*
X72645143Y-55058109D01*
X72788000Y-55058109D02*
X72788000Y-54558109D01*
X72788000Y-54558109D02*
X72740381Y-54629538D01*
X72740381Y-54629538D02*
X72692762Y-54677157D01*
X72692762Y-54677157D02*
X72645143Y-54700966D01*
X71089524Y-57762109D02*
X71137143Y-57762109D01*
X71137143Y-57762109D02*
X71184762Y-57785919D01*
X71184762Y-57785919D02*
X71208572Y-57809728D01*
X71208572Y-57809728D02*
X71232381Y-57857347D01*
X71232381Y-57857347D02*
X71256191Y-57952585D01*
X71256191Y-57952585D02*
X71256191Y-58071633D01*
X71256191Y-58071633D02*
X71232381Y-58166871D01*
X71232381Y-58166871D02*
X71208572Y-58214490D01*
X71208572Y-58214490D02*
X71184762Y-58238300D01*
X71184762Y-58238300D02*
X71137143Y-58262109D01*
X71137143Y-58262109D02*
X71089524Y-58262109D01*
X71089524Y-58262109D02*
X71041905Y-58238300D01*
X71041905Y-58238300D02*
X71018096Y-58214490D01*
X71018096Y-58214490D02*
X70994286Y-58166871D01*
X70994286Y-58166871D02*
X70970477Y-58071633D01*
X70970477Y-58071633D02*
X70970477Y-57952585D01*
X70970477Y-57952585D02*
X70994286Y-57857347D01*
X70994286Y-57857347D02*
X71018096Y-57809728D01*
X71018096Y-57809728D02*
X71041905Y-57785919D01*
X71041905Y-57785919D02*
X71089524Y-57762109D01*
X71470476Y-58214490D02*
X71494286Y-58238300D01*
X71494286Y-58238300D02*
X71470476Y-58262109D01*
X71470476Y-58262109D02*
X71446667Y-58238300D01*
X71446667Y-58238300D02*
X71470476Y-58214490D01*
X71470476Y-58214490D02*
X71470476Y-58262109D01*
X71970476Y-58262109D02*
X71684762Y-58262109D01*
X71827619Y-58262109D02*
X71827619Y-57762109D01*
X71827619Y-57762109D02*
X71780000Y-57833538D01*
X71780000Y-57833538D02*
X71732381Y-57881157D01*
X71732381Y-57881157D02*
X71684762Y-57904966D01*
X72779999Y-57928776D02*
X72779999Y-58262109D01*
X72565713Y-57928776D02*
X72565713Y-58190680D01*
X72565713Y-58190680D02*
X72589523Y-58238300D01*
X72589523Y-58238300D02*
X72637142Y-58262109D01*
X72637142Y-58262109D02*
X72708570Y-58262109D01*
X72708570Y-58262109D02*
X72756189Y-58238300D01*
X72756189Y-58238300D02*
X72779999Y-58214490D01*
X72946666Y-57928776D02*
X73137142Y-57928776D01*
X73018094Y-58262109D02*
X73018094Y-57833538D01*
X73018094Y-57833538D02*
X73041904Y-57785919D01*
X73041904Y-57785919D02*
X73089523Y-57762109D01*
X73089523Y-57762109D02*
X73137142Y-57762109D01*
X72665047Y-61670109D02*
X72665047Y-62074871D01*
X72665047Y-62074871D02*
X72688857Y-62122490D01*
X72688857Y-62122490D02*
X72712666Y-62146300D01*
X72712666Y-62146300D02*
X72760285Y-62170109D01*
X72760285Y-62170109D02*
X72855523Y-62170109D01*
X72855523Y-62170109D02*
X72903142Y-62146300D01*
X72903142Y-62146300D02*
X72926952Y-62122490D01*
X72926952Y-62122490D02*
X72950761Y-62074871D01*
X72950761Y-62074871D02*
X72950761Y-61670109D01*
X73403143Y-61836776D02*
X73403143Y-62170109D01*
X73284095Y-61646300D02*
X73165048Y-62003442D01*
X73165048Y-62003442D02*
X73474571Y-62003442D01*
X73058287Y-73711252D02*
X73296382Y-73711252D01*
X73010668Y-73854109D02*
X73177334Y-73354109D01*
X73177334Y-73354109D02*
X73344001Y-73854109D01*
X73439239Y-73354109D02*
X73724953Y-73354109D01*
X73582096Y-73854109D02*
X73582096Y-73354109D01*
X73891619Y-73854109D02*
X73891619Y-73354109D01*
X73891619Y-73354109D02*
X74058286Y-73711252D01*
X74058286Y-73711252D02*
X74224952Y-73354109D01*
X74224952Y-73354109D02*
X74224952Y-73854109D01*
X74463048Y-73592204D02*
X74629715Y-73592204D01*
X74701143Y-73854109D02*
X74463048Y-73854109D01*
X74463048Y-73854109D02*
X74463048Y-73354109D01*
X74463048Y-73354109D02*
X74701143Y-73354109D01*
X75177334Y-73377919D02*
X75129715Y-73354109D01*
X75129715Y-73354109D02*
X75058286Y-73354109D01*
X75058286Y-73354109D02*
X74986858Y-73377919D01*
X74986858Y-73377919D02*
X74939239Y-73425538D01*
X74939239Y-73425538D02*
X74915429Y-73473157D01*
X74915429Y-73473157D02*
X74891620Y-73568395D01*
X74891620Y-73568395D02*
X74891620Y-73639823D01*
X74891620Y-73639823D02*
X74915429Y-73735061D01*
X74915429Y-73735061D02*
X74939239Y-73782680D01*
X74939239Y-73782680D02*
X74986858Y-73830300D01*
X74986858Y-73830300D02*
X75058286Y-73854109D01*
X75058286Y-73854109D02*
X75105905Y-73854109D01*
X75105905Y-73854109D02*
X75177334Y-73830300D01*
X75177334Y-73830300D02*
X75201143Y-73806490D01*
X75201143Y-73806490D02*
X75201143Y-73639823D01*
X75201143Y-73639823D02*
X75105905Y-73639823D01*
X75391620Y-73711252D02*
X75629715Y-73711252D01*
X75344001Y-73854109D02*
X75510667Y-73354109D01*
X75510667Y-73354109D02*
X75677334Y-73854109D01*
X75796381Y-73354109D02*
X76105905Y-73354109D01*
X76105905Y-73354109D02*
X75939238Y-73544585D01*
X75939238Y-73544585D02*
X76010667Y-73544585D01*
X76010667Y-73544585D02*
X76058286Y-73568395D01*
X76058286Y-73568395D02*
X76082095Y-73592204D01*
X76082095Y-73592204D02*
X76105905Y-73639823D01*
X76105905Y-73639823D02*
X76105905Y-73758871D01*
X76105905Y-73758871D02*
X76082095Y-73806490D01*
X76082095Y-73806490D02*
X76058286Y-73830300D01*
X76058286Y-73830300D02*
X76010667Y-73854109D01*
X76010667Y-73854109D02*
X75867810Y-73854109D01*
X75867810Y-73854109D02*
X75820191Y-73830300D01*
X75820191Y-73830300D02*
X75796381Y-73806490D01*
X76296381Y-73401728D02*
X76320190Y-73377919D01*
X76320190Y-73377919D02*
X76367809Y-73354109D01*
X76367809Y-73354109D02*
X76486857Y-73354109D01*
X76486857Y-73354109D02*
X76534476Y-73377919D01*
X76534476Y-73377919D02*
X76558285Y-73401728D01*
X76558285Y-73401728D02*
X76582095Y-73449347D01*
X76582095Y-73449347D02*
X76582095Y-73496966D01*
X76582095Y-73496966D02*
X76558285Y-73568395D01*
X76558285Y-73568395D02*
X76272571Y-73854109D01*
X76272571Y-73854109D02*
X76582095Y-73854109D01*
X76867809Y-73568395D02*
X76820190Y-73544585D01*
X76820190Y-73544585D02*
X76796380Y-73520776D01*
X76796380Y-73520776D02*
X76772571Y-73473157D01*
X76772571Y-73473157D02*
X76772571Y-73449347D01*
X76772571Y-73449347D02*
X76796380Y-73401728D01*
X76796380Y-73401728D02*
X76820190Y-73377919D01*
X76820190Y-73377919D02*
X76867809Y-73354109D01*
X76867809Y-73354109D02*
X76963047Y-73354109D01*
X76963047Y-73354109D02*
X77010666Y-73377919D01*
X77010666Y-73377919D02*
X77034475Y-73401728D01*
X77034475Y-73401728D02*
X77058285Y-73449347D01*
X77058285Y-73449347D02*
X77058285Y-73473157D01*
X77058285Y-73473157D02*
X77034475Y-73520776D01*
X77034475Y-73520776D02*
X77010666Y-73544585D01*
X77010666Y-73544585D02*
X76963047Y-73568395D01*
X76963047Y-73568395D02*
X76867809Y-73568395D01*
X76867809Y-73568395D02*
X76820190Y-73592204D01*
X76820190Y-73592204D02*
X76796380Y-73616014D01*
X76796380Y-73616014D02*
X76772571Y-73663633D01*
X76772571Y-73663633D02*
X76772571Y-73758871D01*
X76772571Y-73758871D02*
X76796380Y-73806490D01*
X76796380Y-73806490D02*
X76820190Y-73830300D01*
X76820190Y-73830300D02*
X76867809Y-73854109D01*
X76867809Y-73854109D02*
X76963047Y-73854109D01*
X76963047Y-73854109D02*
X77010666Y-73830300D01*
X77010666Y-73830300D02*
X77034475Y-73806490D01*
X77034475Y-73806490D02*
X77058285Y-73758871D01*
X77058285Y-73758871D02*
X77058285Y-73663633D01*
X77058285Y-73663633D02*
X77034475Y-73616014D01*
X77034475Y-73616014D02*
X77010666Y-73592204D01*
X77010666Y-73592204D02*
X76963047Y-73568395D01*
X77272570Y-73854109D02*
X77272570Y-73354109D01*
X77272570Y-73354109D02*
X77463046Y-73354109D01*
X77463046Y-73354109D02*
X77510665Y-73377919D01*
X77510665Y-73377919D02*
X77534475Y-73401728D01*
X77534475Y-73401728D02*
X77558284Y-73449347D01*
X77558284Y-73449347D02*
X77558284Y-73520776D01*
X77558284Y-73520776D02*
X77534475Y-73568395D01*
X77534475Y-73568395D02*
X77510665Y-73592204D01*
X77510665Y-73592204D02*
X77463046Y-73616014D01*
X77463046Y-73616014D02*
X77272570Y-73616014D01*
X77772570Y-73663633D02*
X78153523Y-73663633D01*
X78367809Y-73711252D02*
X78605904Y-73711252D01*
X78320190Y-73854109D02*
X78486856Y-73354109D01*
X78486856Y-73354109D02*
X78653523Y-73854109D01*
X78820189Y-73354109D02*
X78820189Y-73758871D01*
X78820189Y-73758871D02*
X78843999Y-73806490D01*
X78843999Y-73806490D02*
X78867808Y-73830300D01*
X78867808Y-73830300D02*
X78915427Y-73854109D01*
X78915427Y-73854109D02*
X79010665Y-73854109D01*
X79010665Y-73854109D02*
X79058284Y-73830300D01*
X79058284Y-73830300D02*
X79082094Y-73806490D01*
X79082094Y-73806490D02*
X79105903Y-73758871D01*
X79105903Y-73758871D02*
X79105903Y-73354109D01*
X62624287Y-61717728D02*
X62648096Y-61693919D01*
X62648096Y-61693919D02*
X62695715Y-61670109D01*
X62695715Y-61670109D02*
X62814763Y-61670109D01*
X62814763Y-61670109D02*
X62862382Y-61693919D01*
X62862382Y-61693919D02*
X62886191Y-61717728D01*
X62886191Y-61717728D02*
X62910001Y-61765347D01*
X62910001Y-61765347D02*
X62910001Y-61812966D01*
X62910001Y-61812966D02*
X62886191Y-61884395D01*
X62886191Y-61884395D02*
X62600477Y-62170109D01*
X62600477Y-62170109D02*
X62910001Y-62170109D01*
X63338572Y-61836776D02*
X63338572Y-62170109D01*
X63219524Y-61646300D02*
X63100477Y-62003442D01*
X63100477Y-62003442D02*
X63410000Y-62003442D01*
X63838571Y-62170109D02*
X63600476Y-62170109D01*
X63600476Y-62170109D02*
X63600476Y-61670109D01*
X64290952Y-62122490D02*
X64267143Y-62146300D01*
X64267143Y-62146300D02*
X64195714Y-62170109D01*
X64195714Y-62170109D02*
X64148095Y-62170109D01*
X64148095Y-62170109D02*
X64076667Y-62146300D01*
X64076667Y-62146300D02*
X64029048Y-62098680D01*
X64029048Y-62098680D02*
X64005238Y-62051061D01*
X64005238Y-62051061D02*
X63981429Y-61955823D01*
X63981429Y-61955823D02*
X63981429Y-61884395D01*
X63981429Y-61884395D02*
X64005238Y-61789157D01*
X64005238Y-61789157D02*
X64029048Y-61741538D01*
X64029048Y-61741538D02*
X64076667Y-61693919D01*
X64076667Y-61693919D02*
X64148095Y-61670109D01*
X64148095Y-61670109D02*
X64195714Y-61670109D01*
X64195714Y-61670109D02*
X64267143Y-61693919D01*
X64267143Y-61693919D02*
X64290952Y-61717728D01*
X64767143Y-62170109D02*
X64481429Y-62170109D01*
X64624286Y-62170109D02*
X64624286Y-61670109D01*
X64624286Y-61670109D02*
X64576667Y-61741538D01*
X64576667Y-61741538D02*
X64529048Y-61789157D01*
X64529048Y-61789157D02*
X64481429Y-61812966D01*
X65076666Y-61670109D02*
X65124285Y-61670109D01*
X65124285Y-61670109D02*
X65171904Y-61693919D01*
X65171904Y-61693919D02*
X65195714Y-61717728D01*
X65195714Y-61717728D02*
X65219523Y-61765347D01*
X65219523Y-61765347D02*
X65243333Y-61860585D01*
X65243333Y-61860585D02*
X65243333Y-61979633D01*
X65243333Y-61979633D02*
X65219523Y-62074871D01*
X65219523Y-62074871D02*
X65195714Y-62122490D01*
X65195714Y-62122490D02*
X65171904Y-62146300D01*
X65171904Y-62146300D02*
X65124285Y-62170109D01*
X65124285Y-62170109D02*
X65076666Y-62170109D01*
X65076666Y-62170109D02*
X65029047Y-62146300D01*
X65029047Y-62146300D02*
X65005238Y-62122490D01*
X65005238Y-62122490D02*
X64981428Y-62074871D01*
X64981428Y-62074871D02*
X64957619Y-61979633D01*
X64957619Y-61979633D02*
X64957619Y-61860585D01*
X64957619Y-61860585D02*
X64981428Y-61765347D01*
X64981428Y-61765347D02*
X65005238Y-61717728D01*
X65005238Y-61717728D02*
X65029047Y-61693919D01*
X65029047Y-61693919D02*
X65076666Y-61670109D01*
X65433809Y-61717728D02*
X65457618Y-61693919D01*
X65457618Y-61693919D02*
X65505237Y-61670109D01*
X65505237Y-61670109D02*
X65624285Y-61670109D01*
X65624285Y-61670109D02*
X65671904Y-61693919D01*
X65671904Y-61693919D02*
X65695713Y-61717728D01*
X65695713Y-61717728D02*
X65719523Y-61765347D01*
X65719523Y-61765347D02*
X65719523Y-61812966D01*
X65719523Y-61812966D02*
X65695713Y-61884395D01*
X65695713Y-61884395D02*
X65409999Y-62170109D01*
X65409999Y-62170109D02*
X65719523Y-62170109D01*
X66171903Y-61670109D02*
X65933808Y-61670109D01*
X65933808Y-61670109D02*
X65909999Y-61908204D01*
X65909999Y-61908204D02*
X65933808Y-61884395D01*
X65933808Y-61884395D02*
X65981427Y-61860585D01*
X65981427Y-61860585D02*
X66100475Y-61860585D01*
X66100475Y-61860585D02*
X66148094Y-61884395D01*
X66148094Y-61884395D02*
X66171903Y-61908204D01*
X66171903Y-61908204D02*
X66195713Y-61955823D01*
X66195713Y-61955823D02*
X66195713Y-62074871D01*
X66195713Y-62074871D02*
X66171903Y-62122490D01*
X66171903Y-62122490D02*
X66148094Y-62146300D01*
X66148094Y-62146300D02*
X66100475Y-62170109D01*
X66100475Y-62170109D02*
X65981427Y-62170109D01*
X65981427Y-62170109D02*
X65933808Y-62146300D01*
X65933808Y-62146300D02*
X65909999Y-62122490D01*
X58052287Y-54605728D02*
X58076096Y-54581919D01*
X58076096Y-54581919D02*
X58123715Y-54558109D01*
X58123715Y-54558109D02*
X58242763Y-54558109D01*
X58242763Y-54558109D02*
X58290382Y-54581919D01*
X58290382Y-54581919D02*
X58314191Y-54605728D01*
X58314191Y-54605728D02*
X58338001Y-54653347D01*
X58338001Y-54653347D02*
X58338001Y-54700966D01*
X58338001Y-54700966D02*
X58314191Y-54772395D01*
X58314191Y-54772395D02*
X58028477Y-55058109D01*
X58028477Y-55058109D02*
X58338001Y-55058109D01*
X58766572Y-54724776D02*
X58766572Y-55058109D01*
X58647524Y-54534300D02*
X58528477Y-54891442D01*
X58528477Y-54891442D02*
X58838000Y-54891442D01*
X59266571Y-55058109D02*
X59028476Y-55058109D01*
X59028476Y-55058109D02*
X59028476Y-54558109D01*
X59718952Y-55010490D02*
X59695143Y-55034300D01*
X59695143Y-55034300D02*
X59623714Y-55058109D01*
X59623714Y-55058109D02*
X59576095Y-55058109D01*
X59576095Y-55058109D02*
X59504667Y-55034300D01*
X59504667Y-55034300D02*
X59457048Y-54986680D01*
X59457048Y-54986680D02*
X59433238Y-54939061D01*
X59433238Y-54939061D02*
X59409429Y-54843823D01*
X59409429Y-54843823D02*
X59409429Y-54772395D01*
X59409429Y-54772395D02*
X59433238Y-54677157D01*
X59433238Y-54677157D02*
X59457048Y-54629538D01*
X59457048Y-54629538D02*
X59504667Y-54581919D01*
X59504667Y-54581919D02*
X59576095Y-54558109D01*
X59576095Y-54558109D02*
X59623714Y-54558109D01*
X59623714Y-54558109D02*
X59695143Y-54581919D01*
X59695143Y-54581919D02*
X59718952Y-54605728D01*
X60195143Y-55058109D02*
X59909429Y-55058109D01*
X60052286Y-55058109D02*
X60052286Y-54558109D01*
X60052286Y-54558109D02*
X60004667Y-54629538D01*
X60004667Y-54629538D02*
X59957048Y-54677157D01*
X59957048Y-54677157D02*
X59909429Y-54700966D01*
X60504666Y-54558109D02*
X60552285Y-54558109D01*
X60552285Y-54558109D02*
X60599904Y-54581919D01*
X60599904Y-54581919D02*
X60623714Y-54605728D01*
X60623714Y-54605728D02*
X60647523Y-54653347D01*
X60647523Y-54653347D02*
X60671333Y-54748585D01*
X60671333Y-54748585D02*
X60671333Y-54867633D01*
X60671333Y-54867633D02*
X60647523Y-54962871D01*
X60647523Y-54962871D02*
X60623714Y-55010490D01*
X60623714Y-55010490D02*
X60599904Y-55034300D01*
X60599904Y-55034300D02*
X60552285Y-55058109D01*
X60552285Y-55058109D02*
X60504666Y-55058109D01*
X60504666Y-55058109D02*
X60457047Y-55034300D01*
X60457047Y-55034300D02*
X60433238Y-55010490D01*
X60433238Y-55010490D02*
X60409428Y-54962871D01*
X60409428Y-54962871D02*
X60385619Y-54867633D01*
X60385619Y-54867633D02*
X60385619Y-54748585D01*
X60385619Y-54748585D02*
X60409428Y-54653347D01*
X60409428Y-54653347D02*
X60433238Y-54605728D01*
X60433238Y-54605728D02*
X60457047Y-54581919D01*
X60457047Y-54581919D02*
X60504666Y-54558109D01*
X60861809Y-54605728D02*
X60885618Y-54581919D01*
X60885618Y-54581919D02*
X60933237Y-54558109D01*
X60933237Y-54558109D02*
X61052285Y-54558109D01*
X61052285Y-54558109D02*
X61099904Y-54581919D01*
X61099904Y-54581919D02*
X61123713Y-54605728D01*
X61123713Y-54605728D02*
X61147523Y-54653347D01*
X61147523Y-54653347D02*
X61147523Y-54700966D01*
X61147523Y-54700966D02*
X61123713Y-54772395D01*
X61123713Y-54772395D02*
X60837999Y-55058109D01*
X60837999Y-55058109D02*
X61147523Y-55058109D01*
X61599903Y-54558109D02*
X61361808Y-54558109D01*
X61361808Y-54558109D02*
X61337999Y-54796204D01*
X61337999Y-54796204D02*
X61361808Y-54772395D01*
X61361808Y-54772395D02*
X61409427Y-54748585D01*
X61409427Y-54748585D02*
X61528475Y-54748585D01*
X61528475Y-54748585D02*
X61576094Y-54772395D01*
X61576094Y-54772395D02*
X61599903Y-54796204D01*
X61599903Y-54796204D02*
X61623713Y-54843823D01*
X61623713Y-54843823D02*
X61623713Y-54962871D01*
X61623713Y-54962871D02*
X61599903Y-55010490D01*
X61599903Y-55010490D02*
X61576094Y-55034300D01*
X61576094Y-55034300D02*
X61528475Y-55058109D01*
X61528475Y-55058109D02*
X61409427Y-55058109D01*
X61409427Y-55058109D02*
X61361808Y-55034300D01*
X61361808Y-55034300D02*
X61337999Y-55010490D01*
X87408952Y-57090109D02*
X87408952Y-56590109D01*
X87408952Y-56590109D02*
X87528000Y-56590109D01*
X87528000Y-56590109D02*
X87599428Y-56613919D01*
X87599428Y-56613919D02*
X87647047Y-56661538D01*
X87647047Y-56661538D02*
X87670857Y-56709157D01*
X87670857Y-56709157D02*
X87694666Y-56804395D01*
X87694666Y-56804395D02*
X87694666Y-56875823D01*
X87694666Y-56875823D02*
X87670857Y-56971061D01*
X87670857Y-56971061D02*
X87647047Y-57018680D01*
X87647047Y-57018680D02*
X87599428Y-57066300D01*
X87599428Y-57066300D02*
X87528000Y-57090109D01*
X87528000Y-57090109D02*
X87408952Y-57090109D01*
X87885143Y-56637728D02*
X87908952Y-56613919D01*
X87908952Y-56613919D02*
X87956571Y-56590109D01*
X87956571Y-56590109D02*
X88075619Y-56590109D01*
X88075619Y-56590109D02*
X88123238Y-56613919D01*
X88123238Y-56613919D02*
X88147047Y-56637728D01*
X88147047Y-56637728D02*
X88170857Y-56685347D01*
X88170857Y-56685347D02*
X88170857Y-56732966D01*
X88170857Y-56732966D02*
X88147047Y-56804395D01*
X88147047Y-56804395D02*
X87861333Y-57090109D01*
X87861333Y-57090109D02*
X88170857Y-57090109D01*
X84916571Y-55058109D02*
X84678476Y-55058109D01*
X84678476Y-55058109D02*
X84678476Y-54558109D01*
X85083238Y-54796204D02*
X85249905Y-54796204D01*
X85321333Y-55058109D02*
X85083238Y-55058109D01*
X85083238Y-55058109D02*
X85083238Y-54558109D01*
X85083238Y-54558109D02*
X85321333Y-54558109D01*
X85535619Y-55058109D02*
X85535619Y-54558109D01*
X85535619Y-54558109D02*
X85654667Y-54558109D01*
X85654667Y-54558109D02*
X85726095Y-54581919D01*
X85726095Y-54581919D02*
X85773714Y-54629538D01*
X85773714Y-54629538D02*
X85797524Y-54677157D01*
X85797524Y-54677157D02*
X85821333Y-54772395D01*
X85821333Y-54772395D02*
X85821333Y-54843823D01*
X85821333Y-54843823D02*
X85797524Y-54939061D01*
X85797524Y-54939061D02*
X85773714Y-54986680D01*
X85773714Y-54986680D02*
X85726095Y-55034300D01*
X85726095Y-55034300D02*
X85654667Y-55058109D01*
X85654667Y-55058109D02*
X85535619Y-55058109D01*
X90234666Y-61788109D02*
X90068000Y-61550014D01*
X89948952Y-61788109D02*
X89948952Y-61288109D01*
X89948952Y-61288109D02*
X90139428Y-61288109D01*
X90139428Y-61288109D02*
X90187047Y-61311919D01*
X90187047Y-61311919D02*
X90210857Y-61335728D01*
X90210857Y-61335728D02*
X90234666Y-61383347D01*
X90234666Y-61383347D02*
X90234666Y-61454776D01*
X90234666Y-61454776D02*
X90210857Y-61502395D01*
X90210857Y-61502395D02*
X90187047Y-61526204D01*
X90187047Y-61526204D02*
X90139428Y-61550014D01*
X90139428Y-61550014D02*
X89948952Y-61550014D01*
X90687047Y-61288109D02*
X90448952Y-61288109D01*
X90448952Y-61288109D02*
X90425143Y-61526204D01*
X90425143Y-61526204D02*
X90448952Y-61502395D01*
X90448952Y-61502395D02*
X90496571Y-61478585D01*
X90496571Y-61478585D02*
X90615619Y-61478585D01*
X90615619Y-61478585D02*
X90663238Y-61502395D01*
X90663238Y-61502395D02*
X90687047Y-61526204D01*
X90687047Y-61526204D02*
X90710857Y-61573823D01*
X90710857Y-61573823D02*
X90710857Y-61692871D01*
X90710857Y-61692871D02*
X90687047Y-61740490D01*
X90687047Y-61740490D02*
X90663238Y-61764300D01*
X90663238Y-61764300D02*
X90615619Y-61788109D01*
X90615619Y-61788109D02*
X90496571Y-61788109D01*
X90496571Y-61788109D02*
X90448952Y-61764300D01*
X90448952Y-61764300D02*
X90425143Y-61740490D01*
X89004572Y-58114109D02*
X89314096Y-58114109D01*
X89314096Y-58114109D02*
X89147429Y-58304585D01*
X89147429Y-58304585D02*
X89218858Y-58304585D01*
X89218858Y-58304585D02*
X89266477Y-58328395D01*
X89266477Y-58328395D02*
X89290286Y-58352204D01*
X89290286Y-58352204D02*
X89314096Y-58399823D01*
X89314096Y-58399823D02*
X89314096Y-58518871D01*
X89314096Y-58518871D02*
X89290286Y-58566490D01*
X89290286Y-58566490D02*
X89266477Y-58590300D01*
X89266477Y-58590300D02*
X89218858Y-58614109D01*
X89218858Y-58614109D02*
X89076001Y-58614109D01*
X89076001Y-58614109D02*
X89028382Y-58590300D01*
X89028382Y-58590300D02*
X89004572Y-58566490D01*
X89480762Y-58114109D02*
X89790286Y-58114109D01*
X89790286Y-58114109D02*
X89623619Y-58304585D01*
X89623619Y-58304585D02*
X89695048Y-58304585D01*
X89695048Y-58304585D02*
X89742667Y-58328395D01*
X89742667Y-58328395D02*
X89766476Y-58352204D01*
X89766476Y-58352204D02*
X89790286Y-58399823D01*
X89790286Y-58399823D02*
X89790286Y-58518871D01*
X89790286Y-58518871D02*
X89766476Y-58566490D01*
X89766476Y-58566490D02*
X89742667Y-58590300D01*
X89742667Y-58590300D02*
X89695048Y-58614109D01*
X89695048Y-58614109D02*
X89552191Y-58614109D01*
X89552191Y-58614109D02*
X89504572Y-58590300D01*
X89504572Y-58590300D02*
X89480762Y-58566490D01*
X90099809Y-58114109D02*
X90147428Y-58114109D01*
X90147428Y-58114109D02*
X90195047Y-58137919D01*
X90195047Y-58137919D02*
X90218857Y-58161728D01*
X90218857Y-58161728D02*
X90242666Y-58209347D01*
X90242666Y-58209347D02*
X90266476Y-58304585D01*
X90266476Y-58304585D02*
X90266476Y-58423633D01*
X90266476Y-58423633D02*
X90242666Y-58518871D01*
X90242666Y-58518871D02*
X90218857Y-58566490D01*
X90218857Y-58566490D02*
X90195047Y-58590300D01*
X90195047Y-58590300D02*
X90147428Y-58614109D01*
X90147428Y-58614109D02*
X90099809Y-58614109D01*
X90099809Y-58614109D02*
X90052190Y-58590300D01*
X90052190Y-58590300D02*
X90028381Y-58566490D01*
X90028381Y-58566490D02*
X90004571Y-58518871D01*
X90004571Y-58518871D02*
X89980762Y-58423633D01*
X89980762Y-58423633D02*
X89980762Y-58304585D01*
X89980762Y-58304585D02*
X90004571Y-58209347D01*
X90004571Y-58209347D02*
X90028381Y-58161728D01*
X90028381Y-58161728D02*
X90052190Y-58137919D01*
X90052190Y-58137919D02*
X90099809Y-58114109D01*
X90933142Y-58614109D02*
X90885523Y-58590300D01*
X90885523Y-58590300D02*
X90861713Y-58566490D01*
X90861713Y-58566490D02*
X90837904Y-58518871D01*
X90837904Y-58518871D02*
X90837904Y-58376014D01*
X90837904Y-58376014D02*
X90861713Y-58328395D01*
X90861713Y-58328395D02*
X90885523Y-58304585D01*
X90885523Y-58304585D02*
X90933142Y-58280776D01*
X90933142Y-58280776D02*
X91004570Y-58280776D01*
X91004570Y-58280776D02*
X91052189Y-58304585D01*
X91052189Y-58304585D02*
X91075999Y-58328395D01*
X91075999Y-58328395D02*
X91099808Y-58376014D01*
X91099808Y-58376014D02*
X91099808Y-58518871D01*
X91099808Y-58518871D02*
X91075999Y-58566490D01*
X91075999Y-58566490D02*
X91052189Y-58590300D01*
X91052189Y-58590300D02*
X91004570Y-58614109D01*
X91004570Y-58614109D02*
X90933142Y-58614109D01*
X91314094Y-58614109D02*
X91314094Y-58114109D01*
X91528380Y-58614109D02*
X91528380Y-58352204D01*
X91528380Y-58352204D02*
X91504570Y-58304585D01*
X91504570Y-58304585D02*
X91456951Y-58280776D01*
X91456951Y-58280776D02*
X91385523Y-58280776D01*
X91385523Y-58280776D02*
X91337904Y-58304585D01*
X91337904Y-58304585D02*
X91314094Y-58328395D01*
X91766475Y-58614109D02*
X91766475Y-58280776D01*
X91766475Y-58328395D02*
X91790285Y-58304585D01*
X91790285Y-58304585D02*
X91837904Y-58280776D01*
X91837904Y-58280776D02*
X91909332Y-58280776D01*
X91909332Y-58280776D02*
X91956951Y-58304585D01*
X91956951Y-58304585D02*
X91980761Y-58352204D01*
X91980761Y-58352204D02*
X91980761Y-58614109D01*
X91980761Y-58352204D02*
X92004570Y-58304585D01*
X92004570Y-58304585D02*
X92052189Y-58280776D01*
X92052189Y-58280776D02*
X92123618Y-58280776D01*
X92123618Y-58280776D02*
X92171237Y-58304585D01*
X92171237Y-58304585D02*
X92195047Y-58352204D01*
X92195047Y-58352204D02*
X92195047Y-58614109D01*
X92409333Y-58590300D02*
X92456952Y-58614109D01*
X92456952Y-58614109D02*
X92552190Y-58614109D01*
X92552190Y-58614109D02*
X92599809Y-58590300D01*
X92599809Y-58590300D02*
X92623618Y-58542680D01*
X92623618Y-58542680D02*
X92623618Y-58518871D01*
X92623618Y-58518871D02*
X92599809Y-58471252D01*
X92599809Y-58471252D02*
X92552190Y-58447442D01*
X92552190Y-58447442D02*
X92480761Y-58447442D01*
X92480761Y-58447442D02*
X92433142Y-58423633D01*
X92433142Y-58423633D02*
X92409333Y-58376014D01*
X92409333Y-58376014D02*
X92409333Y-58352204D01*
X92409333Y-58352204D02*
X92433142Y-58304585D01*
X92433142Y-58304585D02*
X92480761Y-58280776D01*
X92480761Y-58280776D02*
X92552190Y-58280776D01*
X92552190Y-58280776D02*
X92599809Y-58304585D01*
X90234666Y-65218109D02*
X90068000Y-64980014D01*
X89948952Y-65218109D02*
X89948952Y-64718109D01*
X89948952Y-64718109D02*
X90139428Y-64718109D01*
X90139428Y-64718109D02*
X90187047Y-64741919D01*
X90187047Y-64741919D02*
X90210857Y-64765728D01*
X90210857Y-64765728D02*
X90234666Y-64813347D01*
X90234666Y-64813347D02*
X90234666Y-64884776D01*
X90234666Y-64884776D02*
X90210857Y-64932395D01*
X90210857Y-64932395D02*
X90187047Y-64956204D01*
X90187047Y-64956204D02*
X90139428Y-64980014D01*
X90139428Y-64980014D02*
X89948952Y-64980014D01*
X90663238Y-64718109D02*
X90568000Y-64718109D01*
X90568000Y-64718109D02*
X90520381Y-64741919D01*
X90520381Y-64741919D02*
X90496571Y-64765728D01*
X90496571Y-64765728D02*
X90448952Y-64837157D01*
X90448952Y-64837157D02*
X90425143Y-64932395D01*
X90425143Y-64932395D02*
X90425143Y-65122871D01*
X90425143Y-65122871D02*
X90448952Y-65170490D01*
X90448952Y-65170490D02*
X90472762Y-65194300D01*
X90472762Y-65194300D02*
X90520381Y-65218109D01*
X90520381Y-65218109D02*
X90615619Y-65218109D01*
X90615619Y-65218109D02*
X90663238Y-65194300D01*
X90663238Y-65194300D02*
X90687047Y-65170490D01*
X90687047Y-65170490D02*
X90710857Y-65122871D01*
X90710857Y-65122871D02*
X90710857Y-65003823D01*
X90710857Y-65003823D02*
X90687047Y-64956204D01*
X90687047Y-64956204D02*
X90663238Y-64932395D01*
X90663238Y-64932395D02*
X90615619Y-64908585D01*
X90615619Y-64908585D02*
X90520381Y-64908585D01*
X90520381Y-64908585D02*
X90472762Y-64932395D01*
X90472762Y-64932395D02*
X90448952Y-64956204D01*
X90448952Y-64956204D02*
X90425143Y-65003823D01*
X88841810Y-66234109D02*
X88556096Y-66234109D01*
X88698953Y-66234109D02*
X88698953Y-65734109D01*
X88698953Y-65734109D02*
X88651334Y-65805538D01*
X88651334Y-65805538D02*
X88603715Y-65853157D01*
X88603715Y-65853157D02*
X88556096Y-65876966D01*
X89151333Y-65734109D02*
X89198952Y-65734109D01*
X89198952Y-65734109D02*
X89246571Y-65757919D01*
X89246571Y-65757919D02*
X89270381Y-65781728D01*
X89270381Y-65781728D02*
X89294190Y-65829347D01*
X89294190Y-65829347D02*
X89318000Y-65924585D01*
X89318000Y-65924585D02*
X89318000Y-66043633D01*
X89318000Y-66043633D02*
X89294190Y-66138871D01*
X89294190Y-66138871D02*
X89270381Y-66186490D01*
X89270381Y-66186490D02*
X89246571Y-66210300D01*
X89246571Y-66210300D02*
X89198952Y-66234109D01*
X89198952Y-66234109D02*
X89151333Y-66234109D01*
X89151333Y-66234109D02*
X89103714Y-66210300D01*
X89103714Y-66210300D02*
X89079905Y-66186490D01*
X89079905Y-66186490D02*
X89056095Y-66138871D01*
X89056095Y-66138871D02*
X89032286Y-66043633D01*
X89032286Y-66043633D02*
X89032286Y-65924585D01*
X89032286Y-65924585D02*
X89056095Y-65829347D01*
X89056095Y-65829347D02*
X89079905Y-65781728D01*
X89079905Y-65781728D02*
X89103714Y-65757919D01*
X89103714Y-65757919D02*
X89151333Y-65734109D01*
X89913237Y-66234109D02*
X89913237Y-65734109D01*
X89960856Y-66043633D02*
X90103713Y-66234109D01*
X90103713Y-65900776D02*
X89913237Y-66091252D01*
X90389428Y-66234109D02*
X90341809Y-66210300D01*
X90341809Y-66210300D02*
X90317999Y-66186490D01*
X90317999Y-66186490D02*
X90294190Y-66138871D01*
X90294190Y-66138871D02*
X90294190Y-65996014D01*
X90294190Y-65996014D02*
X90317999Y-65948395D01*
X90317999Y-65948395D02*
X90341809Y-65924585D01*
X90341809Y-65924585D02*
X90389428Y-65900776D01*
X90389428Y-65900776D02*
X90460856Y-65900776D01*
X90460856Y-65900776D02*
X90508475Y-65924585D01*
X90508475Y-65924585D02*
X90532285Y-65948395D01*
X90532285Y-65948395D02*
X90556094Y-65996014D01*
X90556094Y-65996014D02*
X90556094Y-66138871D01*
X90556094Y-66138871D02*
X90532285Y-66186490D01*
X90532285Y-66186490D02*
X90508475Y-66210300D01*
X90508475Y-66210300D02*
X90460856Y-66234109D01*
X90460856Y-66234109D02*
X90389428Y-66234109D01*
X90770380Y-66234109D02*
X90770380Y-65734109D01*
X90984666Y-66234109D02*
X90984666Y-65972204D01*
X90984666Y-65972204D02*
X90960856Y-65924585D01*
X90960856Y-65924585D02*
X90913237Y-65900776D01*
X90913237Y-65900776D02*
X90841809Y-65900776D01*
X90841809Y-65900776D02*
X90794190Y-65924585D01*
X90794190Y-65924585D02*
X90770380Y-65948395D01*
X91222761Y-66234109D02*
X91222761Y-65900776D01*
X91222761Y-65948395D02*
X91246571Y-65924585D01*
X91246571Y-65924585D02*
X91294190Y-65900776D01*
X91294190Y-65900776D02*
X91365618Y-65900776D01*
X91365618Y-65900776D02*
X91413237Y-65924585D01*
X91413237Y-65924585D02*
X91437047Y-65972204D01*
X91437047Y-65972204D02*
X91437047Y-66234109D01*
X91437047Y-65972204D02*
X91460856Y-65924585D01*
X91460856Y-65924585D02*
X91508475Y-65900776D01*
X91508475Y-65900776D02*
X91579904Y-65900776D01*
X91579904Y-65900776D02*
X91627523Y-65924585D01*
X91627523Y-65924585D02*
X91651333Y-65972204D01*
X91651333Y-65972204D02*
X91651333Y-66234109D01*
X91865619Y-66210300D02*
X91913238Y-66234109D01*
X91913238Y-66234109D02*
X92008476Y-66234109D01*
X92008476Y-66234109D02*
X92056095Y-66210300D01*
X92056095Y-66210300D02*
X92079904Y-66162680D01*
X92079904Y-66162680D02*
X92079904Y-66138871D01*
X92079904Y-66138871D02*
X92056095Y-66091252D01*
X92056095Y-66091252D02*
X92008476Y-66067442D01*
X92008476Y-66067442D02*
X91937047Y-66067442D01*
X91937047Y-66067442D02*
X91889428Y-66043633D01*
X91889428Y-66043633D02*
X91865619Y-65996014D01*
X91865619Y-65996014D02*
X91865619Y-65972204D01*
X91865619Y-65972204D02*
X91889428Y-65924585D01*
X91889428Y-65924585D02*
X91937047Y-65900776D01*
X91937047Y-65900776D02*
X92008476Y-65900776D01*
X92008476Y-65900776D02*
X92056095Y-65924585D01*
X61278666Y-78934109D02*
X61112000Y-78696014D01*
X60992952Y-78934109D02*
X60992952Y-78434109D01*
X60992952Y-78434109D02*
X61183428Y-78434109D01*
X61183428Y-78434109D02*
X61231047Y-78457919D01*
X61231047Y-78457919D02*
X61254857Y-78481728D01*
X61254857Y-78481728D02*
X61278666Y-78529347D01*
X61278666Y-78529347D02*
X61278666Y-78600776D01*
X61278666Y-78600776D02*
X61254857Y-78648395D01*
X61254857Y-78648395D02*
X61231047Y-78672204D01*
X61231047Y-78672204D02*
X61183428Y-78696014D01*
X61183428Y-78696014D02*
X60992952Y-78696014D01*
X61754857Y-78934109D02*
X61469143Y-78934109D01*
X61612000Y-78934109D02*
X61612000Y-78434109D01*
X61612000Y-78434109D02*
X61564381Y-78505538D01*
X61564381Y-78505538D02*
X61516762Y-78553157D01*
X61516762Y-78553157D02*
X61469143Y-78576966D01*
X59885810Y-79950109D02*
X59600096Y-79950109D01*
X59742953Y-79950109D02*
X59742953Y-79450109D01*
X59742953Y-79450109D02*
X59695334Y-79521538D01*
X59695334Y-79521538D02*
X59647715Y-79569157D01*
X59647715Y-79569157D02*
X59600096Y-79592966D01*
X60195333Y-79450109D02*
X60242952Y-79450109D01*
X60242952Y-79450109D02*
X60290571Y-79473919D01*
X60290571Y-79473919D02*
X60314381Y-79497728D01*
X60314381Y-79497728D02*
X60338190Y-79545347D01*
X60338190Y-79545347D02*
X60362000Y-79640585D01*
X60362000Y-79640585D02*
X60362000Y-79759633D01*
X60362000Y-79759633D02*
X60338190Y-79854871D01*
X60338190Y-79854871D02*
X60314381Y-79902490D01*
X60314381Y-79902490D02*
X60290571Y-79926300D01*
X60290571Y-79926300D02*
X60242952Y-79950109D01*
X60242952Y-79950109D02*
X60195333Y-79950109D01*
X60195333Y-79950109D02*
X60147714Y-79926300D01*
X60147714Y-79926300D02*
X60123905Y-79902490D01*
X60123905Y-79902490D02*
X60100095Y-79854871D01*
X60100095Y-79854871D02*
X60076286Y-79759633D01*
X60076286Y-79759633D02*
X60076286Y-79640585D01*
X60076286Y-79640585D02*
X60100095Y-79545347D01*
X60100095Y-79545347D02*
X60123905Y-79497728D01*
X60123905Y-79497728D02*
X60147714Y-79473919D01*
X60147714Y-79473919D02*
X60195333Y-79450109D01*
X60957237Y-79950109D02*
X60957237Y-79450109D01*
X61004856Y-79759633D02*
X61147713Y-79950109D01*
X61147713Y-79616776D02*
X60957237Y-79807252D01*
X61433428Y-79950109D02*
X61385809Y-79926300D01*
X61385809Y-79926300D02*
X61361999Y-79902490D01*
X61361999Y-79902490D02*
X61338190Y-79854871D01*
X61338190Y-79854871D02*
X61338190Y-79712014D01*
X61338190Y-79712014D02*
X61361999Y-79664395D01*
X61361999Y-79664395D02*
X61385809Y-79640585D01*
X61385809Y-79640585D02*
X61433428Y-79616776D01*
X61433428Y-79616776D02*
X61504856Y-79616776D01*
X61504856Y-79616776D02*
X61552475Y-79640585D01*
X61552475Y-79640585D02*
X61576285Y-79664395D01*
X61576285Y-79664395D02*
X61600094Y-79712014D01*
X61600094Y-79712014D02*
X61600094Y-79854871D01*
X61600094Y-79854871D02*
X61576285Y-79902490D01*
X61576285Y-79902490D02*
X61552475Y-79926300D01*
X61552475Y-79926300D02*
X61504856Y-79950109D01*
X61504856Y-79950109D02*
X61433428Y-79950109D01*
X61814380Y-79950109D02*
X61814380Y-79450109D01*
X62028666Y-79950109D02*
X62028666Y-79688204D01*
X62028666Y-79688204D02*
X62004856Y-79640585D01*
X62004856Y-79640585D02*
X61957237Y-79616776D01*
X61957237Y-79616776D02*
X61885809Y-79616776D01*
X61885809Y-79616776D02*
X61838190Y-79640585D01*
X61838190Y-79640585D02*
X61814380Y-79664395D01*
X62266761Y-79950109D02*
X62266761Y-79616776D01*
X62266761Y-79664395D02*
X62290571Y-79640585D01*
X62290571Y-79640585D02*
X62338190Y-79616776D01*
X62338190Y-79616776D02*
X62409618Y-79616776D01*
X62409618Y-79616776D02*
X62457237Y-79640585D01*
X62457237Y-79640585D02*
X62481047Y-79688204D01*
X62481047Y-79688204D02*
X62481047Y-79950109D01*
X62481047Y-79688204D02*
X62504856Y-79640585D01*
X62504856Y-79640585D02*
X62552475Y-79616776D01*
X62552475Y-79616776D02*
X62623904Y-79616776D01*
X62623904Y-79616776D02*
X62671523Y-79640585D01*
X62671523Y-79640585D02*
X62695333Y-79688204D01*
X62695333Y-79688204D02*
X62695333Y-79950109D01*
X62909619Y-79926300D02*
X62957238Y-79950109D01*
X62957238Y-79950109D02*
X63052476Y-79950109D01*
X63052476Y-79950109D02*
X63100095Y-79926300D01*
X63100095Y-79926300D02*
X63123904Y-79878680D01*
X63123904Y-79878680D02*
X63123904Y-79854871D01*
X63123904Y-79854871D02*
X63100095Y-79807252D01*
X63100095Y-79807252D02*
X63052476Y-79783442D01*
X63052476Y-79783442D02*
X62981047Y-79783442D01*
X62981047Y-79783442D02*
X62933428Y-79759633D01*
X62933428Y-79759633D02*
X62909619Y-79712014D01*
X62909619Y-79712014D02*
X62909619Y-79688204D01*
X62909619Y-79688204D02*
X62933428Y-79640585D01*
X62933428Y-79640585D02*
X62981047Y-79616776D01*
X62981047Y-79616776D02*
X63052476Y-79616776D01*
X63052476Y-79616776D02*
X63100095Y-79640585D01*
X65342666Y-79060109D02*
X65176000Y-78822014D01*
X65056952Y-79060109D02*
X65056952Y-78560109D01*
X65056952Y-78560109D02*
X65247428Y-78560109D01*
X65247428Y-78560109D02*
X65295047Y-78583919D01*
X65295047Y-78583919D02*
X65318857Y-78607728D01*
X65318857Y-78607728D02*
X65342666Y-78655347D01*
X65342666Y-78655347D02*
X65342666Y-78726776D01*
X65342666Y-78726776D02*
X65318857Y-78774395D01*
X65318857Y-78774395D02*
X65295047Y-78798204D01*
X65295047Y-78798204D02*
X65247428Y-78822014D01*
X65247428Y-78822014D02*
X65056952Y-78822014D01*
X65533143Y-78607728D02*
X65556952Y-78583919D01*
X65556952Y-78583919D02*
X65604571Y-78560109D01*
X65604571Y-78560109D02*
X65723619Y-78560109D01*
X65723619Y-78560109D02*
X65771238Y-78583919D01*
X65771238Y-78583919D02*
X65795047Y-78607728D01*
X65795047Y-78607728D02*
X65818857Y-78655347D01*
X65818857Y-78655347D02*
X65818857Y-78702966D01*
X65818857Y-78702966D02*
X65795047Y-78774395D01*
X65795047Y-78774395D02*
X65509333Y-79060109D01*
X65509333Y-79060109D02*
X65818857Y-79060109D01*
X64457810Y-79950109D02*
X64172096Y-79950109D01*
X64314953Y-79950109D02*
X64314953Y-79450109D01*
X64314953Y-79450109D02*
X64267334Y-79521538D01*
X64267334Y-79521538D02*
X64219715Y-79569157D01*
X64219715Y-79569157D02*
X64172096Y-79592966D01*
X64767333Y-79450109D02*
X64814952Y-79450109D01*
X64814952Y-79450109D02*
X64862571Y-79473919D01*
X64862571Y-79473919D02*
X64886381Y-79497728D01*
X64886381Y-79497728D02*
X64910190Y-79545347D01*
X64910190Y-79545347D02*
X64934000Y-79640585D01*
X64934000Y-79640585D02*
X64934000Y-79759633D01*
X64934000Y-79759633D02*
X64910190Y-79854871D01*
X64910190Y-79854871D02*
X64886381Y-79902490D01*
X64886381Y-79902490D02*
X64862571Y-79926300D01*
X64862571Y-79926300D02*
X64814952Y-79950109D01*
X64814952Y-79950109D02*
X64767333Y-79950109D01*
X64767333Y-79950109D02*
X64719714Y-79926300D01*
X64719714Y-79926300D02*
X64695905Y-79902490D01*
X64695905Y-79902490D02*
X64672095Y-79854871D01*
X64672095Y-79854871D02*
X64648286Y-79759633D01*
X64648286Y-79759633D02*
X64648286Y-79640585D01*
X64648286Y-79640585D02*
X64672095Y-79545347D01*
X64672095Y-79545347D02*
X64695905Y-79497728D01*
X64695905Y-79497728D02*
X64719714Y-79473919D01*
X64719714Y-79473919D02*
X64767333Y-79450109D01*
X65529237Y-79950109D02*
X65529237Y-79450109D01*
X65576856Y-79759633D02*
X65719713Y-79950109D01*
X65719713Y-79616776D02*
X65529237Y-79807252D01*
X66005428Y-79950109D02*
X65957809Y-79926300D01*
X65957809Y-79926300D02*
X65933999Y-79902490D01*
X65933999Y-79902490D02*
X65910190Y-79854871D01*
X65910190Y-79854871D02*
X65910190Y-79712014D01*
X65910190Y-79712014D02*
X65933999Y-79664395D01*
X65933999Y-79664395D02*
X65957809Y-79640585D01*
X65957809Y-79640585D02*
X66005428Y-79616776D01*
X66005428Y-79616776D02*
X66076856Y-79616776D01*
X66076856Y-79616776D02*
X66124475Y-79640585D01*
X66124475Y-79640585D02*
X66148285Y-79664395D01*
X66148285Y-79664395D02*
X66172094Y-79712014D01*
X66172094Y-79712014D02*
X66172094Y-79854871D01*
X66172094Y-79854871D02*
X66148285Y-79902490D01*
X66148285Y-79902490D02*
X66124475Y-79926300D01*
X66124475Y-79926300D02*
X66076856Y-79950109D01*
X66076856Y-79950109D02*
X66005428Y-79950109D01*
X66386380Y-79950109D02*
X66386380Y-79450109D01*
X66600666Y-79950109D02*
X66600666Y-79688204D01*
X66600666Y-79688204D02*
X66576856Y-79640585D01*
X66576856Y-79640585D02*
X66529237Y-79616776D01*
X66529237Y-79616776D02*
X66457809Y-79616776D01*
X66457809Y-79616776D02*
X66410190Y-79640585D01*
X66410190Y-79640585D02*
X66386380Y-79664395D01*
X66838761Y-79950109D02*
X66838761Y-79616776D01*
X66838761Y-79664395D02*
X66862571Y-79640585D01*
X66862571Y-79640585D02*
X66910190Y-79616776D01*
X66910190Y-79616776D02*
X66981618Y-79616776D01*
X66981618Y-79616776D02*
X67029237Y-79640585D01*
X67029237Y-79640585D02*
X67053047Y-79688204D01*
X67053047Y-79688204D02*
X67053047Y-79950109D01*
X67053047Y-79688204D02*
X67076856Y-79640585D01*
X67076856Y-79640585D02*
X67124475Y-79616776D01*
X67124475Y-79616776D02*
X67195904Y-79616776D01*
X67195904Y-79616776D02*
X67243523Y-79640585D01*
X67243523Y-79640585D02*
X67267333Y-79688204D01*
X67267333Y-79688204D02*
X67267333Y-79950109D01*
X67481619Y-79926300D02*
X67529238Y-79950109D01*
X67529238Y-79950109D02*
X67624476Y-79950109D01*
X67624476Y-79950109D02*
X67672095Y-79926300D01*
X67672095Y-79926300D02*
X67695904Y-79878680D01*
X67695904Y-79878680D02*
X67695904Y-79854871D01*
X67695904Y-79854871D02*
X67672095Y-79807252D01*
X67672095Y-79807252D02*
X67624476Y-79783442D01*
X67624476Y-79783442D02*
X67553047Y-79783442D01*
X67553047Y-79783442D02*
X67505428Y-79759633D01*
X67505428Y-79759633D02*
X67481619Y-79712014D01*
X67481619Y-79712014D02*
X67481619Y-79688204D01*
X67481619Y-79688204D02*
X67505428Y-79640585D01*
X67505428Y-79640585D02*
X67553047Y-79616776D01*
X67553047Y-79616776D02*
X67624476Y-79616776D01*
X67624476Y-79616776D02*
X67672095Y-79640585D01*
X62152001Y-69282109D02*
X62152001Y-68782109D01*
X62152001Y-68782109D02*
X62271049Y-68782109D01*
X62271049Y-68782109D02*
X62342477Y-68805919D01*
X62342477Y-68805919D02*
X62390096Y-68853538D01*
X62390096Y-68853538D02*
X62413906Y-68901157D01*
X62413906Y-68901157D02*
X62437715Y-68996395D01*
X62437715Y-68996395D02*
X62437715Y-69067823D01*
X62437715Y-69067823D02*
X62413906Y-69163061D01*
X62413906Y-69163061D02*
X62390096Y-69210680D01*
X62390096Y-69210680D02*
X62342477Y-69258300D01*
X62342477Y-69258300D02*
X62271049Y-69282109D01*
X62271049Y-69282109D02*
X62152001Y-69282109D01*
X62628192Y-69258300D02*
X62699620Y-69282109D01*
X62699620Y-69282109D02*
X62818668Y-69282109D01*
X62818668Y-69282109D02*
X62866287Y-69258300D01*
X62866287Y-69258300D02*
X62890096Y-69234490D01*
X62890096Y-69234490D02*
X62913906Y-69186871D01*
X62913906Y-69186871D02*
X62913906Y-69139252D01*
X62913906Y-69139252D02*
X62890096Y-69091633D01*
X62890096Y-69091633D02*
X62866287Y-69067823D01*
X62866287Y-69067823D02*
X62818668Y-69044014D01*
X62818668Y-69044014D02*
X62723430Y-69020204D01*
X62723430Y-69020204D02*
X62675811Y-68996395D01*
X62675811Y-68996395D02*
X62652001Y-68972585D01*
X62652001Y-68972585D02*
X62628192Y-68924966D01*
X62628192Y-68924966D02*
X62628192Y-68877347D01*
X62628192Y-68877347D02*
X62652001Y-68829728D01*
X62652001Y-68829728D02*
X62675811Y-68805919D01*
X62675811Y-68805919D02*
X62723430Y-68782109D01*
X62723430Y-68782109D02*
X62842477Y-68782109D01*
X62842477Y-68782109D02*
X62913906Y-68805919D01*
X63390096Y-69282109D02*
X63104382Y-69282109D01*
X63247239Y-69282109D02*
X63247239Y-68782109D01*
X63247239Y-68782109D02*
X63199620Y-68853538D01*
X63199620Y-68853538D02*
X63152001Y-68901157D01*
X63152001Y-68901157D02*
X63104382Y-68924966D01*
X63556762Y-68782109D02*
X63866286Y-68782109D01*
X63866286Y-68782109D02*
X63699619Y-68972585D01*
X63699619Y-68972585D02*
X63771048Y-68972585D01*
X63771048Y-68972585D02*
X63818667Y-68996395D01*
X63818667Y-68996395D02*
X63842476Y-69020204D01*
X63842476Y-69020204D02*
X63866286Y-69067823D01*
X63866286Y-69067823D02*
X63866286Y-69186871D01*
X63866286Y-69186871D02*
X63842476Y-69234490D01*
X63842476Y-69234490D02*
X63818667Y-69258300D01*
X63818667Y-69258300D02*
X63771048Y-69282109D01*
X63771048Y-69282109D02*
X63628191Y-69282109D01*
X63628191Y-69282109D02*
X63580572Y-69258300D01*
X63580572Y-69258300D02*
X63556762Y-69234490D01*
X64032952Y-68782109D02*
X64342476Y-68782109D01*
X64342476Y-68782109D02*
X64175809Y-68972585D01*
X64175809Y-68972585D02*
X64247238Y-68972585D01*
X64247238Y-68972585D02*
X64294857Y-68996395D01*
X64294857Y-68996395D02*
X64318666Y-69020204D01*
X64318666Y-69020204D02*
X64342476Y-69067823D01*
X64342476Y-69067823D02*
X64342476Y-69186871D01*
X64342476Y-69186871D02*
X64318666Y-69234490D01*
X64318666Y-69234490D02*
X64294857Y-69258300D01*
X64294857Y-69258300D02*
X64247238Y-69282109D01*
X64247238Y-69282109D02*
X64104381Y-69282109D01*
X64104381Y-69282109D02*
X64056762Y-69258300D01*
X64056762Y-69258300D02*
X64032952Y-69234490D01*
X64509142Y-68782109D02*
X64842475Y-68782109D01*
X64842475Y-68782109D02*
X64628190Y-69282109D01*
X65009142Y-69258300D02*
X65080570Y-69282109D01*
X65080570Y-69282109D02*
X65199618Y-69282109D01*
X65199618Y-69282109D02*
X65247237Y-69258300D01*
X65247237Y-69258300D02*
X65271046Y-69234490D01*
X65271046Y-69234490D02*
X65294856Y-69186871D01*
X65294856Y-69186871D02*
X65294856Y-69139252D01*
X65294856Y-69139252D02*
X65271046Y-69091633D01*
X65271046Y-69091633D02*
X65247237Y-69067823D01*
X65247237Y-69067823D02*
X65199618Y-69044014D01*
X65199618Y-69044014D02*
X65104380Y-69020204D01*
X65104380Y-69020204D02*
X65056761Y-68996395D01*
X65056761Y-68996395D02*
X65032951Y-68972585D01*
X65032951Y-68972585D02*
X65009142Y-68924966D01*
X65009142Y-68924966D02*
X65009142Y-68877347D01*
X65009142Y-68877347D02*
X65032951Y-68829728D01*
X65032951Y-68829728D02*
X65056761Y-68805919D01*
X65056761Y-68805919D02*
X65104380Y-68782109D01*
X65104380Y-68782109D02*
X65223427Y-68782109D01*
X65223427Y-68782109D02*
X65294856Y-68805919D01*
X65390094Y-69329728D02*
X65771046Y-69329728D01*
X82614666Y-70758490D02*
X82590857Y-70782300D01*
X82590857Y-70782300D02*
X82519428Y-70806109D01*
X82519428Y-70806109D02*
X82471809Y-70806109D01*
X82471809Y-70806109D02*
X82400381Y-70782300D01*
X82400381Y-70782300D02*
X82352762Y-70734680D01*
X82352762Y-70734680D02*
X82328952Y-70687061D01*
X82328952Y-70687061D02*
X82305143Y-70591823D01*
X82305143Y-70591823D02*
X82305143Y-70520395D01*
X82305143Y-70520395D02*
X82328952Y-70425157D01*
X82328952Y-70425157D02*
X82352762Y-70377538D01*
X82352762Y-70377538D02*
X82400381Y-70329919D01*
X82400381Y-70329919D02*
X82471809Y-70306109D01*
X82471809Y-70306109D02*
X82519428Y-70306109D01*
X82519428Y-70306109D02*
X82590857Y-70329919D01*
X82590857Y-70329919D02*
X82614666Y-70353728D01*
X82805143Y-70353728D02*
X82828952Y-70329919D01*
X82828952Y-70329919D02*
X82876571Y-70306109D01*
X82876571Y-70306109D02*
X82995619Y-70306109D01*
X82995619Y-70306109D02*
X83043238Y-70329919D01*
X83043238Y-70329919D02*
X83067047Y-70353728D01*
X83067047Y-70353728D02*
X83090857Y-70401347D01*
X83090857Y-70401347D02*
X83090857Y-70448966D01*
X83090857Y-70448966D02*
X83067047Y-70520395D01*
X83067047Y-70520395D02*
X82781333Y-70806109D01*
X82781333Y-70806109D02*
X83090857Y-70806109D01*
X84297525Y-71877728D02*
X84321334Y-71853919D01*
X84321334Y-71853919D02*
X84368953Y-71830109D01*
X84368953Y-71830109D02*
X84488001Y-71830109D01*
X84488001Y-71830109D02*
X84535620Y-71853919D01*
X84535620Y-71853919D02*
X84559429Y-71877728D01*
X84559429Y-71877728D02*
X84583239Y-71925347D01*
X84583239Y-71925347D02*
X84583239Y-71972966D01*
X84583239Y-71972966D02*
X84559429Y-72044395D01*
X84559429Y-72044395D02*
X84273715Y-72330109D01*
X84273715Y-72330109D02*
X84583239Y-72330109D01*
X84773715Y-71877728D02*
X84797524Y-71853919D01*
X84797524Y-71853919D02*
X84845143Y-71830109D01*
X84845143Y-71830109D02*
X84964191Y-71830109D01*
X84964191Y-71830109D02*
X85011810Y-71853919D01*
X85011810Y-71853919D02*
X85035619Y-71877728D01*
X85035619Y-71877728D02*
X85059429Y-71925347D01*
X85059429Y-71925347D02*
X85059429Y-71972966D01*
X85059429Y-71972966D02*
X85035619Y-72044395D01*
X85035619Y-72044395D02*
X84749905Y-72330109D01*
X84749905Y-72330109D02*
X85059429Y-72330109D01*
X85654666Y-71996776D02*
X85654666Y-72496776D01*
X85654666Y-72020585D02*
X85702285Y-71996776D01*
X85702285Y-71996776D02*
X85797523Y-71996776D01*
X85797523Y-71996776D02*
X85845142Y-72020585D01*
X85845142Y-72020585D02*
X85868952Y-72044395D01*
X85868952Y-72044395D02*
X85892761Y-72092014D01*
X85892761Y-72092014D02*
X85892761Y-72234871D01*
X85892761Y-72234871D02*
X85868952Y-72282490D01*
X85868952Y-72282490D02*
X85845142Y-72306300D01*
X85845142Y-72306300D02*
X85797523Y-72330109D01*
X85797523Y-72330109D02*
X85702285Y-72330109D01*
X85702285Y-72330109D02*
X85654666Y-72306300D01*
X86035619Y-71996776D02*
X86226095Y-71996776D01*
X86107047Y-72330109D02*
X86107047Y-71901538D01*
X86107047Y-71901538D02*
X86130857Y-71853919D01*
X86130857Y-71853919D02*
X86178476Y-71830109D01*
X86178476Y-71830109D02*
X86226095Y-71830109D01*
X82614666Y-63694109D02*
X82448000Y-63456014D01*
X82328952Y-63694109D02*
X82328952Y-63194109D01*
X82328952Y-63194109D02*
X82519428Y-63194109D01*
X82519428Y-63194109D02*
X82567047Y-63217919D01*
X82567047Y-63217919D02*
X82590857Y-63241728D01*
X82590857Y-63241728D02*
X82614666Y-63289347D01*
X82614666Y-63289347D02*
X82614666Y-63360776D01*
X82614666Y-63360776D02*
X82590857Y-63408395D01*
X82590857Y-63408395D02*
X82567047Y-63432204D01*
X82567047Y-63432204D02*
X82519428Y-63456014D01*
X82519428Y-63456014D02*
X82328952Y-63456014D01*
X83043238Y-63360776D02*
X83043238Y-63694109D01*
X82924190Y-63170300D02*
X82805143Y-63527442D01*
X82805143Y-63527442D02*
X83114666Y-63527442D01*
X83087143Y-64884776D02*
X83087143Y-65218109D01*
X82968095Y-64694300D02*
X82849048Y-65051442D01*
X82849048Y-65051442D02*
X83158571Y-65051442D01*
X83349047Y-65170490D02*
X83372857Y-65194300D01*
X83372857Y-65194300D02*
X83349047Y-65218109D01*
X83349047Y-65218109D02*
X83325238Y-65194300D01*
X83325238Y-65194300D02*
X83349047Y-65170490D01*
X83349047Y-65170490D02*
X83349047Y-65218109D01*
X83539523Y-64718109D02*
X83872856Y-64718109D01*
X83872856Y-64718109D02*
X83658571Y-65218109D01*
X84444284Y-65218109D02*
X84444284Y-64718109D01*
X84491903Y-65027633D02*
X84634760Y-65218109D01*
X84634760Y-64884776D02*
X84444284Y-65075252D01*
X84920475Y-65218109D02*
X84872856Y-65194300D01*
X84872856Y-65194300D02*
X84849046Y-65170490D01*
X84849046Y-65170490D02*
X84825237Y-65122871D01*
X84825237Y-65122871D02*
X84825237Y-64980014D01*
X84825237Y-64980014D02*
X84849046Y-64932395D01*
X84849046Y-64932395D02*
X84872856Y-64908585D01*
X84872856Y-64908585D02*
X84920475Y-64884776D01*
X84920475Y-64884776D02*
X84991903Y-64884776D01*
X84991903Y-64884776D02*
X85039522Y-64908585D01*
X85039522Y-64908585D02*
X85063332Y-64932395D01*
X85063332Y-64932395D02*
X85087141Y-64980014D01*
X85087141Y-64980014D02*
X85087141Y-65122871D01*
X85087141Y-65122871D02*
X85063332Y-65170490D01*
X85063332Y-65170490D02*
X85039522Y-65194300D01*
X85039522Y-65194300D02*
X84991903Y-65218109D01*
X84991903Y-65218109D02*
X84920475Y-65218109D01*
X85301427Y-65218109D02*
X85301427Y-64718109D01*
X85515713Y-65218109D02*
X85515713Y-64956204D01*
X85515713Y-64956204D02*
X85491903Y-64908585D01*
X85491903Y-64908585D02*
X85444284Y-64884776D01*
X85444284Y-64884776D02*
X85372856Y-64884776D01*
X85372856Y-64884776D02*
X85325237Y-64908585D01*
X85325237Y-64908585D02*
X85301427Y-64932395D01*
X85753808Y-65218109D02*
X85753808Y-64884776D01*
X85753808Y-64932395D02*
X85777618Y-64908585D01*
X85777618Y-64908585D02*
X85825237Y-64884776D01*
X85825237Y-64884776D02*
X85896665Y-64884776D01*
X85896665Y-64884776D02*
X85944284Y-64908585D01*
X85944284Y-64908585D02*
X85968094Y-64956204D01*
X85968094Y-64956204D02*
X85968094Y-65218109D01*
X85968094Y-64956204D02*
X85991903Y-64908585D01*
X85991903Y-64908585D02*
X86039522Y-64884776D01*
X86039522Y-64884776D02*
X86110951Y-64884776D01*
X86110951Y-64884776D02*
X86158570Y-64908585D01*
X86158570Y-64908585D02*
X86182380Y-64956204D01*
X86182380Y-64956204D02*
X86182380Y-65218109D01*
X86396666Y-65194300D02*
X86444285Y-65218109D01*
X86444285Y-65218109D02*
X86539523Y-65218109D01*
X86539523Y-65218109D02*
X86587142Y-65194300D01*
X86587142Y-65194300D02*
X86610951Y-65146680D01*
X86610951Y-65146680D02*
X86610951Y-65122871D01*
X86610951Y-65122871D02*
X86587142Y-65075252D01*
X86587142Y-65075252D02*
X86539523Y-65051442D01*
X86539523Y-65051442D02*
X86468094Y-65051442D01*
X86468094Y-65051442D02*
X86420475Y-65027633D01*
X86420475Y-65027633D02*
X86396666Y-64980014D01*
X86396666Y-64980014D02*
X86396666Y-64956204D01*
X86396666Y-64956204D02*
X86420475Y-64908585D01*
X86420475Y-64908585D02*
X86468094Y-64884776D01*
X86468094Y-64884776D02*
X86539523Y-64884776D01*
X86539523Y-64884776D02*
X86587142Y-64908585D01*
X55246286Y-60892204D02*
X55317714Y-60916014D01*
X55317714Y-60916014D02*
X55341524Y-60939823D01*
X55341524Y-60939823D02*
X55365333Y-60987442D01*
X55365333Y-60987442D02*
X55365333Y-61058871D01*
X55365333Y-61058871D02*
X55341524Y-61106490D01*
X55341524Y-61106490D02*
X55317714Y-61130300D01*
X55317714Y-61130300D02*
X55270095Y-61154109D01*
X55270095Y-61154109D02*
X55079619Y-61154109D01*
X55079619Y-61154109D02*
X55079619Y-60654109D01*
X55079619Y-60654109D02*
X55246286Y-60654109D01*
X55246286Y-60654109D02*
X55293905Y-60677919D01*
X55293905Y-60677919D02*
X55317714Y-60701728D01*
X55317714Y-60701728D02*
X55341524Y-60749347D01*
X55341524Y-60749347D02*
X55341524Y-60796966D01*
X55341524Y-60796966D02*
X55317714Y-60844585D01*
X55317714Y-60844585D02*
X55293905Y-60868395D01*
X55293905Y-60868395D02*
X55246286Y-60892204D01*
X55246286Y-60892204D02*
X55079619Y-60892204D01*
X55793905Y-61154109D02*
X55793905Y-60892204D01*
X55793905Y-60892204D02*
X55770095Y-60844585D01*
X55770095Y-60844585D02*
X55722476Y-60820776D01*
X55722476Y-60820776D02*
X55627238Y-60820776D01*
X55627238Y-60820776D02*
X55579619Y-60844585D01*
X55793905Y-61130300D02*
X55746286Y-61154109D01*
X55746286Y-61154109D02*
X55627238Y-61154109D01*
X55627238Y-61154109D02*
X55579619Y-61130300D01*
X55579619Y-61130300D02*
X55555810Y-61082680D01*
X55555810Y-61082680D02*
X55555810Y-61035061D01*
X55555810Y-61035061D02*
X55579619Y-60987442D01*
X55579619Y-60987442D02*
X55627238Y-60963633D01*
X55627238Y-60963633D02*
X55746286Y-60963633D01*
X55746286Y-60963633D02*
X55793905Y-60939823D01*
X55960572Y-60820776D02*
X56151048Y-60820776D01*
X56032000Y-60654109D02*
X56032000Y-61082680D01*
X56032000Y-61082680D02*
X56055810Y-61130300D01*
X56055810Y-61130300D02*
X56103429Y-61154109D01*
X56103429Y-61154109D02*
X56151048Y-61154109D01*
X56246286Y-60820776D02*
X56436762Y-60820776D01*
X56317714Y-60654109D02*
X56317714Y-61082680D01*
X56317714Y-61082680D02*
X56341524Y-61130300D01*
X56341524Y-61130300D02*
X56389143Y-61154109D01*
X56389143Y-61154109D02*
X56436762Y-61154109D01*
X56793904Y-61130300D02*
X56746285Y-61154109D01*
X56746285Y-61154109D02*
X56651047Y-61154109D01*
X56651047Y-61154109D02*
X56603428Y-61130300D01*
X56603428Y-61130300D02*
X56579619Y-61082680D01*
X56579619Y-61082680D02*
X56579619Y-60892204D01*
X56579619Y-60892204D02*
X56603428Y-60844585D01*
X56603428Y-60844585D02*
X56651047Y-60820776D01*
X56651047Y-60820776D02*
X56746285Y-60820776D01*
X56746285Y-60820776D02*
X56793904Y-60844585D01*
X56793904Y-60844585D02*
X56817714Y-60892204D01*
X56817714Y-60892204D02*
X56817714Y-60939823D01*
X56817714Y-60939823D02*
X56579619Y-60987442D01*
X57031999Y-61154109D02*
X57031999Y-60820776D01*
X57031999Y-60916014D02*
X57055809Y-60868395D01*
X57055809Y-60868395D02*
X57079618Y-60844585D01*
X57079618Y-60844585D02*
X57127237Y-60820776D01*
X57127237Y-60820776D02*
X57174856Y-60820776D01*
X57293904Y-60820776D02*
X57412952Y-61154109D01*
X57531999Y-60820776D02*
X57412952Y-61154109D01*
X57412952Y-61154109D02*
X57365333Y-61273157D01*
X57365333Y-61273157D02*
X57341523Y-61296966D01*
X57341523Y-61296966D02*
X57293904Y-61320776D01*
X82614666Y-74314490D02*
X82590857Y-74338300D01*
X82590857Y-74338300D02*
X82519428Y-74362109D01*
X82519428Y-74362109D02*
X82471809Y-74362109D01*
X82471809Y-74362109D02*
X82400381Y-74338300D01*
X82400381Y-74338300D02*
X82352762Y-74290680D01*
X82352762Y-74290680D02*
X82328952Y-74243061D01*
X82328952Y-74243061D02*
X82305143Y-74147823D01*
X82305143Y-74147823D02*
X82305143Y-74076395D01*
X82305143Y-74076395D02*
X82328952Y-73981157D01*
X82328952Y-73981157D02*
X82352762Y-73933538D01*
X82352762Y-73933538D02*
X82400381Y-73885919D01*
X82400381Y-73885919D02*
X82471809Y-73862109D01*
X82471809Y-73862109D02*
X82519428Y-73862109D01*
X82519428Y-73862109D02*
X82590857Y-73885919D01*
X82590857Y-73885919D02*
X82614666Y-73909728D01*
X83043238Y-74028776D02*
X83043238Y-74362109D01*
X82924190Y-73838300D02*
X82805143Y-74195442D01*
X82805143Y-74195442D02*
X83114666Y-74195442D01*
X84297524Y-75386109D02*
X84345143Y-75386109D01*
X84345143Y-75386109D02*
X84392762Y-75409919D01*
X84392762Y-75409919D02*
X84416572Y-75433728D01*
X84416572Y-75433728D02*
X84440381Y-75481347D01*
X84440381Y-75481347D02*
X84464191Y-75576585D01*
X84464191Y-75576585D02*
X84464191Y-75695633D01*
X84464191Y-75695633D02*
X84440381Y-75790871D01*
X84440381Y-75790871D02*
X84416572Y-75838490D01*
X84416572Y-75838490D02*
X84392762Y-75862300D01*
X84392762Y-75862300D02*
X84345143Y-75886109D01*
X84345143Y-75886109D02*
X84297524Y-75886109D01*
X84297524Y-75886109D02*
X84249905Y-75862300D01*
X84249905Y-75862300D02*
X84226096Y-75838490D01*
X84226096Y-75838490D02*
X84202286Y-75790871D01*
X84202286Y-75790871D02*
X84178477Y-75695633D01*
X84178477Y-75695633D02*
X84178477Y-75576585D01*
X84178477Y-75576585D02*
X84202286Y-75481347D01*
X84202286Y-75481347D02*
X84226096Y-75433728D01*
X84226096Y-75433728D02*
X84249905Y-75409919D01*
X84249905Y-75409919D02*
X84297524Y-75386109D01*
X84678476Y-75838490D02*
X84702286Y-75862300D01*
X84702286Y-75862300D02*
X84678476Y-75886109D01*
X84678476Y-75886109D02*
X84654667Y-75862300D01*
X84654667Y-75862300D02*
X84678476Y-75838490D01*
X84678476Y-75838490D02*
X84678476Y-75886109D01*
X85178476Y-75886109D02*
X84892762Y-75886109D01*
X85035619Y-75886109D02*
X85035619Y-75386109D01*
X85035619Y-75386109D02*
X84988000Y-75457538D01*
X84988000Y-75457538D02*
X84940381Y-75505157D01*
X84940381Y-75505157D02*
X84892762Y-75528966D01*
X85987999Y-75552776D02*
X85987999Y-75886109D01*
X85773713Y-75552776D02*
X85773713Y-75814680D01*
X85773713Y-75814680D02*
X85797523Y-75862300D01*
X85797523Y-75862300D02*
X85845142Y-75886109D01*
X85845142Y-75886109D02*
X85916570Y-75886109D01*
X85916570Y-75886109D02*
X85964189Y-75862300D01*
X85964189Y-75862300D02*
X85987999Y-75838490D01*
X86154666Y-75552776D02*
X86345142Y-75552776D01*
X86226094Y-75886109D02*
X86226094Y-75457538D01*
X86226094Y-75457538D02*
X86249904Y-75409919D01*
X86249904Y-75409919D02*
X86297523Y-75386109D01*
X86297523Y-75386109D02*
X86345142Y-75386109D01*
%TO.C,J2*%
D12*
X95288000Y-68946000D02*
X96668000Y-68946000D01*
X95288000Y-70326000D02*
X95288000Y-68946000D01*
X95288000Y-71596000D02*
X95288000Y-79326000D01*
X95288000Y-71596000D02*
X98048000Y-71596000D01*
X95288000Y-79326000D02*
X98048000Y-79326000D01*
X98048000Y-71596000D02*
X98048000Y-79326000D01*
%TO.C,D1*%
X88633000Y-55396000D02*
X88633000Y-57316000D01*
X88633000Y-57316000D02*
X91318000Y-57316000D01*
X91318000Y-55396000D02*
X88633000Y-55396000D01*
%TO.C,J4*%
X92743000Y-60056000D02*
X94123000Y-60056000D01*
X92743000Y-61436000D02*
X92743000Y-60056000D01*
X92743000Y-62706000D02*
X92743000Y-67896000D01*
X92743000Y-62706000D02*
X95393000Y-62706000D01*
X92743000Y-67896000D02*
X98043000Y-67896000D01*
X95393000Y-60056000D02*
X98043000Y-60056000D01*
X95393000Y-62706000D02*
X95393000Y-60056000D01*
X98043000Y-60056000D02*
X98043000Y-67896000D01*
%TO.C,Y2*%
X72826000Y-79552000D02*
X80196000Y-79552000D01*
X80196000Y-75832000D02*
X72826000Y-75832000D01*
X80196000Y-79552000D02*
X80196000Y-75832000D01*
%TO.C,Y1*%
X54422000Y-70868000D02*
X54422000Y-78238000D01*
X54422000Y-78238000D02*
X58142000Y-78238000D01*
X58142000Y-78238000D02*
X58142000Y-70868000D01*
%TO.C,C3*%
X76340748Y-55621000D02*
X76863252Y-55621000D01*
X76340748Y-57091000D02*
X76863252Y-57091000D01*
%TO.C,R7*%
X85010936Y-59177000D02*
X85465064Y-59177000D01*
X85010936Y-60647000D02*
X85465064Y-60647000D01*
%TO.C,R3*%
X85465064Y-66289000D02*
X85010936Y-66289000D01*
X85465064Y-67759000D02*
X85010936Y-67759000D01*
%TO.C,J1*%
X58712000Y-84025000D02*
X58712000Y-82645000D01*
X60092000Y-84025000D02*
X58712000Y-84025000D01*
X61362000Y-81265000D02*
X81792000Y-81265000D01*
X61362000Y-84025000D02*
X61362000Y-81265000D01*
X61362000Y-84025000D02*
X81792000Y-84025000D01*
X81792000Y-84025000D02*
X81792000Y-81265000D01*
%TO.C,C5*%
X80912748Y-55621000D02*
X81435252Y-55621000D01*
X80912748Y-57091000D02*
X81435252Y-57091000D01*
%TO.C,C1*%
X71768748Y-55621000D02*
X72291252Y-55621000D01*
X71768748Y-57091000D02*
X72291252Y-57091000D01*
%TO.C,U4*%
D13*
X72594000Y-64540000D02*
X72594000Y-64645000D01*
X72594000Y-64540000D02*
X72699000Y-64540000D01*
X72594000Y-71540000D02*
X72594000Y-71435000D01*
X72594000Y-71540000D02*
X72699000Y-71540000D01*
X79594000Y-64540000D02*
X79489000Y-64540000D01*
X79594000Y-64540000D02*
X79594000Y-64645000D01*
X79594000Y-71540000D02*
X79489000Y-71540000D01*
X79594000Y-71540000D02*
X79594000Y-71435000D01*
D14*
X70354000Y-65240000D02*
G75*
G02*
X70154000Y-65240000I-100000J0D01*
G01*
X70154000Y-65240000D02*
G75*
G02*
X70354000Y-65240000I100000J0D01*
G01*
%TO.C,U2*%
D12*
X61142000Y-62740000D02*
X66662000Y-62740000D01*
X61142000Y-63010000D02*
X61142000Y-62740000D01*
X61142000Y-68260000D02*
X61142000Y-67990000D01*
X66662000Y-62740000D02*
X66662000Y-63010000D01*
X66662000Y-67990000D02*
X66662000Y-68260000D01*
X66662000Y-68260000D02*
X61142000Y-68260000D01*
X60312000Y-63000000D02*
X59972000Y-62530000D01*
X60652000Y-62530000D01*
X60312000Y-63000000D01*
G36*
X60312000Y-63000000D02*
G01*
X59972000Y-62530000D01*
X60652000Y-62530000D01*
X60312000Y-63000000D01*
G37*
%TO.C,U3*%
X61142000Y-55628000D02*
X66662000Y-55628000D01*
X61142000Y-55898000D02*
X61142000Y-55628000D01*
X61142000Y-61148000D02*
X61142000Y-60878000D01*
X66662000Y-55628000D02*
X66662000Y-55898000D01*
X66662000Y-60878000D02*
X66662000Y-61148000D01*
X66662000Y-61148000D02*
X61142000Y-61148000D01*
X60312000Y-55888000D02*
X59972000Y-55418000D01*
X60652000Y-55418000D01*
X60312000Y-55888000D01*
G36*
X60312000Y-55888000D02*
G01*
X59972000Y-55418000D01*
X60652000Y-55418000D01*
X60312000Y-55888000D01*
G37*
%TO.C,J3*%
X83096000Y-84152000D02*
X83096000Y-82772000D01*
X84476000Y-84152000D02*
X83096000Y-84152000D01*
X85746000Y-81392000D02*
X93476000Y-81392000D01*
X85746000Y-84152000D02*
X85746000Y-81392000D01*
X85746000Y-84152000D02*
X93476000Y-84152000D01*
X93476000Y-84152000D02*
X93476000Y-81392000D01*
%TO.C,D2*%
X83553000Y-55396000D02*
X83553000Y-57316000D01*
X83553000Y-57316000D02*
X86238000Y-57316000D01*
X86238000Y-55396000D02*
X83553000Y-55396000D01*
%TO.C,R5*%
X90545064Y-59177000D02*
X90090936Y-59177000D01*
X90545064Y-60647000D02*
X90090936Y-60647000D01*
%TO.C,R6*%
X90090936Y-62733000D02*
X90545064Y-62733000D01*
X90090936Y-64203000D02*
X90545064Y-64203000D01*
%TO.C,R1*%
X61134936Y-76449000D02*
X61589064Y-76449000D01*
X61134936Y-77919000D02*
X61589064Y-77919000D01*
%TO.C,R2*%
X65653064Y-76449000D02*
X65198936Y-76449000D01*
X65653064Y-77919000D02*
X65198936Y-77919000D01*
%TO.C,U1*%
D13*
X61394000Y-70092000D02*
X65394000Y-70092000D01*
X61394000Y-75132000D02*
X65394000Y-75132000D01*
D14*
X59049000Y-70117000D02*
G75*
G02*
X58849000Y-70117000I-100000J0D01*
G01*
X58849000Y-70117000D02*
G75*
G02*
X59049000Y-70117000I100000J0D01*
G01*
%TO.C,C2*%
D12*
X85499252Y-69845000D02*
X84976748Y-69845000D01*
X85499252Y-71315000D02*
X84976748Y-71315000D01*
%TO.C,R4*%
X85465064Y-62733000D02*
X85010936Y-62733000D01*
X85465064Y-64203000D02*
X85010936Y-64203000D01*
%TO.C,BT1*%
X54902000Y-61829000D02*
X56282000Y-61829000D01*
X54902000Y-63209000D02*
X54902000Y-61829000D01*
X54902000Y-64479000D02*
X54902000Y-67129000D01*
X54902000Y-64479000D02*
X57662000Y-64479000D01*
X54902000Y-67129000D02*
X57662000Y-67129000D01*
X57662000Y-64479000D02*
X57662000Y-67129000D01*
%TO.C,C4*%
X85499252Y-73401000D02*
X84976748Y-73401000D01*
X85499252Y-74871000D02*
X84976748Y-74871000D01*
%TD*%
M02*
