%TF.GenerationSoftware,KiCad,Pcbnew,10.0.3*%
%TF.CreationDate,2026-10-03T20:12:49+05:30*%
%TF.ProjectId,MCU-Datalogger-with build-in 512K EEPROM and Clock,4d43552d-4461-4746-916c-6f676765722d,rev?*%
%TF.SameCoordinates,Original*%
%TF.FileFunction,Legend,Bot*%
%TF.FilePolarity,Positive*%
%FSLAX46Y46*%
G04 Gerber Fmt 4.6, Leading zero omitted, Abs format (unit mm)*
G04 Created by KiCad (PCBNEW 10.0.3) date 2026-10-03 20:12:49*
%MOMM*%
%LPD*%
G01*
G04 APERTURE LIST*
%ADD10C,0.250000*%
%ADD11C,0.010000*%
G04 APERTURE END LIST*
D10*
X92053431Y-66380619D02*
X92053431Y-65380619D01*
X92053431Y-65380619D02*
X91720098Y-66094904D01*
X91720098Y-66094904D02*
X91386765Y-65380619D01*
X91386765Y-65380619D02*
X91386765Y-66380619D01*
X90339146Y-66285380D02*
X90386765Y-66333000D01*
X90386765Y-66333000D02*
X90529622Y-66380619D01*
X90529622Y-66380619D02*
X90624860Y-66380619D01*
X90624860Y-66380619D02*
X90767717Y-66333000D01*
X90767717Y-66333000D02*
X90862955Y-66237761D01*
X90862955Y-66237761D02*
X90910574Y-66142523D01*
X90910574Y-66142523D02*
X90958193Y-65952047D01*
X90958193Y-65952047D02*
X90958193Y-65809190D01*
X90958193Y-65809190D02*
X90910574Y-65618714D01*
X90910574Y-65618714D02*
X90862955Y-65523476D01*
X90862955Y-65523476D02*
X90767717Y-65428238D01*
X90767717Y-65428238D02*
X90624860Y-65380619D01*
X90624860Y-65380619D02*
X90529622Y-65380619D01*
X90529622Y-65380619D02*
X90386765Y-65428238D01*
X90386765Y-65428238D02*
X90339146Y-65475857D01*
X89910574Y-65380619D02*
X89910574Y-66190142D01*
X89910574Y-66190142D02*
X89862955Y-66285380D01*
X89862955Y-66285380D02*
X89815336Y-66333000D01*
X89815336Y-66333000D02*
X89720098Y-66380619D01*
X89720098Y-66380619D02*
X89529622Y-66380619D01*
X89529622Y-66380619D02*
X89434384Y-66333000D01*
X89434384Y-66333000D02*
X89386765Y-66285380D01*
X89386765Y-66285380D02*
X89339146Y-66190142D01*
X89339146Y-66190142D02*
X89339146Y-65380619D01*
X88101050Y-66380619D02*
X88101050Y-65380619D01*
X88101050Y-65380619D02*
X87862955Y-65380619D01*
X87862955Y-65380619D02*
X87720098Y-65428238D01*
X87720098Y-65428238D02*
X87624860Y-65523476D01*
X87624860Y-65523476D02*
X87577241Y-65618714D01*
X87577241Y-65618714D02*
X87529622Y-65809190D01*
X87529622Y-65809190D02*
X87529622Y-65952047D01*
X87529622Y-65952047D02*
X87577241Y-66142523D01*
X87577241Y-66142523D02*
X87624860Y-66237761D01*
X87624860Y-66237761D02*
X87720098Y-66333000D01*
X87720098Y-66333000D02*
X87862955Y-66380619D01*
X87862955Y-66380619D02*
X88101050Y-66380619D01*
X87148669Y-66094904D02*
X86672479Y-66094904D01*
X87243907Y-66380619D02*
X86910574Y-65380619D01*
X86910574Y-65380619D02*
X86577241Y-66380619D01*
X86386764Y-65380619D02*
X85815336Y-65380619D01*
X86101050Y-66380619D02*
X86101050Y-65380619D01*
X85529621Y-66094904D02*
X85053431Y-66094904D01*
X85624859Y-66380619D02*
X85291526Y-65380619D01*
X85291526Y-65380619D02*
X84958193Y-66380619D01*
X84148669Y-66380619D02*
X84624859Y-66380619D01*
X84624859Y-66380619D02*
X84624859Y-65380619D01*
X83624859Y-65380619D02*
X83434383Y-65380619D01*
X83434383Y-65380619D02*
X83339145Y-65428238D01*
X83339145Y-65428238D02*
X83243907Y-65523476D01*
X83243907Y-65523476D02*
X83196288Y-65713952D01*
X83196288Y-65713952D02*
X83196288Y-66047285D01*
X83196288Y-66047285D02*
X83243907Y-66237761D01*
X83243907Y-66237761D02*
X83339145Y-66333000D01*
X83339145Y-66333000D02*
X83434383Y-66380619D01*
X83434383Y-66380619D02*
X83624859Y-66380619D01*
X83624859Y-66380619D02*
X83720097Y-66333000D01*
X83720097Y-66333000D02*
X83815335Y-66237761D01*
X83815335Y-66237761D02*
X83862954Y-66047285D01*
X83862954Y-66047285D02*
X83862954Y-65713952D01*
X83862954Y-65713952D02*
X83815335Y-65523476D01*
X83815335Y-65523476D02*
X83720097Y-65428238D01*
X83720097Y-65428238D02*
X83624859Y-65380619D01*
X82243907Y-65428238D02*
X82339145Y-65380619D01*
X82339145Y-65380619D02*
X82482002Y-65380619D01*
X82482002Y-65380619D02*
X82624859Y-65428238D01*
X82624859Y-65428238D02*
X82720097Y-65523476D01*
X82720097Y-65523476D02*
X82767716Y-65618714D01*
X82767716Y-65618714D02*
X82815335Y-65809190D01*
X82815335Y-65809190D02*
X82815335Y-65952047D01*
X82815335Y-65952047D02*
X82767716Y-66142523D01*
X82767716Y-66142523D02*
X82720097Y-66237761D01*
X82720097Y-66237761D02*
X82624859Y-66333000D01*
X82624859Y-66333000D02*
X82482002Y-66380619D01*
X82482002Y-66380619D02*
X82386764Y-66380619D01*
X82386764Y-66380619D02*
X82243907Y-66333000D01*
X82243907Y-66333000D02*
X82196288Y-66285380D01*
X82196288Y-66285380D02*
X82196288Y-65952047D01*
X82196288Y-65952047D02*
X82386764Y-65952047D01*
X81243907Y-65428238D02*
X81339145Y-65380619D01*
X81339145Y-65380619D02*
X81482002Y-65380619D01*
X81482002Y-65380619D02*
X81624859Y-65428238D01*
X81624859Y-65428238D02*
X81720097Y-65523476D01*
X81720097Y-65523476D02*
X81767716Y-65618714D01*
X81767716Y-65618714D02*
X81815335Y-65809190D01*
X81815335Y-65809190D02*
X81815335Y-65952047D01*
X81815335Y-65952047D02*
X81767716Y-66142523D01*
X81767716Y-66142523D02*
X81720097Y-66237761D01*
X81720097Y-66237761D02*
X81624859Y-66333000D01*
X81624859Y-66333000D02*
X81482002Y-66380619D01*
X81482002Y-66380619D02*
X81386764Y-66380619D01*
X81386764Y-66380619D02*
X81243907Y-66333000D01*
X81243907Y-66333000D02*
X81196288Y-66285380D01*
X81196288Y-66285380D02*
X81196288Y-65952047D01*
X81196288Y-65952047D02*
X81386764Y-65952047D01*
X80767716Y-65856809D02*
X80434383Y-65856809D01*
X80291526Y-66380619D02*
X80767716Y-66380619D01*
X80767716Y-66380619D02*
X80767716Y-65380619D01*
X80767716Y-65380619D02*
X80291526Y-65380619D01*
X79291526Y-66380619D02*
X79624859Y-65904428D01*
X79862954Y-66380619D02*
X79862954Y-65380619D01*
X79862954Y-65380619D02*
X79482002Y-65380619D01*
X79482002Y-65380619D02*
X79386764Y-65428238D01*
X79386764Y-65428238D02*
X79339145Y-65475857D01*
X79339145Y-65475857D02*
X79291526Y-65571095D01*
X79291526Y-65571095D02*
X79291526Y-65713952D01*
X79291526Y-65713952D02*
X79339145Y-65809190D01*
X79339145Y-65809190D02*
X79386764Y-65856809D01*
X79386764Y-65856809D02*
X79482002Y-65904428D01*
X79482002Y-65904428D02*
X79862954Y-65904428D01*
X78196287Y-65380619D02*
X77958192Y-66380619D01*
X77958192Y-66380619D02*
X77767716Y-65666333D01*
X77767716Y-65666333D02*
X77577240Y-66380619D01*
X77577240Y-66380619D02*
X77339145Y-65380619D01*
X76958192Y-66380619D02*
X76958192Y-65380619D01*
X76624859Y-65380619D02*
X76053431Y-65380619D01*
X76339145Y-66380619D02*
X76339145Y-65380619D01*
X75720097Y-66380619D02*
X75720097Y-65380619D01*
X75720097Y-65856809D02*
X75148669Y-65856809D01*
X75148669Y-66380619D02*
X75148669Y-65380619D01*
X73910573Y-66380619D02*
X73910573Y-65380619D01*
X73910573Y-65380619D02*
X73577240Y-66094904D01*
X73577240Y-66094904D02*
X73243907Y-65380619D01*
X73243907Y-65380619D02*
X73243907Y-66380619D01*
X72767716Y-65856809D02*
X72434383Y-65856809D01*
X72291526Y-66380619D02*
X72767716Y-66380619D01*
X72767716Y-66380619D02*
X72767716Y-65380619D01*
X72767716Y-65380619D02*
X72291526Y-65380619D01*
X71862954Y-66380619D02*
X71862954Y-65380619D01*
X71862954Y-65380619D02*
X71529621Y-66094904D01*
X71529621Y-66094904D02*
X71196288Y-65380619D01*
X71196288Y-65380619D02*
X71196288Y-66380619D01*
X70529621Y-65380619D02*
X70339145Y-65380619D01*
X70339145Y-65380619D02*
X70243907Y-65428238D01*
X70243907Y-65428238D02*
X70148669Y-65523476D01*
X70148669Y-65523476D02*
X70101050Y-65713952D01*
X70101050Y-65713952D02*
X70101050Y-66047285D01*
X70101050Y-66047285D02*
X70148669Y-66237761D01*
X70148669Y-66237761D02*
X70243907Y-66333000D01*
X70243907Y-66333000D02*
X70339145Y-66380619D01*
X70339145Y-66380619D02*
X70529621Y-66380619D01*
X70529621Y-66380619D02*
X70624859Y-66333000D01*
X70624859Y-66333000D02*
X70720097Y-66237761D01*
X70720097Y-66237761D02*
X70767716Y-66047285D01*
X70767716Y-66047285D02*
X70767716Y-65713952D01*
X70767716Y-65713952D02*
X70720097Y-65523476D01*
X70720097Y-65523476D02*
X70624859Y-65428238D01*
X70624859Y-65428238D02*
X70529621Y-65380619D01*
X69101050Y-66380619D02*
X69434383Y-65904428D01*
X69672478Y-66380619D02*
X69672478Y-65380619D01*
X69672478Y-65380619D02*
X69291526Y-65380619D01*
X69291526Y-65380619D02*
X69196288Y-65428238D01*
X69196288Y-65428238D02*
X69148669Y-65475857D01*
X69148669Y-65475857D02*
X69101050Y-65571095D01*
X69101050Y-65571095D02*
X69101050Y-65713952D01*
X69101050Y-65713952D02*
X69148669Y-65809190D01*
X69148669Y-65809190D02*
X69196288Y-65856809D01*
X69196288Y-65856809D02*
X69291526Y-65904428D01*
X69291526Y-65904428D02*
X69672478Y-65904428D01*
X68482002Y-65904428D02*
X68482002Y-66380619D01*
X68815335Y-65380619D02*
X68482002Y-65904428D01*
X68482002Y-65904428D02*
X68148669Y-65380619D01*
X67101049Y-66094904D02*
X66624859Y-66094904D01*
X67196287Y-66380619D02*
X66862954Y-65380619D01*
X66862954Y-65380619D02*
X66529621Y-66380619D01*
X66196287Y-66380619D02*
X66196287Y-65380619D01*
X66196287Y-65380619D02*
X65624859Y-66380619D01*
X65624859Y-66380619D02*
X65624859Y-65380619D01*
X65148668Y-66380619D02*
X65148668Y-65380619D01*
X65148668Y-65380619D02*
X64910573Y-65380619D01*
X64910573Y-65380619D02*
X64767716Y-65428238D01*
X64767716Y-65428238D02*
X64672478Y-65523476D01*
X64672478Y-65523476D02*
X64624859Y-65618714D01*
X64624859Y-65618714D02*
X64577240Y-65809190D01*
X64577240Y-65809190D02*
X64577240Y-65952047D01*
X64577240Y-65952047D02*
X64624859Y-66142523D01*
X64624859Y-66142523D02*
X64672478Y-66237761D01*
X64672478Y-66237761D02*
X64767716Y-66333000D01*
X64767716Y-66333000D02*
X64910573Y-66380619D01*
X64910573Y-66380619D02*
X65148668Y-66380619D01*
X62815335Y-66285380D02*
X62862954Y-66333000D01*
X62862954Y-66333000D02*
X63005811Y-66380619D01*
X63005811Y-66380619D02*
X63101049Y-66380619D01*
X63101049Y-66380619D02*
X63243906Y-66333000D01*
X63243906Y-66333000D02*
X63339144Y-66237761D01*
X63339144Y-66237761D02*
X63386763Y-66142523D01*
X63386763Y-66142523D02*
X63434382Y-65952047D01*
X63434382Y-65952047D02*
X63434382Y-65809190D01*
X63434382Y-65809190D02*
X63386763Y-65618714D01*
X63386763Y-65618714D02*
X63339144Y-65523476D01*
X63339144Y-65523476D02*
X63243906Y-65428238D01*
X63243906Y-65428238D02*
X63101049Y-65380619D01*
X63101049Y-65380619D02*
X63005811Y-65380619D01*
X63005811Y-65380619D02*
X62862954Y-65428238D01*
X62862954Y-65428238D02*
X62815335Y-65475857D01*
X61910573Y-66380619D02*
X62386763Y-66380619D01*
X62386763Y-66380619D02*
X62386763Y-65380619D01*
X61386763Y-65380619D02*
X61196287Y-65380619D01*
X61196287Y-65380619D02*
X61101049Y-65428238D01*
X61101049Y-65428238D02*
X61005811Y-65523476D01*
X61005811Y-65523476D02*
X60958192Y-65713952D01*
X60958192Y-65713952D02*
X60958192Y-66047285D01*
X60958192Y-66047285D02*
X61005811Y-66237761D01*
X61005811Y-66237761D02*
X61101049Y-66333000D01*
X61101049Y-66333000D02*
X61196287Y-66380619D01*
X61196287Y-66380619D02*
X61386763Y-66380619D01*
X61386763Y-66380619D02*
X61482001Y-66333000D01*
X61482001Y-66333000D02*
X61577239Y-66237761D01*
X61577239Y-66237761D02*
X61624858Y-66047285D01*
X61624858Y-66047285D02*
X61624858Y-65713952D01*
X61624858Y-65713952D02*
X61577239Y-65523476D01*
X61577239Y-65523476D02*
X61482001Y-65428238D01*
X61482001Y-65428238D02*
X61386763Y-65380619D01*
X59958192Y-66285380D02*
X60005811Y-66333000D01*
X60005811Y-66333000D02*
X60148668Y-66380619D01*
X60148668Y-66380619D02*
X60243906Y-66380619D01*
X60243906Y-66380619D02*
X60386763Y-66333000D01*
X60386763Y-66333000D02*
X60482001Y-66237761D01*
X60482001Y-66237761D02*
X60529620Y-66142523D01*
X60529620Y-66142523D02*
X60577239Y-65952047D01*
X60577239Y-65952047D02*
X60577239Y-65809190D01*
X60577239Y-65809190D02*
X60529620Y-65618714D01*
X60529620Y-65618714D02*
X60482001Y-65523476D01*
X60482001Y-65523476D02*
X60386763Y-65428238D01*
X60386763Y-65428238D02*
X60243906Y-65380619D01*
X60243906Y-65380619D02*
X60148668Y-65380619D01*
X60148668Y-65380619D02*
X60005811Y-65428238D01*
X60005811Y-65428238D02*
X59958192Y-65475857D01*
X59529620Y-66380619D02*
X59529620Y-65380619D01*
X58958192Y-66380619D02*
X59386763Y-65809190D01*
X58958192Y-65380619D02*
X59529620Y-65952047D01*
D11*
%TO.C,REF\u002A\u002A*%
X62488386Y-61298877D02*
X62464673Y-61313647D01*
X62438022Y-61335227D01*
X62438022Y-61656773D01*
X62438107Y-61750830D01*
X62438471Y-61824932D01*
X62439276Y-61881704D01*
X62440687Y-61923768D01*
X62442867Y-61953748D01*
X62445979Y-61974267D01*
X62450186Y-61987949D01*
X62455652Y-61997416D01*
X62459528Y-62002082D01*
X62490966Y-62022575D01*
X62526767Y-62021739D01*
X62558127Y-62004264D01*
X62584778Y-61982684D01*
X62584778Y-61335227D01*
X62558127Y-61313647D01*
X62532406Y-61297949D01*
X62511400Y-61292067D01*
X62488386Y-61298877D01*
G36*
X62532406Y-61297949D02*
G01*
X62558127Y-61313647D01*
X62584778Y-61335227D01*
X62584778Y-61982684D01*
X62558127Y-62004264D01*
X62526767Y-62021739D01*
X62490966Y-62022575D01*
X62459528Y-62002082D01*
X62455652Y-61997416D01*
X62450186Y-61987949D01*
X62445979Y-61974267D01*
X62442867Y-61953748D01*
X62440687Y-61923768D01*
X62439276Y-61881704D01*
X62438471Y-61824932D01*
X62438107Y-61750830D01*
X62438022Y-61656773D01*
X62438022Y-61335227D01*
X62464673Y-61313647D01*
X62488386Y-61298877D01*
X62511400Y-61292067D01*
X62532406Y-61297949D01*
G37*
X69600822Y-61314645D02*
X69594242Y-61322218D01*
X69589079Y-61331987D01*
X69585164Y-61346571D01*
X69582324Y-61368585D01*
X69580387Y-61400648D01*
X69579183Y-61445375D01*
X69578539Y-61505385D01*
X69578284Y-61583294D01*
X69578245Y-61658956D01*
X69578314Y-61752802D01*
X69578638Y-61826689D01*
X69579386Y-61883232D01*
X69580732Y-61925049D01*
X69582846Y-61954757D01*
X69585900Y-61974973D01*
X69590066Y-61988314D01*
X69595516Y-61997398D01*
X69600822Y-62003267D01*
X69633826Y-62022947D01*
X69668991Y-62021181D01*
X69700455Y-61999717D01*
X69707684Y-61991337D01*
X69713334Y-61981614D01*
X69717599Y-61967861D01*
X69720673Y-61947389D01*
X69722752Y-61917512D01*
X69724030Y-61875541D01*
X69724701Y-61818789D01*
X69724959Y-61744567D01*
X69725000Y-61660537D01*
X69725000Y-61347485D01*
X69697291Y-61319776D01*
X69663137Y-61296463D01*
X69630006Y-61295623D01*
X69600822Y-61314645D01*
G36*
X69663137Y-61296463D02*
G01*
X69697291Y-61319776D01*
X69725000Y-61347485D01*
X69725000Y-61660537D01*
X69724959Y-61744567D01*
X69724701Y-61818789D01*
X69724030Y-61875541D01*
X69722752Y-61917512D01*
X69720673Y-61947389D01*
X69717599Y-61967861D01*
X69713334Y-61981614D01*
X69707684Y-61991337D01*
X69700455Y-61999717D01*
X69668991Y-62021181D01*
X69633826Y-62022947D01*
X69600822Y-62003267D01*
X69595516Y-61997398D01*
X69590066Y-61988314D01*
X69585900Y-61974973D01*
X69582846Y-61954757D01*
X69580732Y-61925049D01*
X69579386Y-61883232D01*
X69578638Y-61826689D01*
X69578314Y-61752802D01*
X69578245Y-61658956D01*
X69578284Y-61583294D01*
X69578539Y-61505385D01*
X69579183Y-61445375D01*
X69580387Y-61400648D01*
X69582324Y-61368585D01*
X69585164Y-61346571D01*
X69589079Y-61331987D01*
X69594242Y-61322218D01*
X69600822Y-61314645D01*
X69630006Y-61295623D01*
X69663137Y-61296463D01*
G37*
X68950043Y-56049571D02*
X68853768Y-56073809D01*
X68767184Y-56116641D01*
X68692373Y-56176419D01*
X68631418Y-56251494D01*
X68586399Y-56340220D01*
X68560136Y-56436530D01*
X68554286Y-56533795D01*
X68569140Y-56627654D01*
X68602840Y-56715511D01*
X68653528Y-56794770D01*
X68719345Y-56862836D01*
X68798434Y-56917112D01*
X68888934Y-56955002D01*
X68940200Y-56967426D01*
X68984698Y-56974947D01*
X69018999Y-56977919D01*
X69051960Y-56976094D01*
X69092434Y-56969225D01*
X69125531Y-56962250D01*
X69218947Y-56930741D01*
X69302619Y-56879617D01*
X69374665Y-56810429D01*
X69433200Y-56724728D01*
X69447148Y-56697489D01*
X69463586Y-56661122D01*
X69473894Y-56630582D01*
X69479460Y-56598450D01*
X69481669Y-56557307D01*
X69481948Y-56511222D01*
X69477861Y-56426865D01*
X69464446Y-56357586D01*
X69439256Y-56296961D01*
X69399846Y-56238567D01*
X69361298Y-56194302D01*
X69289406Y-56128484D01*
X69214313Y-56083053D01*
X69131562Y-56055850D01*
X69053928Y-56045576D01*
X68950043Y-56049571D01*
G36*
X69131562Y-56055850D02*
G01*
X69214313Y-56083053D01*
X69289406Y-56128484D01*
X69361298Y-56194302D01*
X69399846Y-56238567D01*
X69439256Y-56296961D01*
X69464446Y-56357586D01*
X69477861Y-56426865D01*
X69481948Y-56511222D01*
X69481669Y-56557307D01*
X69479460Y-56598450D01*
X69473894Y-56630582D01*
X69463586Y-56661122D01*
X69447148Y-56697489D01*
X69433200Y-56724728D01*
X69374665Y-56810429D01*
X69302619Y-56879617D01*
X69218947Y-56930741D01*
X69125531Y-56962250D01*
X69092434Y-56969225D01*
X69051960Y-56976094D01*
X69018999Y-56977919D01*
X68984698Y-56974947D01*
X68940200Y-56967426D01*
X68888934Y-56955002D01*
X68798434Y-56917112D01*
X68719345Y-56862836D01*
X68653528Y-56794770D01*
X68602840Y-56715511D01*
X68569140Y-56627654D01*
X68554286Y-56533795D01*
X68560136Y-56436530D01*
X68586399Y-56340220D01*
X68631418Y-56251494D01*
X68692373Y-56176419D01*
X68767184Y-56116641D01*
X68853768Y-56073809D01*
X68950043Y-56049571D01*
X69053928Y-56045576D01*
X69131562Y-56055850D01*
G37*
X61713935Y-61292163D02*
X61635228Y-61292542D01*
X61574137Y-61293333D01*
X61528183Y-61294670D01*
X61494886Y-61296683D01*
X61471764Y-61299506D01*
X61456338Y-61303269D01*
X61446129Y-61308105D01*
X61441187Y-61311822D01*
X61415543Y-61344358D01*
X61412441Y-61378138D01*
X61428289Y-61408826D01*
X61438652Y-61421089D01*
X61449804Y-61429450D01*
X61465965Y-61434657D01*
X61491358Y-61437457D01*
X61530202Y-61438596D01*
X61586720Y-61438821D01*
X61597820Y-61438822D01*
X61743756Y-61438822D01*
X61743756Y-61709756D01*
X61743852Y-61795154D01*
X61744289Y-61860864D01*
X61745288Y-61909774D01*
X61747072Y-61944773D01*
X61749863Y-61968749D01*
X61753883Y-61984593D01*
X61759355Y-61995191D01*
X61766334Y-62003267D01*
X61799266Y-62023112D01*
X61833646Y-62021548D01*
X61864824Y-61998906D01*
X61867114Y-61996100D01*
X61874571Y-61985492D01*
X61880253Y-61973081D01*
X61884399Y-61955850D01*
X61887250Y-61930784D01*
X61889046Y-61894867D01*
X61890028Y-61845083D01*
X61890436Y-61778417D01*
X61890511Y-61702589D01*
X61890511Y-61438822D01*
X62029873Y-61438822D01*
X62089678Y-61438418D01*
X62131082Y-61436840D01*
X62158252Y-61433547D01*
X62175354Y-61427992D01*
X62186557Y-61419631D01*
X62187917Y-61418178D01*
X62204275Y-61384939D01*
X62202828Y-61347362D01*
X62184022Y-61314645D01*
X62176750Y-61308298D01*
X62167373Y-61303266D01*
X62153391Y-61299396D01*
X62132304Y-61296537D01*
X62101611Y-61294535D01*
X62058811Y-61293239D01*
X62001405Y-61292498D01*
X61926890Y-61292158D01*
X61832767Y-61292068D01*
X61812740Y-61292067D01*
X61713935Y-61292163D01*
G36*
X61832767Y-61292068D02*
G01*
X61926890Y-61292158D01*
X62001405Y-61292498D01*
X62058811Y-61293239D01*
X62101611Y-61294535D01*
X62132304Y-61296537D01*
X62153391Y-61299396D01*
X62167373Y-61303266D01*
X62176750Y-61308298D01*
X62184022Y-61314645D01*
X62202828Y-61347362D01*
X62204275Y-61384939D01*
X62187917Y-61418178D01*
X62186557Y-61419631D01*
X62175354Y-61427992D01*
X62158252Y-61433547D01*
X62131082Y-61436840D01*
X62089678Y-61438418D01*
X62029873Y-61438822D01*
X61890511Y-61438822D01*
X61890511Y-61702589D01*
X61890436Y-61778417D01*
X61890028Y-61845083D01*
X61889046Y-61894867D01*
X61887250Y-61930784D01*
X61884399Y-61955850D01*
X61880253Y-61973081D01*
X61874571Y-61985492D01*
X61867114Y-61996100D01*
X61864824Y-61998906D01*
X61833646Y-62021548D01*
X61799266Y-62023112D01*
X61766334Y-62003267D01*
X61759355Y-61995191D01*
X61753883Y-61984593D01*
X61749863Y-61968749D01*
X61747072Y-61944773D01*
X61745288Y-61909774D01*
X61744289Y-61860864D01*
X61743852Y-61795154D01*
X61743756Y-61709756D01*
X61743756Y-61438822D01*
X61597820Y-61438822D01*
X61586720Y-61438821D01*
X61530202Y-61438596D01*
X61491358Y-61437457D01*
X61465965Y-61434657D01*
X61449804Y-61429450D01*
X61438652Y-61421089D01*
X61428289Y-61408826D01*
X61412441Y-61378138D01*
X61415543Y-61344358D01*
X61441187Y-61311822D01*
X61446129Y-61308105D01*
X61456338Y-61303269D01*
X61471764Y-61299506D01*
X61494886Y-61296683D01*
X61528183Y-61294670D01*
X61574137Y-61293333D01*
X61635228Y-61292542D01*
X61713935Y-61292163D01*
X61812740Y-61292067D01*
X61832767Y-61292068D01*
G37*
X60448177Y-61297533D02*
X60416798Y-61319776D01*
X60389089Y-61347485D01*
X60389089Y-61656920D01*
X60389162Y-61748799D01*
X60389505Y-61820840D01*
X60390308Y-61875780D01*
X60391759Y-61916360D01*
X60394048Y-61945317D01*
X60397364Y-61965391D01*
X60401895Y-61979321D01*
X60407831Y-61989845D01*
X60412486Y-61996100D01*
X60443217Y-62020673D01*
X60478504Y-62023341D01*
X60510755Y-62008271D01*
X60521412Y-61999374D01*
X60528536Y-61987557D01*
X60532833Y-61968526D01*
X60535009Y-61937992D01*
X60535772Y-61891662D01*
X60535845Y-61855871D01*
X60535845Y-61721045D01*
X61032556Y-61721045D01*
X61032556Y-61843700D01*
X61033069Y-61899787D01*
X61035124Y-61938333D01*
X61039492Y-61964361D01*
X61046944Y-61982897D01*
X61055953Y-61996100D01*
X61086856Y-62020604D01*
X61121804Y-62023506D01*
X61155262Y-62006089D01*
X61164396Y-61996959D01*
X61170848Y-61984855D01*
X61175103Y-61966001D01*
X61177648Y-61936620D01*
X61178971Y-61892937D01*
X61179557Y-61831175D01*
X61179625Y-61817000D01*
X61180109Y-61700631D01*
X61180359Y-61604727D01*
X61180277Y-61527177D01*
X61179769Y-61465869D01*
X61178738Y-61418690D01*
X61177087Y-61383530D01*
X61174721Y-61358276D01*
X61171543Y-61340817D01*
X61167456Y-61329041D01*
X61162366Y-61320835D01*
X61156734Y-61314645D01*
X61124872Y-61294844D01*
X61091643Y-61297533D01*
X61060265Y-61319776D01*
X61047567Y-61334126D01*
X61039474Y-61349978D01*
X61034958Y-61372554D01*
X61032994Y-61407078D01*
X61032556Y-61458776D01*
X61032556Y-61574289D01*
X60535845Y-61574289D01*
X60535845Y-61455756D01*
X60535338Y-61401148D01*
X60533302Y-61364275D01*
X60528965Y-61340307D01*
X60521553Y-61324415D01*
X60513267Y-61314645D01*
X60481406Y-61294844D01*
X60448177Y-61297533D01*
G36*
X61156734Y-61314645D02*
G01*
X61162366Y-61320835D01*
X61167456Y-61329041D01*
X61171543Y-61340817D01*
X61174721Y-61358276D01*
X61177087Y-61383530D01*
X61178738Y-61418690D01*
X61179769Y-61465869D01*
X61180277Y-61527177D01*
X61180359Y-61604727D01*
X61180109Y-61700631D01*
X61179625Y-61817000D01*
X61179557Y-61831175D01*
X61178971Y-61892937D01*
X61177648Y-61936620D01*
X61175103Y-61966001D01*
X61170848Y-61984855D01*
X61164396Y-61996959D01*
X61155262Y-62006089D01*
X61121804Y-62023506D01*
X61086856Y-62020604D01*
X61055953Y-61996100D01*
X61046944Y-61982897D01*
X61039492Y-61964361D01*
X61035124Y-61938333D01*
X61033069Y-61899787D01*
X61032556Y-61843700D01*
X61032556Y-61721045D01*
X60535845Y-61721045D01*
X60535845Y-61855871D01*
X60535772Y-61891662D01*
X60535009Y-61937992D01*
X60532833Y-61968526D01*
X60528536Y-61987557D01*
X60521412Y-61999374D01*
X60510755Y-62008271D01*
X60478504Y-62023341D01*
X60443217Y-62020673D01*
X60412486Y-61996100D01*
X60407831Y-61989845D01*
X60401895Y-61979321D01*
X60397364Y-61965391D01*
X60394048Y-61945317D01*
X60391759Y-61916360D01*
X60390308Y-61875780D01*
X60389505Y-61820840D01*
X60389162Y-61748799D01*
X60389089Y-61656920D01*
X60389089Y-61347485D01*
X60416798Y-61319776D01*
X60448177Y-61297533D01*
X60481406Y-61294844D01*
X60513267Y-61314645D01*
X60521553Y-61324415D01*
X60528965Y-61340307D01*
X60533302Y-61364275D01*
X60535338Y-61401148D01*
X60535845Y-61455756D01*
X60535845Y-61574289D01*
X61032556Y-61574289D01*
X61032556Y-61458776D01*
X61032994Y-61407078D01*
X61034958Y-61372554D01*
X61039474Y-61349978D01*
X61047567Y-61334126D01*
X61060265Y-61319776D01*
X61091643Y-61297533D01*
X61124872Y-61294844D01*
X61156734Y-61314645D01*
G37*
X65658691Y-61292275D02*
X65529712Y-61296636D01*
X65420009Y-61309861D01*
X65327774Y-61332741D01*
X65251198Y-61366070D01*
X65188473Y-61410638D01*
X65137788Y-61467236D01*
X65097337Y-61536658D01*
X65096541Y-61538351D01*
X65072399Y-61600483D01*
X65063797Y-61655509D01*
X65070769Y-61710887D01*
X65093346Y-61774073D01*
X65097628Y-61783689D01*
X65126828Y-61839966D01*
X65159644Y-61883451D01*
X65201998Y-61920417D01*
X65259810Y-61957135D01*
X65263169Y-61959052D01*
X65313496Y-61983227D01*
X65370379Y-62001282D01*
X65437473Y-62013839D01*
X65518435Y-62021522D01*
X65616918Y-62024953D01*
X65651714Y-62025251D01*
X65817406Y-62025845D01*
X65840803Y-61996100D01*
X65847743Y-61986319D01*
X65853158Y-61974897D01*
X65857235Y-61959095D01*
X65860163Y-61936175D01*
X65862133Y-61903396D01*
X65862775Y-61879089D01*
X65706156Y-61879089D01*
X65612274Y-61879089D01*
X65557336Y-61877483D01*
X65500940Y-61873255D01*
X65454655Y-61867292D01*
X65451861Y-61866790D01*
X65369652Y-61844736D01*
X65305886Y-61811600D01*
X65258548Y-61765847D01*
X65225618Y-61705939D01*
X65219892Y-61690061D01*
X65214279Y-61665333D01*
X65216709Y-61640902D01*
X65228533Y-61608400D01*
X65235660Y-61592434D01*
X65259000Y-61550006D01*
X65287120Y-61520240D01*
X65318060Y-61499511D01*
X65380034Y-61472537D01*
X65459349Y-61452998D01*
X65551747Y-61441746D01*
X65618667Y-61439270D01*
X65706156Y-61438822D01*
X65706156Y-61879089D01*
X65862775Y-61879089D01*
X65863332Y-61858021D01*
X65863950Y-61797311D01*
X65864175Y-61718526D01*
X65864200Y-61656920D01*
X65864200Y-61347485D01*
X65836491Y-61319776D01*
X65824194Y-61308544D01*
X65810897Y-61300853D01*
X65792328Y-61296040D01*
X65764214Y-61293446D01*
X65722283Y-61292410D01*
X65662263Y-61292270D01*
X65658691Y-61292275D01*
G36*
X65862133Y-61903396D02*
G01*
X65860163Y-61936175D01*
X65857235Y-61959095D01*
X65853158Y-61974897D01*
X65847743Y-61986319D01*
X65840803Y-61996100D01*
X65817406Y-62025845D01*
X65651714Y-62025251D01*
X65616918Y-62024953D01*
X65518435Y-62021522D01*
X65437473Y-62013839D01*
X65370379Y-62001282D01*
X65313496Y-61983227D01*
X65263169Y-61959052D01*
X65259810Y-61957135D01*
X65201998Y-61920417D01*
X65159644Y-61883451D01*
X65126828Y-61839966D01*
X65097628Y-61783689D01*
X65093346Y-61774073D01*
X65070769Y-61710887D01*
X65065034Y-61665333D01*
X65214279Y-61665333D01*
X65219892Y-61690061D01*
X65225618Y-61705939D01*
X65258548Y-61765847D01*
X65305886Y-61811600D01*
X65369652Y-61844736D01*
X65451861Y-61866790D01*
X65454655Y-61867292D01*
X65500940Y-61873255D01*
X65557336Y-61877483D01*
X65612274Y-61879089D01*
X65706156Y-61879089D01*
X65706156Y-61438822D01*
X65618667Y-61439270D01*
X65551747Y-61441746D01*
X65459349Y-61452998D01*
X65380034Y-61472537D01*
X65318060Y-61499511D01*
X65287120Y-61520240D01*
X65259000Y-61550006D01*
X65235660Y-61592434D01*
X65228533Y-61608400D01*
X65216709Y-61640902D01*
X65214279Y-61665333D01*
X65065034Y-61665333D01*
X65063797Y-61655509D01*
X65072399Y-61600483D01*
X65096541Y-61538351D01*
X65097337Y-61536658D01*
X65137788Y-61467236D01*
X65188473Y-61410638D01*
X65251198Y-61366070D01*
X65327774Y-61332741D01*
X65420009Y-61309861D01*
X65529712Y-61296636D01*
X65658691Y-61292275D01*
X65662263Y-61292270D01*
X65722283Y-61292410D01*
X65764214Y-61293446D01*
X65792328Y-61296040D01*
X65810897Y-61300853D01*
X65824194Y-61308544D01*
X65836491Y-61319776D01*
X65864200Y-61347485D01*
X65864200Y-61656920D01*
X65864175Y-61718526D01*
X65863950Y-61797311D01*
X65863332Y-61858021D01*
X65862775Y-61879089D01*
X65862133Y-61903396D01*
G37*
X72798371Y-61292066D02*
X72758889Y-61292467D01*
X72643200Y-61295259D01*
X72546311Y-61303550D01*
X72464919Y-61318232D01*
X72395723Y-61340193D01*
X72335420Y-61370322D01*
X72280708Y-61409510D01*
X72261167Y-61426532D01*
X72228750Y-61466363D01*
X72199520Y-61520413D01*
X72176991Y-61580323D01*
X72164679Y-61637739D01*
X72163400Y-61658956D01*
X72171417Y-61717769D01*
X72192899Y-61782013D01*
X72223999Y-61842821D01*
X72260866Y-61891330D01*
X72266854Y-61897182D01*
X72317579Y-61938321D01*
X72373125Y-61970435D01*
X72436696Y-61994365D01*
X72511494Y-62010953D01*
X72600722Y-62021041D01*
X72707582Y-62025469D01*
X72756528Y-62025845D01*
X72818762Y-62025545D01*
X72862528Y-62024292D01*
X72891931Y-62021554D01*
X72911079Y-62016801D01*
X72924077Y-62009501D01*
X72931045Y-62003267D01*
X72937626Y-61995694D01*
X72942788Y-61985924D01*
X72946703Y-61971340D01*
X72949543Y-61949326D01*
X72951480Y-61917264D01*
X72952684Y-61872536D01*
X72953328Y-61812526D01*
X72953583Y-61734617D01*
X72953622Y-61658956D01*
X72953870Y-61558041D01*
X72953817Y-61477427D01*
X72952857Y-61438822D01*
X72806867Y-61438822D01*
X72806867Y-61879089D01*
X72713734Y-61879004D01*
X72657693Y-61877396D01*
X72598999Y-61873256D01*
X72550028Y-61867464D01*
X72548538Y-61867226D01*
X72469392Y-61848090D01*
X72408002Y-61818287D01*
X72361305Y-61775878D01*
X72331635Y-61729961D01*
X72313353Y-61679026D01*
X72314771Y-61631200D01*
X72335988Y-61579933D01*
X72377489Y-61526899D01*
X72434998Y-61487600D01*
X72509750Y-61461331D01*
X72559708Y-61452035D01*
X72616416Y-61445507D01*
X72676519Y-61440782D01*
X72727639Y-61438817D01*
X72730667Y-61438808D01*
X72806867Y-61438822D01*
X72952857Y-61438822D01*
X72952260Y-61414851D01*
X72947998Y-61368055D01*
X72939830Y-61334778D01*
X72926556Y-61312759D01*
X72906974Y-61299739D01*
X72879883Y-61293457D01*
X72844082Y-61291653D01*
X72798371Y-61292066D01*
G36*
X72953817Y-61477427D02*
G01*
X72953870Y-61558041D01*
X72953622Y-61658956D01*
X72953583Y-61734617D01*
X72953328Y-61812526D01*
X72952684Y-61872536D01*
X72951480Y-61917264D01*
X72949543Y-61949326D01*
X72946703Y-61971340D01*
X72942788Y-61985924D01*
X72937626Y-61995694D01*
X72931045Y-62003267D01*
X72924077Y-62009501D01*
X72911079Y-62016801D01*
X72891931Y-62021554D01*
X72862528Y-62024292D01*
X72818762Y-62025545D01*
X72756528Y-62025845D01*
X72707582Y-62025469D01*
X72600722Y-62021041D01*
X72511494Y-62010953D01*
X72436696Y-61994365D01*
X72373125Y-61970435D01*
X72317579Y-61938321D01*
X72266854Y-61897182D01*
X72260866Y-61891330D01*
X72223999Y-61842821D01*
X72192899Y-61782013D01*
X72171417Y-61717769D01*
X72166136Y-61679026D01*
X72313353Y-61679026D01*
X72331635Y-61729961D01*
X72361305Y-61775878D01*
X72408002Y-61818287D01*
X72469392Y-61848090D01*
X72548538Y-61867226D01*
X72550028Y-61867464D01*
X72598999Y-61873256D01*
X72657693Y-61877396D01*
X72713734Y-61879004D01*
X72806867Y-61879089D01*
X72806867Y-61438822D01*
X72730667Y-61438808D01*
X72727639Y-61438817D01*
X72676519Y-61440782D01*
X72616416Y-61445507D01*
X72559708Y-61452035D01*
X72509750Y-61461331D01*
X72434998Y-61487600D01*
X72377489Y-61526899D01*
X72335988Y-61579933D01*
X72314771Y-61631200D01*
X72313353Y-61679026D01*
X72166136Y-61679026D01*
X72163400Y-61658956D01*
X72164679Y-61637739D01*
X72176991Y-61580323D01*
X72199520Y-61520413D01*
X72228750Y-61466363D01*
X72261167Y-61426532D01*
X72280708Y-61409510D01*
X72335420Y-61370322D01*
X72395723Y-61340193D01*
X72464919Y-61318232D01*
X72546311Y-61303550D01*
X72643200Y-61295259D01*
X72758889Y-61292467D01*
X72798371Y-61292066D01*
X72844082Y-61291653D01*
X72879883Y-61293457D01*
X72906974Y-61299739D01*
X72926556Y-61312759D01*
X72939830Y-61334778D01*
X72947998Y-61368055D01*
X72952260Y-61414851D01*
X72952857Y-61438822D01*
X72953817Y-61477427D01*
G37*
X67977114Y-61296448D02*
X67953548Y-61310273D01*
X67922735Y-61332881D01*
X67883078Y-61365338D01*
X67832980Y-61408708D01*
X67770843Y-61464058D01*
X67695072Y-61532451D01*
X67608334Y-61611084D01*
X67427711Y-61774878D01*
X67422067Y-61555029D01*
X67420029Y-61479351D01*
X67418063Y-61422994D01*
X67415734Y-61382706D01*
X67412606Y-61355235D01*
X67408245Y-61337329D01*
X67402216Y-61325737D01*
X67394084Y-61317208D01*
X67389772Y-61313623D01*
X67355241Y-61294670D01*
X67322383Y-61297441D01*
X67296318Y-61313633D01*
X67269667Y-61335199D01*
X67266352Y-61650151D01*
X67265435Y-61742779D01*
X67264968Y-61815544D01*
X67265113Y-61871161D01*
X67266032Y-61912342D01*
X67267887Y-61941803D01*
X67270839Y-61962255D01*
X67275050Y-61976413D01*
X67280682Y-61986991D01*
X67286927Y-61995474D01*
X67300439Y-62011207D01*
X67313883Y-62021636D01*
X67329124Y-62025639D01*
X67348026Y-62022094D01*
X67372455Y-62009879D01*
X67404273Y-61987871D01*
X67445348Y-61954949D01*
X67497542Y-61909991D01*
X67562722Y-61851875D01*
X67636556Y-61785099D01*
X67901845Y-61544458D01*
X67907489Y-61763589D01*
X67909531Y-61839128D01*
X67911502Y-61895354D01*
X67913839Y-61935524D01*
X67916981Y-61962896D01*
X67921364Y-61980728D01*
X67927424Y-61992279D01*
X67935600Y-62000807D01*
X67939784Y-62004282D01*
X67976765Y-62023372D01*
X68011708Y-62020493D01*
X68042136Y-61996100D01*
X68049097Y-61986286D01*
X68054523Y-61974826D01*
X68058603Y-61958968D01*
X68061529Y-61935963D01*
X68063492Y-61903062D01*
X68064683Y-61857516D01*
X68065292Y-61796573D01*
X68065511Y-61717486D01*
X68065534Y-61658956D01*
X68065460Y-61567407D01*
X68065113Y-61495687D01*
X68064301Y-61441045D01*
X68062833Y-61400732D01*
X68060519Y-61371998D01*
X68057167Y-61352093D01*
X68052588Y-61338268D01*
X68046589Y-61327772D01*
X68042136Y-61321811D01*
X68030850Y-61307691D01*
X68020301Y-61297029D01*
X68008893Y-61290892D01*
X67995030Y-61290343D01*
X67977114Y-61296448D01*
G36*
X68008893Y-61290892D02*
G01*
X68020301Y-61297029D01*
X68030850Y-61307691D01*
X68042136Y-61321811D01*
X68046589Y-61327772D01*
X68052588Y-61338268D01*
X68057167Y-61352093D01*
X68060519Y-61371998D01*
X68062833Y-61400732D01*
X68064301Y-61441045D01*
X68065113Y-61495687D01*
X68065460Y-61567407D01*
X68065534Y-61658956D01*
X68065511Y-61717486D01*
X68065292Y-61796573D01*
X68064683Y-61857516D01*
X68063492Y-61903062D01*
X68061529Y-61935963D01*
X68058603Y-61958968D01*
X68054523Y-61974826D01*
X68049097Y-61986286D01*
X68042136Y-61996100D01*
X68011708Y-62020493D01*
X67976765Y-62023372D01*
X67939784Y-62004282D01*
X67935600Y-62000807D01*
X67927424Y-61992279D01*
X67921364Y-61980728D01*
X67916981Y-61962896D01*
X67913839Y-61935524D01*
X67911502Y-61895354D01*
X67909531Y-61839128D01*
X67907489Y-61763589D01*
X67901845Y-61544458D01*
X67636556Y-61785099D01*
X67562722Y-61851875D01*
X67497542Y-61909991D01*
X67445348Y-61954949D01*
X67404273Y-61987871D01*
X67372455Y-62009879D01*
X67348026Y-62022094D01*
X67329124Y-62025639D01*
X67313883Y-62021636D01*
X67300439Y-62011207D01*
X67286927Y-61995474D01*
X67280682Y-61986991D01*
X67275050Y-61976413D01*
X67270839Y-61962255D01*
X67267887Y-61941803D01*
X67266032Y-61912342D01*
X67265113Y-61871161D01*
X67264968Y-61815544D01*
X67265435Y-61742779D01*
X67266352Y-61650151D01*
X67269667Y-61335199D01*
X67296318Y-61313633D01*
X67322383Y-61297441D01*
X67355241Y-61294670D01*
X67389772Y-61313623D01*
X67394084Y-61317208D01*
X67402216Y-61325737D01*
X67408245Y-61337329D01*
X67412606Y-61355235D01*
X67415734Y-61382706D01*
X67418063Y-61422994D01*
X67420029Y-61479351D01*
X67422067Y-61555029D01*
X67427711Y-61774878D01*
X67608334Y-61611084D01*
X67695072Y-61532451D01*
X67770843Y-61464058D01*
X67832980Y-61408708D01*
X67883078Y-61365338D01*
X67922735Y-61332881D01*
X67953548Y-61310273D01*
X67977114Y-61296448D01*
X67995030Y-61290343D01*
X68008893Y-61290892D01*
G37*
X68627081Y-61297599D02*
X68558565Y-61309095D01*
X68505943Y-61326967D01*
X68471708Y-61350499D01*
X68462379Y-61363924D01*
X68452893Y-61395148D01*
X68459277Y-61423395D01*
X68479430Y-61450182D01*
X68510745Y-61462713D01*
X68556183Y-61461696D01*
X68591326Y-61454906D01*
X68669419Y-61441971D01*
X68749226Y-61440742D01*
X68838555Y-61451241D01*
X68863229Y-61455690D01*
X68946291Y-61479108D01*
X69011273Y-61513945D01*
X69057461Y-61559604D01*
X69084145Y-61615494D01*
X69089663Y-61644388D01*
X69086051Y-61703012D01*
X69062729Y-61754879D01*
X69021824Y-61798978D01*
X68965459Y-61834299D01*
X68895760Y-61859829D01*
X68814852Y-61874559D01*
X68724860Y-61877478D01*
X68627910Y-61867575D01*
X68622436Y-61866641D01*
X68583875Y-61859459D01*
X68562494Y-61852521D01*
X68553227Y-61842227D01*
X68551006Y-61824976D01*
X68550956Y-61815841D01*
X68550956Y-61777489D01*
X68619431Y-61777489D01*
X68679900Y-61773347D01*
X68721165Y-61760147D01*
X68745175Y-61736730D01*
X68753877Y-61701936D01*
X68753983Y-61697394D01*
X68748892Y-61667654D01*
X68731433Y-61646419D01*
X68698939Y-61632366D01*
X68648743Y-61624173D01*
X68600123Y-61621161D01*
X68529456Y-61619433D01*
X68478198Y-61622070D01*
X68443239Y-61631800D01*
X68421470Y-61651353D01*
X68409780Y-61683456D01*
X68405060Y-61730838D01*
X68404200Y-61793071D01*
X68405609Y-61862535D01*
X68409848Y-61909786D01*
X68416936Y-61935012D01*
X68418311Y-61936988D01*
X68457228Y-61968508D01*
X68514286Y-61993470D01*
X68585869Y-62011340D01*
X68668358Y-62021586D01*
X68758139Y-62023673D01*
X68851592Y-62017068D01*
X68906556Y-62008956D01*
X68992766Y-61984554D01*
X69072892Y-61944662D01*
X69139977Y-61892887D01*
X69150173Y-61882539D01*
X69183302Y-61839035D01*
X69213194Y-61785118D01*
X69236357Y-61728592D01*
X69249298Y-61677259D01*
X69250858Y-61657544D01*
X69244218Y-61616419D01*
X69226568Y-61565252D01*
X69201297Y-61511394D01*
X69171789Y-61462195D01*
X69145719Y-61429334D01*
X69084765Y-61380452D01*
X69005969Y-61341545D01*
X68912157Y-61313494D01*
X68806150Y-61297179D01*
X68709000Y-61293192D01*
X68627081Y-61297599D01*
G36*
X68806150Y-61297179D02*
G01*
X68912157Y-61313494D01*
X69005969Y-61341545D01*
X69084765Y-61380452D01*
X69145719Y-61429334D01*
X69171789Y-61462195D01*
X69201297Y-61511394D01*
X69226568Y-61565252D01*
X69244218Y-61616419D01*
X69250858Y-61657544D01*
X69249298Y-61677259D01*
X69236357Y-61728592D01*
X69213194Y-61785118D01*
X69183302Y-61839035D01*
X69150173Y-61882539D01*
X69139977Y-61892887D01*
X69072892Y-61944662D01*
X68992766Y-61984554D01*
X68906556Y-62008956D01*
X68851592Y-62017068D01*
X68758139Y-62023673D01*
X68668358Y-62021586D01*
X68585869Y-62011340D01*
X68514286Y-61993470D01*
X68457228Y-61968508D01*
X68418311Y-61936988D01*
X68416936Y-61935012D01*
X68409848Y-61909786D01*
X68405609Y-61862535D01*
X68404200Y-61793071D01*
X68405060Y-61730838D01*
X68409780Y-61683456D01*
X68421470Y-61651353D01*
X68443239Y-61631800D01*
X68478198Y-61622070D01*
X68529456Y-61619433D01*
X68600123Y-61621161D01*
X68648743Y-61624173D01*
X68698939Y-61632366D01*
X68731433Y-61646419D01*
X68748892Y-61667654D01*
X68753983Y-61697394D01*
X68753877Y-61701936D01*
X68745175Y-61736730D01*
X68721165Y-61760147D01*
X68679900Y-61773347D01*
X68619431Y-61777489D01*
X68550956Y-61777489D01*
X68550956Y-61815841D01*
X68551006Y-61824976D01*
X68553227Y-61842227D01*
X68562494Y-61852521D01*
X68583875Y-61859459D01*
X68622436Y-61866641D01*
X68627910Y-61867575D01*
X68724860Y-61877478D01*
X68814852Y-61874559D01*
X68895760Y-61859829D01*
X68965459Y-61834299D01*
X69021824Y-61798978D01*
X69062729Y-61754879D01*
X69086051Y-61703012D01*
X69089663Y-61644388D01*
X69084145Y-61615494D01*
X69057461Y-61559604D01*
X69011273Y-61513945D01*
X68946291Y-61479108D01*
X68863229Y-61455690D01*
X68838555Y-61451241D01*
X68749226Y-61440742D01*
X68669419Y-61441971D01*
X68591326Y-61454906D01*
X68556183Y-61461696D01*
X68510745Y-61462713D01*
X68479430Y-61450182D01*
X68459277Y-61423395D01*
X68452893Y-61395148D01*
X68462379Y-61363924D01*
X68471708Y-61350499D01*
X68505943Y-61326967D01*
X68558565Y-61309095D01*
X68627081Y-61297599D01*
X68709000Y-61293192D01*
X68806150Y-61297179D01*
G37*
X66446657Y-61292260D02*
X66370299Y-61293174D01*
X66311783Y-61295311D01*
X66268745Y-61299175D01*
X66238817Y-61305267D01*
X66219632Y-61314090D01*
X66208824Y-61326146D01*
X66204027Y-61341939D01*
X66202873Y-61361970D01*
X66202867Y-61364335D01*
X66203869Y-61386992D01*
X66208604Y-61404503D01*
X66219667Y-61417574D01*
X66239652Y-61426913D01*
X66271154Y-61433227D01*
X66316768Y-61437222D01*
X66379087Y-61439606D01*
X66460707Y-61441086D01*
X66485723Y-61441414D01*
X66727800Y-61444467D01*
X66731186Y-61509378D01*
X66734571Y-61574289D01*
X66566424Y-61574289D01*
X66500734Y-61574531D01*
X66453828Y-61575556D01*
X66421917Y-61577811D01*
X66401209Y-61581742D01*
X66387916Y-61587798D01*
X66378245Y-61596424D01*
X66378183Y-61596493D01*
X66360644Y-61630112D01*
X66361278Y-61666448D01*
X66379686Y-61697423D01*
X66383329Y-61700607D01*
X66396259Y-61708812D01*
X66413976Y-61714521D01*
X66440430Y-61718162D01*
X66479568Y-61720167D01*
X66535338Y-61720964D01*
X66571006Y-61721045D01*
X66733445Y-61721045D01*
X66733445Y-61879089D01*
X66486839Y-61879089D01*
X66405420Y-61879231D01*
X66343590Y-61879814D01*
X66298363Y-61881068D01*
X66266752Y-61883227D01*
X66245769Y-61886523D01*
X66232427Y-61891189D01*
X66223739Y-61897457D01*
X66221550Y-61899733D01*
X66205386Y-61931280D01*
X66204203Y-61967168D01*
X66217464Y-61998285D01*
X66227957Y-62008271D01*
X66238871Y-62013769D01*
X66255783Y-62018022D01*
X66281367Y-62021180D01*
X66318299Y-62023392D01*
X66369254Y-62024806D01*
X66436906Y-62025572D01*
X66523931Y-62025838D01*
X66543606Y-62025845D01*
X66632089Y-62025787D01*
X66700773Y-62025467D01*
X66752436Y-62024667D01*
X66789855Y-62023167D01*
X66815810Y-62020749D01*
X66833078Y-62017194D01*
X66844438Y-62012282D01*
X66852668Y-62005795D01*
X66857183Y-62001138D01*
X66863979Y-61992889D01*
X66869288Y-61982669D01*
X66873294Y-61967800D01*
X66876179Y-61945602D01*
X66878126Y-61913393D01*
X66879319Y-61868496D01*
X66879939Y-61808228D01*
X66880171Y-61729911D01*
X66880200Y-61663994D01*
X66880129Y-61571628D01*
X66879792Y-61499117D01*
X66879002Y-61443737D01*
X66877574Y-61402765D01*
X66875321Y-61373478D01*
X66872057Y-61353153D01*
X66867596Y-61339066D01*
X66861752Y-61328495D01*
X66856803Y-61321811D01*
X66833406Y-61292067D01*
X66543226Y-61292067D01*
X66446657Y-61292260D01*
G36*
X66856803Y-61321811D02*
G01*
X66861752Y-61328495D01*
X66867596Y-61339066D01*
X66872057Y-61353153D01*
X66875321Y-61373478D01*
X66877574Y-61402765D01*
X66879002Y-61443737D01*
X66879792Y-61499117D01*
X66880129Y-61571628D01*
X66880200Y-61663994D01*
X66880171Y-61729911D01*
X66879939Y-61808228D01*
X66879319Y-61868496D01*
X66878126Y-61913393D01*
X66876179Y-61945602D01*
X66873294Y-61967800D01*
X66869288Y-61982669D01*
X66863979Y-61992889D01*
X66857183Y-62001138D01*
X66852668Y-62005795D01*
X66844438Y-62012282D01*
X66833078Y-62017194D01*
X66815810Y-62020749D01*
X66789855Y-62023167D01*
X66752436Y-62024667D01*
X66700773Y-62025467D01*
X66632089Y-62025787D01*
X66543606Y-62025845D01*
X66523931Y-62025838D01*
X66436906Y-62025572D01*
X66369254Y-62024806D01*
X66318299Y-62023392D01*
X66281367Y-62021180D01*
X66255783Y-62018022D01*
X66238871Y-62013769D01*
X66227957Y-62008271D01*
X66217464Y-61998285D01*
X66204203Y-61967168D01*
X66205386Y-61931280D01*
X66221550Y-61899733D01*
X66223739Y-61897457D01*
X66232427Y-61891189D01*
X66245769Y-61886523D01*
X66266752Y-61883227D01*
X66298363Y-61881068D01*
X66343590Y-61879814D01*
X66405420Y-61879231D01*
X66486839Y-61879089D01*
X66733445Y-61879089D01*
X66733445Y-61721045D01*
X66571006Y-61721045D01*
X66535338Y-61720964D01*
X66479568Y-61720167D01*
X66440430Y-61718162D01*
X66413976Y-61714521D01*
X66396259Y-61708812D01*
X66383329Y-61700607D01*
X66379686Y-61697423D01*
X66361278Y-61666448D01*
X66360644Y-61630112D01*
X66378183Y-61596493D01*
X66378245Y-61596424D01*
X66387916Y-61587798D01*
X66401209Y-61581742D01*
X66421917Y-61577811D01*
X66453828Y-61575556D01*
X66500734Y-61574531D01*
X66566424Y-61574289D01*
X66734571Y-61574289D01*
X66731186Y-61509378D01*
X66727800Y-61444467D01*
X66485723Y-61441414D01*
X66460707Y-61441086D01*
X66379087Y-61439606D01*
X66316768Y-61437222D01*
X66271154Y-61433227D01*
X66239652Y-61426913D01*
X66219667Y-61417574D01*
X66208604Y-61404503D01*
X66203869Y-61386992D01*
X66202867Y-61364335D01*
X66202873Y-61361970D01*
X66204027Y-61341939D01*
X66208824Y-61326146D01*
X66219632Y-61314090D01*
X66238817Y-61305267D01*
X66268745Y-61299175D01*
X66311783Y-61295311D01*
X66370299Y-61293174D01*
X66446657Y-61292260D01*
X66543226Y-61292067D01*
X66833406Y-61292067D01*
X66856803Y-61321811D01*
G37*
X71389794Y-61292146D02*
X71320386Y-61292518D01*
X71267997Y-61293385D01*
X71229847Y-61294946D01*
X71203159Y-61297403D01*
X71185153Y-61300957D01*
X71173049Y-61305810D01*
X71164069Y-61312161D01*
X71160818Y-61315084D01*
X71141043Y-61346142D01*
X71137482Y-61381828D01*
X71150491Y-61413510D01*
X71156506Y-61419913D01*
X71166235Y-61426121D01*
X71181901Y-61430910D01*
X71206408Y-61434514D01*
X71242661Y-61437164D01*
X71293565Y-61439095D01*
X71362026Y-61440539D01*
X71424617Y-61441418D01*
X71672334Y-61444467D01*
X71675719Y-61509378D01*
X71679105Y-61574289D01*
X71510958Y-61574289D01*
X71437959Y-61574919D01*
X71384517Y-61577553D01*
X71347628Y-61583309D01*
X71324288Y-61593304D01*
X71311494Y-61608656D01*
X71306242Y-61630482D01*
X71305445Y-61650738D01*
X71307923Y-61675592D01*
X71317277Y-61693906D01*
X71336383Y-61706637D01*
X71368118Y-61714741D01*
X71415359Y-61719176D01*
X71480983Y-61720899D01*
X71516801Y-61721045D01*
X71677978Y-61721045D01*
X71677978Y-61879089D01*
X71429622Y-61879089D01*
X71348213Y-61879202D01*
X71286342Y-61879712D01*
X71240968Y-61880870D01*
X71209054Y-61882930D01*
X71187559Y-61886146D01*
X71173443Y-61890772D01*
X71163668Y-61897059D01*
X71158689Y-61901667D01*
X71141610Y-61928560D01*
X71136111Y-61952467D01*
X71143963Y-61981667D01*
X71158689Y-62003267D01*
X71166546Y-62010066D01*
X71176688Y-62015346D01*
X71191844Y-62019298D01*
X71214741Y-62022113D01*
X71248109Y-62023982D01*
X71294675Y-62025098D01*
X71357167Y-62025651D01*
X71438314Y-62025833D01*
X71480422Y-62025845D01*
X71570598Y-62025765D01*
X71640924Y-62025398D01*
X71694129Y-62024552D01*
X71732940Y-62023036D01*
X71760087Y-62020659D01*
X71778298Y-62017229D01*
X71790300Y-62012554D01*
X71798822Y-62006444D01*
X71802156Y-62003267D01*
X71808755Y-61995670D01*
X71813927Y-61985870D01*
X71817846Y-61971239D01*
X71820684Y-61949152D01*
X71822615Y-61916982D01*
X71823812Y-61872103D01*
X71824448Y-61811889D01*
X71824697Y-61733713D01*
X71824734Y-61660923D01*
X71824700Y-61567707D01*
X71824465Y-61494431D01*
X71823830Y-61438458D01*
X71822594Y-61397151D01*
X71820556Y-61367872D01*
X71817517Y-61347984D01*
X71813277Y-61334850D01*
X71807635Y-61325832D01*
X71800391Y-61318293D01*
X71798606Y-61316612D01*
X71789945Y-61309172D01*
X71779882Y-61303409D01*
X71765625Y-61299112D01*
X71744383Y-61296064D01*
X71713364Y-61294051D01*
X71669777Y-61292860D01*
X71610831Y-61292275D01*
X71533734Y-61292083D01*
X71479001Y-61292067D01*
X71389794Y-61292146D01*
G36*
X71533734Y-61292083D02*
G01*
X71610831Y-61292275D01*
X71669777Y-61292860D01*
X71713364Y-61294051D01*
X71744383Y-61296064D01*
X71765625Y-61299112D01*
X71779882Y-61303409D01*
X71789945Y-61309172D01*
X71798606Y-61316612D01*
X71800391Y-61318293D01*
X71807635Y-61325832D01*
X71813277Y-61334850D01*
X71817517Y-61347984D01*
X71820556Y-61367872D01*
X71822594Y-61397151D01*
X71823830Y-61438458D01*
X71824465Y-61494431D01*
X71824700Y-61567707D01*
X71824734Y-61660923D01*
X71824697Y-61733713D01*
X71824448Y-61811889D01*
X71823812Y-61872103D01*
X71822615Y-61916982D01*
X71820684Y-61949152D01*
X71817846Y-61971239D01*
X71813927Y-61985870D01*
X71808755Y-61995670D01*
X71802156Y-62003267D01*
X71798822Y-62006444D01*
X71790300Y-62012554D01*
X71778298Y-62017229D01*
X71760087Y-62020659D01*
X71732940Y-62023036D01*
X71694129Y-62024552D01*
X71640924Y-62025398D01*
X71570598Y-62025765D01*
X71480422Y-62025845D01*
X71438314Y-62025833D01*
X71357167Y-62025651D01*
X71294675Y-62025098D01*
X71248109Y-62023982D01*
X71214741Y-62022113D01*
X71191844Y-62019298D01*
X71176688Y-62015346D01*
X71166546Y-62010066D01*
X71158689Y-62003267D01*
X71143963Y-61981667D01*
X71136111Y-61952467D01*
X71141610Y-61928560D01*
X71158689Y-61901667D01*
X71163668Y-61897059D01*
X71173443Y-61890772D01*
X71187559Y-61886146D01*
X71209054Y-61882930D01*
X71240968Y-61880870D01*
X71286342Y-61879712D01*
X71348213Y-61879202D01*
X71429622Y-61879089D01*
X71677978Y-61879089D01*
X71677978Y-61721045D01*
X71516801Y-61721045D01*
X71480983Y-61720899D01*
X71415359Y-61719176D01*
X71368118Y-61714741D01*
X71336383Y-61706637D01*
X71317277Y-61693906D01*
X71307923Y-61675592D01*
X71305445Y-61650738D01*
X71306242Y-61630482D01*
X71311494Y-61608656D01*
X71324288Y-61593304D01*
X71347628Y-61583309D01*
X71384517Y-61577553D01*
X71437959Y-61574919D01*
X71510958Y-61574289D01*
X71679105Y-61574289D01*
X71675719Y-61509378D01*
X71672334Y-61444467D01*
X71424617Y-61441418D01*
X71362026Y-61440539D01*
X71293565Y-61439095D01*
X71242661Y-61437164D01*
X71206408Y-61434514D01*
X71181901Y-61430910D01*
X71166235Y-61426121D01*
X71156506Y-61419913D01*
X71150491Y-61413510D01*
X71137482Y-61381828D01*
X71141043Y-61346142D01*
X71160818Y-61315084D01*
X71164069Y-61312161D01*
X71173049Y-61305810D01*
X71185153Y-61300957D01*
X71203159Y-61297403D01*
X71229847Y-61294946D01*
X71267997Y-61293385D01*
X71320386Y-61292518D01*
X71389794Y-61292146D01*
X71479001Y-61292067D01*
X71533734Y-61292083D01*
G37*
X62932335Y-61294034D02*
X62912745Y-61301035D01*
X62911990Y-61301377D01*
X62885387Y-61321678D01*
X62870730Y-61342561D01*
X62867862Y-61352352D01*
X62868004Y-61365361D01*
X62872039Y-61383895D01*
X62880854Y-61410257D01*
X62895331Y-61446752D01*
X62916355Y-61495687D01*
X62944812Y-61559365D01*
X62981585Y-61640093D01*
X63001825Y-61684216D01*
X63038375Y-61762985D01*
X63072685Y-61835423D01*
X63103448Y-61898880D01*
X63129352Y-61950708D01*
X63149090Y-61988259D01*
X63161350Y-62008884D01*
X63163776Y-62011733D01*
X63194817Y-62024302D01*
X63229879Y-62022619D01*
X63258000Y-62007332D01*
X63259146Y-62006089D01*
X63270332Y-61989154D01*
X63289096Y-61956170D01*
X63313125Y-61911380D01*
X63340103Y-61859032D01*
X63349799Y-61839742D01*
X63422986Y-61693150D01*
X63502760Y-61852393D01*
X63531233Y-61907415D01*
X63557650Y-61955132D01*
X63579852Y-61991893D01*
X63595681Y-62014044D01*
X63601046Y-62018741D01*
X63642743Y-62025102D01*
X63677151Y-62011733D01*
X63687272Y-61997446D01*
X63704786Y-61965692D01*
X63728265Y-61919597D01*
X63756280Y-61862285D01*
X63787401Y-61796880D01*
X63820201Y-61726507D01*
X63853250Y-61654291D01*
X63885119Y-61583355D01*
X63914381Y-61516825D01*
X63939605Y-61457826D01*
X63959364Y-61409481D01*
X63972228Y-61374915D01*
X63976769Y-61357253D01*
X63976723Y-61356613D01*
X63965674Y-61334388D01*
X63943590Y-61311753D01*
X63942290Y-61310768D01*
X63915147Y-61295425D01*
X63890042Y-61295574D01*
X63880632Y-61298466D01*
X63869166Y-61304718D01*
X63856990Y-61317014D01*
X63842643Y-61337908D01*
X63824664Y-61369949D01*
X63801593Y-61415688D01*
X63771970Y-61477677D01*
X63745255Y-61534898D01*
X63714520Y-61601226D01*
X63686979Y-61660874D01*
X63664062Y-61710725D01*
X63647202Y-61747664D01*
X63637827Y-61768573D01*
X63636460Y-61771845D01*
X63630311Y-61766497D01*
X63616178Y-61744109D01*
X63595943Y-61707946D01*
X63571485Y-61661277D01*
X63561752Y-61642022D01*
X63528783Y-61577004D01*
X63503357Y-61529654D01*
X63483388Y-61497219D01*
X63466790Y-61476946D01*
X63451476Y-61466082D01*
X63435360Y-61461875D01*
X63424857Y-61461400D01*
X63406330Y-61463042D01*
X63390096Y-61469831D01*
X63373965Y-61484566D01*
X63355749Y-61510044D01*
X63333261Y-61549061D01*
X63304311Y-61604414D01*
X63288338Y-61635903D01*
X63262430Y-61686087D01*
X63239833Y-61727704D01*
X63222542Y-61757242D01*
X63212550Y-61771189D01*
X63211191Y-61771770D01*
X63204739Y-61760793D01*
X63190292Y-61732290D01*
X63169297Y-61689244D01*
X63143203Y-61634638D01*
X63113454Y-61571454D01*
X63098820Y-61540071D01*
X63060750Y-61459078D01*
X63030095Y-61396756D01*
X63005263Y-61351071D01*
X62984663Y-61319989D01*
X62966702Y-61301478D01*
X62949790Y-61293504D01*
X62932335Y-61294034D01*
G36*
X62966702Y-61301478D02*
G01*
X62984663Y-61319989D01*
X63005263Y-61351071D01*
X63030095Y-61396756D01*
X63060750Y-61459078D01*
X63098820Y-61540071D01*
X63113454Y-61571454D01*
X63143203Y-61634638D01*
X63169297Y-61689244D01*
X63190292Y-61732290D01*
X63204739Y-61760793D01*
X63211191Y-61771770D01*
X63212550Y-61771189D01*
X63222542Y-61757242D01*
X63239833Y-61727704D01*
X63262430Y-61686087D01*
X63288338Y-61635903D01*
X63304311Y-61604414D01*
X63333261Y-61549061D01*
X63355749Y-61510044D01*
X63373965Y-61484566D01*
X63390096Y-61469831D01*
X63406330Y-61463042D01*
X63424857Y-61461400D01*
X63435360Y-61461875D01*
X63451476Y-61466082D01*
X63466790Y-61476946D01*
X63483388Y-61497219D01*
X63503357Y-61529654D01*
X63528783Y-61577004D01*
X63561752Y-61642022D01*
X63571485Y-61661277D01*
X63595943Y-61707946D01*
X63616178Y-61744109D01*
X63630311Y-61766497D01*
X63636460Y-61771845D01*
X63637827Y-61768573D01*
X63647202Y-61747664D01*
X63664062Y-61710725D01*
X63686979Y-61660874D01*
X63714520Y-61601226D01*
X63745255Y-61534898D01*
X63771970Y-61477677D01*
X63801593Y-61415688D01*
X63824664Y-61369949D01*
X63842643Y-61337908D01*
X63856990Y-61317014D01*
X63869166Y-61304718D01*
X63880632Y-61298466D01*
X63890042Y-61295574D01*
X63915147Y-61295425D01*
X63942290Y-61310768D01*
X63943590Y-61311753D01*
X63965674Y-61334388D01*
X63976723Y-61356613D01*
X63976769Y-61357253D01*
X63972228Y-61374915D01*
X63959364Y-61409481D01*
X63939605Y-61457826D01*
X63914381Y-61516825D01*
X63885119Y-61583355D01*
X63853250Y-61654291D01*
X63820201Y-61726507D01*
X63787401Y-61796880D01*
X63756280Y-61862285D01*
X63728265Y-61919597D01*
X63704786Y-61965692D01*
X63687272Y-61997446D01*
X63677151Y-62011733D01*
X63642743Y-62025102D01*
X63601046Y-62018741D01*
X63595681Y-62014044D01*
X63579852Y-61991893D01*
X63557650Y-61955132D01*
X63531233Y-61907415D01*
X63502760Y-61852393D01*
X63422986Y-61693150D01*
X63349799Y-61839742D01*
X63340103Y-61859032D01*
X63313125Y-61911380D01*
X63289096Y-61956170D01*
X63270332Y-61989154D01*
X63259146Y-62006089D01*
X63258000Y-62007332D01*
X63229879Y-62022619D01*
X63194817Y-62024302D01*
X63163776Y-62011733D01*
X63161350Y-62008884D01*
X63149090Y-61988259D01*
X63129352Y-61950708D01*
X63103448Y-61898880D01*
X63072685Y-61835423D01*
X63038375Y-61762985D01*
X63001825Y-61684216D01*
X62981585Y-61640093D01*
X62944812Y-61559365D01*
X62916355Y-61495687D01*
X62895331Y-61446752D01*
X62880854Y-61410257D01*
X62872039Y-61383895D01*
X62868004Y-61365361D01*
X62867862Y-61352352D01*
X62870730Y-61342561D01*
X62885387Y-61321678D01*
X62911990Y-61301377D01*
X62912745Y-61301035D01*
X62932335Y-61294034D01*
X62949790Y-61293504D01*
X62966702Y-61301478D01*
G37*
X70368703Y-61293351D02*
X70293888Y-61298581D01*
X70224306Y-61306750D01*
X70164002Y-61317550D01*
X70117020Y-61330673D01*
X70087406Y-61345813D01*
X70082860Y-61350269D01*
X70067054Y-61384850D01*
X70071847Y-61420351D01*
X70096364Y-61450725D01*
X70097534Y-61451596D01*
X70111954Y-61460954D01*
X70127008Y-61465876D01*
X70148005Y-61466473D01*
X70180257Y-61462861D01*
X70229073Y-61455154D01*
X70233000Y-61454505D01*
X70305739Y-61445569D01*
X70384217Y-61441161D01*
X70462927Y-61441119D01*
X70536361Y-61445279D01*
X70599011Y-61453479D01*
X70645370Y-61465557D01*
X70648416Y-61466771D01*
X70682048Y-61485615D01*
X70693864Y-61504685D01*
X70684614Y-61523439D01*
X70655047Y-61541337D01*
X70605911Y-61557837D01*
X70537957Y-61572396D01*
X70492645Y-61579406D01*
X70398456Y-61592889D01*
X70323544Y-61605214D01*
X70264717Y-61617449D01*
X70218785Y-61630661D01*
X70182555Y-61645917D01*
X70152838Y-61664285D01*
X70126442Y-61686831D01*
X70105230Y-61708971D01*
X70080065Y-61739819D01*
X70067681Y-61766345D01*
X70063808Y-61799026D01*
X70063667Y-61810995D01*
X70066576Y-61850712D01*
X70078202Y-61880259D01*
X70098323Y-61906486D01*
X70139216Y-61946576D01*
X70184817Y-61977149D01*
X70238513Y-61999203D01*
X70303692Y-62013735D01*
X70383744Y-62021741D01*
X70482057Y-62024218D01*
X70498289Y-62024177D01*
X70563849Y-62022818D01*
X70628866Y-62019730D01*
X70686252Y-62015356D01*
X70728922Y-62010140D01*
X70732372Y-62009541D01*
X70774796Y-61999491D01*
X70810780Y-61986796D01*
X70831150Y-61975190D01*
X70850107Y-61944572D01*
X70851427Y-61908918D01*
X70835085Y-61877144D01*
X70831429Y-61873551D01*
X70816315Y-61862876D01*
X70797415Y-61858276D01*
X70768162Y-61859059D01*
X70732651Y-61863127D01*
X70692970Y-61866762D01*
X70637345Y-61869828D01*
X70572406Y-61872053D01*
X70504785Y-61873164D01*
X70487000Y-61873237D01*
X70419128Y-61872964D01*
X70369454Y-61871646D01*
X70333610Y-61868827D01*
X70307224Y-61864050D01*
X70285926Y-61856857D01*
X70273126Y-61850867D01*
X70245000Y-61834233D01*
X70227068Y-61819168D01*
X70224447Y-61814897D01*
X70229976Y-61797263D01*
X70256260Y-61780192D01*
X70301478Y-61764458D01*
X70363808Y-61750838D01*
X70382171Y-61747804D01*
X70478090Y-61732738D01*
X70554641Y-61720146D01*
X70614780Y-61709111D01*
X70661460Y-61698720D01*
X70697637Y-61688056D01*
X70726265Y-61676205D01*
X70750298Y-61662251D01*
X70772692Y-61645281D01*
X70796402Y-61624378D01*
X70804380Y-61617049D01*
X70832353Y-61589699D01*
X70847160Y-61568029D01*
X70852952Y-61543232D01*
X70853889Y-61511983D01*
X70843575Y-61450705D01*
X70812752Y-61398640D01*
X70761595Y-61355958D01*
X70690283Y-61322825D01*
X70639400Y-61307964D01*
X70584100Y-61298366D01*
X70517853Y-61292936D01*
X70444706Y-61291367D01*
X70368703Y-61293351D01*
G36*
X70517853Y-61292936D02*
G01*
X70584100Y-61298366D01*
X70639400Y-61307964D01*
X70690283Y-61322825D01*
X70761595Y-61355958D01*
X70812752Y-61398640D01*
X70843575Y-61450705D01*
X70853889Y-61511983D01*
X70852952Y-61543232D01*
X70847160Y-61568029D01*
X70832353Y-61589699D01*
X70804380Y-61617049D01*
X70796402Y-61624378D01*
X70772692Y-61645281D01*
X70750298Y-61662251D01*
X70726265Y-61676205D01*
X70697637Y-61688056D01*
X70661460Y-61698720D01*
X70614780Y-61709111D01*
X70554641Y-61720146D01*
X70478090Y-61732738D01*
X70382171Y-61747804D01*
X70363808Y-61750838D01*
X70301478Y-61764458D01*
X70256260Y-61780192D01*
X70229976Y-61797263D01*
X70224447Y-61814897D01*
X70227068Y-61819168D01*
X70245000Y-61834233D01*
X70273126Y-61850867D01*
X70285926Y-61856857D01*
X70307224Y-61864050D01*
X70333610Y-61868827D01*
X70369454Y-61871646D01*
X70419128Y-61872964D01*
X70487000Y-61873237D01*
X70504785Y-61873164D01*
X70572406Y-61872053D01*
X70637345Y-61869828D01*
X70692970Y-61866762D01*
X70732651Y-61863127D01*
X70768162Y-61859059D01*
X70797415Y-61858276D01*
X70816315Y-61862876D01*
X70831429Y-61873551D01*
X70835085Y-61877144D01*
X70851427Y-61908918D01*
X70850107Y-61944572D01*
X70831150Y-61975190D01*
X70810780Y-61986796D01*
X70774796Y-61999491D01*
X70732372Y-62009541D01*
X70728922Y-62010140D01*
X70686252Y-62015356D01*
X70628866Y-62019730D01*
X70563849Y-62022818D01*
X70498289Y-62024177D01*
X70482057Y-62024218D01*
X70383744Y-62021741D01*
X70303692Y-62013735D01*
X70238513Y-61999203D01*
X70184817Y-61977149D01*
X70139216Y-61946576D01*
X70098323Y-61906486D01*
X70078202Y-61880259D01*
X70066576Y-61850712D01*
X70063667Y-61810995D01*
X70063808Y-61799026D01*
X70067681Y-61766345D01*
X70080065Y-61739819D01*
X70105230Y-61708971D01*
X70126442Y-61686831D01*
X70152838Y-61664285D01*
X70182555Y-61645917D01*
X70218785Y-61630661D01*
X70264717Y-61617449D01*
X70323544Y-61605214D01*
X70398456Y-61592889D01*
X70492645Y-61579406D01*
X70537957Y-61572396D01*
X70605911Y-61557837D01*
X70655047Y-61541337D01*
X70684614Y-61523439D01*
X70693864Y-61504685D01*
X70682048Y-61485615D01*
X70648416Y-61466771D01*
X70645370Y-61465557D01*
X70599011Y-61453479D01*
X70536361Y-61445279D01*
X70462927Y-61441119D01*
X70384217Y-61441161D01*
X70305739Y-61445569D01*
X70233000Y-61454505D01*
X70229073Y-61455154D01*
X70180257Y-61462861D01*
X70148005Y-61466473D01*
X70127008Y-61465876D01*
X70111954Y-61460954D01*
X70097534Y-61451596D01*
X70096364Y-61450725D01*
X70071847Y-61420351D01*
X70067054Y-61384850D01*
X70082860Y-61350269D01*
X70087406Y-61345813D01*
X70117020Y-61330673D01*
X70164002Y-61317550D01*
X70224306Y-61306750D01*
X70293888Y-61298581D01*
X70368703Y-61293351D01*
X70444706Y-61291367D01*
X70517853Y-61292936D01*
G37*
X66348571Y-56972071D02*
X66188430Y-56993245D01*
X66024490Y-57033385D01*
X65854687Y-57092889D01*
X65676957Y-57172154D01*
X65665690Y-57177699D01*
X65607995Y-57205725D01*
X65556448Y-57229802D01*
X65514809Y-57248249D01*
X65486838Y-57259386D01*
X65477267Y-57261933D01*
X65458050Y-57266941D01*
X65453439Y-57271147D01*
X65458542Y-57281580D01*
X65474582Y-57307868D01*
X65499712Y-57347257D01*
X65532086Y-57396991D01*
X65569857Y-57454315D01*
X65611178Y-57516476D01*
X65654202Y-57580718D01*
X65697083Y-57644285D01*
X65737974Y-57704425D01*
X65775029Y-57758380D01*
X65806400Y-57803397D01*
X65830241Y-57836721D01*
X65844706Y-57855597D01*
X65846691Y-57857787D01*
X65856809Y-57853138D01*
X65879150Y-57835962D01*
X65909720Y-57809440D01*
X65925464Y-57794964D01*
X66021953Y-57719682D01*
X66128664Y-57664241D01*
X66244168Y-57629141D01*
X66367038Y-57614880D01*
X66436439Y-57616051D01*
X66557577Y-57633212D01*
X66666795Y-57669094D01*
X66764418Y-57723959D01*
X66850772Y-57798070D01*
X66926185Y-57891688D01*
X66990982Y-58005076D01*
X67028399Y-58091667D01*
X67072252Y-58227366D01*
X67104572Y-58374850D01*
X67125443Y-58530314D01*
X67134949Y-58689956D01*
X67133173Y-58849973D01*
X67120197Y-59006561D01*
X67096106Y-59155918D01*
X67060982Y-59294240D01*
X67014908Y-59417724D01*
X66998627Y-59451978D01*
X66930380Y-59566064D01*
X66849921Y-59662557D01*
X66758430Y-59740670D01*
X66657089Y-59799617D01*
X66547080Y-59838612D01*
X66429585Y-59856868D01*
X66388117Y-59858211D01*
X66266559Y-59847290D01*
X66146122Y-59814474D01*
X66028334Y-59760439D01*
X65914723Y-59685865D01*
X65823315Y-59607539D01*
X65776785Y-59563008D01*
X65595517Y-59860271D01*
X65550420Y-59934433D01*
X65509181Y-60002646D01*
X65473265Y-60062459D01*
X65444134Y-60111420D01*
X65423250Y-60147079D01*
X65412076Y-60166984D01*
X65410625Y-60170079D01*
X65418854Y-60179718D01*
X65444433Y-60196999D01*
X65484127Y-60220283D01*
X65534703Y-60247934D01*
X65592926Y-60278315D01*
X65655563Y-60309790D01*
X65719379Y-60340722D01*
X65781140Y-60369473D01*
X65837612Y-60394408D01*
X65885562Y-60413889D01*
X65909014Y-60422318D01*
X66042779Y-60460133D01*
X66180673Y-60485136D01*
X66328378Y-60498140D01*
X66455167Y-60500468D01*
X66523122Y-60499373D01*
X66588723Y-60497275D01*
X66646153Y-60494434D01*
X66689597Y-60491106D01*
X66703702Y-60489422D01*
X66842716Y-60460587D01*
X66984243Y-60415468D01*
X67121725Y-60356750D01*
X67248606Y-60287120D01*
X67326111Y-60234441D01*
X67453519Y-60126239D01*
X67571822Y-59999671D01*
X67678828Y-59857866D01*
X67772348Y-59703951D01*
X67850190Y-59541053D01*
X67894044Y-59423756D01*
X67944292Y-59240128D01*
X67977791Y-59045581D01*
X67994551Y-58844325D01*
X67994584Y-58640568D01*
X67977899Y-58438521D01*
X67944507Y-58242392D01*
X67894420Y-58056391D01*
X67890603Y-58044803D01*
X67827719Y-57882750D01*
X67750972Y-57734832D01*
X67657758Y-57596865D01*
X67545473Y-57464661D01*
X67501608Y-57419399D01*
X67365466Y-57295457D01*
X67225509Y-57192915D01*
X67079589Y-57110656D01*
X66925558Y-57047564D01*
X66761268Y-57002523D01*
X66665711Y-56985033D01*
X66506977Y-56969466D01*
X66348571Y-56972071D01*
G36*
X66665711Y-56985033D02*
G01*
X66761268Y-57002523D01*
X66925558Y-57047564D01*
X67079589Y-57110656D01*
X67225509Y-57192915D01*
X67365466Y-57295457D01*
X67501608Y-57419399D01*
X67545473Y-57464661D01*
X67657758Y-57596865D01*
X67750972Y-57734832D01*
X67827719Y-57882750D01*
X67890603Y-58044803D01*
X67894420Y-58056391D01*
X67944507Y-58242392D01*
X67977899Y-58438521D01*
X67994584Y-58640568D01*
X67994551Y-58844325D01*
X67977791Y-59045581D01*
X67944292Y-59240128D01*
X67894044Y-59423756D01*
X67850190Y-59541053D01*
X67772348Y-59703951D01*
X67678828Y-59857866D01*
X67571822Y-59999671D01*
X67453519Y-60126239D01*
X67326111Y-60234441D01*
X67248606Y-60287120D01*
X67121725Y-60356750D01*
X66984243Y-60415468D01*
X66842716Y-60460587D01*
X66703702Y-60489422D01*
X66689597Y-60491106D01*
X66646153Y-60494434D01*
X66588723Y-60497275D01*
X66523122Y-60499373D01*
X66455167Y-60500468D01*
X66328378Y-60498140D01*
X66180673Y-60485136D01*
X66042779Y-60460133D01*
X65909014Y-60422318D01*
X65885562Y-60413889D01*
X65837612Y-60394408D01*
X65781140Y-60369473D01*
X65719379Y-60340722D01*
X65655563Y-60309790D01*
X65592926Y-60278315D01*
X65534703Y-60247934D01*
X65484127Y-60220283D01*
X65444433Y-60196999D01*
X65418854Y-60179718D01*
X65410625Y-60170079D01*
X65412076Y-60166984D01*
X65423250Y-60147079D01*
X65444134Y-60111420D01*
X65473265Y-60062459D01*
X65509181Y-60002646D01*
X65550420Y-59934433D01*
X65595517Y-59860271D01*
X65776785Y-59563008D01*
X65823315Y-59607539D01*
X65914723Y-59685865D01*
X66028334Y-59760439D01*
X66146122Y-59814474D01*
X66266559Y-59847290D01*
X66388117Y-59858211D01*
X66429585Y-59856868D01*
X66547080Y-59838612D01*
X66657089Y-59799617D01*
X66758430Y-59740670D01*
X66849921Y-59662557D01*
X66930380Y-59566064D01*
X66998627Y-59451978D01*
X67014908Y-59417724D01*
X67060982Y-59294240D01*
X67096106Y-59155918D01*
X67120197Y-59006561D01*
X67133173Y-58849973D01*
X67134949Y-58689956D01*
X67125443Y-58530314D01*
X67104572Y-58374850D01*
X67072252Y-58227366D01*
X67028399Y-58091667D01*
X66990982Y-58005076D01*
X66926185Y-57891688D01*
X66850772Y-57798070D01*
X66764418Y-57723959D01*
X66666795Y-57669094D01*
X66557577Y-57633212D01*
X66436439Y-57616051D01*
X66367038Y-57614880D01*
X66244168Y-57629141D01*
X66128664Y-57664241D01*
X66021953Y-57719682D01*
X65925464Y-57794964D01*
X65909720Y-57809440D01*
X65879150Y-57835962D01*
X65856809Y-57853138D01*
X65846691Y-57857787D01*
X65844706Y-57855597D01*
X65830241Y-57836721D01*
X65806400Y-57803397D01*
X65775029Y-57758380D01*
X65737974Y-57704425D01*
X65697083Y-57644285D01*
X65654202Y-57580718D01*
X65611178Y-57516476D01*
X65569857Y-57454315D01*
X65532086Y-57396991D01*
X65499712Y-57347257D01*
X65474582Y-57307868D01*
X65458542Y-57281580D01*
X65453439Y-57271147D01*
X65458050Y-57266941D01*
X65477267Y-57261933D01*
X65486838Y-57259386D01*
X65514809Y-57248249D01*
X65556448Y-57229802D01*
X65607995Y-57205725D01*
X65665690Y-57177699D01*
X65676957Y-57172154D01*
X65854687Y-57092889D01*
X66024490Y-57033385D01*
X66188430Y-56993245D01*
X66348571Y-56972071D01*
X66506977Y-56969466D01*
X66665711Y-56985033D01*
G37*
X60490493Y-58495245D02*
X60490474Y-58729662D01*
X60490448Y-58942603D01*
X60490375Y-59135168D01*
X60490218Y-59308459D01*
X60489936Y-59463576D01*
X60489491Y-59601620D01*
X60488844Y-59723692D01*
X60487955Y-59830894D01*
X60486787Y-59924326D01*
X60485299Y-60005090D01*
X60483454Y-60074286D01*
X60481211Y-60133015D01*
X60478531Y-60182379D01*
X60475377Y-60223478D01*
X60471708Y-60257413D01*
X60467487Y-60285286D01*
X60462673Y-60308198D01*
X60457227Y-60327249D01*
X60451112Y-60343540D01*
X60444288Y-60358173D01*
X60436715Y-60372249D01*
X60428355Y-60386868D01*
X60423161Y-60395974D01*
X60388896Y-60456689D01*
X61247045Y-60456689D01*
X61247045Y-60360733D01*
X61247776Y-60317370D01*
X61249728Y-60284205D01*
X61252537Y-60266424D01*
X61253779Y-60264778D01*
X61265201Y-60271662D01*
X61287916Y-60289505D01*
X61310615Y-60308879D01*
X61365200Y-60349614D01*
X61434679Y-60390617D01*
X61511730Y-60428123D01*
X61589035Y-60458364D01*
X61619887Y-60468012D01*
X61688384Y-60482578D01*
X61771236Y-60492539D01*
X61860629Y-60497583D01*
X61948752Y-60497396D01*
X62027793Y-60491666D01*
X62065489Y-60485858D01*
X62203586Y-60447797D01*
X62330887Y-60390073D01*
X62446708Y-60313211D01*
X62550363Y-60217739D01*
X62641167Y-60104179D01*
X62707969Y-59993381D01*
X62762836Y-59876625D01*
X62804837Y-59757276D01*
X62834833Y-59631283D01*
X62853689Y-59494594D01*
X62862268Y-59343158D01*
X62862994Y-59265711D01*
X62860900Y-59208934D01*
X62031783Y-59208934D01*
X62031576Y-59302002D01*
X62028663Y-59389692D01*
X62023000Y-59466772D01*
X62014545Y-59528009D01*
X62011962Y-59540350D01*
X61980160Y-59647633D01*
X61938502Y-59734658D01*
X61886637Y-59801642D01*
X61824219Y-59848805D01*
X61750900Y-59876365D01*
X61666331Y-59884541D01*
X61570165Y-59873551D01*
X61506689Y-59857829D01*
X61457546Y-59839639D01*
X61403417Y-59813791D01*
X61362756Y-59790089D01*
X61292200Y-59743721D01*
X61292200Y-58593530D01*
X61359608Y-58549962D01*
X61438133Y-58509040D01*
X61522319Y-58482389D01*
X61607443Y-58470465D01*
X61688784Y-58473722D01*
X61761620Y-58492615D01*
X61793574Y-58508184D01*
X61851499Y-58551181D01*
X61900456Y-58607953D01*
X61941610Y-58680575D01*
X61976126Y-58771121D01*
X62005167Y-58881666D01*
X62006448Y-58887533D01*
X62016619Y-58949788D01*
X62024261Y-59027594D01*
X62029330Y-59115720D01*
X62031783Y-59208934D01*
X62860900Y-59208934D01*
X62855143Y-59052895D01*
X62833198Y-58857059D01*
X62797214Y-58678332D01*
X62747241Y-58516845D01*
X62683332Y-58372726D01*
X62605538Y-58246106D01*
X62513911Y-58137115D01*
X62408503Y-58045883D01*
X62363338Y-58014932D01*
X62262389Y-57958785D01*
X62159099Y-57919174D01*
X62049011Y-57895014D01*
X61927670Y-57885219D01*
X61835164Y-57886265D01*
X61705510Y-57897231D01*
X61592916Y-57919046D01*
X61494125Y-57952714D01*
X61405879Y-57999236D01*
X61357014Y-58033448D01*
X61327647Y-58055362D01*
X61305957Y-58070333D01*
X61297747Y-58074733D01*
X61296132Y-58063904D01*
X61294841Y-58033251D01*
X61293862Y-57985526D01*
X61293183Y-57923479D01*
X61292790Y-57849862D01*
X61292670Y-57767427D01*
X61292812Y-57678925D01*
X61293203Y-57587107D01*
X61293829Y-57494724D01*
X61294680Y-57404528D01*
X61295740Y-57319271D01*
X61296999Y-57241703D01*
X61298444Y-57174576D01*
X61300062Y-57120641D01*
X61301839Y-57082650D01*
X61302331Y-57075667D01*
X61309908Y-57005251D01*
X61321469Y-56950102D01*
X61339208Y-56902981D01*
X61365318Y-56856647D01*
X61371585Y-56847067D01*
X61396017Y-56810378D01*
X60490689Y-56810378D01*
X60490493Y-58495245D01*
G36*
X62862994Y-59265711D02*
G01*
X62862268Y-59343158D01*
X62853689Y-59494594D01*
X62834833Y-59631283D01*
X62804837Y-59757276D01*
X62762836Y-59876625D01*
X62707969Y-59993381D01*
X62641167Y-60104179D01*
X62550363Y-60217739D01*
X62446708Y-60313211D01*
X62330887Y-60390073D01*
X62203586Y-60447797D01*
X62065489Y-60485858D01*
X62027793Y-60491666D01*
X61948752Y-60497396D01*
X61860629Y-60497583D01*
X61771236Y-60492539D01*
X61688384Y-60482578D01*
X61619887Y-60468012D01*
X61589035Y-60458364D01*
X61511730Y-60428123D01*
X61434679Y-60390617D01*
X61365200Y-60349614D01*
X61310615Y-60308879D01*
X61287916Y-60289505D01*
X61265201Y-60271662D01*
X61253779Y-60264778D01*
X61252537Y-60266424D01*
X61249728Y-60284205D01*
X61247776Y-60317370D01*
X61247045Y-60360733D01*
X61247045Y-60456689D01*
X60388896Y-60456689D01*
X60423161Y-60395974D01*
X60428355Y-60386868D01*
X60436715Y-60372249D01*
X60444288Y-60358173D01*
X60451112Y-60343540D01*
X60457227Y-60327249D01*
X60462673Y-60308198D01*
X60467487Y-60285286D01*
X60471708Y-60257413D01*
X60475377Y-60223478D01*
X60478531Y-60182379D01*
X60481211Y-60133015D01*
X60483454Y-60074286D01*
X60485299Y-60005090D01*
X60486787Y-59924326D01*
X60487955Y-59830894D01*
X60488844Y-59723692D01*
X60489491Y-59601620D01*
X60489936Y-59463576D01*
X60490218Y-59308459D01*
X60490375Y-59135168D01*
X60490448Y-58942603D01*
X60490474Y-58729662D01*
X60490485Y-58593530D01*
X61292200Y-58593530D01*
X61292200Y-59743721D01*
X61362756Y-59790089D01*
X61403417Y-59813791D01*
X61457546Y-59839639D01*
X61506689Y-59857829D01*
X61570165Y-59873551D01*
X61666331Y-59884541D01*
X61750900Y-59876365D01*
X61824219Y-59848805D01*
X61886637Y-59801642D01*
X61938502Y-59734658D01*
X61980160Y-59647633D01*
X62011962Y-59540350D01*
X62014545Y-59528009D01*
X62023000Y-59466772D01*
X62028663Y-59389692D01*
X62031576Y-59302002D01*
X62031783Y-59208934D01*
X62029330Y-59115720D01*
X62024261Y-59027594D01*
X62016619Y-58949788D01*
X62006448Y-58887533D01*
X62005167Y-58881666D01*
X61976126Y-58771121D01*
X61941610Y-58680575D01*
X61900456Y-58607953D01*
X61851499Y-58551181D01*
X61793574Y-58508184D01*
X61761620Y-58492615D01*
X61688784Y-58473722D01*
X61607443Y-58470465D01*
X61522319Y-58482389D01*
X61438133Y-58509040D01*
X61359608Y-58549962D01*
X61292200Y-58593530D01*
X60490485Y-58593530D01*
X60490493Y-58495245D01*
X60490689Y-56810378D01*
X61396017Y-56810378D01*
X61371585Y-56847067D01*
X61365318Y-56856647D01*
X61339208Y-56902981D01*
X61321469Y-56950102D01*
X61309908Y-57005251D01*
X61302331Y-57075667D01*
X61301839Y-57082650D01*
X61300062Y-57120641D01*
X61298444Y-57174576D01*
X61296999Y-57241703D01*
X61295740Y-57319271D01*
X61294680Y-57404528D01*
X61293829Y-57494724D01*
X61293203Y-57587107D01*
X61292812Y-57678925D01*
X61292670Y-57767427D01*
X61292790Y-57849862D01*
X61293183Y-57923479D01*
X61293862Y-57985526D01*
X61294841Y-58033251D01*
X61296132Y-58063904D01*
X61297747Y-58074733D01*
X61305957Y-58070333D01*
X61327647Y-58055362D01*
X61357014Y-58033448D01*
X61405879Y-57999236D01*
X61494125Y-57952714D01*
X61592916Y-57919046D01*
X61705510Y-57897231D01*
X61835164Y-57886265D01*
X61927670Y-57885219D01*
X62049011Y-57895014D01*
X62159099Y-57919174D01*
X62262389Y-57958785D01*
X62363338Y-58014932D01*
X62408503Y-58045883D01*
X62513911Y-58137115D01*
X62605538Y-58246106D01*
X62683332Y-58372726D01*
X62747241Y-58516845D01*
X62797214Y-58678332D01*
X62833198Y-58857059D01*
X62855143Y-59052895D01*
X62860900Y-59208934D01*
X62862994Y-59265711D01*
G37*
X64003426Y-57889552D02*
X63851508Y-57909567D01*
X63716244Y-57943202D01*
X63596761Y-57990725D01*
X63492185Y-58052405D01*
X63414576Y-58115965D01*
X63345735Y-58190099D01*
X63291994Y-58269871D01*
X63249090Y-58362091D01*
X63233616Y-58405161D01*
X63220756Y-58444142D01*
X63209554Y-58480289D01*
X63199880Y-58515434D01*
X63191604Y-58551410D01*
X63184597Y-58590050D01*
X63178728Y-58633185D01*
X63173869Y-58682649D01*
X63169890Y-58740273D01*
X63166660Y-58807891D01*
X63164051Y-58887334D01*
X63161933Y-58980436D01*
X63160176Y-59089027D01*
X63158651Y-59214942D01*
X63157228Y-59360012D01*
X63155975Y-59502778D01*
X63154649Y-59658968D01*
X63153444Y-59794239D01*
X63152234Y-59910246D01*
X63150894Y-60008645D01*
X63149300Y-60091093D01*
X63147325Y-60159246D01*
X63144844Y-60214760D01*
X63141731Y-60259292D01*
X63137862Y-60294498D01*
X63133111Y-60322034D01*
X63127352Y-60343556D01*
X63120461Y-60360722D01*
X63112311Y-60375186D01*
X63102777Y-60388606D01*
X63091734Y-60402638D01*
X63087434Y-60408071D01*
X63071614Y-60430910D01*
X63064578Y-60446463D01*
X63064556Y-60446922D01*
X63075433Y-60449121D01*
X63106418Y-60451147D01*
X63155043Y-60452942D01*
X63218837Y-60454451D01*
X63295331Y-60455616D01*
X63382056Y-60456380D01*
X63476543Y-60456686D01*
X63487450Y-60456689D01*
X63910343Y-60456689D01*
X63913605Y-60360622D01*
X63916867Y-60264556D01*
X63978956Y-60315543D01*
X64076286Y-60383057D01*
X64186187Y-60437749D01*
X64272651Y-60467978D01*
X64341722Y-60482666D01*
X64425075Y-60492659D01*
X64514841Y-60497646D01*
X64603155Y-60497313D01*
X64682149Y-60491351D01*
X64718378Y-60485638D01*
X64858397Y-60447776D01*
X64984822Y-60392932D01*
X65096740Y-60321924D01*
X65193238Y-60235568D01*
X65273400Y-60134679D01*
X65336313Y-60020076D01*
X65380688Y-59893984D01*
X65393022Y-59837401D01*
X65400632Y-59775202D01*
X65404261Y-59700363D01*
X65404755Y-59666467D01*
X65404690Y-59663282D01*
X64644752Y-59663282D01*
X64635459Y-59738333D01*
X64607272Y-59802160D01*
X64558803Y-59857798D01*
X64553746Y-59862211D01*
X64505452Y-59897037D01*
X64453743Y-59919620D01*
X64393011Y-59931540D01*
X64317648Y-59934383D01*
X64299541Y-59933978D01*
X64245722Y-59931325D01*
X64205692Y-59925909D01*
X64170676Y-59915745D01*
X64131897Y-59898850D01*
X64121255Y-59893672D01*
X64060604Y-59857844D01*
X64013785Y-59815212D01*
X64001048Y-59799973D01*
X63956378Y-59743462D01*
X63956378Y-59547586D01*
X63956914Y-59468939D01*
X63958604Y-59410988D01*
X63961572Y-59371875D01*
X63965943Y-59349741D01*
X63970028Y-59343274D01*
X63985953Y-59340111D01*
X64019736Y-59337488D01*
X64066660Y-59335655D01*
X64122007Y-59334857D01*
X64130894Y-59334842D01*
X64251670Y-59340096D01*
X64354340Y-59356263D01*
X64440894Y-59383961D01*
X64513319Y-59423808D01*
X64568249Y-59470758D01*
X64612796Y-59528645D01*
X64637520Y-59591693D01*
X64644752Y-59663282D01*
X65404690Y-59663282D01*
X65402822Y-59572712D01*
X65394478Y-59493812D01*
X65378232Y-59422590D01*
X65352595Y-59351864D01*
X65328599Y-59299493D01*
X65269980Y-59204196D01*
X65191883Y-59116170D01*
X65096685Y-59037017D01*
X64986762Y-58968340D01*
X64864490Y-58911741D01*
X64732245Y-58868821D01*
X64667578Y-58853882D01*
X64531396Y-58831777D01*
X64382951Y-58817194D01*
X64231495Y-58810813D01*
X64104936Y-58812445D01*
X63943050Y-58819224D01*
X63950470Y-58760245D01*
X63969762Y-58661092D01*
X64000896Y-58580372D01*
X64044731Y-58517466D01*
X64102129Y-58471756D01*
X64173952Y-58442622D01*
X64261059Y-58429447D01*
X64364314Y-58431611D01*
X64402289Y-58435612D01*
X64543480Y-58460780D01*
X64680293Y-58501814D01*
X64774822Y-58539815D01*
X64819982Y-58559190D01*
X64858415Y-58574760D01*
X64884766Y-58584405D01*
X64892454Y-58586452D01*
X64902198Y-58577374D01*
X64918917Y-58548405D01*
X64942768Y-58499217D01*
X64973907Y-58429484D01*
X65012493Y-58338879D01*
X65019090Y-58323089D01*
X65049147Y-58250772D01*
X65076126Y-58185425D01*
X65098864Y-58129906D01*
X65116194Y-58087072D01*
X65126952Y-58059781D01*
X65130059Y-58050942D01*
X65120060Y-58046187D01*
X65093783Y-58040910D01*
X65065511Y-58037231D01*
X65035354Y-58032474D01*
X64987567Y-58023028D01*
X64926388Y-58009820D01*
X64856054Y-57993776D01*
X64780806Y-57975820D01*
X64752245Y-57968797D01*
X64647184Y-57943209D01*
X64559520Y-57923147D01*
X64484932Y-57907969D01*
X64419097Y-57897035D01*
X64357693Y-57889704D01*
X64296398Y-57885335D01*
X64230890Y-57883287D01*
X64172872Y-57882889D01*
X64003426Y-57889552D01*
G36*
X65404755Y-59666467D02*
G01*
X65404261Y-59700363D01*
X65400632Y-59775202D01*
X65393022Y-59837401D01*
X65380688Y-59893984D01*
X65336313Y-60020076D01*
X65273400Y-60134679D01*
X65193238Y-60235568D01*
X65096740Y-60321924D01*
X64984822Y-60392932D01*
X64858397Y-60447776D01*
X64718378Y-60485638D01*
X64682149Y-60491351D01*
X64603155Y-60497313D01*
X64514841Y-60497646D01*
X64425075Y-60492659D01*
X64341722Y-60482666D01*
X64272651Y-60467978D01*
X64186187Y-60437749D01*
X64076286Y-60383057D01*
X63978956Y-60315543D01*
X63916867Y-60264556D01*
X63913605Y-60360622D01*
X63910343Y-60456689D01*
X63487450Y-60456689D01*
X63476543Y-60456686D01*
X63382056Y-60456380D01*
X63295331Y-60455616D01*
X63218837Y-60454451D01*
X63155043Y-60452942D01*
X63106418Y-60451147D01*
X63075433Y-60449121D01*
X63064556Y-60446922D01*
X63064578Y-60446463D01*
X63071614Y-60430910D01*
X63087434Y-60408071D01*
X63091734Y-60402638D01*
X63102777Y-60388606D01*
X63112311Y-60375186D01*
X63120461Y-60360722D01*
X63127352Y-60343556D01*
X63133111Y-60322034D01*
X63137862Y-60294498D01*
X63141731Y-60259292D01*
X63144844Y-60214760D01*
X63147325Y-60159246D01*
X63149300Y-60091093D01*
X63150894Y-60008645D01*
X63152234Y-59910246D01*
X63153444Y-59794239D01*
X63154649Y-59658968D01*
X63155595Y-59547586D01*
X63956378Y-59547586D01*
X63956378Y-59743462D01*
X64001048Y-59799973D01*
X64013785Y-59815212D01*
X64060604Y-59857844D01*
X64121255Y-59893672D01*
X64131897Y-59898850D01*
X64170676Y-59915745D01*
X64205692Y-59925909D01*
X64245722Y-59931325D01*
X64299541Y-59933978D01*
X64317648Y-59934383D01*
X64393011Y-59931540D01*
X64453743Y-59919620D01*
X64505452Y-59897037D01*
X64553746Y-59862211D01*
X64558803Y-59857798D01*
X64607272Y-59802160D01*
X64635459Y-59738333D01*
X64644752Y-59663282D01*
X64637520Y-59591693D01*
X64612796Y-59528645D01*
X64568249Y-59470758D01*
X64513319Y-59423808D01*
X64440894Y-59383961D01*
X64354340Y-59356263D01*
X64251670Y-59340096D01*
X64130894Y-59334842D01*
X64122007Y-59334857D01*
X64066660Y-59335655D01*
X64019736Y-59337488D01*
X63985953Y-59340111D01*
X63970028Y-59343274D01*
X63965943Y-59349741D01*
X63961572Y-59371875D01*
X63958604Y-59410988D01*
X63956914Y-59468939D01*
X63956378Y-59547586D01*
X63155595Y-59547586D01*
X63155975Y-59502778D01*
X63157228Y-59360012D01*
X63158651Y-59214942D01*
X63160176Y-59089027D01*
X63161933Y-58980436D01*
X63164051Y-58887334D01*
X63166660Y-58807891D01*
X63169890Y-58740273D01*
X63173869Y-58682649D01*
X63178728Y-58633185D01*
X63184597Y-58590050D01*
X63191604Y-58551410D01*
X63199880Y-58515434D01*
X63209554Y-58480289D01*
X63220756Y-58444142D01*
X63233616Y-58405161D01*
X63249090Y-58362091D01*
X63291994Y-58269871D01*
X63345735Y-58190099D01*
X63414576Y-58115965D01*
X63492185Y-58052405D01*
X63596761Y-57990725D01*
X63716244Y-57943202D01*
X63851508Y-57909567D01*
X64003426Y-57889552D01*
X64172872Y-57882889D01*
X64230890Y-57883287D01*
X64296398Y-57885335D01*
X64357693Y-57889704D01*
X64419097Y-57897035D01*
X64484932Y-57907969D01*
X64559520Y-57923147D01*
X64647184Y-57943209D01*
X64752245Y-57968797D01*
X64780806Y-57975820D01*
X64856054Y-57993776D01*
X64926388Y-58009820D01*
X64987567Y-58023028D01*
X65035354Y-58032474D01*
X65065511Y-58037231D01*
X65093783Y-58040910D01*
X65120060Y-58046187D01*
X65130059Y-58050942D01*
X65126952Y-58059781D01*
X65116194Y-58087072D01*
X65098864Y-58129906D01*
X65076126Y-58185425D01*
X65049147Y-58250772D01*
X65019090Y-58323089D01*
X65012493Y-58338879D01*
X64973907Y-58429484D01*
X64942768Y-58499217D01*
X64918917Y-58548405D01*
X64902198Y-58577374D01*
X64892454Y-58586452D01*
X64884766Y-58584405D01*
X64858415Y-58574760D01*
X64819982Y-58559190D01*
X64774822Y-58539815D01*
X64680293Y-58501814D01*
X64543480Y-58460780D01*
X64402289Y-58435612D01*
X64364314Y-58431611D01*
X64261059Y-58429447D01*
X64173952Y-58442622D01*
X64102129Y-58471756D01*
X64044731Y-58517466D01*
X64000896Y-58580372D01*
X63969762Y-58661092D01*
X63950470Y-58760245D01*
X63943050Y-58819224D01*
X64104936Y-58812445D01*
X64231495Y-58810813D01*
X64382951Y-58817194D01*
X64531396Y-58831777D01*
X64667578Y-58853882D01*
X64732245Y-58868821D01*
X64864490Y-58911741D01*
X64986762Y-58968340D01*
X65096685Y-59037017D01*
X65191883Y-59116170D01*
X65269980Y-59204196D01*
X65328599Y-59299493D01*
X65352595Y-59351864D01*
X65378232Y-59422590D01*
X65394478Y-59493812D01*
X65402822Y-59572712D01*
X65404690Y-59663282D01*
X65404755Y-59666467D01*
G37*
X69623400Y-56512054D02*
X69612535Y-56625993D01*
X69580918Y-56733616D01*
X69530015Y-56832615D01*
X69461293Y-56920684D01*
X69376219Y-56995516D01*
X69279232Y-57053384D01*
X69172964Y-57093005D01*
X69065950Y-57111573D01*
X68960300Y-57110434D01*
X68858125Y-57090930D01*
X68761534Y-57054406D01*
X68672638Y-57002205D01*
X68593546Y-56935673D01*
X68526369Y-56856152D01*
X68473217Y-56764987D01*
X68436199Y-56663523D01*
X68417427Y-56553102D01*
X68415489Y-56503206D01*
X68415489Y-56415267D01*
X68363560Y-56415267D01*
X68327253Y-56418111D01*
X68300355Y-56429911D01*
X68273249Y-56453649D01*
X68234867Y-56492031D01*
X68234867Y-58683602D01*
X68234876Y-58945739D01*
X68234908Y-59186241D01*
X68234972Y-59406048D01*
X68235076Y-59606101D01*
X68235227Y-59787344D01*
X68235434Y-59950716D01*
X68235706Y-60097160D01*
X68236050Y-60227617D01*
X68236474Y-60343029D01*
X68236987Y-60444338D01*
X68237597Y-60532484D01*
X68238312Y-60608410D01*
X68239140Y-60673057D01*
X68240089Y-60727367D01*
X68241167Y-60772280D01*
X68242383Y-60808740D01*
X68243745Y-60837687D01*
X68245261Y-60860063D01*
X68246938Y-60876809D01*
X68248786Y-60888868D01*
X68250813Y-60897180D01*
X68253025Y-60902687D01*
X68254108Y-60904537D01*
X68258271Y-60911549D01*
X68261805Y-60917996D01*
X68265635Y-60923900D01*
X68270682Y-60929286D01*
X68277871Y-60934178D01*
X68288123Y-60938598D01*
X68302364Y-60942572D01*
X68321514Y-60946121D01*
X68346499Y-60949270D01*
X68378240Y-60952042D01*
X68417662Y-60954461D01*
X68465686Y-60956551D01*
X68523237Y-60958335D01*
X68591237Y-60959837D01*
X68670610Y-60961080D01*
X68762279Y-60962089D01*
X68867166Y-60962885D01*
X68986196Y-60963494D01*
X69120290Y-60963939D01*
X69270373Y-60964243D01*
X69437367Y-60964430D01*
X69622196Y-60964524D01*
X69825783Y-60964548D01*
X70049050Y-60964525D01*
X70292922Y-60964480D01*
X70558321Y-60964437D01*
X70596704Y-60964432D01*
X70863682Y-60964389D01*
X71109002Y-60964318D01*
X71333583Y-60964213D01*
X71538345Y-60964066D01*
X71724206Y-60963869D01*
X71892088Y-60963616D01*
X72042908Y-60963300D01*
X72177587Y-60962913D01*
X72297044Y-60962447D01*
X72402199Y-60961897D01*
X72493971Y-60961253D01*
X72573279Y-60960511D01*
X72641043Y-60959661D01*
X72698182Y-60958697D01*
X72745617Y-60957611D01*
X72784266Y-60956397D01*
X72815049Y-60955047D01*
X72838885Y-60953555D01*
X72856694Y-60951911D01*
X72869395Y-60950111D01*
X72877908Y-60948145D01*
X72882266Y-60946477D01*
X72890728Y-60942906D01*
X72898497Y-60940270D01*
X72905602Y-60937634D01*
X72912073Y-60934062D01*
X72917939Y-60928621D01*
X72923229Y-60920375D01*
X72927974Y-60908390D01*
X72932202Y-60891731D01*
X72935943Y-60869463D01*
X72939227Y-60840652D01*
X72942083Y-60804363D01*
X72944540Y-60759661D01*
X72946629Y-60705611D01*
X72948378Y-60641279D01*
X72949817Y-60565730D01*
X72950976Y-60478030D01*
X72951883Y-60377243D01*
X72952569Y-60262434D01*
X72953063Y-60132670D01*
X72953395Y-59987015D01*
X72953593Y-59824535D01*
X72953687Y-59644295D01*
X72953708Y-59445360D01*
X72953685Y-59226796D01*
X72953646Y-58987668D01*
X72953622Y-58727040D01*
X72953622Y-58684889D01*
X72953636Y-58421992D01*
X72953661Y-58180732D01*
X72953671Y-57960165D01*
X72953642Y-57759352D01*
X72953548Y-57577349D01*
X72953362Y-57413216D01*
X72953059Y-57266011D01*
X72952614Y-57134792D01*
X72952034Y-57024867D01*
X72649197Y-57024867D01*
X72609407Y-57082711D01*
X72598236Y-57098479D01*
X72588166Y-57112441D01*
X72579138Y-57125784D01*
X72571097Y-57139693D01*
X72563986Y-57155356D01*
X72557747Y-57173958D01*
X72552325Y-57196686D01*
X72547662Y-57224727D01*
X72543701Y-57259267D01*
X72540385Y-57301492D01*
X72537659Y-57352589D01*
X72535464Y-57413744D01*
X72533745Y-57486144D01*
X72532444Y-57570975D01*
X72531505Y-57669422D01*
X72530870Y-57782674D01*
X72530484Y-57911916D01*
X72530288Y-58058334D01*
X72530227Y-58223116D01*
X72530243Y-58407447D01*
X72530280Y-58612513D01*
X72530289Y-58735133D01*
X72530265Y-58952082D01*
X72530231Y-59147642D01*
X72530243Y-59322999D01*
X72530358Y-59479341D01*
X72530630Y-59617857D01*
X72531118Y-59739734D01*
X72531876Y-59846160D01*
X72532962Y-59938322D01*
X72534431Y-60017409D01*
X72536340Y-60084608D01*
X72538744Y-60141107D01*
X72541701Y-60188093D01*
X72545266Y-60226755D01*
X72549495Y-60258280D01*
X72554446Y-60283855D01*
X72560173Y-60304670D01*
X72566733Y-60321911D01*
X72574183Y-60336765D01*
X72582579Y-60350422D01*
X72591976Y-60364069D01*
X72602432Y-60378893D01*
X72608523Y-60387783D01*
X72647296Y-60445400D01*
X72115732Y-60445400D01*
X71992483Y-60445365D01*
X71889987Y-60445215D01*
X71806420Y-60444878D01*
X71739956Y-60444286D01*
X71688771Y-60443367D01*
X71651041Y-60442051D01*
X71624940Y-60440269D01*
X71608644Y-60437951D01*
X71600328Y-60435026D01*
X71598168Y-60431424D01*
X71600339Y-60427075D01*
X71601535Y-60425645D01*
X71626685Y-60388573D01*
X71652583Y-60335772D01*
X71676192Y-60273770D01*
X71684461Y-60247357D01*
X71689078Y-60229416D01*
X71692979Y-60208355D01*
X71696248Y-60182089D01*
X71698966Y-60148532D01*
X71701215Y-60105599D01*
X71703077Y-60051204D01*
X71704636Y-59983262D01*
X71705972Y-59899688D01*
X71707169Y-59798395D01*
X71708308Y-59677300D01*
X71708685Y-59632600D01*
X71709702Y-59507449D01*
X71710460Y-59403082D01*
X71710903Y-59317707D01*
X71710970Y-59249533D01*
X71710605Y-59196765D01*
X71709748Y-59157614D01*
X71708341Y-59130285D01*
X71706325Y-59112986D01*
X71703643Y-59103926D01*
X71700236Y-59101312D01*
X71696044Y-59103351D01*
X71691571Y-59107667D01*
X71681216Y-59120602D01*
X71659158Y-59149676D01*
X71626957Y-59192759D01*
X71586174Y-59247718D01*
X71538370Y-59312423D01*
X71485105Y-59384742D01*
X71427940Y-59462544D01*
X71368437Y-59543698D01*
X71308155Y-59626072D01*
X71248655Y-59707536D01*
X71191498Y-59785957D01*
X71138245Y-59859204D01*
X71090457Y-59925147D01*
X71049693Y-59981654D01*
X71017516Y-60026593D01*
X70995485Y-60057834D01*
X70990917Y-60064466D01*
X70967996Y-60101369D01*
X70941188Y-60149359D01*
X70915789Y-60198897D01*
X70912568Y-60205577D01*
X70890890Y-60253772D01*
X70878304Y-60291334D01*
X70872574Y-60327160D01*
X70871456Y-60369200D01*
X70872090Y-60445400D01*
X69717651Y-60445400D01*
X69808815Y-60351669D01*
X69855612Y-60301775D01*
X69905899Y-60245295D01*
X69951944Y-60191026D01*
X69972369Y-60165673D01*
X70002807Y-60126128D01*
X70042862Y-60072916D01*
X70091361Y-60007667D01*
X70147135Y-59932011D01*
X70209011Y-59847577D01*
X70275819Y-59755994D01*
X70346387Y-59658892D01*
X70419545Y-59557901D01*
X70494121Y-59454650D01*
X70568944Y-59350768D01*
X70642843Y-59247885D01*
X70714646Y-59147631D01*
X70783184Y-59051636D01*
X70847284Y-58961527D01*
X70905775Y-58878936D01*
X70957486Y-58805492D01*
X71001247Y-58742824D01*
X71035885Y-58692561D01*
X71060230Y-58656334D01*
X71073111Y-58635771D01*
X71074869Y-58631668D01*
X71066910Y-58620342D01*
X71046115Y-58593162D01*
X71013847Y-58551829D01*
X70971470Y-58498044D01*
X70920347Y-58433506D01*
X70861841Y-58359918D01*
X70797314Y-58278978D01*
X70728131Y-58192388D01*
X70655653Y-58101848D01*
X70581246Y-58009060D01*
X70521517Y-57934702D01*
X69510511Y-57934702D01*
X69504602Y-57947659D01*
X69490272Y-57969908D01*
X69489225Y-57971391D01*
X69470438Y-58001544D01*
X69450791Y-58038375D01*
X69446892Y-58046511D01*
X69443356Y-58054940D01*
X69440230Y-58065059D01*
X69437486Y-58078260D01*
X69435092Y-58095938D01*
X69433019Y-58119484D01*
X69431235Y-58150293D01*
X69429712Y-58189757D01*
X69428419Y-58239269D01*
X69427326Y-58300223D01*
X69426403Y-58374011D01*
X69425619Y-58462028D01*
X69424945Y-58565665D01*
X69424350Y-58686316D01*
X69423805Y-58825374D01*
X69423279Y-58984232D01*
X69422745Y-59163089D01*
X69422206Y-59348207D01*
X69421772Y-59512145D01*
X69421509Y-59656303D01*
X69421484Y-59782079D01*
X69421765Y-59890871D01*
X69422419Y-59984077D01*
X69423514Y-60063097D01*
X69425118Y-60129328D01*
X69427297Y-60184170D01*
X69430119Y-60229021D01*
X69433651Y-60265278D01*
X69437961Y-60294341D01*
X69443117Y-60317609D01*
X69449185Y-60336479D01*
X69456233Y-60352351D01*
X69464329Y-60366622D01*
X69473540Y-60380691D01*
X69482040Y-60393158D01*
X69499176Y-60419452D01*
X69509322Y-60437037D01*
X69510511Y-60440257D01*
X69499604Y-60441334D01*
X69468411Y-60442335D01*
X69419223Y-60443235D01*
X69354333Y-60444010D01*
X69276030Y-60444637D01*
X69186607Y-60445091D01*
X69088356Y-60445349D01*
X69019445Y-60445400D01*
X68914452Y-60445180D01*
X68817610Y-60444548D01*
X68731107Y-60443549D01*
X68657132Y-60442227D01*
X68597874Y-60440626D01*
X68555520Y-60438791D01*
X68532260Y-60436765D01*
X68528378Y-60435493D01*
X68536076Y-60420591D01*
X68544074Y-60412560D01*
X68557246Y-60395434D01*
X68574485Y-60365183D01*
X68586407Y-60340622D01*
X68613045Y-60281711D01*
X68616120Y-59104845D01*
X68619195Y-57927978D01*
X69064853Y-57927978D01*
X69162670Y-57928142D01*
X69253064Y-57928611D01*
X69333630Y-57929347D01*
X69401962Y-57930316D01*
X69455656Y-57931480D01*
X69492305Y-57932803D01*
X69509504Y-57934249D01*
X69510511Y-57934702D01*
X70521517Y-57934702D01*
X70506270Y-57915722D01*
X70432090Y-57823537D01*
X70360069Y-57734204D01*
X70291569Y-57649424D01*
X70227955Y-57570898D01*
X70170588Y-57500326D01*
X70120833Y-57439409D01*
X70080052Y-57389847D01*
X70062888Y-57369178D01*
X69976596Y-57268516D01*
X69899997Y-57185259D01*
X69831183Y-57117438D01*
X69768248Y-57063089D01*
X69758867Y-57055722D01*
X69719356Y-57025117D01*
X70851116Y-57024867D01*
X70845827Y-57072844D01*
X70849130Y-57130188D01*
X70870661Y-57198463D01*
X70910635Y-57278212D01*
X70955943Y-57350495D01*
X70972161Y-57373140D01*
X71000214Y-57410696D01*
X71038430Y-57461021D01*
X71085137Y-57521973D01*
X71138661Y-57591411D01*
X71197331Y-57667194D01*
X71259475Y-57747180D01*
X71323421Y-57829228D01*
X71387495Y-57911196D01*
X71450027Y-57990943D01*
X71509343Y-58066327D01*
X71563771Y-58135207D01*
X71611639Y-58195442D01*
X71651275Y-58244889D01*
X71681006Y-58281408D01*
X71699161Y-58302858D01*
X71702220Y-58306156D01*
X71705079Y-58298149D01*
X71707293Y-58267855D01*
X71708857Y-58215556D01*
X71709767Y-58141531D01*
X71710020Y-58046063D01*
X71709613Y-57929434D01*
X71708704Y-57809445D01*
X71707382Y-57677333D01*
X71705857Y-57565594D01*
X71703881Y-57472025D01*
X71701206Y-57394419D01*
X71697582Y-57330574D01*
X71692761Y-57278283D01*
X71686494Y-57235344D01*
X71678532Y-57199551D01*
X71668627Y-57168700D01*
X71656531Y-57140586D01*
X71641993Y-57113005D01*
X71627311Y-57087966D01*
X71589314Y-57024867D01*
X72649197Y-57024867D01*
X72952034Y-57024867D01*
X72952001Y-57018617D01*
X72951195Y-56916544D01*
X72950170Y-56827633D01*
X72948900Y-56750941D01*
X72947360Y-56685527D01*
X72945524Y-56630449D01*
X72943367Y-56584765D01*
X72940863Y-56547534D01*
X72937987Y-56517813D01*
X72934713Y-56494662D01*
X72931015Y-56477139D01*
X72926869Y-56464301D01*
X72922247Y-56455208D01*
X72917126Y-56448918D01*
X72911478Y-56444488D01*
X72905279Y-56440978D01*
X72898504Y-56437445D01*
X72892508Y-56433876D01*
X72887275Y-56431300D01*
X72879099Y-56428972D01*
X72866886Y-56426878D01*
X72849541Y-56425007D01*
X72825969Y-56423347D01*
X72795077Y-56421884D01*
X72755768Y-56420608D01*
X72706950Y-56419504D01*
X72647527Y-56418561D01*
X72576404Y-56417767D01*
X72492488Y-56417109D01*
X72394683Y-56416575D01*
X72281894Y-56416153D01*
X72153029Y-56415829D01*
X72006991Y-56415592D01*
X71842686Y-56415430D01*
X71659020Y-56415330D01*
X71454897Y-56415280D01*
X71243753Y-56415267D01*
X69623400Y-56415267D01*
X69623400Y-56512054D01*
G36*
X72952614Y-57134792D02*
G01*
X72953059Y-57266011D01*
X72953362Y-57413216D01*
X72953548Y-57577349D01*
X72953642Y-57759352D01*
X72953671Y-57960165D01*
X72953661Y-58180732D01*
X72953636Y-58421992D01*
X72953622Y-58684889D01*
X72953622Y-58727040D01*
X72953646Y-58987668D01*
X72953685Y-59226796D01*
X72953708Y-59445360D01*
X72953687Y-59644295D01*
X72953593Y-59824535D01*
X72953395Y-59987015D01*
X72953063Y-60132670D01*
X72952569Y-60262434D01*
X72951883Y-60377243D01*
X72950976Y-60478030D01*
X72949817Y-60565730D01*
X72948378Y-60641279D01*
X72946629Y-60705611D01*
X72944540Y-60759661D01*
X72942083Y-60804363D01*
X72939227Y-60840652D01*
X72935943Y-60869463D01*
X72932202Y-60891731D01*
X72927974Y-60908390D01*
X72923229Y-60920375D01*
X72917939Y-60928621D01*
X72912073Y-60934062D01*
X72905602Y-60937634D01*
X72898497Y-60940270D01*
X72890728Y-60942906D01*
X72882266Y-60946477D01*
X72877908Y-60948145D01*
X72869395Y-60950111D01*
X72856694Y-60951911D01*
X72838885Y-60953555D01*
X72815049Y-60955047D01*
X72784266Y-60956397D01*
X72745617Y-60957611D01*
X72698182Y-60958697D01*
X72641043Y-60959661D01*
X72573279Y-60960511D01*
X72493971Y-60961253D01*
X72402199Y-60961897D01*
X72297044Y-60962447D01*
X72177587Y-60962913D01*
X72042908Y-60963300D01*
X71892088Y-60963616D01*
X71724206Y-60963869D01*
X71538345Y-60964066D01*
X71333583Y-60964213D01*
X71109002Y-60964318D01*
X70863682Y-60964389D01*
X70596704Y-60964432D01*
X70558321Y-60964437D01*
X70292922Y-60964480D01*
X70049050Y-60964525D01*
X69825783Y-60964548D01*
X69622196Y-60964524D01*
X69437367Y-60964430D01*
X69270373Y-60964243D01*
X69120290Y-60963939D01*
X68986196Y-60963494D01*
X68867166Y-60962885D01*
X68762279Y-60962089D01*
X68670610Y-60961080D01*
X68591237Y-60959837D01*
X68523237Y-60958335D01*
X68465686Y-60956551D01*
X68417662Y-60954461D01*
X68378240Y-60952042D01*
X68346499Y-60949270D01*
X68321514Y-60946121D01*
X68302364Y-60942572D01*
X68288123Y-60938598D01*
X68277871Y-60934178D01*
X68270682Y-60929286D01*
X68265635Y-60923900D01*
X68261805Y-60917996D01*
X68258271Y-60911549D01*
X68254108Y-60904537D01*
X68253025Y-60902687D01*
X68250813Y-60897180D01*
X68248786Y-60888868D01*
X68246938Y-60876809D01*
X68245261Y-60860063D01*
X68243745Y-60837687D01*
X68242383Y-60808740D01*
X68241167Y-60772280D01*
X68240089Y-60727367D01*
X68239140Y-60673057D01*
X68238312Y-60608410D01*
X68237597Y-60532484D01*
X68236987Y-60444338D01*
X68236942Y-60435493D01*
X68528378Y-60435493D01*
X68532260Y-60436765D01*
X68555520Y-60438791D01*
X68597874Y-60440626D01*
X68657132Y-60442227D01*
X68731107Y-60443549D01*
X68817610Y-60444548D01*
X68914452Y-60445180D01*
X69019445Y-60445400D01*
X69717651Y-60445400D01*
X70872090Y-60445400D01*
X70871456Y-60369200D01*
X70872574Y-60327160D01*
X70878304Y-60291334D01*
X70890890Y-60253772D01*
X70912568Y-60205577D01*
X70915789Y-60198897D01*
X70941188Y-60149359D01*
X70967996Y-60101369D01*
X70990917Y-60064466D01*
X70995485Y-60057834D01*
X71017516Y-60026593D01*
X71049693Y-59981654D01*
X71090457Y-59925147D01*
X71138245Y-59859204D01*
X71191498Y-59785957D01*
X71248655Y-59707536D01*
X71308155Y-59626072D01*
X71368437Y-59543698D01*
X71427940Y-59462544D01*
X71485105Y-59384742D01*
X71538370Y-59312423D01*
X71586174Y-59247718D01*
X71626957Y-59192759D01*
X71659158Y-59149676D01*
X71681216Y-59120602D01*
X71691571Y-59107667D01*
X71696044Y-59103351D01*
X71700236Y-59101312D01*
X71703643Y-59103926D01*
X71706325Y-59112986D01*
X71708341Y-59130285D01*
X71709748Y-59157614D01*
X71710605Y-59196765D01*
X71710970Y-59249533D01*
X71710903Y-59317707D01*
X71710460Y-59403082D01*
X71709702Y-59507449D01*
X71708685Y-59632600D01*
X71708308Y-59677300D01*
X71707169Y-59798395D01*
X71705972Y-59899688D01*
X71704636Y-59983262D01*
X71703077Y-60051204D01*
X71701215Y-60105599D01*
X71698966Y-60148532D01*
X71696248Y-60182089D01*
X71692979Y-60208355D01*
X71689078Y-60229416D01*
X71684461Y-60247357D01*
X71676192Y-60273770D01*
X71652583Y-60335772D01*
X71626685Y-60388573D01*
X71601535Y-60425645D01*
X71600339Y-60427075D01*
X71598168Y-60431424D01*
X71600328Y-60435026D01*
X71608644Y-60437951D01*
X71624940Y-60440269D01*
X71651041Y-60442051D01*
X71688771Y-60443367D01*
X71739956Y-60444286D01*
X71806420Y-60444878D01*
X71889987Y-60445215D01*
X71992483Y-60445365D01*
X72115732Y-60445400D01*
X72647296Y-60445400D01*
X72608523Y-60387783D01*
X72602432Y-60378893D01*
X72591976Y-60364069D01*
X72582579Y-60350422D01*
X72574183Y-60336765D01*
X72566733Y-60321911D01*
X72560173Y-60304670D01*
X72554446Y-60283855D01*
X72549495Y-60258280D01*
X72545266Y-60226755D01*
X72541701Y-60188093D01*
X72538744Y-60141107D01*
X72536340Y-60084608D01*
X72534431Y-60017409D01*
X72532962Y-59938322D01*
X72531876Y-59846160D01*
X72531118Y-59739734D01*
X72530630Y-59617857D01*
X72530358Y-59479341D01*
X72530243Y-59322999D01*
X72530231Y-59147642D01*
X72530265Y-58952082D01*
X72530289Y-58735133D01*
X72530280Y-58612513D01*
X72530243Y-58407447D01*
X72530227Y-58223116D01*
X72530288Y-58058334D01*
X72530484Y-57911916D01*
X72530870Y-57782674D01*
X72531505Y-57669422D01*
X72532444Y-57570975D01*
X72533745Y-57486144D01*
X72535464Y-57413744D01*
X72537659Y-57352589D01*
X72540385Y-57301492D01*
X72543701Y-57259267D01*
X72547662Y-57224727D01*
X72552325Y-57196686D01*
X72557747Y-57173958D01*
X72563986Y-57155356D01*
X72571097Y-57139693D01*
X72579138Y-57125784D01*
X72588166Y-57112441D01*
X72598236Y-57098479D01*
X72609407Y-57082711D01*
X72649197Y-57024867D01*
X71589314Y-57024867D01*
X71627311Y-57087966D01*
X71641993Y-57113005D01*
X71656531Y-57140586D01*
X71668627Y-57168700D01*
X71678532Y-57199551D01*
X71686494Y-57235344D01*
X71692761Y-57278283D01*
X71697582Y-57330574D01*
X71701206Y-57394419D01*
X71703881Y-57472025D01*
X71705857Y-57565594D01*
X71707382Y-57677333D01*
X71708704Y-57809445D01*
X71709613Y-57929434D01*
X71710020Y-58046063D01*
X71709767Y-58141531D01*
X71708857Y-58215556D01*
X71707293Y-58267855D01*
X71705079Y-58298149D01*
X71702220Y-58306156D01*
X71699161Y-58302858D01*
X71681006Y-58281408D01*
X71651275Y-58244889D01*
X71611639Y-58195442D01*
X71563771Y-58135207D01*
X71509343Y-58066327D01*
X71450027Y-57990943D01*
X71387495Y-57911196D01*
X71323421Y-57829228D01*
X71259475Y-57747180D01*
X71197331Y-57667194D01*
X71138661Y-57591411D01*
X71085137Y-57521973D01*
X71038430Y-57461021D01*
X71000214Y-57410696D01*
X70972161Y-57373140D01*
X70955943Y-57350495D01*
X70910635Y-57278212D01*
X70870661Y-57198463D01*
X70849130Y-57130188D01*
X70845827Y-57072844D01*
X70851116Y-57024867D01*
X69719356Y-57025117D01*
X69758867Y-57055722D01*
X69768248Y-57063089D01*
X69831183Y-57117438D01*
X69899997Y-57185259D01*
X69976596Y-57268516D01*
X70062888Y-57369178D01*
X70080052Y-57389847D01*
X70120833Y-57439409D01*
X70170588Y-57500326D01*
X70227955Y-57570898D01*
X70291569Y-57649424D01*
X70360069Y-57734204D01*
X70432090Y-57823537D01*
X70506270Y-57915722D01*
X70521517Y-57934702D01*
X70581246Y-58009060D01*
X70655653Y-58101848D01*
X70728131Y-58192388D01*
X70797314Y-58278978D01*
X70861841Y-58359918D01*
X70920347Y-58433506D01*
X70971470Y-58498044D01*
X71013847Y-58551829D01*
X71046115Y-58593162D01*
X71066910Y-58620342D01*
X71074869Y-58631668D01*
X71073111Y-58635771D01*
X71060230Y-58656334D01*
X71035885Y-58692561D01*
X71001247Y-58742824D01*
X70957486Y-58805492D01*
X70905775Y-58878936D01*
X70847284Y-58961527D01*
X70783184Y-59051636D01*
X70714646Y-59147631D01*
X70642843Y-59247885D01*
X70568944Y-59350768D01*
X70494121Y-59454650D01*
X70419545Y-59557901D01*
X70346387Y-59658892D01*
X70275819Y-59755994D01*
X70209011Y-59847577D01*
X70147135Y-59932011D01*
X70091361Y-60007667D01*
X70042862Y-60072916D01*
X70002807Y-60126128D01*
X69972369Y-60165673D01*
X69951944Y-60191026D01*
X69905899Y-60245295D01*
X69855612Y-60301775D01*
X69808815Y-60351669D01*
X69717651Y-60445400D01*
X69019445Y-60445400D01*
X69088356Y-60445349D01*
X69186607Y-60445091D01*
X69276030Y-60444637D01*
X69354333Y-60444010D01*
X69419223Y-60443235D01*
X69468411Y-60442335D01*
X69499604Y-60441334D01*
X69510511Y-60440257D01*
X69509322Y-60437037D01*
X69499176Y-60419452D01*
X69482040Y-60393158D01*
X69473540Y-60380691D01*
X69464329Y-60366622D01*
X69456233Y-60352351D01*
X69449185Y-60336479D01*
X69443117Y-60317609D01*
X69437961Y-60294341D01*
X69433651Y-60265278D01*
X69430119Y-60229021D01*
X69427297Y-60184170D01*
X69425118Y-60129328D01*
X69423514Y-60063097D01*
X69422419Y-59984077D01*
X69421765Y-59890871D01*
X69421484Y-59782079D01*
X69421509Y-59656303D01*
X69421772Y-59512145D01*
X69422206Y-59348207D01*
X69422745Y-59163089D01*
X69423279Y-58984232D01*
X69423805Y-58825374D01*
X69424350Y-58686316D01*
X69424945Y-58565665D01*
X69425619Y-58462028D01*
X69426403Y-58374011D01*
X69427326Y-58300223D01*
X69428419Y-58239269D01*
X69429712Y-58189757D01*
X69431235Y-58150293D01*
X69433019Y-58119484D01*
X69435092Y-58095938D01*
X69437486Y-58078260D01*
X69440230Y-58065059D01*
X69443356Y-58054940D01*
X69446892Y-58046511D01*
X69450791Y-58038375D01*
X69470438Y-58001544D01*
X69489225Y-57971391D01*
X69490272Y-57969908D01*
X69504602Y-57947659D01*
X69510511Y-57934702D01*
X69509504Y-57934249D01*
X69492305Y-57932803D01*
X69455656Y-57931480D01*
X69401962Y-57930316D01*
X69333630Y-57929347D01*
X69253064Y-57928611D01*
X69162670Y-57928142D01*
X69064853Y-57927978D01*
X68619195Y-57927978D01*
X68616120Y-59104845D01*
X68613045Y-60281711D01*
X68586407Y-60340622D01*
X68574485Y-60365183D01*
X68557246Y-60395434D01*
X68544074Y-60412560D01*
X68536076Y-60420591D01*
X68528378Y-60435493D01*
X68236942Y-60435493D01*
X68236474Y-60343029D01*
X68236050Y-60227617D01*
X68235706Y-60097160D01*
X68235434Y-59950716D01*
X68235227Y-59787344D01*
X68235076Y-59606101D01*
X68234972Y-59406048D01*
X68234908Y-59186241D01*
X68234876Y-58945739D01*
X68234867Y-58683602D01*
X68234867Y-56492031D01*
X68273249Y-56453649D01*
X68300355Y-56429911D01*
X68327253Y-56418111D01*
X68363560Y-56415267D01*
X68415489Y-56415267D01*
X68415489Y-56503206D01*
X68417427Y-56553102D01*
X68436199Y-56663523D01*
X68473217Y-56764987D01*
X68526369Y-56856152D01*
X68593546Y-56935673D01*
X68672638Y-57002205D01*
X68761534Y-57054406D01*
X68858125Y-57090930D01*
X68960300Y-57110434D01*
X69065950Y-57111573D01*
X69172964Y-57093005D01*
X69279232Y-57053384D01*
X69376219Y-56995516D01*
X69461293Y-56920684D01*
X69530015Y-56832615D01*
X69580918Y-56733616D01*
X69612535Y-56625993D01*
X69623400Y-56512054D01*
X69623400Y-56415267D01*
X71243753Y-56415267D01*
X71454897Y-56415280D01*
X71659020Y-56415330D01*
X71842686Y-56415430D01*
X72006991Y-56415592D01*
X72153029Y-56415829D01*
X72281894Y-56416153D01*
X72394683Y-56416575D01*
X72492488Y-56417109D01*
X72576404Y-56417767D01*
X72647527Y-56418561D01*
X72706950Y-56419504D01*
X72755768Y-56420608D01*
X72795077Y-56421884D01*
X72825969Y-56423347D01*
X72849541Y-56425007D01*
X72866886Y-56426878D01*
X72879099Y-56428972D01*
X72887275Y-56431300D01*
X72892508Y-56433876D01*
X72898504Y-56437445D01*
X72905279Y-56440978D01*
X72911478Y-56444488D01*
X72917126Y-56448918D01*
X72922247Y-56455208D01*
X72926869Y-56464301D01*
X72931015Y-56477139D01*
X72934713Y-56494662D01*
X72937987Y-56517813D01*
X72940863Y-56547534D01*
X72943367Y-56584765D01*
X72945524Y-56630449D01*
X72947360Y-56685527D01*
X72948900Y-56750941D01*
X72950170Y-56827633D01*
X72951195Y-56916544D01*
X72952001Y-57018617D01*
X72952034Y-57024867D01*
X72952614Y-57134792D01*
G37*
%TD*%
M02*
