M48
; DRILL file KiCad 10.0.3 date 2026-10-03T20:12:54
; FORMAT={-:-/ absolute / metric / decimal}
; #@! TF.CreationDate,2026-10-03T20:12:54+05:30
; #@! TF.GenerationSoftware,Kicad,Pcbnew,10.0.3
; #@! TF.FileFunction,Plated,1,2,PTH
FMAT,2
METRIC
; #@! TA.AperFunction,Plated,PTH,ViaDrill
T1C0.300
; #@! TA.AperFunction,Plated,PTH,ComponentDrill
T2C1.000
%
G90
G05
T1
X56.79Y-68.548
X57.806Y-59.404
X58.314Y-61.944
X58.822Y-65.5
X58.914Y-74.644
X60.049Y-79.173
X62.632Y-64.484
X62.886Y-73.628
X64.248Y-73.374
X64.918Y-64.992
X65.426Y-78.962
X65.934Y-65.5
X68.58Y-61.976
X69.236Y-70.326
X69.49Y-73.882
X69.647Y-68.197
X71.268Y-59.058
X71.819Y-72.401
X72.538Y-73.374
X73.554Y-69.818
X73.554Y-74.136
X73.97Y-67.834
X74.062Y-66.008
X74.57Y-70.58
X74.676Y-60.96
X75.078Y-74.552
X75.586Y-68.04
X76.094Y-62.452
X76.602Y-55.34
X77.724Y-59.944
X77.872Y-69.31
X78.169Y-65.711
X78.634Y-68.04
X81.913Y-69.287
X82.19Y-66.516
X82.19Y-68.04
X82.952Y-73.374
X83.206Y-58.388
X86.254Y-58.388
X87.778Y-60.836
X87.778Y-74.136
X88.286Y-65.603
X88.794Y-70.155
X89.302Y-71.088
X90.594Y-67.902
X90.826Y-58.388
X91.44Y-67.564
T2
X56.282Y-63.209
X56.282Y-65.749
X60.092Y-82.645
X62.632Y-82.645
X65.172Y-82.645
X67.712Y-82.645
X70.252Y-82.645
X72.792Y-82.645
X75.332Y-82.645
X77.872Y-82.645
X80.412Y-82.645
X84.476Y-82.772
X87.016Y-82.772
X89.556Y-82.772
X92.096Y-82.772
X94.123Y-61.436
X94.123Y-63.976
X94.123Y-66.516
X96.663Y-61.436
X96.663Y-63.976
X96.663Y-66.516
X96.668Y-70.326
X96.668Y-72.866
X96.668Y-75.406
X96.668Y-77.946
M30
