%TF.GenerationSoftware,KiCad,Pcbnew,10.0.3*%
%TF.CreationDate,2026-10-03T19:41:46+05:30*%
%TF.ProjectId,Project-05-Worker-Safety-Helmet,50726f6a-6563-4742-9d30-352d576f726b,rev?*%
%TF.SameCoordinates,Original*%
%TF.FileFunction,Copper,L1,Top*%
%TF.FilePolarity,Positive*%
%FSLAX46Y46*%
G04 Gerber Fmt 4.6, Leading zero omitted, Abs format (unit mm)*
G04 Created by KiCad (PCBNEW 10.0.3) date 2026-10-03 19:41:46*
%MOMM*%
%LPD*%
G01*
G04 APERTURE LIST*
%TA.AperFunction,ComponentPad*%
%ADD10R,1.700000X1.700000*%
%TD*%
%TA.AperFunction,ComponentPad*%
%ADD11C,1.700000*%
%TD*%
%TA.AperFunction,ComponentPad*%
%ADD12C,1.600000*%
%TD*%
%TA.AperFunction,ComponentPad*%
%ADD13R,1.050000X1.500000*%
%TD*%
%TA.AperFunction,ComponentPad*%
%ADD14O,1.050000X1.500000*%
%TD*%
%TA.AperFunction,ViaPad*%
%ADD15C,0.600000*%
%TD*%
%TA.AperFunction,Conductor*%
%ADD16C,0.200000*%
%TD*%
G04 APERTURE END LIST*
D10*
%TO.P,J6,1,5V_1*%
%TO.N,+5V*%
X123000000Y-79460000D03*
D11*
%TO.P,J6,2,AO_IN_2*%
%TO.N,/MQ2_ANALOG_RAW*%
X123000000Y-82000000D03*
%TO.P,J6,3,GND_3*%
%TO.N,GND*%
X123000000Y-84540000D03*
%TD*%
D12*
%TO.P,R3,1*%
%TO.N,GND*%
X109000000Y-97810000D03*
%TO.P,R3,2*%
%TO.N,Net-(R2-Pad1)*%
X109000000Y-90190000D03*
%TD*%
D10*
%TO.P,SOS CONNECTOR,1,SOS_1*%
%TO.N,/SOS_BUTTON*%
X123000000Y-75000000D03*
D11*
%TO.P,SOS CONNECTOR,2,GND_2*%
%TO.N,GND*%
X120460000Y-75000000D03*
%TD*%
D10*
%TO.P,J1,1,EN_1*%
%TO.N,unconnected-(J1-EN-Pad1)*%
X128400000Y-62220000D03*
D11*
%TO.P,J1,2,VP_2*%
%TO.N,unconnected-(J1-VP-Pad2)*%
X128400000Y-64760000D03*
%TO.P,J1,3,VN_3*%
%TO.N,unconnected-(J1-VN-Pad3)*%
X128400000Y-67300000D03*
%TO.P,J1,4,D34_4*%
%TO.N,unconnected-(J1-D34-Pad4)*%
X128400000Y-69840000D03*
%TO.P,J1,5,D35_5*%
%TO.N,/MQ2_ANALOG_3V3*%
X128400000Y-72380000D03*
%TO.P,J1,6,D32_6*%
%TO.N,unconnected-(J1-D32-Pad6)*%
X128400000Y-74920000D03*
%TO.P,J1,7,D33_7*%
%TO.N,unconnected-(J1-D33-Pad7)*%
X128400000Y-77460000D03*
%TO.P,J1,8,D25_8*%
%TO.N,unconnected-(J1-D25-Pad8)*%
X128400000Y-80000000D03*
%TO.P,J1,9,D26_9*%
%TO.N,/SOS_BUTTON*%
X128400000Y-82540000D03*
%TO.P,J1,10,D27_10*%
%TO.N,unconnected-(J1-D27-Pad10)*%
X128400000Y-85080000D03*
%TO.P,J1,11,D14_11*%
%TO.N,unconnected-(J1-D14-Pad11)*%
X128400000Y-87620000D03*
%TO.P,J1,12,D12_12*%
%TO.N,unconnected-(J1-D12-Pad12)*%
X128400000Y-90160000D03*
%TO.P,J1,13,D13_13*%
%TO.N,unconnected-(J1-D13-Pad13)*%
X128400000Y-92700000D03*
%TO.P,J1,14,GND_14*%
%TO.N,unconnected-(J1-GND-Pad14)*%
X128400000Y-95240000D03*
%TO.P,J1,15,VIN_15*%
%TO.N,+5V*%
X128400000Y-97780000D03*
%TD*%
D10*
%TO.P,J5,1,Pin_1_1*%
%TO.N,+5V*%
X159500000Y-86000000D03*
D11*
%TO.P,J5,2,Pin_2_2*%
%TO.N,/Q1 COLLECTOR*%
X159500000Y-88540000D03*
%TD*%
D12*
%TO.P,R5,1*%
%TO.N,GND*%
X115000000Y-85810000D03*
%TO.P,R5,2*%
%TO.N,Net-(R4-Pad1)*%
X115000000Y-78190000D03*
%TD*%
%TO.P,R7,1*%
%TO.N,Net-(Q1-B)*%
X163000000Y-75810000D03*
%TO.P,R7,2*%
%TO.N,/BUZZER_CTRL*%
X163000000Y-68190000D03*
%TD*%
D10*
%TO.P,J4,1,5V_1*%
%TO.N,+5V*%
X123000000Y-90000000D03*
D11*
%TO.P,J4,2,TRIG_2*%
%TO.N,/ULTRASONIC_TRIG*%
X123000000Y-92540000D03*
%TO.P,J4,3,ECHO_IN_3*%
%TO.N,/ULTRASONIC_ECHO_RAW*%
X123000000Y-95080000D03*
%TO.P,J4,4,GND_4*%
%TO.N,GND*%
X123000000Y-97620000D03*
%TD*%
D10*
%TO.P,J8,1,3V3_1*%
%TO.N,+3.3V*%
X159000000Y-66000000D03*
D11*
%TO.P,J8,2,GND_2*%
%TO.N,GND*%
X159000000Y-68540000D03*
%TO.P,J8,3,SDA_3*%
%TO.N,/I2C_SDA*%
X159000000Y-71080000D03*
%TO.P,J8,4,SCL_4*%
%TO.N,/I2C_SCL*%
X159000000Y-73620000D03*
%TO.P,J8,5,A0_5*%
%TO.N,GND*%
X159000000Y-76160000D03*
%TD*%
D12*
%TO.P,R6,1*%
%TO.N,/MQ2_ANALOG_3V3*%
X119050000Y-85810000D03*
%TO.P,R6,2*%
%TO.N,/MQ2_ANALOG_RAW*%
X119050000Y-78190000D03*
%TD*%
D13*
%TO.P,Q1,1,B_1*%
%TO.N,Net-(Q1-B)*%
X161270000Y-80640000D03*
D14*
%TO.P,Q1,2,C_2*%
%TO.N,/Q1 COLLECTOR*%
X160000000Y-80640000D03*
%TO.P,Q1,3,E_3*%
%TO.N,GND*%
X158730000Y-80640000D03*
%TD*%
D12*
%TO.P,R1,1*%
%TO.N,/ULTRASONIC_ECHO_RAW*%
X118000000Y-97810000D03*
%TO.P,R1,2*%
%TO.N,/ULTRASONIC_ECHO_3V3*%
X118000000Y-90190000D03*
%TD*%
D10*
%TO.P,J2,1,D23_1*%
%TO.N,/BUZZER_CTRL*%
X153790000Y-62190000D03*
D11*
%TO.P,J2,2,D22_2*%
%TO.N,/I2C_SCL*%
X153790000Y-64730000D03*
%TO.P,J2,3,TX0_3*%
%TO.N,unconnected-(J2-TX0-Pad3)*%
X153790000Y-67270000D03*
%TO.P,J2,4,RX0_4*%
%TO.N,unconnected-(J2-RX0-Pad4)*%
X153790000Y-69810000D03*
%TO.P,J2,5,D21_5*%
%TO.N,/I2C_SDA*%
X153790000Y-72350000D03*
%TO.P,J2,6,D19_6*%
%TO.N,/ULTRASONIC_ECHO_3V3*%
X153790000Y-74890000D03*
%TO.P,J2,7,D18_7*%
%TO.N,/ULTRASONIC_TRIG*%
X153790000Y-77430000D03*
%TO.P,J2,8,D5_8*%
%TO.N,unconnected-(J2-D5-Pad8)*%
X153790000Y-79970000D03*
%TO.P,J2,9,TX2_9*%
%TO.N,unconnected-(J2-TX2-Pad9)*%
X153790000Y-82510000D03*
%TO.P,J2,10,RX2_10*%
%TO.N,unconnected-(J2-RX2-Pad10)*%
X153790000Y-85050000D03*
%TO.P,J2,11,D4_11*%
%TO.N,/DHT_DATA*%
X153790000Y-87590000D03*
%TO.P,J2,12,D2_12*%
%TO.N,unconnected-(J2-D2-Pad12)*%
X153790000Y-90130000D03*
%TO.P,J2,13,D15_13*%
%TO.N,unconnected-(J2-D15-Pad13)*%
X153790000Y-92670000D03*
%TO.P,J2,14,GND_14*%
%TO.N,GND*%
X153790000Y-95210000D03*
%TO.P,J2,15,3V3_15*%
%TO.N,+3.3V*%
X153790000Y-97750000D03*
%TD*%
D10*
%TO.P,J3,1,3V3_1*%
%TO.N,+3.3V*%
X158000000Y-93000000D03*
D11*
%TO.P,J3,2,DATA_2*%
%TO.N,/DHT_DATA*%
X158000000Y-95540000D03*
%TO.P,J3,3,GND_3*%
%TO.N,GND*%
X158000000Y-98080000D03*
%TD*%
D12*
%TO.P,R4,1*%
%TO.N,Net-(R4-Pad1)*%
X110950000Y-85810000D03*
%TO.P,R4,2*%
%TO.N,/MQ2_ANALOG_3V3*%
X110950000Y-78190000D03*
%TD*%
%TO.P,R2,1*%
%TO.N,Net-(R2-Pad1)*%
X114000000Y-98000000D03*
%TO.P,R2,2*%
%TO.N,/ULTRASONIC_ECHO_3V3*%
X114000000Y-90380000D03*
%TD*%
D15*
%TO.N,+5V*%
X157500000Y-86500000D03*
X132000000Y-97500000D03*
%TD*%
%TO.N,+5V*%
D16*
X123000000Y-90000000D02*
X125000000Y-92000000D01*
X158000000Y-86000000D02*
X157500000Y-86500000D01*
X126000000Y-96000000D02*
X127780000Y-97780000D01*
X131720000Y-97780000D02*
X132000000Y-97500000D01*
X125000000Y-92000000D02*
X126000000Y-93000000D01*
X128400000Y-97780000D02*
X131720000Y-97780000D01*
X125000000Y-81460000D02*
X125000000Y-92000000D01*
X123000000Y-79460000D02*
X125000000Y-81460000D01*
X126000000Y-93000000D02*
X126000000Y-96000000D01*
X159500000Y-86000000D02*
X158000000Y-86000000D01*
X127780000Y-97780000D02*
X128400000Y-97780000D01*
%TO.N,/MQ2_ANALOG_RAW*%
X119050000Y-80050000D02*
X121000000Y-82000000D01*
X121000000Y-82000000D02*
X123000000Y-82000000D01*
X119050000Y-78190000D02*
X119050000Y-80050000D01*
%TO.N,GND*%
X109000000Y-97810000D02*
X110290000Y-99100000D01*
X121520000Y-99100000D02*
X123000000Y-97620000D01*
X110290000Y-99100000D02*
X121520000Y-99100000D01*
%TO.N,Net-(R2-Pad1)*%
X109000000Y-93000000D02*
X114000000Y-98000000D01*
X109000000Y-90190000D02*
X109000000Y-93000000D01*
%TO.N,/SOS_BUTTON*%
X123000000Y-77140000D02*
X128400000Y-82540000D01*
X123000000Y-75000000D02*
X123000000Y-77140000D01*
%TO.N,/MQ2_ANALOG_3V3*%
X109140000Y-80000000D02*
X109000000Y-80000000D01*
X109000000Y-80000000D02*
X109000000Y-86000000D01*
X117000000Y-74000000D02*
X118620000Y-72380000D01*
X110000000Y-87000000D02*
X117860000Y-87000000D01*
X117860000Y-87000000D02*
X119050000Y-85810000D01*
X118620000Y-72380000D02*
X128400000Y-72380000D01*
X117000000Y-83760000D02*
X117000000Y-74000000D01*
X119050000Y-85810000D02*
X117000000Y-83760000D01*
X109000000Y-86000000D02*
X110000000Y-87000000D01*
X110950000Y-78190000D02*
X109140000Y-80000000D01*
%TO.N,/Q1 COLLECTOR*%
X160650000Y-81895000D02*
X160650000Y-87390000D01*
X160650000Y-87390000D02*
X159500000Y-88540000D01*
X160000000Y-81245000D02*
X160650000Y-81895000D01*
X160000000Y-80640000D02*
X160150000Y-80790000D01*
X160000000Y-80640000D02*
X160000000Y-81245000D01*
%TO.N,Net-(R4-Pad1)*%
X115000000Y-81760000D02*
X110950000Y-85810000D01*
X115000000Y-78190000D02*
X115000000Y-81760000D01*
%TO.N,Net-(Q1-B)*%
X161270000Y-77540000D02*
X163000000Y-75810000D01*
X161270000Y-80640000D02*
X161270000Y-77540000D01*
%TO.N,/BUZZER_CTRL*%
X163000000Y-68190000D02*
X163000000Y-66568630D01*
X158621370Y-62190000D02*
X153790000Y-62190000D01*
X163000000Y-66568630D02*
X158621370Y-62190000D01*
%TO.N,/ULTRASONIC_TRIG*%
X123000000Y-92540000D02*
X124150000Y-93690000D01*
X150000000Y-91000000D02*
X150000000Y-81220000D01*
X127993654Y-99000000D02*
X142000000Y-99000000D01*
X124150000Y-95156346D02*
X127993654Y-99000000D01*
X142000000Y-99000000D02*
X150000000Y-91000000D01*
X124150000Y-93690000D02*
X124150000Y-95156346D01*
X150000000Y-81220000D02*
X153790000Y-77430000D01*
%TO.N,/ULTRASONIC_ECHO_RAW*%
X123000000Y-95080000D02*
X120270000Y-97810000D01*
X120270000Y-97810000D02*
X118000000Y-97810000D01*
%TO.N,+3.3V*%
X157000000Y-69705686D02*
X156000000Y-70705686D01*
X158476346Y-96690000D02*
X159150000Y-96016346D01*
X154850000Y-96690000D02*
X158476346Y-96690000D01*
X157000000Y-68000000D02*
X157000000Y-69705686D01*
X156000000Y-91000000D02*
X158000000Y-93000000D01*
X159150000Y-94150000D02*
X158000000Y-93000000D01*
X159000000Y-66000000D02*
X157000000Y-68000000D01*
X159150000Y-96016346D02*
X159150000Y-94150000D01*
X153790000Y-97750000D02*
X154850000Y-96690000D01*
X156000000Y-70705686D02*
X156000000Y-91000000D01*
%TO.N,/I2C_SDA*%
X157000000Y-64000000D02*
X156600000Y-64400000D01*
X160150000Y-69930000D02*
X160150000Y-64850000D01*
X156600000Y-69540000D02*
X153790000Y-72350000D01*
X156600000Y-64400000D02*
X156600000Y-69540000D01*
X160150000Y-64850000D02*
X159300000Y-64000000D01*
X159300000Y-64000000D02*
X157000000Y-64000000D01*
X159000000Y-71080000D02*
X160150000Y-69930000D01*
%TO.N,/I2C_SCL*%
X159465685Y-63600000D02*
X154920000Y-63600000D01*
X160550000Y-72070000D02*
X160550000Y-64684314D01*
X159000000Y-73620000D02*
X160550000Y-72070000D01*
X160550000Y-64684314D02*
X159465685Y-63600000D01*
X154920000Y-63600000D02*
X153790000Y-64730000D01*
%TO.N,/ULTRASONIC_ECHO_3V3*%
X117190000Y-90190000D02*
X117000000Y-90380000D01*
X117000000Y-90380000D02*
X114000000Y-90380000D01*
X114000000Y-90380000D02*
X111620000Y-88000000D01*
X115000000Y-71000000D02*
X149900000Y-71000000D01*
X114190000Y-90190000D02*
X114000000Y-90380000D01*
X111620000Y-88000000D02*
X109000000Y-88000000D01*
X149900000Y-71000000D02*
X153790000Y-74890000D01*
X109000000Y-88000000D02*
X108000000Y-87000000D01*
X118000000Y-90190000D02*
X117190000Y-90190000D01*
X108000000Y-78000000D02*
X115000000Y-71000000D01*
X108000000Y-87000000D02*
X108000000Y-78000000D01*
%TO.N,/DHT_DATA*%
X154940000Y-88740000D02*
X153790000Y-87590000D01*
X158000000Y-95540000D02*
X154940000Y-92480000D01*
X154940000Y-92480000D02*
X154940000Y-88740000D01*
%TD*%
M02*
