M48
; DRILL file KiCad 10.0.3 date 2026-10-03T19:37:52
; FORMAT={-:-/ absolute / metric / decimal}
; #@! TF.CreationDate,2026-10-03T19:37:52+05:30
; #@! TF.GenerationSoftware,Kicad,Pcbnew,10.0.3
; #@! TF.FileFunction,Plated,1,2,PTH
FMAT,2
METRIC
; #@! TA.AperFunction,Plated,PTH,ViaDrill
T1C0.300
; #@! TA.AperFunction,Plated,PTH,ComponentDrill
T2C0.750
; #@! TA.AperFunction,Plated,PTH,ComponentDrill
T3C0.800
; #@! TA.AperFunction,Plated,PTH,ComponentDrill
T4C1.000
%
G90
G05
T1
X132.0Y-97.5
X157.5Y-86.5
T2
X158.73Y-80.64
X160.0Y-80.64
X161.27Y-80.64
T3
X109.0Y-90.19
X109.0Y-97.81
X110.95Y-78.19
X110.95Y-85.81
X114.0Y-90.38
X114.0Y-98.0
X115.0Y-78.19
X115.0Y-85.81
X118.0Y-90.19
X118.0Y-97.81
X119.05Y-78.19
X119.05Y-85.81
X163.0Y-68.19
X163.0Y-75.81
T4
X120.46Y-75.0
X123.0Y-75.0
X123.0Y-79.46
X123.0Y-82.0
X123.0Y-84.54
X123.0Y-90.0
X123.0Y-92.54
X123.0Y-95.08
X123.0Y-97.62
X128.4Y-62.22
X128.4Y-64.76
X128.4Y-67.3
X128.4Y-69.84
X128.4Y-72.38
X128.4Y-74.92
X128.4Y-77.46
X128.4Y-80.0
X128.4Y-82.54
X128.4Y-85.08
X128.4Y-87.62
X128.4Y-90.16
X128.4Y-92.7
X128.4Y-95.24
X128.4Y-97.78
X153.79Y-62.19
X153.79Y-64.73
X153.79Y-67.27
X153.79Y-69.81
X153.79Y-72.35
X153.79Y-74.89
X153.79Y-77.43
X153.79Y-79.97
X153.79Y-82.51
X153.79Y-85.05
X153.79Y-87.59
X153.79Y-90.13
X153.79Y-92.67
X153.79Y-95.21
X153.79Y-97.75
X158.0Y-93.0
X158.0Y-95.54
X158.0Y-98.08
X159.0Y-66.0
X159.0Y-68.54
X159.0Y-71.08
X159.0Y-73.62
X159.0Y-76.16
X159.5Y-86.0
X159.5Y-88.54
M30
