%TF.GenerationSoftware,KiCad,Pcbnew,10.0.3*%
%TF.CreationDate,2026-10-03T20:08:13+05:30*%
%TF.ProjectId,Project-04-Predictive-Maintenance-system-PCB,50726f6a-6563-4742-9d30-342d50726564,rev?*%
%TF.SameCoordinates,Original*%
%TF.FileFunction,Copper,L4,Bot*%
%TF.FilePolarity,Positive*%
%FSLAX46Y46*%
G04 Gerber Fmt 4.6, Leading zero omitted, Abs format (unit mm)*
G04 Created by KiCad (PCBNEW 10.0.3) date 2026-10-03 20:08:13*
%MOMM*%
%LPD*%
G01*
G04 APERTURE LIST*
G04 Aperture macros list*
%AMRoundRect*
0 Rectangle with rounded corners*
0 $1 Rounding radius*
0 $2 $3 $4 $5 $6 $7 $8 $9 X,Y pos of 4 corners*
0 Add a 4 corners polygon primitive as box body*
4,1,4,$2,$3,$4,$5,$6,$7,$8,$9,$2,$3,0*
0 Add four circle primitives for the rounded corners*
1,1,$1+$1,$2,$3*
1,1,$1+$1,$4,$5*
1,1,$1+$1,$6,$7*
1,1,$1+$1,$8,$9*
0 Add four rect primitives between the rounded corners*
20,1,$1+$1,$2,$3,$4,$5,0*
20,1,$1+$1,$4,$5,$6,$7,0*
20,1,$1+$1,$6,$7,$8,$9,0*
20,1,$1+$1,$8,$9,$2,$3,0*%
G04 Aperture macros list end*
%TA.AperFunction,ComponentPad*%
%ADD10C,1.400000*%
%TD*%
%TA.AperFunction,ComponentPad*%
%ADD11R,1.800000X1.800000*%
%TD*%
%TA.AperFunction,ComponentPad*%
%ADD12C,1.800000*%
%TD*%
%TA.AperFunction,ComponentPad*%
%ADD13C,1.600000*%
%TD*%
%TA.AperFunction,ComponentPad*%
%ADD14RoundRect,0.249999X-0.850001X-0.850001X0.850001X-0.850001X0.850001X0.850001X-0.850001X0.850001X0*%
%TD*%
%TA.AperFunction,ComponentPad*%
%ADD15C,2.200000*%
%TD*%
%TA.AperFunction,ComponentPad*%
%ADD16R,1.524000X1.524000*%
%TD*%
%TA.AperFunction,ComponentPad*%
%ADD17C,1.524000*%
%TD*%
%TA.AperFunction,ComponentPad*%
%ADD18RoundRect,0.249999X0.850001X0.850001X-0.850001X0.850001X-0.850001X-0.850001X0.850001X-0.850001X0*%
%TD*%
%TA.AperFunction,ComponentPad*%
%ADD19C,1.440000*%
%TD*%
%TA.AperFunction,ComponentPad*%
%ADD20R,1.700000X1.700000*%
%TD*%
%TA.AperFunction,ComponentPad*%
%ADD21C,1.700000*%
%TD*%
%TA.AperFunction,ComponentPad*%
%ADD22R,1.905000X2.000000*%
%TD*%
%TA.AperFunction,ComponentPad*%
%ADD23O,1.905000X2.000000*%
%TD*%
%TA.AperFunction,ComponentPad*%
%ADD24RoundRect,0.249999X0.850001X-0.850001X0.850001X0.850001X-0.850001X0.850001X-0.850001X-0.850001X0*%
%TD*%
%TA.AperFunction,ViaPad*%
%ADD25C,0.600000*%
%TD*%
%TA.AperFunction,Conductor*%
%ADD26C,0.200000*%
%TD*%
G04 APERTURE END LIST*
D10*
%TO.P,R2,1*%
%TO.N,/SCL*%
X165862000Y-108356400D03*
%TO.P,R2,2*%
%TO.N,/+3V3*%
X165862000Y-113436400D03*
%TD*%
D11*
%TO.P,U4,1,SENSE_A_1*%
%TO.N,/GND*%
X145618200Y-69523200D03*
D12*
%TO.P,U4,2,OUT1_2*%
%TO.N,/OUT1*%
X144348200Y-74603200D03*
%TO.P,U4,3,OUT2_3*%
%TO.N,/OUT2*%
X143078200Y-69523200D03*
%TO.P,U4,4,Vs_4*%
%TO.N,/VS_MOTOR*%
X141808200Y-74603200D03*
%TO.P,U4,5,IN1_5*%
%TO.N,/IN1*%
X140538200Y-69523200D03*
%TO.P,U4,6,EnA_6*%
%TO.N,/ENA*%
X139268200Y-74603200D03*
%TO.P,U4,7,IN2_7*%
%TO.N,/IN2*%
X137998200Y-69523200D03*
%TO.P,U4,8,GND_8*%
%TO.N,/GND*%
X136728200Y-74603200D03*
%TO.P,U4,9,Vss_9*%
%TO.N,/+5V*%
X135458200Y-69523200D03*
%TO.P,U4,10,IN3_10*%
%TO.N,/IN3*%
X134188200Y-74603200D03*
%TO.P,U4,11,EnB_11*%
%TO.N,/ENB*%
X132918200Y-69523200D03*
%TO.P,U4,12,IN4_12*%
%TO.N,/IN4*%
X131648200Y-74603200D03*
%TO.P,U4,13,OUT3_13*%
%TO.N,/OUT3*%
X130378200Y-69523200D03*
%TO.P,U4,14,OUT4_14*%
%TO.N,/OUT4*%
X129108200Y-74603200D03*
%TO.P,U4,15,SENSE_B_15*%
%TO.N,/GND*%
X127838200Y-69523200D03*
%TD*%
D13*
%TO.P,C7,1*%
%TO.N,/+5V*%
X147345400Y-109290800D03*
%TO.P,C7,2*%
%TO.N,/GND*%
X147345400Y-111790800D03*
%TD*%
D14*
%TO.P,D12,1,K_1*%
%TO.N,/OUT4*%
X153187400Y-78155800D03*
D15*
%TO.P,D12,2,A_2*%
%TO.N,/GND*%
X160807400Y-78155800D03*
%TD*%
D16*
%TO.P,U5,J1_1,GND_J1_1_J1_1*%
%TO.N,/GND*%
X127730500Y-105310000D03*
D17*
%TO.P,U5,J1_2,VCC_3V3_J1_2*%
%TO.N,/+3V3*%
X130270500Y-105310000D03*
%TO.P,U5,J1_3,GPI36_J1_3*%
%TO.N,unconnected-(U5-GPI36-PadJ1_3)*%
X132810500Y-105310000D03*
%TO.P,U5,J1_4,GPI37_J1_4*%
%TO.N,unconnected-(U5-GPI37-PadJ1_4)*%
X135350500Y-105310000D03*
%TO.P,U5,J1_5,GPI38_J1_5*%
%TO.N,unconnected-(U5-GPI38-PadJ1_5)*%
X137890500Y-105310000D03*
%TO.P,U5,J1_6,GPI39_J1_6*%
%TO.N,unconnected-(U5-GPI39-PadJ1_6)*%
X140430500Y-105310000D03*
%TO.P,U5,J1_7,ESP_RST_J1_7*%
%TO.N,unconnected-(U5-ESP_RST-PadJ1_7)*%
X142970500Y-105310000D03*
%TO.P,U5,J1_8,GPI34_J1_8*%
%TO.N,/LMOUT*%
X145510500Y-105310000D03*
%TO.P,U5,J1_9,GPI35_J1_9*%
%TO.N,/ACSOUT*%
X148050500Y-105310000D03*
%TO.P,U5,J1_10,GPIO32_J1_10*%
%TO.N,/IN1*%
X150590500Y-105310000D03*
%TO.P,U5,J1_11,GPIO33_J1_11*%
%TO.N,/ENA*%
X153130500Y-105310000D03*
%TO.P,U5,J1_12,GPIO25_J1_12*%
%TO.N,/D7*%
X155670500Y-105310000D03*
%TO.P,U5,J1_13,GPIO26_J1_13*%
%TO.N,/D6*%
X158210500Y-105310000D03*
%TO.P,U5,J1_14,GPIO27_J1_14*%
%TO.N,/D5*%
X160750500Y-105310000D03*
%TO.P,U5,J1_15,GPIO14_J1_15*%
%TO.N,/D4*%
X163290500Y-105310000D03*
%TO.P,U5,J1_16,VCC_5V_J1_16*%
%TO.N,/+5V*%
X165830500Y-105310000D03*
%TO.P,U5,J1_17,GND_J1_17_J1_17*%
%TO.N,unconnected-(U5-GND_J1_17-PadJ1_17)*%
X168370500Y-105310000D03*
%TO.P,U5,J3_1,GND_J3_1_J3_1*%
%TO.N,unconnected-(U5-GND_J3_1-PadJ3_1)*%
X127730500Y-82450000D03*
%TO.P,U5,J3_2,U0RXD_J3_2*%
%TO.N,unconnected-(U5-U0RXD-PadJ3_2)*%
X130270500Y-82450000D03*
%TO.P,U5,J3_3,U0TXD_J3_3*%
%TO.N,unconnected-(U5-U0TXD-PadJ3_3)*%
X132810500Y-82450000D03*
%TO.P,U5,J3_4,GPIO21_J3_4*%
%TO.N,/SDA*%
X135350500Y-82450000D03*
%TO.P,U5,J3_5,GPIO22_J3_5*%
%TO.N,/SCL*%
X137890500Y-82450000D03*
%TO.P,U5,J3_6,GPIO19_J3_6*%
%TO.N,/IN3*%
X140430500Y-82450000D03*
%TO.P,U5,J3_7,GPIO23_J3_7*%
%TO.N,/IN2*%
X142970500Y-82450000D03*
%TO.P,U5,J3_8,GPIO18_J3_8*%
%TO.N,/EN*%
X145510500Y-82450000D03*
%TO.P,U5,J3_9,GPIO5_J3_9*%
%TO.N,/IN4*%
X148050500Y-82450000D03*
%TO.P,U5,J3_10,GPIO10_J3_10*%
%TO.N,unconnected-(U5-GPIO10-PadJ3_10)*%
X150590500Y-82450000D03*
%TO.P,U5,J3_11,GPIO9_J3_11*%
%TO.N,unconnected-(U5-GPIO9-PadJ3_11)*%
X153130500Y-82450000D03*
%TO.P,U5,J3_12,GPIO4_J3_12*%
%TO.N,unconnected-(U5-GPIO4-PadJ3_12)*%
X155670500Y-82450000D03*
%TO.P,U5,J3_13,GPIO0_J3_13*%
%TO.N,unconnected-(U5-GPIO0-PadJ3_13)*%
X158210500Y-82450000D03*
%TO.P,U5,J3_14,GPIO2_J3_14*%
%TO.N,/ENB*%
X160750500Y-82450000D03*
%TO.P,U5,J3_15,GPIO15_J3_15*%
%TO.N,unconnected-(U5-GPIO15-PadJ3_15)*%
X163290500Y-82450000D03*
%TO.P,U5,J3_16,GPIO13_J3_16*%
%TO.N,/RS*%
X165830500Y-82450000D03*
%TO.P,U5,J3_17,GPIO12_J3_17*%
%TO.N,unconnected-(U5-GPIO12-PadJ3_17)*%
X168370500Y-82450000D03*
%TD*%
D18*
%TO.P,D5,1,K_1*%
%TO.N,/VS_MOTOR*%
X135280400Y-65024000D03*
D15*
%TO.P,D5,2,A_2*%
%TO.N,/OUT1*%
X127660400Y-65024000D03*
%TD*%
D13*
%TO.P,C1,1*%
%TO.N,Net-(U3-CPOUT)*%
X155321000Y-108585000D03*
%TO.P,C1,2*%
%TO.N,/GND*%
X155321000Y-111085000D03*
%TD*%
D19*
%TO.P,RV1,1,1_1*%
%TO.N,/+5V*%
X165125400Y-61803200D03*
%TO.P,RV1,2,2_2*%
%TO.N,Net-(J1-Pin_3)*%
X167665400Y-61803200D03*
%TO.P,RV1,3,3_3*%
%TO.N,/GND*%
X170205400Y-61803200D03*
%TD*%
D13*
%TO.P,C6,1*%
%TO.N,/GND*%
X143174400Y-115722400D03*
%TO.P,C6,2*%
%TO.N,Net-(U6-FILTER)*%
X145674400Y-115722400D03*
%TD*%
D14*
%TO.P,D6,1,K_1*%
%TO.N,/VS_MOTOR*%
X138277600Y-64795400D03*
D15*
%TO.P,D6,2,A_2*%
%TO.N,/OUT2*%
X145897600Y-64795400D03*
%TD*%
D10*
%TO.P,R3,1*%
%TO.N,Net-(J1-Pin_15)*%
X171170600Y-70815200D03*
%TO.P,R3,2*%
%TO.N,/+5V*%
X171170600Y-65735200D03*
%TD*%
D13*
%TO.P,C4,1*%
%TO.N,/+3V3*%
X149682200Y-115747800D03*
%TO.P,C4,2*%
%TO.N,/GND*%
X152182200Y-115747800D03*
%TD*%
D20*
%TO.P,J3,1,Pin_1_1*%
%TO.N,/OUT1*%
X149504400Y-75712400D03*
D21*
%TO.P,J3,2,Pin_2_2*%
%TO.N,/OUT2*%
X149504400Y-78252400D03*
%TD*%
D14*
%TO.P,D9,1,K_1*%
%TO.N,/VS_MOTOR*%
X153085800Y-63474600D03*
D15*
%TO.P,D9,2,A_2*%
%TO.N,/OUT3*%
X160705800Y-63474600D03*
%TD*%
D20*
%TO.P,J4,1,Pin_1_1*%
%TO.N,/OUT3*%
X124028200Y-74701400D03*
D21*
%TO.P,J4,2,Pin_2_2*%
%TO.N,/OUT4*%
X124028200Y-77241400D03*
%TD*%
D13*
%TO.P,C8,1*%
%TO.N,/GND*%
X149225000Y-71227000D03*
%TO.P,C8,2*%
%TO.N,/+5V*%
X149225000Y-68727000D03*
%TD*%
D22*
%TO.P,U1,1,+V_{S}_1*%
%TO.N,/+3V3*%
X129184400Y-111236800D03*
D23*
%TO.P,U1,2,GND_2*%
%TO.N,/GND*%
X131724400Y-111236800D03*
%TO.P,U1,3,V_{OUT}_3*%
%TO.N,/LMOUT*%
X134264400Y-111236800D03*
%TD*%
D10*
%TO.P,R1,1*%
%TO.N,/+3V3*%
X151384000Y-113284000D03*
%TO.P,R1,2*%
%TO.N,/SDA*%
X151384000Y-108204000D03*
%TD*%
D20*
%TO.P,J2,1,+12V_1*%
%TO.N,/+12V*%
X135732600Y-115316000D03*
D21*
%TO.P,J2,2,GND_2*%
%TO.N,/GND*%
X138272600Y-115316000D03*
%TD*%
D13*
%TO.P,C5,1*%
%TO.N,/+3V3*%
X128188400Y-115366800D03*
%TO.P,C5,2*%
%TO.N,/GND*%
X130688400Y-115366800D03*
%TD*%
D14*
%TO.P,D8,1,K_1*%
%TO.N,/OUT2*%
X138226800Y-60706000D03*
D15*
%TO.P,D8,2,A_2*%
%TO.N,/GND*%
X145846800Y-60706000D03*
%TD*%
D14*
%TO.P,D11,1,K_1*%
%TO.N,/OUT3*%
X153060400Y-72872600D03*
D15*
%TO.P,D11,2,A_2*%
%TO.N,/GND*%
X160680400Y-72872600D03*
%TD*%
D14*
%TO.P,D10,1,K_1*%
%TO.N,/VS_MOTOR*%
X153009600Y-68275200D03*
D15*
%TO.P,D10,2,A_2*%
%TO.N,/OUT4*%
X160629600Y-68275200D03*
%TD*%
D13*
%TO.P,C10,1*%
%TO.N,/+5V*%
X171323000Y-79685200D03*
%TO.P,C10,2*%
%TO.N,/GND*%
X171323000Y-77185200D03*
%TD*%
D24*
%TO.P,D7,1,K_1*%
%TO.N,/OUT1*%
X124002800Y-70104000D03*
D15*
%TO.P,D7,2,A_2*%
%TO.N,/GND*%
X124002800Y-62484000D03*
%TD*%
D13*
%TO.P,C2,1*%
%TO.N,Net-(U3-REGOUT)*%
X155671200Y-115366800D03*
%TO.P,C2,2*%
%TO.N,/GND*%
X158171200Y-115366800D03*
%TD*%
%TO.P,C9,1*%
%TO.N,/VS_MOTOR*%
X149148800Y-65105600D03*
%TO.P,C9,2*%
%TO.N,/GND*%
X149148800Y-62605600D03*
%TD*%
%TO.P,C3,1*%
%TO.N,/+3V3*%
X163606800Y-115671600D03*
%TO.P,C3,2*%
%TO.N,/GND*%
X161106800Y-115671600D03*
%TD*%
D25*
%TO.N,/SCL*%
X163372800Y-99542600D03*
%TO.N,/+3V3*%
X147370800Y-113461800D03*
X129971800Y-113461800D03*
%TO.N,/GND*%
X164582400Y-111048800D03*
X162560000Y-114198400D03*
X154300000Y-113900000D03*
%TO.N,/OUT1*%
X125399800Y-72186800D03*
X126771400Y-67716400D03*
%TO.N,/VS_MOTOR*%
X142951200Y-77571600D03*
X141528800Y-109804200D03*
%TO.N,/IN1*%
X147345400Y-71323200D03*
%TO.N,/ENA*%
X141908500Y-92913200D03*
X140233400Y-77089000D03*
%TO.N,/IN2*%
X142951200Y-80518000D03*
X140840327Y-72786800D03*
%TO.N,/+5V*%
X156718000Y-65582800D03*
X163100000Y-70200000D03*
X165368500Y-78500000D03*
%TO.N,/IN3*%
X134950200Y-78028800D03*
X139954000Y-80162400D03*
%TO.N,/D7*%
X166166800Y-69367400D03*
X169291000Y-93014800D03*
%TO.N,/D6*%
X166014400Y-75844400D03*
%TO.N,/D5*%
X166103300Y-71767700D03*
%TO.N,/D4*%
X166471600Y-76657200D03*
X159994600Y-102031800D03*
%TO.N,/SDA*%
X146253200Y-101930200D03*
%TO.N,Net-(U3-CPOUT)*%
X163982400Y-108737400D03*
X156794200Y-109474000D03*
%TO.N,Net-(J1-Pin_15)*%
X168249600Y-64820800D03*
%TD*%
%TO.N,/SCL*%
D26*
X167308500Y-106188372D02*
X165862000Y-107634872D01*
X163372800Y-99542600D02*
X167308500Y-103478300D01*
X165862000Y-107634872D02*
X165862000Y-108356400D01*
X167308500Y-103478300D02*
X167308500Y-106188372D01*
%TO.N,/+3V3*%
X147370800Y-113461800D02*
X147396200Y-113461800D01*
%TO.N,/OUT1*%
X126638200Y-67849600D02*
X126638200Y-70020257D01*
X144348200Y-72593200D02*
X144348200Y-74603200D01*
X143560800Y-71704200D02*
X144348200Y-72491600D01*
X125399800Y-72186800D02*
X141931800Y-72186800D01*
X128322143Y-71704200D02*
X143560800Y-71704200D01*
X144348200Y-72491600D02*
X144348200Y-72593200D01*
X126771400Y-67716400D02*
X126638200Y-67849600D01*
X141931800Y-72186800D02*
X144348200Y-74603200D01*
X126638200Y-70020257D02*
X128322143Y-71704200D01*
%TO.N,/VS_MOTOR*%
X141528800Y-105249805D02*
X141528800Y-109804200D01*
X144032500Y-78652900D02*
X144032500Y-102746105D01*
X142951200Y-77571600D02*
X144032500Y-78652900D01*
X144032500Y-102746105D02*
X141528800Y-105249805D01*
%TO.N,/IN1*%
X146913600Y-71755000D02*
X146913600Y-101633100D01*
X147345400Y-71323200D02*
X146913600Y-71755000D01*
X146913600Y-101633100D02*
X150590500Y-105310000D01*
%TO.N,/ENA*%
X141908500Y-92913200D02*
X141908500Y-78764100D01*
X141908500Y-78764100D02*
X140233400Y-77089000D01*
X141908500Y-92913200D02*
X141908500Y-94088000D01*
%TO.N,/IN2*%
X140608200Y-76615271D02*
X142951200Y-78958271D01*
X140608200Y-73717000D02*
X140608200Y-76615271D01*
X140840327Y-73484873D02*
X140608200Y-73717000D01*
X140840327Y-72786800D02*
X140840327Y-73484873D01*
X142951200Y-78958271D02*
X142951200Y-80518000D01*
%TO.N,/+5V*%
X152369200Y-65582800D02*
X149225000Y-68727000D01*
X156718000Y-65582800D02*
X152369200Y-65582800D01*
%TO.N,/IN3*%
X137820400Y-78028800D02*
X139954000Y-80162400D01*
X134950200Y-78028800D02*
X137820400Y-78028800D01*
%TO.N,/D7*%
X166166800Y-69367400D02*
X170078400Y-73279000D01*
X169291000Y-93014800D02*
X169291000Y-91689500D01*
X170078400Y-73279000D02*
X170078400Y-90902100D01*
X169291000Y-91689500D02*
X170078400Y-90902100D01*
%TO.N,/D6*%
X164768500Y-94387700D02*
X158210500Y-100945700D01*
X158210500Y-100945700D02*
X158210500Y-105310000D01*
X164768500Y-77090300D02*
X164768500Y-94387700D01*
X166014400Y-75844400D02*
X164768500Y-77090300D01*
%TO.N,/D5*%
X169432500Y-75096900D02*
X169432500Y-90866700D01*
X169432500Y-90866700D02*
X160750500Y-99548700D01*
X166103300Y-71767700D02*
X169432500Y-75096900D01*
X160750500Y-99548700D02*
X160750500Y-105310000D01*
%TO.N,/D4*%
X159283400Y-100450114D02*
X167069280Y-92664234D01*
X167069280Y-92664234D02*
X167069280Y-79944000D01*
X159283400Y-101320600D02*
X159283400Y-100450114D01*
X167699000Y-79314280D02*
X167699000Y-77884600D01*
X159994600Y-102031800D02*
X159283400Y-101320600D01*
X167069280Y-79944000D02*
X167699000Y-79314280D01*
X167699000Y-77884600D02*
X166471600Y-76657200D01*
%TO.N,/SDA*%
X149128595Y-105948595D02*
X151384000Y-108204000D01*
X146253200Y-101930200D02*
X149128595Y-104805595D01*
X149128595Y-104805595D02*
X149128595Y-105948595D01*
%TO.N,Net-(J1-Pin_15)*%
X171999400Y-64735200D02*
X172620292Y-65356092D01*
X172615833Y-69369967D02*
X171170600Y-70815200D01*
X172620182Y-65455774D02*
X172615833Y-69369967D01*
X172620292Y-65356092D02*
X172620182Y-65455774D01*
X168249600Y-64820800D02*
X168335200Y-64735200D01*
X168335200Y-64735200D02*
X171999400Y-64735200D01*
%TD*%
M02*
