%TF.GenerationSoftware,KiCad,Pcbnew,10.0.3*%
%TF.CreationDate,2026-10-03T20:08:13+05:30*%
%TF.ProjectId,Project-04-Predictive-Maintenance-system-PCB,50726f6a-6563-4742-9d30-342d50726564,rev?*%
%TF.SameCoordinates,Original*%
%TF.FileFunction,Soldermask,Bot*%
%TF.FilePolarity,Negative*%
%FSLAX46Y46*%
G04 Gerber Fmt 4.6, Leading zero omitted, Abs format (unit mm)*
G04 Created by KiCad (PCBNEW 10.0.3) date 2026-10-03 20:08:13*
%MOMM*%
%LPD*%
G01*
G04 APERTURE LIST*
G04 Aperture macros list*
%AMRoundRect*
0 Rectangle with rounded corners*
0 $1 Rounding radius*
0 $2 $3 $4 $5 $6 $7 $8 $9 X,Y pos of 4 corners*
0 Add a 4 corners polygon primitive as box body*
4,1,4,$2,$3,$4,$5,$6,$7,$8,$9,$2,$3,0*
0 Add four circle primitives for the rounded corners*
1,1,$1+$1,$2,$3*
1,1,$1+$1,$4,$5*
1,1,$1+$1,$6,$7*
1,1,$1+$1,$8,$9*
0 Add four rect primitives between the rounded corners*
20,1,$1+$1,$2,$3,$4,$5,0*
20,1,$1+$1,$4,$5,$6,$7,0*
20,1,$1+$1,$6,$7,$8,$9,0*
20,1,$1+$1,$8,$9,$2,$3,0*%
G04 Aperture macros list end*
%ADD10C,1.400000*%
%ADD11R,1.800000X1.800000*%
%ADD12C,1.800000*%
%ADD13C,1.600000*%
%ADD14RoundRect,0.249999X-0.850001X-0.850001X0.850001X-0.850001X0.850001X0.850001X-0.850001X0.850001X0*%
%ADD15C,2.200000*%
%ADD16RoundRect,0.102000X0.762000X-0.762000X0.762000X0.762000X-0.762000X0.762000X-0.762000X-0.762000X0*%
%ADD17C,1.728000*%
%ADD18RoundRect,0.249999X0.850001X0.850001X-0.850001X0.850001X-0.850001X-0.850001X0.850001X-0.850001X0*%
%ADD19C,1.440000*%
%ADD20R,1.700000X1.700000*%
%ADD21C,1.700000*%
%ADD22C,1.450000*%
%ADD23R,1.905000X2.000000*%
%ADD24O,1.905000X2.000000*%
%ADD25RoundRect,0.249999X0.850001X-0.850001X0.850001X0.850001X-0.850001X0.850001X-0.850001X-0.850001X0*%
G04 APERTURE END LIST*
D10*
%TO.C,R2*%
X165862000Y-108356400D03*
X165862000Y-113436400D03*
%TD*%
D11*
%TO.C,U4*%
X145618200Y-69523200D03*
D12*
X144348200Y-74603200D03*
X143078200Y-69523200D03*
X141808200Y-74603200D03*
X140538200Y-69523200D03*
X139268200Y-74603200D03*
X137998200Y-69523200D03*
X136728200Y-74603200D03*
X135458200Y-69523200D03*
X134188200Y-74603200D03*
X132918200Y-69523200D03*
X131648200Y-74603200D03*
X130378200Y-69523200D03*
X129108200Y-74603200D03*
X127838200Y-69523200D03*
%TD*%
D13*
%TO.C,C7*%
X147345400Y-109290800D03*
X147345400Y-111790800D03*
%TD*%
D14*
%TO.C,D12*%
X153187400Y-78155800D03*
D15*
X160807400Y-78155800D03*
%TD*%
D16*
%TO.C,U5*%
X127730500Y-105310000D03*
D17*
X130270500Y-105310000D03*
X132810500Y-105310000D03*
X135350500Y-105310000D03*
X137890500Y-105310000D03*
X140430500Y-105310000D03*
X142970500Y-105310000D03*
X145510500Y-105310000D03*
X148050500Y-105310000D03*
X150590500Y-105310000D03*
X153130500Y-105310000D03*
X155670500Y-105310000D03*
X158210500Y-105310000D03*
X160750500Y-105310000D03*
X163290500Y-105310000D03*
X165830500Y-105310000D03*
X168370500Y-105310000D03*
X127730500Y-82450000D03*
X130270500Y-82450000D03*
X132810500Y-82450000D03*
X135350500Y-82450000D03*
X137890500Y-82450000D03*
X140430500Y-82450000D03*
X142970500Y-82450000D03*
X145510500Y-82450000D03*
X148050500Y-82450000D03*
X150590500Y-82450000D03*
X153130500Y-82450000D03*
X155670500Y-82450000D03*
X158210500Y-82450000D03*
X160750500Y-82450000D03*
X163290500Y-82450000D03*
X165830500Y-82450000D03*
X168370500Y-82450000D03*
%TD*%
D18*
%TO.C,D5*%
X135280400Y-65024000D03*
D15*
X127660400Y-65024000D03*
%TD*%
D13*
%TO.C,C1*%
X155321000Y-108585000D03*
X155321000Y-111085000D03*
%TD*%
D19*
%TO.C,RV1*%
X165125400Y-61803200D03*
X167665400Y-61803200D03*
X170205400Y-61803200D03*
%TD*%
D13*
%TO.C,C6*%
X143174400Y-115722400D03*
X145674400Y-115722400D03*
%TD*%
D14*
%TO.C,D6*%
X138277600Y-64795400D03*
D15*
X145897600Y-64795400D03*
%TD*%
D10*
%TO.C,R3*%
X171170600Y-70815200D03*
X171170600Y-65735200D03*
%TD*%
D13*
%TO.C,C4*%
X149682200Y-115747800D03*
X152182200Y-115747800D03*
%TD*%
D20*
%TO.C,J3*%
X149504400Y-75712400D03*
D21*
X149504400Y-78252400D03*
%TD*%
D14*
%TO.C,D9*%
X153085800Y-63474600D03*
D15*
X160705800Y-63474600D03*
%TD*%
D20*
%TO.C,J4*%
X124028200Y-74701400D03*
D21*
X124028200Y-77241400D03*
%TD*%
D22*
%TO.C,J1*%
X166624000Y-78869000D03*
X167624000Y-66419000D03*
%TD*%
D13*
%TO.C,C8*%
X149225000Y-71227000D03*
X149225000Y-68727000D03*
%TD*%
D23*
%TO.C,U1*%
X129184400Y-111236800D03*
D24*
X131724400Y-111236800D03*
X134264400Y-111236800D03*
%TD*%
D10*
%TO.C,R1*%
X151384000Y-113284000D03*
X151384000Y-108204000D03*
%TD*%
D20*
%TO.C,J2*%
X135732600Y-115316000D03*
D21*
X138272600Y-115316000D03*
%TD*%
D13*
%TO.C,C5*%
X128188400Y-115366800D03*
X130688400Y-115366800D03*
%TD*%
D14*
%TO.C,D8*%
X138226800Y-60706000D03*
D15*
X145846800Y-60706000D03*
%TD*%
D14*
%TO.C,D11*%
X153060400Y-72872600D03*
D15*
X160680400Y-72872600D03*
%TD*%
D14*
%TO.C,D10*%
X153009600Y-68275200D03*
D15*
X160629600Y-68275200D03*
%TD*%
D13*
%TO.C,C10*%
X171323000Y-79685200D03*
X171323000Y-77185200D03*
%TD*%
D25*
%TO.C,D7*%
X124002800Y-70104000D03*
D15*
X124002800Y-62484000D03*
%TD*%
D13*
%TO.C,C2*%
X155671200Y-115366800D03*
X158171200Y-115366800D03*
%TD*%
%TO.C,C9*%
X149148800Y-65105600D03*
X149148800Y-62605600D03*
%TD*%
%TO.C,C3*%
X163606800Y-115671600D03*
X161106800Y-115671600D03*
%TD*%
M02*
