%TF.GenerationSoftware,KiCad,Pcbnew,10.0.3*%
%TF.CreationDate,2026-10-03T20:08:13+05:30*%
%TF.ProjectId,Project-04-Predictive-Maintenance-system-PCB,50726f6a-6563-4742-9d30-342d50726564,rev?*%
%TF.SameCoordinates,Original*%
%TF.FileFunction,Copper,L1,Top*%
%TF.FilePolarity,Positive*%
%FSLAX46Y46*%
G04 Gerber Fmt 4.6, Leading zero omitted, Abs format (unit mm)*
G04 Created by KiCad (PCBNEW 10.0.3) date 2026-10-03 20:08:13*
%MOMM*%
%LPD*%
G01*
G04 APERTURE LIST*
G04 Aperture macros list*
%AMRoundRect*
0 Rectangle with rounded corners*
0 $1 Rounding radius*
0 $2 $3 $4 $5 $6 $7 $8 $9 X,Y pos of 4 corners*
0 Add a 4 corners polygon primitive as box body*
4,1,4,$2,$3,$4,$5,$6,$7,$8,$9,$2,$3,0*
0 Add four circle primitives for the rounded corners*
1,1,$1+$1,$2,$3*
1,1,$1+$1,$4,$5*
1,1,$1+$1,$6,$7*
1,1,$1+$1,$8,$9*
0 Add four rect primitives between the rounded corners*
20,1,$1+$1,$2,$3,$4,$5,0*
20,1,$1+$1,$4,$5,$6,$7,0*
20,1,$1+$1,$6,$7,$8,$9,0*
20,1,$1+$1,$8,$9,$2,$3,0*%
G04 Aperture macros list end*
%TA.AperFunction,ComponentPad*%
%ADD10C,1.400000*%
%TD*%
%TA.AperFunction,ComponentPad*%
%ADD11R,1.800000X1.800000*%
%TD*%
%TA.AperFunction,ComponentPad*%
%ADD12C,1.800000*%
%TD*%
%TA.AperFunction,ComponentPad*%
%ADD13C,1.600000*%
%TD*%
%TA.AperFunction,ComponentPad*%
%ADD14RoundRect,0.249999X-0.850001X-0.850001X0.850001X-0.850001X0.850001X0.850001X-0.850001X0.850001X0*%
%TD*%
%TA.AperFunction,ComponentPad*%
%ADD15C,2.200000*%
%TD*%
%TA.AperFunction,ComponentPad*%
%ADD16R,1.524000X1.524000*%
%TD*%
%TA.AperFunction,ComponentPad*%
%ADD17C,1.524000*%
%TD*%
%TA.AperFunction,ComponentPad*%
%ADD18RoundRect,0.249999X0.850001X0.850001X-0.850001X0.850001X-0.850001X-0.850001X0.850001X-0.850001X0*%
%TD*%
%TA.AperFunction,ComponentPad*%
%ADD19C,1.440000*%
%TD*%
%TA.AperFunction,SMDPad,CuDef*%
%ADD20RoundRect,0.150000X-0.825000X-0.150000X0.825000X-0.150000X0.825000X0.150000X-0.825000X0.150000X0*%
%TD*%
%TA.AperFunction,ComponentPad*%
%ADD21R,1.700000X1.700000*%
%TD*%
%TA.AperFunction,ComponentPad*%
%ADD22C,1.700000*%
%TD*%
%TA.AperFunction,SMDPad,CuDef*%
%ADD23R,1.350000X0.660000*%
%TD*%
%TA.AperFunction,ComponentPad*%
%ADD24R,1.905000X2.000000*%
%TD*%
%TA.AperFunction,ComponentPad*%
%ADD25O,1.905000X2.000000*%
%TD*%
%TA.AperFunction,SMDPad,CuDef*%
%ADD26RoundRect,0.075000X-0.350000X-0.075000X0.350000X-0.075000X0.350000X0.075000X-0.350000X0.075000X0*%
%TD*%
%TA.AperFunction,SMDPad,CuDef*%
%ADD27RoundRect,0.075000X0.075000X-0.350000X0.075000X0.350000X-0.075000X0.350000X-0.075000X-0.350000X0*%
%TD*%
%TA.AperFunction,ComponentPad*%
%ADD28RoundRect,0.249999X0.850001X-0.850001X0.850001X0.850001X-0.850001X0.850001X-0.850001X-0.850001X0*%
%TD*%
%TA.AperFunction,ViaPad*%
%ADD29C,0.600000*%
%TD*%
%TA.AperFunction,Conductor*%
%ADD30C,0.200000*%
%TD*%
G04 APERTURE END LIST*
D10*
%TO.P,R2,1*%
%TO.N,/SCL*%
X165862000Y-108356400D03*
%TO.P,R2,2*%
%TO.N,/+3V3*%
X165862000Y-113436400D03*
%TD*%
D11*
%TO.P,U4,1,SENSE_A_1*%
%TO.N,/GND*%
X145618200Y-69523200D03*
D12*
%TO.P,U4,2,OUT1_2*%
%TO.N,/OUT1*%
X144348200Y-74603200D03*
%TO.P,U4,3,OUT2_3*%
%TO.N,/OUT2*%
X143078200Y-69523200D03*
%TO.P,U4,4,Vs_4*%
%TO.N,/VS_MOTOR*%
X141808200Y-74603200D03*
%TO.P,U4,5,IN1_5*%
%TO.N,/IN1*%
X140538200Y-69523200D03*
%TO.P,U4,6,EnA_6*%
%TO.N,/ENA*%
X139268200Y-74603200D03*
%TO.P,U4,7,IN2_7*%
%TO.N,/IN2*%
X137998200Y-69523200D03*
%TO.P,U4,8,GND_8*%
%TO.N,/GND*%
X136728200Y-74603200D03*
%TO.P,U4,9,Vss_9*%
%TO.N,/+5V*%
X135458200Y-69523200D03*
%TO.P,U4,10,IN3_10*%
%TO.N,/IN3*%
X134188200Y-74603200D03*
%TO.P,U4,11,EnB_11*%
%TO.N,/ENB*%
X132918200Y-69523200D03*
%TO.P,U4,12,IN4_12*%
%TO.N,/IN4*%
X131648200Y-74603200D03*
%TO.P,U4,13,OUT3_13*%
%TO.N,/OUT3*%
X130378200Y-69523200D03*
%TO.P,U4,14,OUT4_14*%
%TO.N,/OUT4*%
X129108200Y-74603200D03*
%TO.P,U4,15,SENSE_B_15*%
%TO.N,/GND*%
X127838200Y-69523200D03*
%TD*%
D13*
%TO.P,C7,1*%
%TO.N,/+5V*%
X147345400Y-109290800D03*
%TO.P,C7,2*%
%TO.N,/GND*%
X147345400Y-111790800D03*
%TD*%
D14*
%TO.P,D12,1,K_1*%
%TO.N,/OUT4*%
X153187400Y-78155800D03*
D15*
%TO.P,D12,2,A_2*%
%TO.N,/GND*%
X160807400Y-78155800D03*
%TD*%
D16*
%TO.P,U5,J1_1,GND_J1_1_J1_1*%
%TO.N,/GND*%
X127730500Y-105310000D03*
D17*
%TO.P,U5,J1_2,VCC_3V3_J1_2*%
%TO.N,/+3V3*%
X130270500Y-105310000D03*
%TO.P,U5,J1_3,GPI36_J1_3*%
%TO.N,unconnected-(U5-GPI36-PadJ1_3)*%
X132810500Y-105310000D03*
%TO.P,U5,J1_4,GPI37_J1_4*%
%TO.N,unconnected-(U5-GPI37-PadJ1_4)*%
X135350500Y-105310000D03*
%TO.P,U5,J1_5,GPI38_J1_5*%
%TO.N,unconnected-(U5-GPI38-PadJ1_5)*%
X137890500Y-105310000D03*
%TO.P,U5,J1_6,GPI39_J1_6*%
%TO.N,unconnected-(U5-GPI39-PadJ1_6)*%
X140430500Y-105310000D03*
%TO.P,U5,J1_7,ESP_RST_J1_7*%
%TO.N,unconnected-(U5-ESP_RST-PadJ1_7)*%
X142970500Y-105310000D03*
%TO.P,U5,J1_8,GPI34_J1_8*%
%TO.N,/LMOUT*%
X145510500Y-105310000D03*
%TO.P,U5,J1_9,GPI35_J1_9*%
%TO.N,/ACSOUT*%
X148050500Y-105310000D03*
%TO.P,U5,J1_10,GPIO32_J1_10*%
%TO.N,/IN1*%
X150590500Y-105310000D03*
%TO.P,U5,J1_11,GPIO33_J1_11*%
%TO.N,/ENA*%
X153130500Y-105310000D03*
%TO.P,U5,J1_12,GPIO25_J1_12*%
%TO.N,/D7*%
X155670500Y-105310000D03*
%TO.P,U5,J1_13,GPIO26_J1_13*%
%TO.N,/D6*%
X158210500Y-105310000D03*
%TO.P,U5,J1_14,GPIO27_J1_14*%
%TO.N,/D5*%
X160750500Y-105310000D03*
%TO.P,U5,J1_15,GPIO14_J1_15*%
%TO.N,/D4*%
X163290500Y-105310000D03*
%TO.P,U5,J1_16,VCC_5V_J1_16*%
%TO.N,/+5V*%
X165830500Y-105310000D03*
%TO.P,U5,J1_17,GND_J1_17_J1_17*%
%TO.N,unconnected-(U5-GND_J1_17-PadJ1_17)*%
X168370500Y-105310000D03*
%TO.P,U5,J3_1,GND_J3_1_J3_1*%
%TO.N,unconnected-(U5-GND_J3_1-PadJ3_1)*%
X127730500Y-82450000D03*
%TO.P,U5,J3_2,U0RXD_J3_2*%
%TO.N,unconnected-(U5-U0RXD-PadJ3_2)*%
X130270500Y-82450000D03*
%TO.P,U5,J3_3,U0TXD_J3_3*%
%TO.N,unconnected-(U5-U0TXD-PadJ3_3)*%
X132810500Y-82450000D03*
%TO.P,U5,J3_4,GPIO21_J3_4*%
%TO.N,/SDA*%
X135350500Y-82450000D03*
%TO.P,U5,J3_5,GPIO22_J3_5*%
%TO.N,/SCL*%
X137890500Y-82450000D03*
%TO.P,U5,J3_6,GPIO19_J3_6*%
%TO.N,/IN3*%
X140430500Y-82450000D03*
%TO.P,U5,J3_7,GPIO23_J3_7*%
%TO.N,/IN2*%
X142970500Y-82450000D03*
%TO.P,U5,J3_8,GPIO18_J3_8*%
%TO.N,/EN*%
X145510500Y-82450000D03*
%TO.P,U5,J3_9,GPIO5_J3_9*%
%TO.N,/IN4*%
X148050500Y-82450000D03*
%TO.P,U5,J3_10,GPIO10_J3_10*%
%TO.N,unconnected-(U5-GPIO10-PadJ3_10)*%
X150590500Y-82450000D03*
%TO.P,U5,J3_11,GPIO9_J3_11*%
%TO.N,unconnected-(U5-GPIO9-PadJ3_11)*%
X153130500Y-82450000D03*
%TO.P,U5,J3_12,GPIO4_J3_12*%
%TO.N,unconnected-(U5-GPIO4-PadJ3_12)*%
X155670500Y-82450000D03*
%TO.P,U5,J3_13,GPIO0_J3_13*%
%TO.N,unconnected-(U5-GPIO0-PadJ3_13)*%
X158210500Y-82450000D03*
%TO.P,U5,J3_14,GPIO2_J3_14*%
%TO.N,/ENB*%
X160750500Y-82450000D03*
%TO.P,U5,J3_15,GPIO15_J3_15*%
%TO.N,unconnected-(U5-GPIO15-PadJ3_15)*%
X163290500Y-82450000D03*
%TO.P,U5,J3_16,GPIO13_J3_16*%
%TO.N,/RS*%
X165830500Y-82450000D03*
%TO.P,U5,J3_17,GPIO12_J3_17*%
%TO.N,unconnected-(U5-GPIO12-PadJ3_17)*%
X168370500Y-82450000D03*
%TD*%
D18*
%TO.P,D5,1,K_1*%
%TO.N,/VS_MOTOR*%
X135280400Y-65024000D03*
D15*
%TO.P,D5,2,A_2*%
%TO.N,/OUT1*%
X127660400Y-65024000D03*
%TD*%
D13*
%TO.P,C1,1*%
%TO.N,Net-(U3-CPOUT)*%
X155321000Y-108585000D03*
%TO.P,C1,2*%
%TO.N,/GND*%
X155321000Y-111085000D03*
%TD*%
D19*
%TO.P,RV1,1,1_1*%
%TO.N,/+5V*%
X165125400Y-61803200D03*
%TO.P,RV1,2,2_2*%
%TO.N,Net-(J1-Pin_3)*%
X167665400Y-61803200D03*
%TO.P,RV1,3,3_3*%
%TO.N,/GND*%
X170205400Y-61803200D03*
%TD*%
D13*
%TO.P,C6,1*%
%TO.N,/GND*%
X143174400Y-115722400D03*
%TO.P,C6,2*%
%TO.N,Net-(U6-FILTER)*%
X145674400Y-115722400D03*
%TD*%
D20*
%TO.P,U6,1,IP+_1*%
%TO.N,/+12V*%
X139104600Y-108635800D03*
%TO.P,U6,2,IP+_2*%
X139104600Y-109905800D03*
%TO.P,U6,3,IP-_3*%
%TO.N,/VS_MOTOR*%
X139104600Y-111175800D03*
%TO.P,U6,4,IP-_4*%
X139104600Y-112445800D03*
%TO.P,U6,5,GND_5*%
%TO.N,/GND*%
X144054600Y-112445800D03*
%TO.P,U6,6,FILTER_6*%
%TO.N,Net-(U6-FILTER)*%
X144054600Y-111175800D03*
%TO.P,U6,7,VIOUT_7*%
%TO.N,/ACSOUT*%
X144054600Y-109905800D03*
%TO.P,U6,8,VCC_8*%
%TO.N,/+5V*%
X144054600Y-108635800D03*
%TD*%
D14*
%TO.P,D6,1,K_1*%
%TO.N,/VS_MOTOR*%
X138277600Y-64795400D03*
D15*
%TO.P,D6,2,A_2*%
%TO.N,/OUT2*%
X145897600Y-64795400D03*
%TD*%
D10*
%TO.P,R3,1*%
%TO.N,Net-(J1-Pin_15)*%
X171170600Y-70815200D03*
%TO.P,R3,2*%
%TO.N,/+5V*%
X171170600Y-65735200D03*
%TD*%
D13*
%TO.P,C4,1*%
%TO.N,/+3V3*%
X149682200Y-115747800D03*
%TO.P,C4,2*%
%TO.N,/GND*%
X152182200Y-115747800D03*
%TD*%
D21*
%TO.P,J3,1,Pin_1_1*%
%TO.N,/OUT1*%
X149504400Y-75712400D03*
D22*
%TO.P,J3,2,Pin_2_2*%
%TO.N,/OUT2*%
X149504400Y-78252400D03*
%TD*%
D14*
%TO.P,D9,1,K_1*%
%TO.N,/VS_MOTOR*%
X153085800Y-63474600D03*
D15*
%TO.P,D9,2,A_2*%
%TO.N,/OUT3*%
X160705800Y-63474600D03*
%TD*%
D21*
%TO.P,J4,1,Pin_1_1*%
%TO.N,/OUT3*%
X124028200Y-74701400D03*
D22*
%TO.P,J4,2,Pin_2_2*%
%TO.N,/OUT4*%
X124028200Y-77241400D03*
%TD*%
D23*
%TO.P,J1,1,Pin_1_1*%
%TO.N,/GND*%
X168529000Y-77089000D03*
%TO.P,J1,2,Pin_2_2*%
%TO.N,/+5V*%
X164719000Y-77089000D03*
%TO.P,J1,3,Pin_3_3*%
%TO.N,Net-(J1-Pin_3)*%
X168529000Y-75819000D03*
%TO.P,J1,4,Pin_4_4*%
%TO.N,/RS*%
X164719000Y-75819000D03*
%TO.P,J1,5,Pin_5_5*%
%TO.N,/GND*%
X168529000Y-74549000D03*
%TO.P,J1,6,Pin_6_6*%
%TO.N,/EN*%
X164719000Y-74549000D03*
%TO.P,J1,7,Pin_7_7*%
%TO.N,unconnected-(J1-Pin_7-Pad7)*%
X168529000Y-73279000D03*
%TO.P,J1,8,Pin_8_8*%
%TO.N,unconnected-(J1-Pin_8-Pad8)*%
X164719000Y-73279000D03*
%TO.P,J1,9,Pin_9_9*%
%TO.N,unconnected-(J1-Pin_9-Pad9)*%
X168529000Y-72009000D03*
%TO.P,J1,10,Pin_10_10*%
%TO.N,unconnected-(J1-Pin_10-Pad10)*%
X164719000Y-72009000D03*
%TO.P,J1,11,Pin_11_11*%
%TO.N,/D4*%
X168529000Y-70739000D03*
%TO.P,J1,12,Pin_12_12*%
%TO.N,/D5*%
X164719000Y-70739000D03*
%TO.P,J1,13,Pin_13_13*%
%TO.N,/D6*%
X168529000Y-69469000D03*
%TO.P,J1,14,Pin_14_14*%
%TO.N,/D7*%
X164719000Y-69469000D03*
%TO.P,J1,15,Pin_15_15*%
%TO.N,Net-(J1-Pin_15)*%
X168529000Y-68199000D03*
%TO.P,J1,16,Pin_16_16*%
%TO.N,/GND*%
X164719000Y-68199000D03*
%TD*%
D13*
%TO.P,C8,1*%
%TO.N,/GND*%
X149225000Y-71227000D03*
%TO.P,C8,2*%
%TO.N,/+5V*%
X149225000Y-68727000D03*
%TD*%
D24*
%TO.P,U1,1,+V_{S}_1*%
%TO.N,/+3V3*%
X129184400Y-111236800D03*
D25*
%TO.P,U1,2,GND_2*%
%TO.N,/GND*%
X131724400Y-111236800D03*
%TO.P,U1,3,V_{OUT}_3*%
%TO.N,/LMOUT*%
X134264400Y-111236800D03*
%TD*%
D10*
%TO.P,R1,1*%
%TO.N,/+3V3*%
X151384000Y-113284000D03*
%TO.P,R1,2*%
%TO.N,/SDA*%
X151384000Y-108204000D03*
%TD*%
D21*
%TO.P,J2,1,+12V_1*%
%TO.N,/+12V*%
X135732600Y-115316000D03*
D22*
%TO.P,J2,2,GND_2*%
%TO.N,/GND*%
X138272600Y-115316000D03*
%TD*%
D13*
%TO.P,C5,1*%
%TO.N,/+3V3*%
X128188400Y-115366800D03*
%TO.P,C5,2*%
%TO.N,/GND*%
X130688400Y-115366800D03*
%TD*%
D26*
%TO.P,U3,1,CLKIN_1*%
%TO.N,unconnected-(U3-CLKIN-Pad1)*%
X158552600Y-109163800D03*
%TO.P,U3,2,NC_2*%
%TO.N,unconnected-(U3-NC-Pad2)*%
X158552600Y-109663800D03*
%TO.P,U3,3,NC_3*%
%TO.N,unconnected-(U3-NC-Pad3)*%
X158552600Y-110163800D03*
%TO.P,U3,4,NC_4*%
%TO.N,unconnected-(U3-NC-Pad4)*%
X158552600Y-110663800D03*
%TO.P,U3,5,NC_5*%
%TO.N,unconnected-(U3-NC-Pad5)*%
X158552600Y-111163800D03*
%TO.P,U3,6,AUX_DA_6*%
%TO.N,unconnected-(U3-AUX_DA-Pad6)*%
X158552600Y-111663800D03*
D27*
%TO.P,U3,7,AUX_CL_7*%
%TO.N,unconnected-(U3-AUX_CL-Pad7)*%
X159252600Y-112363800D03*
%TO.P,U3,8,VLOGIC_8*%
%TO.N,/+3V3*%
X159752600Y-112363800D03*
%TO.P,U3,9,AD0_9*%
%TO.N,/GND*%
X160252600Y-112363800D03*
%TO.P,U3,10,REGOUT_10*%
%TO.N,Net-(U3-REGOUT)*%
X160752600Y-112363800D03*
%TO.P,U3,11,FSYNC_11*%
%TO.N,unconnected-(U3-FSYNC-Pad11)*%
X161252600Y-112363800D03*
%TO.P,U3,12,INT_12*%
%TO.N,unconnected-(U3-INT-Pad12)*%
X161752600Y-112363800D03*
D26*
%TO.P,U3,13,VDD_13*%
%TO.N,/+3V3*%
X162452600Y-111663800D03*
%TO.P,U3,14,NC_14*%
%TO.N,unconnected-(U3-NC-Pad14)*%
X162452600Y-111163800D03*
%TO.P,U3,15,NC_15*%
%TO.N,unconnected-(U3-NC-Pad15)*%
X162452600Y-110663800D03*
%TO.P,U3,16,NC_16*%
%TO.N,unconnected-(U3-NC-Pad16)*%
X162452600Y-110163800D03*
%TO.P,U3,17,NC_17*%
%TO.N,unconnected-(U3-NC-Pad17)*%
X162452600Y-109663800D03*
%TO.P,U3,18,GND_18*%
%TO.N,/GND*%
X162452600Y-109163800D03*
D27*
%TO.P,U3,19,RESV_19*%
%TO.N,unconnected-(U3-RESV-Pad19)*%
X161752600Y-108463800D03*
%TO.P,U3,20,CPOUT_20*%
%TO.N,Net-(U3-CPOUT)*%
X161252600Y-108463800D03*
%TO.P,U3,21,RESV_21*%
%TO.N,unconnected-(U3-RESV-Pad21)*%
X160752600Y-108463800D03*
%TO.P,U3,22,RESV_22*%
%TO.N,unconnected-(U3-RESV-Pad22)*%
X160252600Y-108463800D03*
%TO.P,U3,23,SCL_23*%
%TO.N,/SCL*%
X159752600Y-108463800D03*
%TO.P,U3,24,SDA_24*%
%TO.N,/SDA*%
X159252600Y-108463800D03*
%TD*%
D14*
%TO.P,D8,1,K_1*%
%TO.N,/OUT2*%
X138226800Y-60706000D03*
D15*
%TO.P,D8,2,A_2*%
%TO.N,/GND*%
X145846800Y-60706000D03*
%TD*%
D14*
%TO.P,D11,1,K_1*%
%TO.N,/OUT3*%
X153060400Y-72872600D03*
D15*
%TO.P,D11,2,A_2*%
%TO.N,/GND*%
X160680400Y-72872600D03*
%TD*%
D14*
%TO.P,D10,1,K_1*%
%TO.N,/VS_MOTOR*%
X153009600Y-68275200D03*
D15*
%TO.P,D10,2,A_2*%
%TO.N,/OUT4*%
X160629600Y-68275200D03*
%TD*%
D13*
%TO.P,C10,1*%
%TO.N,/+5V*%
X171323000Y-79685200D03*
%TO.P,C10,2*%
%TO.N,/GND*%
X171323000Y-77185200D03*
%TD*%
D28*
%TO.P,D7,1,K_1*%
%TO.N,/OUT1*%
X124002800Y-70104000D03*
D15*
%TO.P,D7,2,A_2*%
%TO.N,/GND*%
X124002800Y-62484000D03*
%TD*%
D13*
%TO.P,C2,1*%
%TO.N,Net-(U3-REGOUT)*%
X155671200Y-115366800D03*
%TO.P,C2,2*%
%TO.N,/GND*%
X158171200Y-115366800D03*
%TD*%
%TO.P,C9,1*%
%TO.N,/VS_MOTOR*%
X149148800Y-65105600D03*
%TO.P,C9,2*%
%TO.N,/GND*%
X149148800Y-62605600D03*
%TD*%
%TO.P,C3,1*%
%TO.N,/+3V3*%
X163606800Y-115671600D03*
%TO.P,C3,2*%
%TO.N,/GND*%
X161106800Y-115671600D03*
%TD*%
D29*
%TO.N,/SCL*%
X163372800Y-99542600D03*
%TO.N,/+3V3*%
X147370800Y-113461800D03*
X129971800Y-113461800D03*
%TO.N,/GND*%
X164582400Y-111048800D03*
X162560000Y-114198400D03*
X154300000Y-113900000D03*
%TO.N,/OUT1*%
X125399800Y-72186800D03*
X126771400Y-67716400D03*
%TO.N,/VS_MOTOR*%
X142951200Y-77571600D03*
X141528800Y-109804200D03*
%TO.N,/IN1*%
X147345400Y-71323200D03*
%TO.N,/ENA*%
X141908500Y-92913200D03*
X140233400Y-77089000D03*
%TO.N,/IN2*%
X142951200Y-80518000D03*
X140840327Y-72786800D03*
%TO.N,/+5V*%
X156718000Y-65582800D03*
X163100000Y-70200000D03*
X165368500Y-78500000D03*
%TO.N,/IN3*%
X134950200Y-78028800D03*
X139954000Y-80162400D03*
%TO.N,/D7*%
X166166800Y-69367400D03*
X169291000Y-93014800D03*
%TO.N,/D6*%
X166014400Y-75844400D03*
%TO.N,/D5*%
X166103300Y-71767700D03*
%TO.N,/D4*%
X166471600Y-76657200D03*
X159994600Y-102031800D03*
%TO.N,/SDA*%
X146253200Y-101930200D03*
%TO.N,Net-(U3-CPOUT)*%
X163982400Y-108737400D03*
X156794200Y-109474000D03*
%TO.N,Net-(J1-Pin_15)*%
X168249600Y-64820800D03*
%TD*%
%TO.N,/SCL*%
D30*
X161356081Y-106772000D02*
X161378281Y-106749800D01*
X164255400Y-106749800D02*
X165862000Y-108356400D01*
X154983100Y-99542600D02*
X163372800Y-99542600D01*
X160334400Y-106772000D02*
X161356081Y-106772000D01*
X163918281Y-106749800D02*
X164255400Y-106749800D01*
X137890500Y-82450000D02*
X154983100Y-99542600D01*
X159752600Y-108463800D02*
X159752600Y-107353800D01*
X162684920Y-106772000D02*
X163896081Y-106772000D01*
X159752600Y-107353800D02*
X160334400Y-106772000D01*
X161378281Y-106749800D02*
X162662719Y-106749800D01*
X163896081Y-106772000D02*
X163918281Y-106749800D01*
X162662719Y-106749800D02*
X162684920Y-106772000D01*
%TO.N,/+3V3*%
X129184400Y-111236800D02*
X129184400Y-112674400D01*
X151384000Y-114046000D02*
X151384000Y-113284000D01*
X147396200Y-113461800D02*
X149682200Y-115747800D01*
X151384000Y-113284000D02*
X153543000Y-113284000D01*
X159702600Y-112871210D02*
X159752600Y-112821210D01*
X162452600Y-112641035D02*
X158626835Y-116466800D01*
X129184400Y-112674400D02*
X129971800Y-113461800D01*
X155215565Y-116466800D02*
X153543000Y-114794235D01*
X162452600Y-111663800D02*
X162452600Y-112641035D01*
X129184400Y-106396100D02*
X130270500Y-105310000D01*
X159752600Y-112821210D02*
X159752600Y-112363800D01*
X128188400Y-112232800D02*
X129184400Y-111236800D01*
X163606800Y-114054800D02*
X163606800Y-115671600D01*
X159020190Y-113088800D02*
X159485010Y-113088800D01*
X164225200Y-113436400D02*
X163606800Y-114054800D01*
X159485010Y-113088800D02*
X159543810Y-113030000D01*
X165862000Y-113436400D02*
X164225200Y-113436400D01*
X158626835Y-116466800D02*
X155215565Y-116466800D01*
X153543000Y-113284000D02*
X157810200Y-113284000D01*
X147370800Y-113461800D02*
X147396200Y-113461800D01*
X158961390Y-113030000D02*
X159020190Y-113088800D01*
X158064200Y-113030000D02*
X158961390Y-113030000D01*
X157810200Y-113284000D02*
X158064200Y-113030000D01*
X128188400Y-115366800D02*
X128188400Y-112232800D01*
X153543000Y-114794235D02*
X153543000Y-113284000D01*
X159543810Y-113030000D02*
X159702600Y-112871210D01*
X149682200Y-115747800D02*
X151384000Y-114046000D01*
X129184400Y-111236800D02*
X129184400Y-106396100D01*
X164225200Y-113436400D02*
X162452600Y-111663800D01*
%TO.N,/GND*%
X168625200Y-77185200D02*
X168529000Y-77089000D01*
X154516000Y-113684000D02*
X154300000Y-113900000D01*
X159721600Y-113684000D02*
X154516000Y-113684000D01*
X130688400Y-115366800D02*
X130688400Y-112272800D01*
X166145400Y-66772600D02*
X166145400Y-61880702D01*
X168529000Y-74549000D02*
X168184000Y-74549000D01*
X132121600Y-116800000D02*
X136788600Y-116800000D01*
X168184000Y-77089000D02*
X168529000Y-77089000D01*
X167242902Y-60783200D02*
X169185400Y-60783200D01*
X164582400Y-110836190D02*
X162910010Y-109163800D01*
X164582400Y-111048800D02*
X164582400Y-110836190D01*
X142779600Y-112145799D02*
X142779600Y-110835248D01*
X130688400Y-112272800D02*
X131724400Y-111236800D01*
X171323000Y-77185200D02*
X168625200Y-77185200D01*
X143039048Y-110575800D02*
X146130400Y-110575800D01*
X144054600Y-112445800D02*
X143079601Y-112445800D01*
X160252600Y-112363800D02*
X160252600Y-113153000D01*
X146130400Y-110575800D02*
X147345400Y-111790800D01*
X167554000Y-75179000D02*
X167554000Y-76459000D01*
X164719000Y-68199000D02*
X166145400Y-66772600D01*
X169185400Y-60783200D02*
X170205400Y-61803200D01*
X167554000Y-76459000D02*
X168184000Y-77089000D01*
X162910010Y-109163800D02*
X162452600Y-109163800D01*
X142779600Y-110835248D02*
X143039048Y-110575800D01*
X168184000Y-74549000D02*
X167554000Y-75179000D01*
X130688400Y-115366800D02*
X132121600Y-116800000D01*
X143079601Y-112445800D02*
X142779600Y-112145799D01*
X162560000Y-114218400D02*
X162560000Y-114198400D01*
X136788600Y-116800000D02*
X138272600Y-115316000D01*
X166145400Y-61880702D02*
X167242902Y-60783200D01*
X161106800Y-115671600D02*
X162560000Y-114218400D01*
X160252600Y-113153000D02*
X159721600Y-113684000D01*
%TO.N,/OUT1*%
X149504400Y-75712400D02*
X145457400Y-75712400D01*
X124002800Y-70916800D02*
X125272800Y-72186800D01*
X145457400Y-75712400D02*
X144348200Y-74603200D01*
X124002800Y-70104000D02*
X124002800Y-70916800D01*
X125272800Y-72186800D02*
X125399800Y-72186800D01*
X127660400Y-66827400D02*
X126771400Y-67716400D01*
X127660400Y-65024000D02*
X127660400Y-66827400D01*
%TO.N,/OUT2*%
X143078200Y-75030257D02*
X143078200Y-69523200D01*
X150622000Y-68568365D02*
X150622000Y-71805800D01*
X145897600Y-64795400D02*
X146849035Y-64795400D01*
X149504400Y-78252400D02*
X146300343Y-78252400D01*
X149479000Y-72948800D02*
X146503800Y-72948800D01*
X146503800Y-72948800D02*
X143078200Y-69523200D01*
X146300343Y-78252400D02*
X143078200Y-75030257D01*
X146849035Y-64795400D02*
X150622000Y-68568365D01*
X150622000Y-71805800D02*
X149479000Y-72948800D01*
%TO.N,/VS_MOTOR*%
X140385800Y-62687200D02*
X146730400Y-62687200D01*
X141808200Y-74603200D02*
X141808200Y-76428600D01*
X141808200Y-76428600D02*
X142951200Y-77571600D01*
X138172600Y-70967600D02*
X135205543Y-70967600D01*
X153085800Y-63474600D02*
X150779800Y-63474600D01*
X141808200Y-74603200D02*
X138172600Y-70967600D01*
X138277600Y-64795400D02*
X140385800Y-62687200D01*
X140157200Y-111175800D02*
X139104600Y-111175800D01*
X134258200Y-66046200D02*
X135280400Y-65024000D01*
X141528800Y-109804200D02*
X140157200Y-111175800D01*
X138049000Y-65024000D02*
X138277600Y-64795400D01*
X150779800Y-63474600D02*
X149148800Y-65105600D01*
X146730400Y-62687200D02*
X149148800Y-65105600D01*
X134258200Y-70020257D02*
X134258200Y-66046200D01*
X152318400Y-68275200D02*
X149148800Y-65105600D01*
X135205543Y-70967600D02*
X134258200Y-70020257D01*
X153009600Y-68275200D02*
X152318400Y-68275200D01*
X135280400Y-65024000D02*
X138049000Y-65024000D01*
X139104600Y-111175800D02*
X139104600Y-112445800D01*
%TO.N,/IN1*%
X141738200Y-68323200D02*
X146818200Y-68323200D01*
X147345400Y-68850400D02*
X147345400Y-71323200D01*
X146818200Y-68323200D02*
X147345400Y-68850400D01*
X140538200Y-69523200D02*
X141738200Y-68323200D01*
%TO.N,/ENA*%
X141908500Y-92913200D02*
X141908500Y-94088000D01*
X139268200Y-74603200D02*
X139268200Y-76123800D01*
X141908500Y-94088000D02*
X153130500Y-105310000D01*
X139268200Y-76123800D02*
X140233400Y-77089000D01*
%TO.N,/IN2*%
X142970500Y-82450000D02*
X142970500Y-80537300D01*
X140840327Y-72365327D02*
X137998200Y-69523200D01*
X142970500Y-80537300D02*
X142951200Y-80518000D01*
X140840327Y-72786800D02*
X140840327Y-72365327D01*
%TO.N,/+5V*%
X153592595Y-106349800D02*
X155208405Y-106349800D01*
X161212595Y-106349800D02*
X162828405Y-106349800D01*
X170523001Y-96532599D02*
X165709600Y-101346000D01*
X165375101Y-78418899D02*
X166000000Y-77794000D01*
X165709600Y-101346000D02*
X165830500Y-101466900D01*
X165830500Y-101466900D02*
X165830500Y-105310000D01*
X165125400Y-61803200D02*
X166756000Y-60172600D01*
X160288405Y-106349800D02*
X160310605Y-106372000D01*
X165368500Y-78500000D02*
X165375101Y-78493399D01*
X156132595Y-106349800D02*
X157748405Y-106349800D01*
X150264200Y-106372000D02*
X151030395Y-106372000D01*
X163752595Y-106349800D02*
X164790700Y-106349800D01*
X152668405Y-106349800D02*
X152690605Y-106372000D01*
X151052595Y-106349800D02*
X152668405Y-106349800D01*
X157770605Y-106372000D02*
X158650395Y-106372000D01*
X163100000Y-66500000D02*
X162182800Y-65582800D01*
X166756000Y-60172600D02*
X170129200Y-60172600D01*
X160310605Y-106372000D02*
X161190395Y-106372000D01*
X169431800Y-77794000D02*
X166000000Y-77794000D01*
X164790700Y-106349800D02*
X165830500Y-105310000D01*
X158650395Y-106372000D02*
X158672595Y-106349800D01*
X147325400Y-66827400D02*
X138154000Y-66827400D01*
X170129200Y-60172600D02*
X171870600Y-61914000D01*
X163730395Y-106372000D02*
X163752595Y-106349800D01*
X161345800Y-65582800D02*
X156718000Y-65582800D01*
X149225000Y-68727000D02*
X147325400Y-66827400D01*
X152690605Y-106372000D02*
X153570395Y-106372000D01*
X156110395Y-106372000D02*
X156132595Y-106349800D01*
X171870600Y-65035200D02*
X171170600Y-65735200D01*
X161190395Y-106372000D02*
X161212595Y-106349800D01*
X171323000Y-79685200D02*
X169431800Y-77794000D01*
X151030395Y-106372000D02*
X151052595Y-106349800D01*
X170523001Y-80485199D02*
X170523001Y-96532599D01*
X165424000Y-77794000D02*
X164719000Y-77089000D01*
X165375101Y-78493399D02*
X165375101Y-78418899D01*
X171870600Y-61914000D02*
X171870600Y-65035200D01*
X165125400Y-61803200D02*
X161345800Y-65582800D01*
X171323000Y-79685200D02*
X170523001Y-80485199D01*
X166000000Y-77794000D02*
X165424000Y-77794000D01*
X162182800Y-65582800D02*
X161345800Y-65582800D01*
X155208405Y-106349800D02*
X155230605Y-106372000D01*
X158672595Y-106349800D02*
X160288405Y-106349800D01*
X162828405Y-106349800D02*
X162850605Y-106372000D01*
X163100000Y-70200000D02*
X163100000Y-66500000D01*
X155230605Y-106372000D02*
X156110395Y-106372000D01*
X162850605Y-106372000D02*
X163730395Y-106372000D01*
X144054600Y-108635800D02*
X146690400Y-108635800D01*
X153570395Y-106372000D02*
X153592595Y-106349800D01*
X146690400Y-108635800D02*
X147345400Y-109290800D01*
X147345400Y-109290800D02*
X150264200Y-106372000D01*
X157748405Y-106349800D02*
X157770605Y-106372000D01*
X138154000Y-66827400D02*
X135458200Y-69523200D01*
%TO.N,/IN3*%
X139954000Y-80162400D02*
X140430500Y-80638900D01*
X140430500Y-80638900D02*
X140430500Y-82450000D01*
X134188200Y-74603200D02*
X134188200Y-77266800D01*
X134188200Y-77266800D02*
X134950200Y-78028800D01*
%TO.N,/ENB*%
X135528200Y-77413000D02*
X136855200Y-78740000D01*
X159688500Y-81388000D02*
X160750500Y-82450000D01*
X132918200Y-69523200D02*
X135528200Y-72133200D01*
X144932400Y-78740000D02*
X147580400Y-81388000D01*
X135528200Y-72133200D02*
X135528200Y-77413000D01*
X147580400Y-81388000D02*
X159688500Y-81388000D01*
X136855200Y-78740000D02*
X144932400Y-78740000D01*
%TO.N,/IN4*%
X131648200Y-75844400D02*
X135051800Y-79248000D01*
X135051800Y-79248000D02*
X144848500Y-79248000D01*
X131648200Y-74603200D02*
X131648200Y-75844400D01*
X144848500Y-79248000D02*
X148050500Y-82450000D01*
%TO.N,/OUT3*%
X125200000Y-74701400D02*
X130378200Y-69523200D01*
X124028200Y-74701400D02*
X125200000Y-74701400D01*
%TO.N,/OUT4*%
X124028200Y-77241400D02*
X126666400Y-74603200D01*
X126666400Y-74603200D02*
X129108200Y-74603200D01*
%TO.N,/LMOUT*%
X143429300Y-107391200D02*
X138110000Y-107391200D01*
X138110000Y-107391200D02*
X134264400Y-111236800D01*
X145510500Y-105310000D02*
X143429300Y-107391200D01*
%TO.N,/ACSOUT*%
X143079601Y-109905800D02*
X144054600Y-109905800D01*
X142789200Y-108035800D02*
X142443200Y-108381800D01*
X145324700Y-108035800D02*
X142789200Y-108035800D01*
X142443200Y-108381800D02*
X142443200Y-109269399D01*
X142443200Y-109269399D02*
X143079601Y-109905800D01*
X148050500Y-105310000D02*
X145324700Y-108035800D01*
%TO.N,/D7*%
X165557200Y-100533200D02*
X169291000Y-96799400D01*
X160447300Y-100533200D02*
X165557200Y-100533200D01*
X155670500Y-105310000D02*
X160447300Y-100533200D01*
X166065200Y-69469000D02*
X166166800Y-69367400D01*
X169291000Y-96799400D02*
X169291000Y-93014800D01*
X164719000Y-69469000D02*
X166065200Y-69469000D01*
%TO.N,/D6*%
X166703300Y-75155500D02*
X166014400Y-75844400D01*
X168194000Y-69469000D02*
X166703300Y-70959700D01*
X168529000Y-69469000D02*
X168194000Y-69469000D01*
X166703300Y-70959700D02*
X166703300Y-75155500D01*
%TO.N,/D5*%
X164719000Y-70739000D02*
X165074600Y-70739000D01*
X165074600Y-70739000D02*
X166103300Y-71767700D01*
%TO.N,/D4*%
X168194000Y-70739000D02*
X167103300Y-71829700D01*
X159994600Y-102031800D02*
X160528000Y-102565200D01*
X167103300Y-71829700D02*
X167103300Y-76025500D01*
X160545700Y-102565200D02*
X163290500Y-105310000D01*
X168529000Y-70739000D02*
X168194000Y-70739000D01*
X167103300Y-76025500D02*
X166471600Y-76657200D01*
X160528000Y-102565200D02*
X160545700Y-102565200D01*
%TO.N,/SDA*%
X151384000Y-108204000D02*
X152588000Y-107000000D01*
X135350500Y-91108105D02*
X135350500Y-82450000D01*
X146253200Y-101930200D02*
X146172595Y-101930200D01*
X157788800Y-107000000D02*
X159252600Y-108463800D01*
X152588000Y-107000000D02*
X157788800Y-107000000D01*
X146172595Y-101930200D02*
X135350500Y-91108105D01*
%TO.N,/EN*%
X162207400Y-76715600D02*
X162207400Y-82494995D01*
X164374000Y-74549000D02*
X162207400Y-76715600D01*
X164719000Y-74549000D02*
X164374000Y-74549000D01*
X147058300Y-83997800D02*
X145510500Y-82450000D01*
X160704595Y-83997800D02*
X147058300Y-83997800D01*
X162207400Y-82494995D02*
X160704595Y-83997800D01*
%TO.N,/RS*%
X164374000Y-75819000D02*
X163730395Y-76462605D01*
X163730395Y-76462605D02*
X163730395Y-80349895D01*
X163730395Y-80349895D02*
X165830500Y-82450000D01*
X164719000Y-75819000D02*
X164374000Y-75819000D01*
%TO.N,Net-(U3-CPOUT)*%
X156794200Y-109474000D02*
X156794200Y-109321600D01*
X161252600Y-108006390D02*
X161252600Y-108463800D01*
X162983800Y-107738800D02*
X161520190Y-107738800D01*
X156057600Y-108585000D02*
X155321000Y-108585000D01*
X156794200Y-109321600D02*
X156057600Y-108585000D01*
X163982400Y-108737400D02*
X162983800Y-107738800D01*
X161520190Y-107738800D02*
X161252600Y-108006390D01*
%TO.N,Net-(J1-Pin_3)*%
X167665400Y-61803200D02*
X169900600Y-64038400D01*
X168864000Y-75819000D02*
X168529000Y-75819000D01*
X169900600Y-74782400D02*
X168864000Y-75819000D01*
X169900600Y-64038400D02*
X169900600Y-74782400D01*
%TO.N,Net-(U6-FILTER)*%
X144054600Y-111175800D02*
X145029599Y-111175800D01*
X145674400Y-111820601D02*
X145674400Y-115722400D01*
X145029599Y-111175800D02*
X145674400Y-111820601D01*
%TO.N,/+12V*%
X139104600Y-108635800D02*
X139104600Y-109905800D01*
X135732600Y-115316000D02*
X135732600Y-112302801D01*
X135732600Y-112302801D02*
X138129601Y-109905800D01*
X138129601Y-109905800D02*
X139104600Y-109905800D01*
%TO.N,Net-(J1-Pin_15)*%
X166549000Y-66864280D02*
X166549000Y-65973720D01*
X167701920Y-64820800D02*
X168249600Y-64820800D01*
X167883720Y-68199000D02*
X166549000Y-66864280D01*
X166549000Y-65973720D02*
X167701920Y-64820800D01*
X168529000Y-68199000D02*
X167883720Y-68199000D01*
%TO.N,Net-(U3-REGOUT)*%
X160147000Y-114274600D02*
X160752600Y-113669000D01*
X155671200Y-115366800D02*
X156763400Y-114274600D01*
X156763400Y-114274600D02*
X157707765Y-114274600D01*
X158626835Y-114266800D02*
X158634635Y-114274600D01*
X157707765Y-114274600D02*
X157715565Y-114266800D01*
X158634635Y-114274600D02*
X160147000Y-114274600D01*
X157715565Y-114266800D02*
X158626835Y-114266800D01*
X160752600Y-113669000D02*
X160752600Y-112363800D01*
%TD*%
M02*
