M48
; DRILL file KiCad 10.0.3 date 2026-10-03T20:08:23
; FORMAT={-:-/ absolute / metric / decimal}
; #@! TF.CreationDate,2026-10-03T20:08:23+05:30
; #@! TF.GenerationSoftware,Kicad,Pcbnew,10.0.3
; #@! TF.FileFunction,Plated,1,4,PTH
FMAT,2
METRIC
; #@! TA.AperFunction,Plated,PTH,ViaDrill
T1C0.300
; #@! TA.AperFunction,Plated,PTH,ComponentDrill
T2C0.700
; #@! TA.AperFunction,Plated,PTH,ComponentDrill
T3C0.800
; #@! TA.AperFunction,Plated,PTH,ComponentDrill
T4C1.000
; #@! TA.AperFunction,Plated,PTH,ComponentDrill
T5C1.016
; #@! TA.AperFunction,Plated,PTH,ComponentDrill
T6C1.100
%
G90
G05
T1
X125.4Y-72.187
X126.771Y-67.716
X129.972Y-113.462
X134.95Y-78.029
X139.954Y-80.162
X140.233Y-77.089
X140.84Y-72.787
X141.529Y-109.804
X141.909Y-92.913
X142.951Y-77.572
X142.951Y-80.518
X146.253Y-101.93
X147.345Y-71.323
X147.371Y-113.462
X154.3Y-113.9
X156.718Y-65.583
X156.794Y-109.474
X159.995Y-102.032
X162.56Y-114.198
X163.1Y-70.2
X163.373Y-99.543
X163.982Y-108.737
X164.582Y-111.049
X165.368Y-78.5
X166.014Y-75.844
X166.103Y-71.768
X166.167Y-69.367
X166.472Y-76.657
X168.25Y-64.821
X169.291Y-93.015
T2
X151.384Y-108.204
X151.384Y-113.284
X165.862Y-108.356
X165.862Y-113.436
X171.171Y-65.735
X171.171Y-70.815
T3
X128.188Y-115.367
X130.688Y-115.367
X143.174Y-115.722
X145.674Y-115.722
X147.345Y-109.291
X147.345Y-111.791
X149.149Y-62.606
X149.149Y-65.106
X149.225Y-68.727
X149.225Y-71.227
X149.682Y-115.748
X152.182Y-115.748
X155.321Y-108.585
X155.321Y-111.085
X155.671Y-115.367
X158.171Y-115.367
X161.107Y-115.672
X163.607Y-115.672
X165.125Y-61.803
X167.665Y-61.803
X170.205Y-61.803
X171.323Y-77.185
X171.323Y-79.685
T4
X124.028Y-74.701
X124.028Y-77.241
X127.838Y-69.523
X129.108Y-74.603
X130.378Y-69.523
X131.648Y-74.603
X132.918Y-69.523
X134.188Y-74.603
X135.458Y-69.523
X135.733Y-115.316
X136.728Y-74.603
X137.998Y-69.523
X138.273Y-115.316
X139.268Y-74.603
X140.538Y-69.523
X141.808Y-74.603
X143.078Y-69.523
X144.348Y-74.603
X145.618Y-69.523
X149.504Y-75.712
X149.504Y-78.252
T5
X127.73Y-82.45
X127.73Y-105.31
X130.27Y-82.45
X130.27Y-105.31
X132.81Y-82.45
X132.81Y-105.31
X135.35Y-82.45
X135.35Y-105.31
X137.891Y-82.45
X137.891Y-105.31
X140.43Y-82.45
X140.43Y-105.31
X142.97Y-82.45
X142.97Y-105.31
X145.511Y-82.45
X145.511Y-105.31
X148.05Y-82.45
X148.05Y-105.31
X150.59Y-82.45
X150.59Y-105.31
X153.13Y-82.45
X153.13Y-105.31
X155.671Y-82.45
X155.671Y-105.31
X158.21Y-82.45
X158.21Y-105.31
X160.75Y-82.45
X160.75Y-105.31
X163.29Y-82.45
X163.29Y-105.31
X165.831Y-82.45
X165.831Y-105.31
X168.37Y-82.45
X168.37Y-105.31
T6
X124.003Y-62.484
X124.003Y-70.104
X127.66Y-65.024
X129.184Y-111.237
X131.724Y-111.237
X134.264Y-111.237
X135.28Y-65.024
X138.227Y-60.706
X138.278Y-64.795
X145.847Y-60.706
X145.898Y-64.795
X153.01Y-68.275
X153.06Y-72.873
X153.086Y-63.475
X153.187Y-78.156
X160.63Y-68.275
X160.68Y-72.873
X160.706Y-63.475
X160.807Y-78.156
M30
